<svg width="281" height="59" viewBox="0 0 281 59" fill="none" xmlns="http://www.w3.org/2000/svg">
<path d="M61.795 0.825001H67.495V26.695H83.545V31.515H61.795V0.825001Z" fill="#244C60"/>
<path d="M111.095 26.745V31.525H88.075V0.825001H110.485V5.605H93.7749V13.585H108.595V18.275H93.7749V26.735H111.095V26.745Z" fill="#244C60"/>
<path d="M138.285 15.825H143.675V28.065C142.095 29.325 140.255 30.285 138.145 30.955C136.035 31.625 133.875 31.965 131.655 31.965C128.525 31.965 125.705 31.285 123.195 29.925C120.685 28.565 118.705 26.685 117.275 24.285C115.845 21.885 115.125 19.185 115.125 16.175C115.125 13.165 115.835 10.455 117.275 8.065C118.715 5.675 120.685 3.785 123.215 2.425C125.745 1.065 128.585 0.385002 131.745 0.385002C134.315 0.385002 136.655 0.805002 138.765 1.655C140.875 2.505 142.635 3.745 144.075 5.385L140.475 8.895C138.135 6.555 135.315 5.385 132.015 5.385C129.855 5.385 127.925 5.835 126.245 6.745C124.565 7.655 123.245 8.925 122.295 10.565C121.345 12.205 120.865 14.075 120.865 16.175C120.865 18.275 121.335 20.065 122.295 21.705C123.245 23.345 124.565 24.625 126.245 25.565C127.925 26.505 129.835 26.965 131.965 26.965C134.365 26.965 136.465 26.435 138.285 25.385V15.825Z" fill="#244C60"/>
<path d="M174.205 26.745V31.525H151.185V0.825001H173.595V5.605H156.885V13.585H171.705V18.275H156.885V26.735H174.205V26.745Z" fill="#244C60"/>
<path d="M207.835 0.825001V31.525H203.145L186.215 10.735V31.525H180.555V0.825001H185.245L202.175 21.615V0.825001H207.835Z" fill="#244C60"/>
<path d="M216.085 0.825001H229.505C232.775 0.825001 235.685 1.465 238.235 2.735C240.785 4.005 242.755 5.805 244.155 8.125C245.555 10.445 246.265 13.135 246.265 16.175C246.265 19.215 245.565 21.895 244.155 24.225C242.755 26.545 240.775 28.345 238.235 29.615C235.695 30.885 232.785 31.525 229.505 31.525H216.085V0.825001ZM229.245 26.695C231.495 26.695 233.475 26.265 235.185 25.405C236.895 24.545 238.215 23.315 239.135 21.725C240.055 20.135 240.515 18.285 240.515 16.175C240.515 14.065 240.055 12.225 239.135 10.625C238.215 9.035 236.895 7.805 235.185 6.945C233.475 6.085 231.495 5.655 229.245 5.655H221.785V26.705H229.245V26.695Z" fill="#244C60"/>
<path d="M271.785 24.415H256.435L253.405 31.515H247.525L261.345 0.825001H266.955L280.815 31.525H274.855L271.785 24.425V24.415ZM269.895 19.945L264.105 6.525L258.355 19.945H269.885H269.895Z" fill="#244C60"/>
<path d="M4.685 53.685V0.995003H0.184998V58.435H45.685V53.685H4.685Z" fill="#244C60"/>
<path d="M10.045 0.995003V48.865H45.685V0.995003H10.045ZM28.895 5.675C29.065 5.635 29.235 5.595 29.415 5.565C29.835 5.495 30.245 5.445 30.665 5.375C30.715 5.375 30.775 5.305 30.805 5.255C30.915 5.065 31.015 4.875 31.105 4.675C31.245 4.395 31.375 4.115 31.515 3.835C31.525 3.805 31.545 3.775 31.565 3.745C31.645 3.605 31.745 3.595 31.825 3.735C31.955 3.955 32.075 4.185 32.185 4.415C32.325 4.695 32.465 4.965 32.595 5.245C32.625 5.315 32.675 5.345 32.735 5.355C33.085 5.415 33.425 5.465 33.775 5.525C33.985 5.565 34.205 5.595 34.415 5.635C34.455 5.635 34.495 5.655 34.525 5.665C34.595 5.695 34.605 5.735 34.565 5.795C34.505 5.875 34.445 5.955 34.375 6.025C34.015 6.385 33.655 6.745 33.295 7.105C33.245 7.155 33.235 7.195 33.255 7.255C33.345 7.795 33.435 8.345 33.525 8.885C33.525 8.915 33.525 8.935 33.525 8.965C33.525 8.975 33.525 8.985 33.525 8.995C33.525 9.095 33.465 9.145 33.375 9.105C33.205 9.025 33.025 8.945 32.855 8.865C32.495 8.685 32.135 8.495 31.775 8.305C31.725 8.275 31.685 8.275 31.635 8.305C31.155 8.545 30.685 8.795 30.205 9.035C30.145 9.065 30.085 9.085 30.025 9.115C29.935 9.155 29.865 9.115 29.875 9.005C29.895 8.825 29.915 8.645 29.945 8.465C30.015 8.055 30.085 7.645 30.155 7.245C30.155 7.195 30.155 7.165 30.115 7.125C29.745 6.755 29.385 6.385 29.015 6.015C28.955 5.945 28.895 5.875 28.835 5.805C28.785 5.735 28.795 5.695 28.885 5.675H28.895ZM21.295 5.675C21.465 5.635 21.635 5.595 21.815 5.565C22.235 5.495 22.645 5.445 23.065 5.375C23.115 5.375 23.175 5.305 23.205 5.255C23.315 5.065 23.415 4.875 23.505 4.675C23.645 4.395 23.775 4.115 23.915 3.835C23.925 3.805 23.945 3.775 23.965 3.745C24.045 3.605 24.145 3.595 24.225 3.735C24.355 3.955 24.475 4.185 24.585 4.415C24.725 4.695 24.865 4.965 24.995 5.245C25.025 5.315 25.075 5.345 25.135 5.355C25.485 5.415 25.825 5.465 26.175 5.525C26.385 5.565 26.605 5.595 26.815 5.635C26.855 5.635 26.895 5.655 26.925 5.665C26.995 5.695 27.005 5.735 26.965 5.795C26.905 5.875 26.845 5.955 26.775 6.025C26.415 6.385 26.055 6.745 25.695 7.105C25.645 7.155 25.635 7.195 25.655 7.255C25.745 7.795 25.835 8.345 25.925 8.885C25.925 8.915 25.925 8.935 25.925 8.965C25.925 8.975 25.925 8.985 25.925 8.995C25.925 9.095 25.865 9.145 25.775 9.105C25.605 9.025 25.425 8.945 25.255 8.865C24.895 8.685 24.535 8.495 24.175 8.305C24.125 8.275 24.085 8.275 24.035 8.305C23.555 8.545 23.085 8.795 22.605 9.035C22.545 9.065 22.485 9.085 22.425 9.115C22.335 9.155 22.265 9.115 22.275 9.005C22.295 8.825 22.315 8.645 22.345 8.465C22.415 8.055 22.485 7.645 22.555 7.245C22.555 7.195 22.555 7.165 22.515 7.125C22.145 6.755 21.785 6.385 21.415 6.015C21.355 5.945 21.295 5.875 21.235 5.805C21.185 5.735 21.195 5.695 21.285 5.675H21.295ZM13.665 5.815C13.615 5.745 13.625 5.705 13.715 5.685C13.885 5.645 14.055 5.605 14.235 5.575C14.655 5.505 15.065 5.455 15.485 5.385C15.535 5.385 15.595 5.315 15.625 5.265C15.735 5.075 15.835 4.885 15.925 4.685C16.065 4.405 16.195 4.125 16.335 3.845C16.345 3.815 16.365 3.785 16.385 3.755C16.465 3.615 16.565 3.605 16.645 3.745C16.775 3.965 16.895 4.195 17.005 4.425C17.145 4.705 17.285 4.975 17.415 5.255C17.445 5.325 17.495 5.355 17.555 5.365C17.905 5.425 18.245 5.475 18.595 5.535C18.805 5.575 19.025 5.605 19.235 5.645C19.275 5.645 19.315 5.665 19.345 5.675C19.415 5.705 19.425 5.745 19.385 5.805C19.325 5.885 19.265 5.965 19.195 6.035C18.835 6.395 18.475 6.755 18.115 7.115C18.065 7.165 18.055 7.205 18.075 7.265C18.165 7.805 18.255 8.355 18.345 8.895C18.345 8.925 18.345 8.945 18.345 8.975C18.345 8.985 18.345 8.995 18.345 9.005C18.345 9.105 18.285 9.155 18.195 9.115C18.025 9.035 17.845 8.955 17.675 8.875C17.315 8.695 16.955 8.505 16.595 8.315C16.545 8.285 16.505 8.285 16.455 8.315C15.975 8.555 15.505 8.805 15.025 9.045C14.965 9.075 14.905 9.095 14.845 9.125C14.755 9.165 14.685 9.125 14.695 9.015C14.715 8.835 14.735 8.655 14.765 8.475C14.835 8.065 14.905 7.655 14.975 7.255C14.975 7.205 14.975 7.175 14.935 7.135C14.565 6.765 14.205 6.395 13.835 6.025C13.775 5.955 13.715 5.885 13.655 5.815H13.665ZM41.285 44.815H36.025V29.065H19.705V44.815H14.445V13.635H19.705V25.925H36.025V13.635H41.285V44.815ZM42.155 5.805C42.095 5.885 42.035 5.965 41.965 6.035C41.605 6.395 41.245 6.755 40.885 7.115C40.835 7.165 40.825 7.205 40.845 7.265C40.935 7.805 41.025 8.355 41.115 8.895C41.115 8.925 41.115 8.945 41.115 8.975C41.115 8.985 41.115 8.995 41.115 9.005C41.115 9.105 41.055 9.155 40.965 9.115C40.795 9.035 40.615 8.955 40.445 8.875C40.085 8.695 39.725 8.505 39.365 8.315C39.315 8.285 39.275 8.285 39.225 8.315C38.745 8.555 38.275 8.805 37.795 9.045C37.735 9.075 37.675 9.095 37.615 9.125C37.525 9.165 37.455 9.125 37.465 9.015C37.485 8.835 37.505 8.655 37.535 8.475C37.605 8.065 37.675 7.655 37.745 7.255C37.745 7.205 37.745 7.175 37.705 7.135C37.335 6.765 36.975 6.395 36.605 6.025C36.545 5.955 36.485 5.885 36.425 5.815C36.375 5.745 36.385 5.705 36.475 5.685C36.645 5.645 36.815 5.605 36.995 5.575C37.415 5.505 37.825 5.455 38.245 5.385C38.295 5.385 38.355 5.315 38.385 5.265C38.495 5.075 38.595 4.885 38.685 4.685C38.825 4.405 38.955 4.125 39.095 3.845C39.105 3.815 39.125 3.785 39.145 3.755C39.225 3.615 39.325 3.605 39.405 3.745C39.535 3.965 39.655 4.195 39.765 4.425C39.905 4.705 40.045 4.975 40.175 5.255C40.205 5.325 40.255 5.355 40.315 5.365C40.665 5.425 41.005 5.475 41.355 5.535C41.565 5.575 41.785 5.605 41.995 5.645C42.035 5.645 42.075 5.665 42.105 5.675C42.175 5.705 42.185 5.745 42.145 5.805H42.155Z" fill="#244C60"/>
<path d="M72.895 45.955V58.445H70.575V53.095H64.115V58.445H61.795V45.955H64.115V51.105H70.575V45.955H72.895Z" fill="#244C60"/>
<path d="M79.955 57.785C78.935 57.235 78.125 56.465 77.545 55.485C76.965 54.505 76.675 53.405 76.675 52.195C76.675 50.985 76.965 49.885 77.545 48.905C78.125 47.925 78.935 47.155 79.955 46.605C80.975 46.055 82.125 45.775 83.395 45.775C84.665 45.775 85.815 46.055 86.835 46.605C87.855 47.155 88.665 47.925 89.245 48.895C89.825 49.875 90.115 50.975 90.115 52.195C90.115 53.415 89.825 54.525 89.245 55.495C88.665 56.475 87.855 57.235 86.835 57.785C85.815 58.335 84.665 58.615 83.395 58.615C82.125 58.615 80.975 58.335 79.955 57.785ZM85.645 56.025C86.315 55.655 86.835 55.125 87.215 54.455C87.595 53.785 87.785 53.035 87.785 52.195C87.785 51.355 87.595 50.615 87.215 49.935C86.835 49.265 86.315 48.745 85.645 48.365C84.975 47.995 84.235 47.805 83.395 47.805C82.555 47.805 81.815 47.995 81.145 48.365C80.475 48.735 79.955 49.265 79.575 49.935C79.195 50.605 79.005 51.355 79.005 52.195C79.005 53.035 79.195 53.775 79.575 54.455C79.955 55.125 80.475 55.645 81.145 56.025C81.815 56.395 82.555 56.585 83.395 56.585C84.235 56.585 84.975 56.395 85.645 56.025Z" fill="#244C60"/>
<path d="M96.265 47.915H92.125V45.955H102.715V47.915H98.575V58.435H96.255V47.915H96.265Z" fill="#244C60"/>
<path d="M115.145 56.495V58.435H105.785V45.945H114.895V47.885H108.095V51.135H114.125V53.045H108.095V56.485H115.145V56.495Z" fill="#244C60"/>
<path d="M119.055 45.955H121.375V56.475H127.905V58.435H119.055V45.945V45.955Z" fill="#244C60"/>
<path d="M132.045 58.205C131.145 57.935 130.435 57.565 129.915 57.115L130.715 55.315C131.225 55.715 131.855 56.045 132.595 56.305C133.335 56.565 134.085 56.685 134.835 56.685C135.765 56.685 136.455 56.535 136.915 56.235C137.375 55.935 137.605 55.545 137.605 55.055C137.605 54.695 137.475 54.405 137.225 54.175C136.965 53.945 136.645 53.765 136.255 53.635C135.865 53.505 135.325 53.355 134.645 53.185C133.695 52.955 132.925 52.735 132.335 52.505C131.745 52.275 131.245 51.925 130.815 51.445C130.385 50.965 130.185 50.315 130.185 49.495C130.185 48.805 130.375 48.175 130.745 47.615C131.115 47.055 131.685 46.605 132.435 46.265C133.195 45.935 134.115 45.765 135.205 45.765C135.965 45.765 136.715 45.865 137.455 46.055C138.195 46.245 138.825 46.515 139.365 46.875L138.635 48.675C138.085 48.355 137.515 48.115 136.925 47.945C136.335 47.775 135.755 47.695 135.195 47.695C134.275 47.695 133.595 47.845 133.155 48.155C132.705 48.465 132.485 48.875 132.485 49.385C132.485 49.745 132.615 50.035 132.865 50.255C133.115 50.475 133.445 50.655 133.835 50.795C134.225 50.925 134.765 51.075 135.435 51.245C136.365 51.455 137.125 51.685 137.715 51.915C138.305 52.145 138.815 52.505 139.245 52.975C139.665 53.455 139.875 54.095 139.875 54.905C139.875 55.595 139.685 56.215 139.315 56.775C138.945 57.335 138.375 57.775 137.615 58.115C136.855 58.445 135.925 58.615 134.835 58.615C133.875 58.615 132.945 58.475 132.045 58.205Z" fill="#244C60"/>
</svg>
