<svg width="1908" height="454" viewBox="0 0 1908 454" fill="none" xmlns="http://www.w3.org/2000/svg">
<path d="M960 351.903L960 280.903" stroke="white" stroke-opacity="0.6" stroke-width="3"/>
<rect x="845.5" y="353.403" width="230.301" height="51" stroke="white" stroke-opacity="0.6" stroke-width="3"/>
<path d="M909.467 384.983C908.635 384.983 907.861 384.844 907.147 384.567C906.443 384.279 905.829 383.879 905.307 383.367C904.784 382.855 904.379 382.257 904.091 381.575C903.803 380.881 903.659 380.124 903.659 379.303C903.659 378.481 903.803 377.729 904.091 377.047C904.379 376.353 904.784 375.751 905.307 375.239C905.84 374.727 906.459 374.332 907.163 374.055C907.867 373.767 908.635 373.623 909.467 373.623C910.256 373.623 910.992 373.751 911.675 374.007C912.368 374.263 912.96 374.652 913.451 375.175L912.939 375.703C912.459 375.233 911.925 374.897 911.339 374.695C910.763 374.481 910.149 374.375 909.499 374.375C908.784 374.375 908.117 374.497 907.499 374.743C906.891 374.988 906.357 375.335 905.899 375.783C905.451 376.231 905.099 376.753 904.843 377.351C904.597 377.948 904.475 378.599 904.475 379.303C904.475 380.007 904.597 380.657 904.843 381.255C905.099 381.852 905.451 382.375 905.899 382.823C906.357 383.271 906.891 383.617 907.499 383.863C908.117 384.108 908.784 384.231 909.499 384.231C910.149 384.231 910.763 384.129 911.339 383.927C911.925 383.713 912.459 383.367 912.939 382.887L913.451 383.415C912.96 383.937 912.368 384.332 911.675 384.599C910.992 384.855 910.256 384.983 909.467 384.983ZM915.04 384.903L920.192 373.703H921.008L926.16 384.903H925.28L920.416 374.215H920.768L915.92 384.903H915.04ZM916.928 381.751L917.2 381.063H923.904L924.176 381.751H916.928ZM937.75 373.703H938.566V384.903H937.75V373.703ZM930.262 384.903H929.446V373.703H930.262V384.903ZM937.846 379.575H930.166V378.855H937.846V379.575ZM941.85 384.903L947.002 373.703H947.818L952.97 384.903H952.09L947.226 374.215H947.578L942.73 384.903H941.85ZM943.738 381.751L944.01 381.063H950.714L950.986 381.751H943.738ZM957.87 384.903V374.183L958.11 374.439H953.838V373.703H962.718V374.439H958.446L958.686 374.183V384.903H957.87ZM970.501 384.983C969.669 384.983 968.896 384.844 968.181 384.567C967.477 384.279 966.858 383.879 966.325 383.367C965.802 382.844 965.397 382.241 965.109 381.559C964.821 380.865 964.677 380.113 964.677 379.303C964.677 378.492 964.821 377.745 965.109 377.063C965.397 376.369 965.802 375.767 966.325 375.255C966.858 374.732 967.477 374.332 968.181 374.055C968.896 373.767 969.669 373.623 970.501 373.623C971.333 373.623 972.101 373.767 972.805 374.055C973.52 374.332 974.138 374.727 974.661 375.239C975.184 375.751 975.589 376.353 975.877 377.047C976.176 377.729 976.325 378.481 976.325 379.303C976.325 380.124 976.176 380.881 975.877 381.575C975.589 382.257 975.184 382.855 974.661 383.367C974.138 383.879 973.52 384.279 972.805 384.567C972.101 384.844 971.333 384.983 970.501 384.983ZM970.501 384.231C971.216 384.231 971.877 384.108 972.485 383.863C973.093 383.617 973.621 383.271 974.069 382.823C974.517 382.375 974.864 381.852 975.109 381.255C975.365 380.657 975.493 380.007 975.493 379.303C975.493 378.588 975.365 377.937 975.109 377.351C974.864 376.753 974.517 376.231 974.069 375.783C973.621 375.335 973.093 374.988 972.485 374.743C971.877 374.497 971.216 374.375 970.501 374.375C969.786 374.375 969.125 374.497 968.517 374.743C967.909 374.988 967.376 375.335 966.917 375.783C966.469 376.231 966.117 376.753 965.861 377.351C965.616 377.937 965.493 378.588 965.493 379.303C965.493 380.007 965.616 380.657 965.861 381.255C966.117 381.852 966.469 382.375 966.917 382.823C967.376 383.271 967.909 383.617 968.517 383.863C969.125 384.108 969.786 384.231 970.501 384.231ZM980.302 384.903V373.703H984.318C985.256 373.703 986.062 373.852 986.734 374.151C987.406 374.449 987.923 374.881 988.286 375.447C988.648 376.001 988.83 376.679 988.83 377.479C988.83 378.257 988.648 378.929 988.286 379.495C987.923 380.06 987.406 380.492 986.734 380.791C986.062 381.089 985.256 381.239 984.318 381.239H980.75L981.118 380.855V384.903H980.302ZM981.118 380.903L980.75 380.503H984.318C985.523 380.503 986.435 380.241 987.054 379.719C987.683 379.185 987.998 378.439 987.998 377.479C987.998 376.508 987.683 375.761 987.054 375.239C986.435 374.705 985.523 374.439 984.318 374.439H980.75L981.118 374.039V380.903ZM992.402 384.903V373.703H993.218V383.527L1000.85 373.703H1001.57V384.903H1000.75V375.095L993.122 384.903H992.402ZM1006.57 384.903V373.703H1007.38V383.527L1015.01 373.703H1015.73V384.903H1014.92V375.095L1007.29 384.903H1006.57Z" fill="white"/>
<rect x="1295.39" y="353.403" width="314.686" height="51" stroke="white" stroke-opacity="0.6" stroke-width="3"/>
<path d="M1426.68 384.503V374.439H1420.95L1420.85 377.447C1420.82 378.332 1420.77 379.18 1420.69 379.991C1420.62 380.801 1420.51 381.532 1420.36 382.183C1420.21 382.823 1420 383.34 1419.73 383.735C1419.48 384.129 1419.15 384.343 1418.76 384.375L1417.81 384.167C1418.26 384.199 1418.62 384.044 1418.9 383.703C1419.19 383.361 1419.41 382.876 1419.57 382.247C1419.74 381.617 1419.87 380.887 1419.94 380.055C1420.02 379.223 1420.07 378.332 1420.1 377.383L1420.21 373.703H1427.49V384.503H1426.68ZM1417.4 387.463L1417.41 384.167H1429.22V387.463H1428.44V384.903H1418.2L1418.18 387.463H1417.4ZM1432.79 384.903V373.703H1436.81C1437.75 373.703 1438.55 373.852 1439.22 374.151C1439.89 374.449 1440.41 374.881 1440.77 375.447C1441.14 376.001 1441.32 376.679 1441.32 377.479C1441.32 378.257 1441.14 378.929 1440.77 379.495C1440.41 380.06 1439.89 380.492 1439.22 380.791C1438.55 381.089 1437.75 381.239 1436.81 381.239H1433.24L1433.61 380.855V384.903H1432.79ZM1433.61 380.903L1433.24 380.503H1436.81C1438.01 380.503 1438.92 380.241 1439.54 379.719C1440.17 379.185 1440.49 378.439 1440.49 377.479C1440.49 376.508 1440.17 375.761 1439.54 375.239C1438.92 374.705 1438.01 374.439 1436.81 374.439H1433.24L1433.61 374.039V380.903ZM1444.31 384.071C1444.83 384.273 1445.33 384.321 1445.83 384.215C1446.32 384.097 1446.78 383.697 1447.22 383.015L1447.76 382.167L1447.86 382.039L1452.27 373.703H1453.12L1447.95 383.207C1447.63 383.815 1447.25 384.263 1446.82 384.551C1446.39 384.839 1445.94 384.988 1445.46 384.999C1444.99 385.02 1444.52 384.935 1444.05 384.743L1444.31 384.071ZM1447.81 382.823L1443.01 373.703H1443.91L1448.27 382.103L1447.81 382.823ZM1456.1 384.903V373.703H1463.03V374.439H1456.68L1456.92 374.183V384.903H1456.1ZM1469.33 384.983C1468.5 384.983 1467.72 384.844 1467.01 384.567C1466.31 384.279 1465.69 383.879 1465.15 383.367C1464.63 382.844 1464.23 382.241 1463.94 381.559C1463.65 380.865 1463.51 380.113 1463.51 379.303C1463.51 378.492 1463.65 377.745 1463.94 377.063C1464.23 376.369 1464.63 375.767 1465.15 375.255C1465.69 374.732 1466.31 374.332 1467.01 374.055C1467.72 373.767 1468.5 373.623 1469.33 373.623C1470.16 373.623 1470.93 373.767 1471.63 374.055C1472.35 374.332 1472.97 374.727 1473.49 375.239C1474.01 375.751 1474.42 376.353 1474.71 377.047C1475 377.729 1475.15 378.481 1475.15 379.303C1475.15 380.124 1475 380.881 1474.71 381.575C1474.42 382.257 1474.01 382.855 1473.49 383.367C1472.97 383.879 1472.35 384.279 1471.63 384.567C1470.93 384.844 1470.16 384.983 1469.33 384.983ZM1469.33 384.231C1470.04 384.231 1470.71 384.108 1471.31 383.863C1471.92 383.617 1472.45 383.271 1472.9 382.823C1473.35 382.375 1473.69 381.852 1473.94 381.255C1474.19 380.657 1474.32 380.007 1474.32 379.303C1474.32 378.588 1474.19 377.937 1473.94 377.351C1473.69 376.753 1473.35 376.231 1472.9 375.783C1472.45 375.335 1471.92 374.988 1471.31 374.743C1470.71 374.497 1470.04 374.375 1469.33 374.375C1468.62 374.375 1467.95 374.497 1467.35 374.743C1466.74 374.988 1466.2 375.335 1465.75 375.783C1465.3 376.231 1464.95 376.753 1464.69 377.351C1464.44 377.937 1464.32 378.588 1464.32 379.303C1464.32 380.007 1464.44 380.657 1464.69 381.255C1464.95 381.852 1465.3 382.375 1465.75 382.823C1466.2 383.271 1466.74 383.617 1467.35 383.863C1467.95 384.108 1468.62 384.231 1469.33 384.231ZM1479.85 378.855H1485.91V379.575H1479.85V378.855ZM1479.95 384.167H1486.86V384.903H1479.13V373.703H1486.62V374.439H1479.95V384.167Z" fill="white"/>
<rect x="310.5" y="353.403" width="314.686" height="51" stroke="white" stroke-opacity="0.6" stroke-width="3"/>
<path d="M347.359 384.903V373.703H354.287V374.439H347.935L348.175 374.183V384.903H347.359ZM360.588 384.983C359.756 384.983 358.983 384.844 358.268 384.567C357.564 384.279 356.945 383.879 356.412 383.367C355.889 382.844 355.484 382.241 355.196 381.559C354.908 380.865 354.764 380.113 354.764 379.303C354.764 378.492 354.908 377.745 355.196 377.063C355.484 376.369 355.889 375.767 356.412 375.255C356.945 374.732 357.564 374.332 358.268 374.055C358.983 373.767 359.756 373.623 360.588 373.623C361.42 373.623 362.188 373.767 362.892 374.055C363.607 374.332 364.225 374.727 364.748 375.239C365.271 375.751 365.676 376.353 365.964 377.047C366.263 377.729 366.412 378.481 366.412 379.303C366.412 380.124 366.263 380.881 365.964 381.575C365.676 382.257 365.271 382.855 364.748 383.367C364.225 383.879 363.607 384.279 362.892 384.567C362.188 384.844 361.42 384.983 360.588 384.983ZM360.588 384.231C361.303 384.231 361.964 384.108 362.572 383.863C363.18 383.617 363.708 383.271 364.156 382.823C364.604 382.375 364.951 381.852 365.196 381.255C365.452 380.657 365.58 380.007 365.58 379.303C365.58 378.588 365.452 377.937 365.196 377.351C364.951 376.753 364.604 376.231 364.156 375.783C363.708 375.335 363.18 374.988 362.572 374.743C361.964 374.497 361.303 374.375 360.588 374.375C359.873 374.375 359.212 374.497 358.604 374.743C357.996 374.988 357.463 375.335 357.004 375.783C356.556 376.231 356.204 376.753 355.948 377.351C355.703 377.937 355.58 378.588 355.58 379.303C355.58 380.007 355.703 380.657 355.948 381.255C356.204 381.852 356.556 382.375 357.004 382.823C357.463 383.271 357.996 383.617 358.604 383.863C359.212 384.108 359.873 384.231 360.588 384.231ZM370.389 384.903V373.703H374.405C375.343 373.703 376.149 373.852 376.821 374.151C377.493 374.449 378.01 374.881 378.373 375.447C378.735 376.001 378.917 376.679 378.917 377.479C378.917 378.257 378.735 378.929 378.373 379.495C378.01 380.06 377.493 380.492 376.821 380.791C376.149 381.089 375.343 381.239 374.405 381.239H370.837L371.205 380.855V384.903H370.389ZM371.205 380.903L370.837 380.503H374.405C375.61 380.503 376.522 380.241 377.141 379.719C377.77 379.185 378.085 378.439 378.085 377.479C378.085 376.508 377.77 375.761 377.141 375.239C376.522 374.705 375.61 374.439 374.405 374.439H370.837L371.205 374.039V380.903ZM390.793 373.703H391.609V384.903H390.793V373.703ZM383.305 384.903H382.489V373.703H383.305V384.903ZM390.889 379.575H383.209V378.855H390.889V379.575ZM401.406 384.983C400.574 384.983 399.8 384.844 399.086 384.567C398.382 384.279 397.763 383.879 397.23 383.367C396.707 382.844 396.302 382.241 396.014 381.559C395.726 380.865 395.582 380.113 395.582 379.303C395.582 378.492 395.726 377.745 396.014 377.063C396.302 376.369 396.707 375.767 397.23 375.255C397.763 374.732 398.382 374.332 399.086 374.055C399.8 373.767 400.574 373.623 401.406 373.623C402.238 373.623 403.006 373.767 403.71 374.055C404.424 374.332 405.043 374.727 405.566 375.239C406.088 375.751 406.494 376.353 406.782 377.047C407.08 377.729 407.23 378.481 407.23 379.303C407.23 380.124 407.08 380.881 406.782 381.575C406.494 382.257 406.088 382.855 405.566 383.367C405.043 383.879 404.424 384.279 403.71 384.567C403.006 384.844 402.238 384.983 401.406 384.983ZM401.406 384.231C402.12 384.231 402.782 384.108 403.39 383.863C403.998 383.617 404.526 383.271 404.974 382.823C405.422 382.375 405.768 381.852 406.014 381.255C406.27 380.657 406.398 380.007 406.398 379.303C406.398 378.588 406.27 377.937 406.014 377.351C405.768 376.753 405.422 376.231 404.974 375.783C404.526 375.335 403.998 374.988 403.39 374.743C402.782 374.497 402.12 374.375 401.406 374.375C400.691 374.375 400.03 374.497 399.422 374.743C398.814 374.988 398.28 375.335 397.822 375.783C397.374 376.231 397.022 376.753 396.766 377.351C396.52 377.937 396.398 378.588 396.398 379.303C396.398 380.007 396.52 380.657 396.766 381.255C397.022 381.852 397.374 382.375 397.822 382.823C398.28 383.271 398.814 383.617 399.422 383.863C400.03 384.108 400.691 384.231 401.406 384.231ZM409.822 384.983C409.694 384.983 409.566 384.972 409.438 384.951C409.32 384.94 409.182 384.919 409.022 384.887L409.118 384.135C409.299 384.177 409.475 384.199 409.646 384.199C410.136 384.199 410.531 384.007 410.83 383.623C411.139 383.239 411.374 382.636 411.534 381.815C411.694 380.983 411.8 379.9 411.854 378.567L412.014 373.703H419.358V384.903H418.542V374.183L418.782 374.439H412.526L412.766 374.183L412.606 378.551C412.563 379.681 412.483 380.652 412.366 381.463C412.248 382.263 412.078 382.924 411.854 383.447C411.64 383.969 411.363 384.359 411.022 384.615C410.691 384.86 410.291 384.983 409.822 384.983ZM428.85 377.799C430.162 377.799 431.164 378.092 431.858 378.679C432.551 379.265 432.898 380.135 432.898 381.287C432.898 382.471 432.53 383.372 431.794 383.991C431.068 384.599 430.018 384.903 428.642 384.903H424.354V373.703H425.17V377.799H428.85ZM428.658 384.215C429.778 384.215 430.626 383.969 431.202 383.479C431.778 382.988 432.066 382.263 432.066 381.303C432.066 380.353 431.778 379.649 431.202 379.191C430.636 378.721 429.788 378.487 428.658 378.487H425.17V384.215H428.658ZM434.962 384.903V373.703H435.778V384.903H434.962ZM453.279 384.903L449.359 379.271L450.063 378.871L454.255 384.903H453.279ZM446.863 379.591V378.855H449.983V379.591H446.863ZM450.095 379.383L449.343 379.223L453.023 373.703H453.935L450.095 379.383ZM440.159 384.903H439.183L443.359 378.871L444.079 379.271L440.159 384.903ZM447.119 384.903H446.319V373.703H447.119V384.903ZM446.575 379.591H443.455V378.855H446.575V379.591ZM443.343 379.383L439.487 373.703H440.415L444.079 379.223L443.343 379.383ZM465.578 373.703H466.394V384.903H465.578V373.703ZM458.09 384.903H457.274V373.703H458.09V384.903ZM465.674 379.575H457.994V378.855H465.674V379.575ZM475.886 377.799C477.198 377.799 478.201 378.092 478.894 378.679C479.587 379.265 479.934 380.135 479.934 381.287C479.934 382.471 479.566 383.372 478.83 383.991C478.105 384.599 477.054 384.903 475.678 384.903H471.39V373.703H472.206V377.799H475.886ZM475.694 384.215C476.814 384.215 477.662 383.969 478.238 383.479C478.814 382.988 479.102 382.263 479.102 381.303C479.102 380.353 478.814 379.649 478.238 379.191C477.673 378.721 476.825 378.487 475.694 378.487H472.206V384.215H475.694ZM481.998 384.903V373.703H482.814V384.903H481.998ZM488.523 378.855H494.587V379.575H488.523V378.855ZM488.619 384.167H495.531V384.903H487.803V373.703H495.291V374.439H488.619V384.167ZM512.062 384.903L507.534 379.271L508.222 378.871L513.022 384.903H512.062ZM504.286 384.903V373.703H505.102V384.903H504.286ZM504.83 379.591V378.855H508.238V379.591H504.83ZM508.27 379.383L507.518 379.223L511.822 373.703H512.734L508.27 379.383ZM515.613 384.071C516.135 384.273 516.642 384.321 517.133 384.215C517.623 384.097 518.087 383.697 518.525 383.015L519.069 382.167L519.165 382.039L523.581 373.703H524.429L519.261 383.207C518.941 383.815 518.562 384.263 518.125 384.551C517.698 384.839 517.245 384.988 516.765 384.999C516.295 385.02 515.826 384.935 515.357 384.743L515.613 384.071ZM519.117 382.823L514.317 373.703H515.213L519.581 382.103L519.117 382.823ZM527.409 384.903V373.703H531.425C532.363 373.703 533.169 373.852 533.841 374.151C534.513 374.449 535.03 374.881 535.393 375.447C535.755 376.001 535.937 376.679 535.937 377.479C535.937 378.257 535.755 378.929 535.393 379.495C535.03 380.06 534.513 380.492 533.841 380.791C533.169 381.089 532.363 381.239 531.425 381.239H527.857L528.225 380.855V384.903H527.409ZM528.225 380.903L527.857 380.503H531.425C532.63 380.503 533.542 380.241 534.161 379.719C534.79 379.185 535.105 378.439 535.105 377.479C535.105 376.508 534.79 375.761 534.161 375.239C533.542 374.705 532.63 374.439 531.425 374.439H527.857L528.225 374.039V380.903ZM544.466 384.983C543.634 384.983 542.86 384.844 542.146 384.567C541.442 384.279 540.823 383.879 540.29 383.367C539.767 382.844 539.362 382.241 539.074 381.559C538.786 380.865 538.642 380.113 538.642 379.303C538.642 378.492 538.786 377.745 539.074 377.063C539.362 376.369 539.767 375.767 540.29 375.255C540.823 374.732 541.442 374.332 542.146 374.055C542.86 373.767 543.634 373.623 544.466 373.623C545.298 373.623 546.066 373.767 546.77 374.055C547.484 374.332 548.103 374.727 548.626 375.239C549.148 375.751 549.554 376.353 549.842 377.047C550.14 377.729 550.29 378.481 550.29 379.303C550.29 380.124 550.14 380.881 549.842 381.575C549.554 382.257 549.148 382.855 548.626 383.367C548.103 383.879 547.484 384.279 546.77 384.567C546.066 384.844 545.298 384.983 544.466 384.983ZM544.466 384.231C545.18 384.231 545.842 384.108 546.45 383.863C547.058 383.617 547.586 383.271 548.034 382.823C548.482 382.375 548.828 381.852 549.074 381.255C549.33 380.657 549.458 380.007 549.458 379.303C549.458 378.588 549.33 377.937 549.074 377.351C548.828 376.753 548.482 376.231 548.034 375.783C547.586 375.335 547.058 374.988 546.45 374.743C545.842 374.497 545.18 374.375 544.466 374.375C543.751 374.375 543.09 374.497 542.482 374.743C541.874 374.988 541.34 375.335 540.882 375.783C540.434 376.231 540.082 376.753 539.826 377.351C539.58 377.937 539.458 378.588 539.458 379.303C539.458 380.007 539.58 380.657 539.826 381.255C540.082 381.852 540.434 382.375 540.882 382.823C541.34 383.271 541.874 383.617 542.482 383.863C543.09 384.108 543.751 384.231 544.466 384.231ZM554.266 384.903V373.703H558.282C559.221 373.703 560.026 373.852 560.698 374.151C561.37 374.449 561.887 374.881 562.25 375.447C562.613 376.001 562.794 376.679 562.794 377.479C562.794 378.257 562.613 378.929 562.25 379.495C561.887 380.06 561.37 380.492 560.698 380.791C560.026 381.089 559.221 381.239 558.282 381.239H554.714L555.082 380.855V384.903H554.266ZM555.082 380.903L554.714 380.503H558.282C559.487 380.503 560.399 380.241 561.018 379.719C561.647 379.185 561.962 378.439 561.962 377.479C561.962 376.508 561.647 375.761 561.018 375.239C560.399 374.705 559.487 374.439 558.282 374.439H554.714L555.082 374.039V380.903ZM568.152 384.903V374.183L568.392 374.439H564.12V373.703H573V374.439H568.728L568.968 374.183V384.903H568.152ZM580.635 377.799C581.947 377.799 582.95 378.092 583.643 378.679C584.337 379.265 584.683 380.135 584.683 381.287C584.683 382.471 584.315 383.372 583.579 383.991C582.854 384.599 581.803 384.903 580.427 384.903H576.139V373.703H576.955V377.799H580.635ZM580.443 384.215C581.563 384.215 582.411 383.969 582.987 383.479C583.563 382.988 583.851 382.263 583.851 381.303C583.851 380.353 583.563 379.649 582.987 379.191C582.422 378.721 581.574 378.487 580.443 378.487H576.955V384.215H580.443ZM586.747 384.903V373.703H587.563V384.903H586.747Z" fill="white"/>
<path d="M626.994 376.903C830.326 376.903 830.702 376.903 830.702 291.812" stroke="white" stroke-opacity="0.6" stroke-width="3"/>
<path d="M1294.27 376.903C1090.94 376.903 1090.56 376.903 1090.56 291.812" stroke="white" stroke-opacity="0.6" stroke-width="3"/>
<path d="M960 102L960 173" stroke="white" stroke-opacity="0.6" stroke-width="3"/>
<rect x="845.5" y="49.5" width="230.301" height="51" stroke="white" stroke-opacity="0.6" stroke-width="3"/>
<path d="M924.467 81.08C923.635 81.08 922.861 80.9413 922.147 80.664C921.443 80.376 920.824 79.976 920.291 79.464C919.768 78.9413 919.363 78.3387 919.075 77.656C918.787 76.9627 918.643 76.2107 918.643 75.4C918.643 74.5893 918.787 73.8427 919.075 73.16C919.363 72.4667 919.768 71.864 920.291 71.352C920.824 70.8293 921.443 70.4293 922.147 70.152C922.861 69.864 923.635 69.72 924.467 69.72C925.299 69.72 926.067 69.864 926.771 70.152C927.485 70.4293 928.104 70.824 928.627 71.336C929.149 71.848 929.555 72.4507 929.843 73.144C930.141 73.8267 930.291 74.5787 930.291 75.4C930.291 76.2213 930.141 76.9787 929.843 77.672C929.555 78.3547 929.149 78.952 928.627 79.464C928.104 79.976 927.485 80.376 926.771 80.664C926.067 80.9413 925.299 81.08 924.467 81.08ZM924.467 80.328C925.181 80.328 925.843 80.2053 926.451 79.96C927.059 79.7147 927.587 79.368 928.035 78.92C928.483 78.472 928.829 77.9493 929.075 77.352C929.331 76.7547 929.459 76.104 929.459 75.4C929.459 74.6853 929.331 74.0347 929.075 73.448C928.829 72.8507 928.483 72.328 928.035 71.88C927.587 71.432 927.059 71.0853 926.451 70.84C925.843 70.5947 925.181 70.472 924.467 70.472C923.752 70.472 923.091 70.5947 922.483 70.84C921.875 71.0853 921.341 71.432 920.883 71.88C920.435 72.328 920.083 72.8507 919.827 73.448C919.581 74.0347 919.459 74.6853 919.459 75.4C919.459 76.104 919.581 76.7547 919.827 77.352C920.083 77.9493 920.435 78.472 920.883 78.92C921.341 79.368 921.875 79.7147 922.483 79.96C923.091 80.2053 923.752 80.328 924.467 80.328ZM936.287 81V70.28L936.527 70.536H932.255V69.8H941.135V70.536H936.863L937.103 70.28V81H936.287ZM944.994 74.952H951.058V75.672H944.994V74.952ZM945.09 80.264H952.002V81H944.274V69.8H951.762V70.536H945.09V80.264ZM954.615 81.08C954.487 81.08 954.359 81.0693 954.231 81.048C954.114 81.0373 953.975 81.016 953.815 80.984L953.911 80.232C954.093 80.2747 954.269 80.296 954.439 80.296C954.93 80.296 955.325 80.104 955.623 79.72C955.933 79.336 956.167 78.7333 956.327 77.912C956.487 77.08 956.594 75.9973 956.647 74.664L956.807 69.8H964.151V81H963.335V70.28L963.575 70.536H957.319L957.559 70.28L957.399 74.648C957.357 75.7787 957.277 76.7493 957.159 77.56C957.042 78.36 956.871 79.0213 956.647 79.544C956.434 80.0667 956.157 80.456 955.815 80.712C955.485 80.9573 955.085 81.08 954.615 81.08ZM969.147 81V69.8H969.963V79.624L977.595 69.8H978.315V81H977.499V71.192L969.867 81H969.147ZM987.052 77.896V77.304L993.132 69.8H994.044L987.98 77.304L987.532 77.176H996.588V77.896H987.052ZM993.436 81V77.896L993.452 77.176V74.44H994.236V81H993.436ZM1003.1 70.792L1000.86 72.056V71.848L1003.1 73.112L1002.81 73.624L1000.6 72.344L1000.74 72.264L1000.76 74.776H1000.2V72.264L1000.36 72.344L998.152 73.624L997.864 73.112L1000.12 71.848V72.056L997.864 70.792L998.152 70.28L1000.36 71.56L1000.2 71.64V69.128H1000.76L1000.74 71.64L1000.6 71.56L1002.81 70.28L1003.1 70.792Z" fill="white"/>
<rect x="1295.39" y="49.5" width="314.686" height="51" stroke="white" stroke-opacity="0.6" stroke-width="3"/>
<path d="M1397.04 81V69.8H1401.06C1402 69.8 1402.8 69.9493 1403.47 70.248C1404.15 70.5467 1404.66 70.9787 1405.03 71.544C1405.39 72.0987 1405.57 72.776 1405.57 73.576C1405.57 74.3547 1405.39 75.0267 1405.03 75.592C1404.66 76.1573 1404.15 76.5893 1403.47 76.888C1402.8 77.1867 1402 77.336 1401.06 77.336H1397.49L1397.86 76.952V81H1397.04ZM1397.86 77L1397.49 76.6H1401.06C1402.26 76.6 1403.18 76.3387 1403.79 75.816C1404.42 75.2827 1404.74 74.536 1404.74 73.576C1404.74 72.6053 1404.42 71.8587 1403.79 71.336C1403.18 70.8027 1402.26 70.536 1401.06 70.536H1397.49L1397.86 70.136V77ZM1409.86 74.952H1415.93V75.672H1409.86V74.952ZM1409.96 80.264H1416.87V81H1409.14V69.8H1416.63V70.536H1409.96V80.264ZM1425.31 81.08C1424.48 81.08 1423.7 80.9413 1422.99 80.664C1422.28 80.376 1421.67 79.976 1421.15 79.464C1420.63 78.952 1420.22 78.3547 1419.93 77.672C1419.64 76.9787 1419.5 76.2213 1419.5 75.4C1419.5 74.5787 1419.64 73.8267 1419.93 73.144C1420.22 72.4507 1420.63 71.848 1421.15 71.336C1421.68 70.824 1422.3 70.4293 1423 70.152C1423.71 69.864 1424.48 69.72 1425.31 69.72C1426.1 69.72 1426.83 69.848 1427.52 70.104C1428.21 70.36 1428.8 70.7493 1429.29 71.272L1428.78 71.8C1428.3 71.3307 1427.77 70.9947 1427.18 70.792C1426.6 70.5787 1425.99 70.472 1425.34 70.472C1424.63 70.472 1423.96 70.5947 1423.34 70.84C1422.73 71.0853 1422.2 71.432 1421.74 71.88C1421.29 72.328 1420.94 72.8507 1420.68 73.448C1420.44 74.0453 1420.32 74.696 1420.32 75.4C1420.32 76.104 1420.44 76.7547 1420.68 77.352C1420.94 77.9493 1421.29 78.472 1421.74 78.92C1422.2 79.368 1422.73 79.7147 1423.34 79.96C1423.96 80.2053 1424.63 80.328 1425.34 80.328C1425.99 80.328 1426.6 80.2267 1427.18 80.024C1427.77 79.8107 1428.3 79.464 1428.78 78.984L1429.29 79.512C1428.8 80.0347 1428.21 80.4293 1427.52 80.696C1426.83 80.952 1426.1 81.08 1425.31 81.08ZM1434.93 81V70.28L1435.17 70.536H1430.89V69.8H1439.77V70.536H1435.5L1435.74 70.28V81H1434.93ZM1447.56 81.08C1446.73 81.08 1445.95 80.9413 1445.24 80.664C1444.53 80.376 1443.91 79.976 1443.38 79.464C1442.86 78.9413 1442.45 78.3387 1442.17 77.656C1441.88 76.9627 1441.73 76.2107 1441.73 75.4C1441.73 74.5893 1441.88 73.8427 1442.17 73.16C1442.45 72.4667 1442.86 71.864 1443.38 71.352C1443.91 70.8293 1444.53 70.4293 1445.24 70.152C1445.95 69.864 1446.73 69.72 1447.56 69.72C1448.39 69.72 1449.16 69.864 1449.86 70.152C1450.58 70.4293 1451.19 70.824 1451.72 71.336C1452.24 71.848 1452.65 72.4507 1452.93 73.144C1453.23 73.8267 1453.38 74.5787 1453.38 75.4C1453.38 76.2213 1453.23 76.9787 1452.93 77.672C1452.65 78.3547 1452.24 78.952 1451.72 79.464C1451.19 79.976 1450.58 80.376 1449.86 80.664C1449.16 80.9413 1448.39 81.08 1447.56 81.08ZM1447.56 80.328C1448.27 80.328 1448.93 80.2053 1449.54 79.96C1450.15 79.7147 1450.68 79.368 1451.13 78.92C1451.57 78.472 1451.92 77.9493 1452.17 77.352C1452.42 76.7547 1452.55 76.104 1452.55 75.4C1452.55 74.6853 1452.42 74.0347 1452.17 73.448C1451.92 72.8507 1451.57 72.328 1451.13 71.88C1450.68 71.432 1450.15 71.0853 1449.54 70.84C1448.93 70.5947 1448.27 70.472 1447.56 70.472C1446.84 70.472 1446.18 70.5947 1445.57 70.84C1444.97 71.0853 1444.43 71.432 1443.97 71.88C1443.53 72.328 1443.17 72.8507 1442.92 73.448C1442.67 74.0347 1442.55 74.6853 1442.55 75.4C1442.55 76.104 1442.67 76.7547 1442.92 77.352C1443.17 77.9493 1443.53 78.472 1443.97 78.92C1444.43 79.368 1444.97 79.7147 1445.57 79.96C1446.18 80.2053 1446.84 80.328 1447.56 80.328ZM1457.36 81V69.8H1461.37C1462.31 69.8 1463.12 69.9493 1463.79 70.248C1464.46 70.5467 1464.98 70.9787 1465.34 71.544C1465.7 72.0987 1465.89 72.776 1465.89 73.576C1465.89 74.3547 1465.7 75.0267 1465.34 75.592C1464.98 76.1573 1464.46 76.5893 1463.79 76.888C1463.12 77.1867 1462.31 77.336 1461.37 77.336H1457.81L1458.17 76.952V81H1457.36ZM1458.17 77L1457.81 76.6H1461.37C1462.58 76.6 1463.49 76.3387 1464.11 75.816C1464.74 75.2827 1465.05 74.536 1465.05 73.576C1465.05 72.6053 1464.74 71.8587 1464.11 71.336C1463.49 70.8027 1462.58 70.536 1461.37 70.536H1457.81L1458.17 70.136V77ZM1467.18 81L1472.34 69.8H1473.15L1478.3 81H1477.42L1472.56 70.312H1472.91L1468.06 81H1467.18ZM1469.07 77.848L1469.34 77.16H1476.05L1476.32 77.848H1469.07ZM1489.89 69.8H1490.71V81H1489.89V69.8ZM1482.41 81H1481.59V69.8H1482.41V81ZM1489.99 75.672H1482.31V74.952H1489.99V75.672ZM1500.2 73.896C1501.51 73.896 1502.52 74.1893 1503.21 74.776C1503.9 75.3627 1504.25 76.232 1504.25 77.384C1504.25 78.568 1503.88 79.4693 1503.15 80.088C1502.42 80.696 1501.37 81 1499.99 81H1495.71V69.8H1496.52V73.896H1500.2ZM1500.01 80.312C1501.13 80.312 1501.98 80.0667 1502.55 79.576C1503.13 79.0853 1503.42 78.36 1503.42 77.4C1503.42 76.4507 1503.13 75.7467 1502.55 75.288C1501.99 74.8187 1501.14 74.584 1500.01 74.584H1496.52V80.312H1500.01ZM1506.31 81V69.8H1507.13V81H1506.31Z" fill="white"/>
<rect x="310.5" y="49.5" width="314.686" height="51" stroke="white" stroke-opacity="0.6" stroke-width="3"/>
<path d="M432.159 81.08C431.327 81.08 430.554 80.9413 429.839 80.664C429.135 80.376 428.517 79.976 427.983 79.464C427.461 78.9413 427.055 78.3387 426.767 77.656C426.479 76.9627 426.335 76.2107 426.335 75.4C426.335 74.5893 426.479 73.8427 426.767 73.16C427.055 72.4667 427.461 71.864 427.983 71.352C428.517 70.8293 429.135 70.4293 429.839 70.152C430.554 69.864 431.327 69.72 432.159 69.72C432.991 69.72 433.759 69.864 434.463 70.152C435.178 70.4293 435.797 70.824 436.319 71.336C436.842 71.848 437.247 72.4507 437.535 73.144C437.834 73.8267 437.983 74.5787 437.983 75.4C437.983 76.2213 437.834 76.9787 437.535 77.672C437.247 78.3547 436.842 78.952 436.319 79.464C435.797 79.976 435.178 80.376 434.463 80.664C433.759 80.9413 432.991 81.08 432.159 81.08ZM432.159 80.328C432.874 80.328 433.535 80.2053 434.143 79.96C434.751 79.7147 435.279 79.368 435.727 78.92C436.175 78.472 436.522 77.9493 436.767 77.352C437.023 76.7547 437.151 76.104 437.151 75.4C437.151 74.6853 437.023 74.0347 436.767 73.448C436.522 72.8507 436.175 72.328 435.727 71.88C435.279 71.432 434.751 71.0853 434.143 70.84C433.535 70.5947 432.874 70.472 432.159 70.472C431.445 70.472 430.783 70.5947 430.175 70.84C429.567 71.0853 429.034 71.432 428.575 71.88C428.127 72.328 427.775 72.8507 427.519 73.448C427.274 74.0347 427.151 74.6853 427.151 75.4C427.151 76.104 427.274 76.7547 427.519 77.352C427.775 77.9493 428.127 78.472 428.575 78.92C429.034 79.368 429.567 79.7147 430.175 79.96C430.783 80.2053 431.445 80.328 432.159 80.328ZM443.98 81V70.28L444.22 70.536H439.948V69.8H448.828V70.536H444.556L444.796 70.28V81H443.98ZM452.687 74.952H458.751V75.672H452.687V74.952ZM452.783 80.264H459.695V81H451.967V69.8H459.455V70.536H452.783V80.264ZM462.308 81.08C462.18 81.08 462.052 81.0693 461.924 81.048C461.807 81.0373 461.668 81.016 461.508 80.984L461.604 80.232C461.785 80.2747 461.961 80.296 462.132 80.296C462.623 80.296 463.017 80.104 463.316 79.72C463.625 79.336 463.86 78.7333 464.02 77.912C464.18 77.08 464.287 75.9973 464.34 74.664L464.5 69.8H471.844V81H471.028V70.28L471.268 70.536H465.012L465.252 70.28L465.092 74.648C465.049 75.7787 464.969 76.7493 464.852 77.56C464.735 78.36 464.564 79.0213 464.34 79.544C464.127 80.0667 463.849 80.456 463.508 80.712C463.177 80.9573 462.777 81.08 462.308 81.08ZM476.84 81V69.8H477.656V79.624L485.288 69.8H486.008V81H485.192V71.192L477.56 81H476.84ZM498.216 81.08C497.395 81.08 496.627 80.9413 495.912 80.664C495.208 80.3867 494.659 80.024 494.264 79.576L494.68 78.952C495.022 79.3467 495.502 79.6773 496.12 79.944C496.75 80.2 497.448 80.328 498.216 80.328C499.219 80.328 499.982 80.104 500.504 79.656C501.038 79.208 501.304 78.6053 501.304 77.848C501.304 77.1013 501.038 76.504 500.504 76.056C499.982 75.5973 499.16 75.368 498.04 75.368H497.336V74.776L500.904 70.216L501.016 70.536H494.68V69.8H501.704V70.376L498.152 74.936L497.8 74.68H498.152C499.486 74.68 500.483 74.9733 501.144 75.56C501.806 76.1467 502.136 76.9093 502.136 77.848C502.136 78.4667 501.987 79.0213 501.688 79.512C501.4 80.0027 500.963 80.3867 500.376 80.664C499.8 80.9413 499.08 81.08 498.216 81.08ZM509.554 70.792L507.314 72.056V71.848L509.554 73.112L509.266 73.624L507.058 72.344L507.202 72.264L507.218 74.776H506.658V72.264L506.818 72.344L504.61 73.624L504.322 73.112L506.578 71.848V72.056L504.322 70.792L504.61 70.28L506.818 71.56L506.658 71.64V69.128H507.218L507.202 71.64L507.058 71.56L509.266 70.28L509.554 70.792Z" fill="white"/>
<path d="M626.994 77C830.326 77 830.702 77 830.702 162.091" stroke="white" stroke-opacity="0.6" stroke-width="3"/>
<path d="M1294.27 77C1090.94 77 1090.56 77 1090.56 162.091" stroke="white" stroke-opacity="0.6" stroke-width="3"/>
<path d="M785.646 250V205.2H790.382V245.904H815.47V250H785.646ZM831.398 225.232H855.078V229.264H831.398V225.232ZM831.91 245.904H858.854V250H827.174V205.2H857.894V209.296H831.91V245.904ZM893.349 250.384C889.936 250.384 886.779 249.829 883.877 248.72C881.019 247.568 878.523 245.968 876.389 243.92C874.299 241.872 872.656 239.461 871.461 236.688C870.309 233.915 869.733 230.885 869.733 227.6C869.733 224.315 870.309 221.285 871.461 218.512C872.656 215.739 874.32 213.328 876.453 211.28C878.587 209.232 881.083 207.653 883.941 206.544C886.843 205.392 890 204.816 893.413 204.816C896.827 204.816 899.941 205.349 902.757 206.416C905.616 207.483 908.048 209.104 910.053 211.28L907.109 214.288C905.232 212.411 903.163 211.067 900.901 210.256C898.64 209.445 896.208 209.04 893.605 209.04C890.832 209.04 888.272 209.509 885.925 210.448C883.621 211.344 881.595 212.645 879.845 214.352C878.139 216.016 876.795 217.979 875.813 220.24C874.875 222.459 874.405 224.912 874.405 227.6C874.405 230.245 874.875 232.699 875.813 234.96C876.795 237.221 878.139 239.205 879.845 240.912C881.595 242.576 883.621 243.877 885.925 244.816C888.272 245.712 890.811 246.16 893.541 246.16C896.101 246.16 898.512 245.776 900.773 245.008C903.077 244.24 905.189 242.939 907.109 241.104L909.797 244.688C907.664 246.565 905.168 247.995 902.309 248.976C899.451 249.915 896.464 250.384 893.349 250.384ZM905.253 244.112V227.6H909.797V244.688L905.253 244.112ZM931.265 225.232H954.945V229.264H931.265V225.232ZM931.777 245.904H958.721V250H927.041V205.2H957.761V209.296H931.777V245.904ZM973.694 250V205.2H977.598L1008.51 244.112H1006.46V205.2H1011.13V250H1007.23L976.382 211.088H978.43V250H973.694ZM1029.6 250V205.2H1047.84C1052.62 205.2 1056.8 206.16 1060.38 208.08C1064.01 209.957 1066.82 212.581 1068.83 215.952C1070.83 219.323 1071.84 223.205 1071.84 227.6C1071.84 231.995 1070.83 235.877 1068.83 239.248C1066.82 242.619 1064.01 245.264 1060.38 247.184C1056.8 249.061 1052.62 250 1047.84 250H1029.6ZM1034.33 245.904H1047.58C1051.55 245.904 1054.98 245.136 1057.88 243.6C1060.83 242.021 1063.11 239.867 1064.73 237.136C1066.35 234.363 1067.16 231.184 1067.16 227.6C1067.16 223.973 1066.35 220.795 1064.73 218.064C1063.11 215.333 1060.83 213.2 1057.88 211.664C1054.98 210.085 1051.55 209.296 1047.58 209.296H1034.33V245.904ZM1078.52 250L1099 205.2H1103.67L1124.15 250H1119.16L1100.34 207.952H1102.26L1083.45 250H1078.52ZM1086.58 238.032L1087.99 234.192H1114.04L1115.45 238.032H1086.58Z" fill="white"/>
<line x1="758.267" y1="227.5" x2="0.000549273" y2="227.5" stroke="white" stroke-opacity="0.2"/>
<line x1="1907.09" y1="227.5" x2="1140.68" y2="227.5" stroke="white" stroke-opacity="0.2"/>
</svg>
