<svg width="581" height="1510" viewBox="0 0 581 1510" fill="none" xmlns="http://www.w3.org/2000/svg">
<path d="M-44.2959 233.032L-11.4264 291.065L-44.2959 349.073M-44.2959 233.032H-110.01M-44.2959 233.032V349.073M-44.2959 233.032L-11.4264 175.024L-44.2959 117.016M-44.2959 233.032L-44.2959 117.016M-110.01 233.032L-142.855 291.065M-110.01 233.032L-142.855 175.024M-142.855 291.065L-110.01 349.073M-142.855 291.065L-44.2959 349.073M-142.855 291.065L-208.57 291.065M-110.01 349.073H-44.2959M-110.01 349.073L-142.855 407.081M-110.01 349.073L-208.569 407.081M-110.01 349.073L-224.719 319.563M-110.01 349.073L-241.44 349.073M-110.01 349.073L-224.744 378.557M-110.01 349.073L-307.152 233.032M-44.2959 349.073L-126.705 262.542M-44.2959 349.073L-11.4264 407.081L-44.2959 465.089M-44.2959 349.073L-44.2959 465.089M-44.2959 349.073L-142.855 407.081M-44.2959 349.073L-126.705 435.605M-44.2944 349.073L-76.5934 233.032L-44.2944 117.016L-110.009 233.032M-44.2944 349.073L-110.009 233.032M-44.2944 349.073L-76.5934 465.089L-44.2944 581.105L-110.009 465.089M-44.2944 349.073L-110.009 465.089M-110.009 233.032L-142.854 175.024M-110.009 233.032L-142.854 291.065M-110.009 233.032L-241.437 233.032M-142.855 175.024L-110.01 117.016M-142.855 175.024L-44.2959 117.016M-142.855 175.024L-208.57 175.024M-110.01 117.016H-44.2959M-110.01 117.016L-142.855 59.0079L-208.569 59.008M-110.01 117.016L-208.569 59.008M-110.01 117.016L-208.568 175.024M-110.01 117.016L-224.719 87.5314M-110.01 117.016L-241.438 117.016M-44.2959 117.016L-126.705 203.548M-44.2959 465.089H-110.01M-44.2959 465.089L-11.4264 523.097L-44.2959 581.105M-44.2959 465.089L-44.2959 581.105M-110.01 465.089L-142.855 407.081M-110.01 465.089L-142.855 523.097M-142.855 407.081L-208.569 407.081M-110.009 465.089L-142.854 407.081M-110.009 465.089L-142.854 523.097M-110.009 465.089L-241.437 465.089M-142.855 523.097L-110.01 581.105H-44.2959M-142.855 523.097L-44.2959 581.105M-44.2959 581.105L-126.705 494.574M-208.568 175.024H-142.854M-208.568 175.024L-241.437 233.032M-142.854 175.024L-241.437 233.032M-142.854 291.065H-208.568L-241.437 233.032M-142.854 291.065L-241.437 233.032M-241.437 233.032L-126.704 203.547M-241.437 233.032L-126.704 262.541M-142.854 407.081H-208.568L-241.437 465.089M-142.854 407.081L-241.437 465.089M-142.854 523.097H-208.568L-241.437 465.089M-142.854 523.097L-241.437 465.089M-241.437 465.089L-126.704 435.579M-241.437 465.089L-126.704 494.573M-307.154 117.016L-339.998 175.024L-307.154 233.032M-307.154 117.016H-241.44M-307.154 117.016L-339.998 59.008L-307.154 1H-241.44L-208.57 59.008L-241.44 117.016M-241.44 117.016L-208.57 175.024M-208.57 175.024L-241.44 233.032M-208.57 175.024L-241.438 117.016M-241.44 233.032H-307.154M-241.44 233.032L-208.57 291.065M-307.154 233.032L-339.998 291.065L-307.154 349.073M-307.152 233.032L-208.569 175.024M-307.152 233.032L-274.853 117.016L-307.152 1M-307.152 233.032L-241.438 117.016M-307.152 233.032L-224.743 146.501M-307.152 233.032L-274.853 349.073L-307.152 465.089M-307.152 233.032L-241.438 349.073L-307.152 465.089M-307.152 233.032L-224.743 319.563M-307.152 233.032V1M-307.152 233.032V465.089M-241.438 117.016L-307.152 1M-241.438 117.016L-208.569 59.008M-307.152 1L-208.569 59.008M-307.152 1L-224.743 87.5315M-307.154 349.073H-241.44M-307.154 349.073L-339.998 407.081L-307.154 465.089H-241.44L-208.57 407.081L-241.44 349.073M-241.44 349.073L-208.57 291.065M-241.44 349.073L-208.569 407.081M-307.152 465.089L-208.569 407.081M-307.152 465.089L-224.743 378.558M-224.744 146.5L-110.011 117.016M284.277 349.073L251.432 291.065M284.277 349.073L251.432 407.081M284.277 349.073L349.991 349.073M284.277 349.073L349.991 349.073L382.861 407.081L349.991 465.089M251.432 291.065H185.718M251.432 291.065V407.081M251.432 291.065L284.277 233.032M251.432 291.065L251.432 175.024M185.718 291.065L152.849 349.073M185.718 291.065L152.849 233.032M185.718 291.065L152.849 233.032M185.718 291.065L54.2904 291.065M152.849 349.073L185.718 407.081M152.849 349.073L251.432 407.081M152.849 349.073L87.1351 349.073M152.849 349.073L54.2904 291.065M185.718 407.081H251.432M185.718 407.081L152.849 465.089M185.718 407.081L87.1351 349.073M185.718 407.081L87.1351 465.089M251.432 407.081L284.277 465.089M251.432 407.081L251.432 523.097M251.432 407.081L152.849 465.089M251.432 407.081L168.998 493.613M251.433 407.081L219.134 291.065L251.433 175.024M251.433 407.081L185.719 291.065L251.433 175.024M251.433 407.081L168.998 320.549L54.2904 291.065M251.433 407.081L219.134 523.097L251.433 639.113L185.719 523.097M251.433 407.081L185.719 523.097M284.277 233.032L251.432 175.024M284.277 233.032L349.991 233.032M152.849 233.032L185.718 175.024M152.849 233.032L251.432 175.024M185.718 175.024H251.432M185.718 175.024L87.1349 117.016M185.718 175.024L87.1351 233.032M251.432 175.024L284.277 117.016H349.991L382.861 175.024L349.991 233.032M251.433 175.024L168.998 261.555L54.2904 291.065M284.277 465.089L251.432 523.097M284.277 465.089L349.991 465.089M251.432 523.097H185.718M251.432 523.097L284.277 581.105M251.432 523.097L251.432 639.113M185.718 523.097L152.849 465.089M185.718 523.097L152.849 581.105M185.719 523.097L152.849 465.089M185.719 523.097L152.849 581.105M185.719 523.097L54.2904 523.097M284.277 581.105L251.432 639.113M284.277 581.105L349.991 581.105L382.861 523.097L349.991 465.089M152.849 581.105L185.718 639.113H251.432M152.849 581.105L251.432 639.113M152.849 581.105L87.1351 581.105L54.2904 523.097M152.849 581.105L54.2904 523.097M251.432 639.113L168.998 552.582L54.2904 523.097M87.1351 233.032H152.849M87.1351 233.032L54.2904 291.065M152.849 233.032L54.2904 291.065M87.1351 349.073L54.2904 291.065M87.1351 465.089H152.849M87.1351 465.089L54.2904 523.097M152.849 465.089L54.2904 523.097M54.2904 523.097L168.999 493.587M-11.4288 175.024L-44.2983 233.032L-11.4288 291.065M-11.4288 175.024H54.2854M-11.4288 175.024L-44.2983 117.016L-11.4288 59.0077H54.2854L87.1301 117.016L54.2854 175.024M54.2854 175.024L87.1301 233.032L54.2854 291.065M54.2854 291.065H-11.4288M54.2854 291.065L87.1301 349.073L54.2854 407.081M-11.4288 291.065L-44.2983 349.073L-11.4288 407.081M-11.4278 291.065L87.131 233.032M-11.4278 291.065L20.8711 175.024L-11.4278 59.0077M-11.4278 291.065L54.2863 175.024L-11.4278 59.0077M-11.4278 291.065L70.9816 204.533M-11.4278 291.065L87.131 349.073M-11.4278 291.065L20.8711 407.081L-11.4278 523.097M-11.4278 291.065L54.2863 407.081L-11.4278 523.097M-11.4278 291.065L70.9816 377.597M-11.4278 291.065V59.0077M-11.4278 291.065V523.097M-11.4278 59.0077L87.131 117.016M-11.4278 59.0077L70.9816 145.539M-11.4288 407.081H54.2854M-11.4288 407.081L-44.2983 465.089L-11.4288 523.097H54.2854L87.1301 465.089L54.2854 407.081M-11.4278 523.097L87.131 465.089M-11.4278 523.097L70.9816 436.566M54.2888 175.024L87.1335 117.016H152.848L185.717 175.024M54.2888 175.024L87.1335 233.032H152.848L185.717 175.024M54.2888 175.024H185.717M185.717 175.024L70.984 145.539M185.717 175.024L70.9836 204.534M54.2888 407.081L87.1335 349.073H152.848L185.717 407.081M54.2888 407.081L87.1335 465.089H152.848L185.717 407.081M54.2888 407.081H185.717M185.717 407.081L70.984 377.571M185.717 407.081L70.9836 436.565M547.13 349.073L580 407.081L547.13 465.089M547.13 349.073H481.416L448.572 407.081M547.13 349.073V465.089M448.572 407.081L481.416 465.089H547.13M448.572 407.081L547.13 465.089M547.13 465.089L464.721 378.557M547.13 465.089L514.831 581.105L547.13 697.121L481.416 581.105L547.13 465.089ZM514.833 349.073L547.132 465.089L481.418 349.073M547.129 581.105L579.998 523.097L547.129 465.089M547.129 581.105H481.415M547.129 581.105V465.089M547.129 581.105L579.998 639.113L547.129 697.121M547.129 581.105V697.121M481.415 581.105L448.57 523.097M481.415 581.105L448.57 639.113M448.57 523.097L481.415 465.089H547.129M448.57 523.097L547.129 465.089M547.129 465.089L464.72 551.62M448.57 639.113L481.415 697.121H547.129M448.57 639.113L547.129 697.121M547.129 697.121L464.72 610.589M382.86 291.065H448.574M382.86 291.065L349.991 349.073M382.86 291.065L349.991 233.032M448.574 291.065L481.419 349.073M448.574 291.065L349.991 349.073M481.419 349.073L448.574 407.081M481.419 349.073H349.991M448.574 407.081H382.86L349.991 349.073M448.574 407.081L349.991 349.073M349.991 349.073L464.724 319.563M349.991 349.073L464.724 378.557M448.574 523.097H382.86L349.991 581.105M448.574 523.097L481.419 581.105M448.574 523.097L349.991 581.105M481.419 581.105L448.574 639.113M481.419 581.105H349.991M448.574 639.113H382.86L349.991 581.105M448.574 639.113L349.991 581.105M349.991 581.105L464.724 551.62M349.991 581.105L464.724 610.589M284.279 349.073L382.862 291.065M284.279 349.073L316.578 233.032L284.279 117.016M284.279 349.073L349.993 233.032L284.279 117.016M284.279 349.073L366.713 262.542M284.279 349.073L382.862 407.081M284.279 349.073L316.578 465.089L284.279 581.105M284.279 349.073L349.993 465.089M284.279 349.073L366.713 435.605M284.279 349.073V117.016M284.279 349.073V581.105M284.279 117.016L382.862 175.024M284.279 117.016L366.713 203.548M382.862 407.081L448.576 407.081L481.421 465.089M382.862 407.081L349.993 465.089M382.862 407.081L481.422 465.089L382.862 523.097M349.993 465.089L284.279 581.105M349.993 465.089L382.862 523.097M349.993 465.089L481.421 465.089M284.279 581.105L382.862 523.097M284.279 581.105L366.713 494.574M382.862 523.097L448.576 523.097L481.421 465.089M481.421 465.089L366.712 435.58M366.711 494.574L481.42 465.089M-44.2973 1160.93L-11.4278 1218.93L-44.2973 1276.97M-44.2973 1160.93H-110.012M-44.2973 1160.93V1276.97M-44.2973 1160.93L-11.4278 1102.92L-44.2972 1044.91M-44.2973 1160.93L-44.2972 1044.91M-110.012 1160.93L-142.856 1218.93M-110.012 1160.93L-142.856 1102.92M-142.856 1218.93L-110.012 1276.97M-142.856 1218.93L-44.2973 1276.97M-110.012 1276.97H-44.2973M-110.012 1276.97L-142.856 1334.98M-44.2973 1276.97L-126.706 1190.44M-44.2973 1276.97L-11.4278 1334.98L-44.2972 1392.98M-44.2973 1276.97L-44.2972 1392.98M-44.2973 1276.97L-142.856 1334.98M-44.2973 1276.97L-126.706 1363.5M-44.2958 1276.97L-76.5948 1160.93L-44.2958 1044.91M-44.2958 1276.97L-110.01 1160.93M-44.2958 1276.97L-76.5948 1392.98L-44.2958 1509L-110.01 1392.98M-44.2958 1276.97L-110.01 1392.98M-110.01 1160.93L-44.2958 1044.91M-110.01 1160.93L-142.855 1102.92M-110.01 1160.93L-142.855 1218.93M-110.01 1160.93H-241.439M-142.856 1102.92L-110.012 1044.91M-142.856 1102.92L-44.2972 1044.91M-142.856 1102.92L-208.572 1102.92M-110.012 1044.91H-44.2972M-110.012 1044.91L-142.857 986.903M-110.012 1044.91L-208.57 986.903M-110.012 1044.91L-208.569 1102.92M-110.012 1044.91L-224.72 1015.4M-110.012 1044.91L-241.44 1044.91M-44.2972 1044.91L-126.706 1131.44M-44.2972 1044.91L-11.4278 986.903L-44.2972 928.895M-44.2972 1044.91V928.895M-44.2972 1044.91L-142.857 986.903M-44.2972 1044.91L-126.706 958.379M-44.2958 1044.91L-76.5948 928.895L-44.2958 812.879M-44.2958 1044.91L-110.01 928.895M-44.2972 1392.98H-110.012M-44.2972 1392.98L-11.4278 1450.99L-44.2973 1509M-44.2972 1392.98L-44.2973 1509M-110.012 1392.98L-142.856 1334.98M-110.012 1392.98L-142.856 1450.99M-142.856 1334.98L-208.571 1334.98L-241.44 1276.97M-142.856 1334.98L-110.012 1276.97M-110.01 1392.98L-142.855 1334.98M-110.01 1392.98L-142.855 1450.99M-110.01 1392.98L-241.439 1392.98M-142.856 1450.99L-110.012 1509H-44.2973M-142.856 1450.99L-44.2973 1509M-44.2973 1509L-126.706 1422.47M-208.569 1102.92H-142.855M-208.569 1102.92L-241.439 1160.93M-142.855 1102.92L-241.439 1160.93M-142.855 1218.93H-208.569L-241.439 1160.93M-142.855 1218.93L-241.439 1160.93M-241.439 1160.93L-126.706 1131.44M-241.439 1160.93L-126.706 1190.44M-142.855 1334.98H-208.569L-241.439 1392.98M-142.855 1334.98L-241.439 1392.98M-142.855 1450.99H-208.569L-241.439 1392.98M-142.855 1450.99L-241.439 1392.98M-241.439 1392.98L-126.706 1363.47M-241.439 1392.98L-126.706 1422.47M-307.155 1044.91L-340 1102.92L-307.155 1160.93M-307.155 1044.91H-241.441M-307.155 1044.91L-340 986.903L-307.155 928.895M-241.441 1044.91L-208.572 1102.92M-241.441 1044.91L-208.572 986.903L-241.441 928.895M-208.572 1102.92L-241.441 1160.93M-208.572 1102.92L-241.44 1044.91M-241.441 1160.93H-307.155M-241.441 1160.93L-208.572 1218.94L-241.441 1276.97M-307.155 1160.93L-340 1218.94L-307.155 1276.97M-307.154 1160.93L-208.57 1102.92M-307.154 1160.93L-274.855 1044.91L-307.154 928.895M-307.154 1160.93L-241.44 1044.91M-307.154 1160.93L-224.744 1074.4M-307.154 1160.93L-208.57 1218.94M-307.154 1160.93L-274.855 1276.97L-307.154 1392.98M-307.154 1160.93L-241.44 1276.97M-307.154 1160.93L-224.744 1247.46M-307.154 1160.93V928.895M-307.154 1160.93V1392.98M-241.44 1044.91L-307.154 928.895M-241.44 1044.91L-208.57 986.903M-241.441 928.895H-307.155M-241.441 928.895L-208.572 870.887L-241.441 812.879M-307.155 928.895L-340 870.887L-307.155 812.879M-307.154 928.895L-208.57 986.903M-307.154 928.895L-224.744 1015.43M-307.154 928.895L-208.57 870.887M-307.154 928.895L-274.855 812.879L-307.154 696.838M-307.154 928.895L-241.44 812.879L-307.154 696.838M-307.154 928.895L-224.744 842.363M-307.154 928.895V696.838M-208.57 986.903L-142.857 986.903M-307.155 1276.97H-241.441M-307.155 1276.97L-340 1334.98L-307.155 1392.98H-241.441L-208.572 1334.98L-241.441 1276.97M-208.57 1218.94L-142.857 1218.94L-110.012 1276.97M-208.57 1218.94L-241.44 1276.97M-208.57 1218.94L-110.011 1276.97L-307.154 1392.98M-241.44 1276.97L-307.154 1392.98M-307.154 1392.98L-224.744 1306.45M-142.857 986.903L-110.012 928.895M-224.745 1074.4L-110.012 1044.91M-110.012 1276.97L-224.72 1247.46M-110.012 1276.97L-241.44 1276.97M-110.012 1276.97L-224.745 1306.45M-44.2973 696.837L-11.4278 754.845L-44.2973 812.879M-44.2973 696.837H-110.012M-44.2973 696.837V812.879M-44.2973 696.837L-11.4278 638.83L-44.2972 580.822M-44.2973 696.837L-44.2972 580.822M-110.012 696.837L-142.856 754.845M-110.012 696.837L-142.856 638.83M-142.856 754.845L-110.012 812.879M-142.856 754.845L-44.2973 812.879M-142.856 754.845L-208.571 754.845L-241.44 812.879M-110.012 812.879H-44.2973M-110.012 812.879L-142.856 870.887M-110.012 812.879L-208.57 870.887M-110.012 812.879L-224.72 783.369M-110.012 812.879L-241.44 812.879M-110.012 812.879L-307.154 696.838M-44.2973 812.879L-126.706 726.347M-44.2973 812.879L-11.4278 870.887L-44.2972 928.895M-44.2973 812.879L-44.2972 928.895M-44.2973 812.879L-142.856 870.887M-44.2973 812.879L-126.706 899.411M-44.2958 812.879L-76.5948 696.838L-44.2958 580.822L-110.01 696.838M-44.2958 812.879L-110.01 696.838M-44.2958 812.879L-110.01 928.895M-110.01 696.838L-142.855 638.83M-110.01 696.838L-142.855 754.846M-110.01 696.838L-241.439 696.838M-142.856 638.83L-110.012 580.822M-142.856 638.83L-44.2972 580.822M-142.856 638.83L-208.572 638.83M-110.012 580.822H-44.2972M-110.012 580.822L-142.857 522.814L-208.572 522.814M-110.012 580.822L-208.569 638.83M-110.012 580.822L-224.72 551.337M-110.012 580.822L-241.44 580.822M-110.012 580.822L-307.154 464.806M-44.2972 580.822L-126.706 667.353M-44.2972 928.895H-110.012M-110.012 928.895L-142.856 870.887M-142.856 870.887L-208.57 870.887M-110.01 928.895L-142.855 870.887M-110.01 928.895L-142.855 986.903M-110.01 928.895L-241.439 928.895M-208.569 638.83H-142.855M-208.569 638.83L-241.439 696.838M-142.855 638.83L-241.439 696.838M-142.855 754.846H-208.569L-241.439 696.838M-142.855 754.846L-241.439 696.838M-241.439 696.838L-126.706 667.353M-241.439 696.838L-126.706 726.347M-142.855 870.887H-208.569L-241.439 928.895M-142.855 870.887L-241.439 928.895M-142.855 986.903H-208.569L-241.439 928.895M-142.855 986.903L-241.439 928.895M-241.439 928.895L-126.706 899.385M-241.439 928.895L-126.706 958.379M-307.155 580.822L-340 638.83L-307.155 696.838M-307.155 580.822H-241.441M-307.155 580.822L-340 522.814L-307.155 464.806H-241.441L-208.572 522.814M-241.441 580.822L-208.572 638.83M-241.441 580.822L-208.572 522.814M-208.572 638.83L-241.441 696.838M-241.441 696.838H-307.155M-241.441 696.838L-208.572 754.846L-241.441 812.879M-307.155 696.838L-340 754.846L-307.155 812.879M-307.154 696.838L-208.57 638.83M-307.154 696.838L-274.855 580.822L-307.154 464.806M-307.154 696.838L-241.44 580.822M-307.154 696.838L-224.744 610.306M-307.154 696.838L-224.744 783.369M-307.154 696.838V464.806M-241.44 580.822L-307.154 464.806M-307.154 464.806L-224.744 551.337M-307.155 812.879H-241.441M-208.57 870.887L-241.44 812.879M-224.745 610.306L-110.012 580.822M-224.745 842.363L-110.012 812.879M-11.4302 1102.92L-44.2997 1160.93L-11.4302 1218.93M-11.4302 1102.92H54.2839M-11.4302 1102.92L-44.2997 1044.91L-11.4302 986.903M54.2839 1102.92L87.1286 1160.93L54.2839 1218.93M54.2839 1102.92L87.1286 1044.91L54.2839 986.903M54.2839 1218.93H-11.4302M54.2839 1218.93L87.1286 1276.97L54.2839 1334.98M-11.4302 1218.93L-44.2997 1276.97L-11.4302 1334.98M-11.4293 1218.93L87.1296 1160.93M-11.4293 1218.93L20.8696 1102.92L-11.4293 986.903M-11.4293 1218.93L54.2849 1102.92L-11.4293 986.903M-11.4293 1218.93L70.9801 1132.4M-11.4293 1218.93L87.1296 1276.97M-11.4293 1218.93L20.8696 1334.98L-11.4293 1450.99M-11.4293 1218.93L54.2849 1334.98L-11.4293 1450.99M-11.4293 1218.93L70.9801 1305.47M-11.4293 1218.93V986.903M-11.4293 1218.93V1450.99M54.2839 986.903H-11.4302M54.2839 986.903L87.1286 928.895L54.2839 870.887M-11.4302 986.903L-44.2997 928.895L-11.4302 870.887M-11.4293 986.903L87.1296 1044.91M-11.4293 986.903L70.9801 1073.43M-11.4293 986.903L87.1296 928.895M-11.4293 986.903L20.8696 870.887L-11.4293 754.846M-11.4293 986.903L54.2849 870.887L-11.4293 754.846M-11.4293 986.903L70.9801 900.371M-11.4293 986.903V754.846M-11.4302 1334.98H54.2839M-11.4302 1334.98L-44.2997 1392.98L-11.4302 1450.99H54.2839L87.1286 1392.98L54.2839 1334.98M-11.4293 1450.99L87.1296 1392.98M-11.4293 1450.99L70.9801 1364.46M54.2873 1102.92L87.132 1044.91H152.846L185.716 1102.92M54.2873 1102.92L87.132 1160.93H152.846L185.716 1102.92M54.2873 1102.92H185.716M185.716 1102.92L70.9826 1073.43M185.716 1102.92L70.9822 1132.4M87.1335 1044.91L185.717 1102.92L87.1335 1160.93M54.2873 1334.98L87.132 1276.97H152.846L185.716 1334.98M54.2873 1334.98L87.132 1392.98H152.846L185.716 1334.98M54.2873 1334.98H185.716M185.716 1334.98L70.9826 1305.47M185.716 1334.98L70.9822 1364.46M87.1335 1276.97L185.717 1334.98L87.1335 1392.98M-11.4302 638.83L-44.2997 696.838L-11.4302 754.846M-11.4302 638.83H54.2839M-11.4302 638.83L-44.2997 580.822L-11.4302 522.814H54.2839L87.1286 580.822L54.2839 638.83M54.2839 638.83L87.1286 696.838L54.2839 754.846M54.2839 754.846H-11.4302M54.2839 754.846L87.1286 812.879L54.2839 870.887M-11.4302 754.846L-44.2997 812.879L-11.4302 870.887M-11.4293 754.846L87.1296 696.838M-11.4293 754.846L20.8696 638.83L-11.4293 522.814M-11.4293 754.846L54.2849 638.83L-11.4293 522.814M-11.4293 754.846L70.9801 668.314M-11.4293 754.846L87.1296 812.879M-11.4293 754.846L70.9801 841.377M-11.4293 754.846V522.814M-11.4293 522.814L87.1296 580.822M-11.4293 522.814L70.9801 609.345M-11.4302 870.887H54.2839M54.2873 638.83L87.132 580.822H152.846L185.716 638.83M54.2873 638.83L87.132 696.838H152.846L185.716 638.83M54.2873 638.83H185.716M185.716 638.83L70.9826 609.345M185.716 638.83L70.9822 668.314M87.1335 580.822L185.717 638.83L87.1335 696.838M54.2873 870.887L87.132 812.879H152.846L185.716 870.887M54.2873 870.887L87.132 928.895H152.846L185.716 870.887M54.2873 870.887H185.716M185.716 870.887L70.9826 841.377M185.716 870.887L70.9822 900.371M87.1335 812.879L185.717 870.887L87.1335 928.895" stroke="white" stroke-opacity="0.1" stroke-width="1.5" stroke-linecap="round" stroke-linejoin="round"/>
</svg>
