<svg width="589" height="1508" viewBox="0 0 589 1508" fill="none" xmlns="http://www.w3.org/2000/svg">
<g clip-path="url(#clip0_2654_2221)">
<path d="M-35.2959 232.032L-2.42639 290.065L-35.2959 348.073M-35.2959 232.032H-101.01M-35.2959 232.032V348.073M-35.2959 232.032L-2.42639 174.024L-35.2959 116.016M-35.2959 232.032L-35.2959 116.016M-101.01 232.032L-133.855 290.065M-101.01 232.032L-133.855 174.024M-133.855 290.065L-101.01 348.073M-133.855 290.065L-35.2959 348.073M-133.855 290.065L-199.57 290.065M-101.01 348.073H-35.2959M-101.01 348.073L-133.855 406.081M-101.01 348.073L-199.569 406.081M-101.01 348.073L-215.719 318.563M-101.01 348.073L-232.44 348.073M-101.01 348.073L-215.744 377.557M-101.01 348.073L-298.152 232.032M-35.2959 348.073L-117.705 261.542M-35.2959 348.073L-2.42639 406.081L-35.2959 464.089M-35.2959 348.073L-35.2959 464.089M-35.2959 348.073L-133.855 406.081M-35.2959 348.073L-117.705 434.605M-35.2944 348.073L-67.5934 232.032L-35.2944 116.016L-101.009 232.032M-35.2944 348.073L-101.009 232.032M-35.2944 348.073L-67.5934 464.089L-35.2944 580.105L-101.009 464.089M-35.2944 348.073L-101.009 464.089M-101.009 232.032L-133.854 174.024M-101.009 232.032L-133.854 290.065M-101.009 232.032L-232.437 232.032M-133.855 174.024L-101.01 116.016M-133.855 174.024L-35.2959 116.016M-133.855 174.024L-199.57 174.024M-101.01 116.016H-35.2959M-101.01 116.016L-133.855 58.0079L-199.569 58.008M-101.01 116.016L-199.569 58.008M-101.01 116.016L-199.568 174.024M-101.01 116.016L-215.719 86.5314M-101.01 116.016L-232.438 116.016M-35.2959 116.016L-117.705 202.548M-35.2959 464.089H-101.01M-35.2959 464.089L-2.42639 522.097L-35.2959 580.105M-35.2959 464.089L-35.2959 580.105M-101.01 464.089L-133.855 406.081M-101.01 464.089L-133.855 522.097M-133.855 406.081L-199.569 406.081M-101.009 464.089L-133.854 406.081M-101.009 464.089L-133.854 522.097M-101.009 464.089L-232.437 464.089M-133.855 522.097L-101.01 580.105H-35.2959M-133.855 522.097L-35.2959 580.105M-35.2959 580.105L-117.705 493.574M-199.568 174.024H-133.854M-199.568 174.024L-232.437 232.032M-133.854 174.024L-232.437 232.032M-133.854 290.065H-199.568L-232.437 232.032M-133.854 290.065L-232.437 232.032M-232.437 232.032L-117.704 202.547M-232.437 232.032L-117.704 261.541M-133.854 406.081H-199.568L-232.437 464.089M-133.854 406.081L-232.437 464.089M-133.854 522.097H-199.568L-232.437 464.089M-133.854 522.097L-232.437 464.089M-232.437 464.089L-117.704 434.579M-232.437 464.089L-117.704 493.573M-298.154 116.016L-330.998 174.024L-298.154 232.032M-298.154 116.016H-232.44M-298.154 116.016L-330.998 58.008L-298.154 0H-232.44L-199.57 58.008L-232.44 116.016M-232.44 116.016L-199.57 174.024M-199.57 174.024L-232.44 232.032M-199.57 174.024L-232.438 116.016M-232.44 232.032H-298.154M-232.44 232.032L-199.57 290.065M-298.154 232.032L-330.998 290.065L-298.154 348.073M-298.152 232.032L-199.569 174.024M-298.152 232.032L-265.853 116.016L-298.152 0M-298.152 232.032L-232.438 116.016M-298.152 232.032L-215.743 145.501M-298.152 232.032L-265.853 348.073L-298.152 464.089M-298.152 232.032L-232.438 348.073L-298.152 464.089M-298.152 232.032L-215.743 318.563M-298.152 232.032V0M-298.152 232.032V464.089M-232.438 116.016L-298.152 0M-232.438 116.016L-199.569 58.008M-298.152 0L-199.569 58.008M-298.152 0L-215.743 86.5315M-298.154 348.073H-232.44M-298.154 348.073L-330.998 406.081L-298.154 464.089H-232.44L-199.57 406.081L-232.44 348.073M-232.44 348.073L-199.57 290.065M-232.44 348.073L-199.569 406.081M-298.152 464.089L-199.569 406.081M-298.152 464.089L-215.743 377.558M-215.744 145.5L-101.011 116.016M293.277 348.073L260.432 290.065M293.277 348.073L260.432 406.081M293.277 348.073L358.991 348.073M293.277 348.073L358.991 348.073L391.861 406.081L358.991 464.089M260.432 290.065H194.718M260.432 290.065V406.081M260.432 290.065L293.277 232.032M260.432 290.065L260.432 174.024M194.718 290.065L161.849 348.073M194.718 290.065L161.849 232.032M194.718 290.065L161.849 232.032M194.718 290.065L63.2904 290.065M161.849 348.073L194.718 406.081M161.849 348.073L260.432 406.081M161.849 348.073L96.1351 348.073M161.849 348.073L63.2904 290.065M194.718 406.081H260.432M194.718 406.081L161.849 464.089M194.718 406.081L96.1351 348.073M194.718 406.081L96.1351 464.089M260.432 406.081L293.277 464.089M260.432 406.081L260.432 522.097M260.432 406.081L161.849 464.089M260.432 406.081L177.998 492.613M260.433 406.081L228.134 290.065L260.433 174.024M260.433 406.081L194.719 290.065L260.433 174.024M260.433 406.081L177.998 319.549L63.2904 290.065M260.433 406.081L228.134 522.097L260.433 638.113L194.719 522.097M260.433 406.081L194.719 522.097M293.277 232.032L260.432 174.024M293.277 232.032L358.991 232.032M161.849 232.032L194.718 174.024M161.849 232.032L260.432 174.024M194.718 174.024H260.432M194.718 174.024L96.1349 116.016M194.718 174.024L96.1351 232.032M260.432 174.024L293.277 116.016H358.991L391.861 174.024L358.991 232.032M260.433 174.024L177.998 260.555L63.2904 290.065M293.277 464.089L260.432 522.097M293.277 464.089L358.991 464.089M260.432 522.097H194.718M260.432 522.097L293.277 580.105M260.432 522.097L260.432 638.113M194.718 522.097L161.849 464.089M194.718 522.097L161.849 580.105M194.719 522.097L161.849 464.089M194.719 522.097L161.849 580.105M194.719 522.097L63.2904 522.097M293.277 580.105L260.432 638.113M293.277 580.105L358.991 580.105L391.861 522.097L358.991 464.089M161.849 580.105L194.718 638.113H260.432M161.849 580.105L260.432 638.113M161.849 580.105L96.1351 580.105L63.2904 522.097M161.849 580.105L63.2904 522.097M260.432 638.113L177.998 551.582L63.2904 522.097M96.1351 232.032H161.849M96.1351 232.032L63.2904 290.065M161.849 232.032L63.2904 290.065M96.1351 348.073L63.2904 290.065M96.1351 464.089H161.849M96.1351 464.089L63.2904 522.097M161.849 464.089L63.2904 522.097M63.2904 522.097L177.999 492.587M-2.42877 174.024L-35.2983 232.032L-2.42877 290.065M-2.42877 174.024H63.2854M-2.42877 174.024L-35.2983 116.016L-2.42877 58.0077H63.2854L96.1301 116.016L63.2854 174.024M63.2854 174.024L96.1301 232.032L63.2854 290.065M63.2854 290.065H-2.42877M63.2854 290.065L96.1301 348.073L63.2854 406.081M-2.42877 290.065L-35.2983 348.073L-2.42877 406.081M-2.42783 290.065L96.131 232.032M-2.42783 290.065L29.8711 174.024L-2.42783 58.0077M-2.42783 290.065L63.2863 174.024L-2.42783 58.0077M-2.42783 290.065L79.9816 203.533M-2.42783 290.065L96.131 348.073M-2.42783 290.065L29.8711 406.081L-2.42783 522.097M-2.42783 290.065L63.2863 406.081L-2.42783 522.097M-2.42783 290.065L79.9816 376.597M-2.42783 290.065V58.0077M-2.42783 290.065V522.097M-2.42783 58.0077L96.131 116.016M-2.42783 58.0077L79.9816 144.539M-2.42877 406.081H63.2854M-2.42877 406.081L-35.2983 464.089L-2.42877 522.097H63.2854L96.1301 464.089L63.2854 406.081M-2.42783 522.097L96.131 464.089M-2.42783 522.097L79.9816 435.566M63.2888 174.024L96.1335 116.016H161.848L194.717 174.024M63.2888 174.024L96.1335 232.032H161.848L194.717 174.024M63.2888 174.024H194.717M194.717 174.024L79.984 144.539M194.717 174.024L79.9836 203.534M63.2888 406.081L96.1335 348.073H161.848L194.717 406.081M63.2888 406.081L96.1335 464.089H161.848L194.717 406.081M63.2888 406.081H194.717M194.717 406.081L79.984 376.571M194.717 406.081L79.9836 435.565M556.13 348.073L589 406.081L556.13 464.089M556.13 348.073H490.416L457.572 406.081M556.13 348.073V464.089M457.572 406.081L490.416 464.089H556.13M457.572 406.081L556.13 464.089M556.13 464.089L473.721 377.557M556.13 464.089L523.831 580.105L556.13 696.121L490.416 580.105L556.13 464.089ZM523.833 348.073L556.132 464.089L490.418 348.073M556.129 580.105L588.998 522.097L556.129 464.089M556.129 580.105H490.415M556.129 580.105V464.089M556.129 580.105L588.998 638.113L556.129 696.121M556.129 580.105V696.121M490.415 580.105L457.57 522.097M490.415 580.105L457.57 638.113M457.57 522.097L490.415 464.089H556.129M457.57 522.097L556.129 464.089M556.129 464.089L473.72 550.62M457.57 638.113L490.415 696.121H556.129M457.57 638.113L556.129 696.121M556.129 696.121L473.72 609.589M391.86 290.065H457.574M391.86 290.065L358.991 348.073M391.86 290.065L358.991 232.032M457.574 290.065L490.419 348.073M457.574 290.065L358.991 348.073M490.419 348.073L457.574 406.081M490.419 348.073H358.991M457.574 406.081H391.86L358.991 348.073M457.574 406.081L358.991 348.073M358.991 348.073L473.724 318.563M358.991 348.073L473.724 377.557M457.574 522.097H391.86L358.991 580.105M457.574 522.097L490.419 580.105M457.574 522.097L358.991 580.105M490.419 580.105L457.574 638.113M490.419 580.105H358.991M457.574 638.113H391.86L358.991 580.105M457.574 638.113L358.991 580.105M358.991 580.105L473.724 550.62M358.991 580.105L473.724 609.589M293.279 348.073L391.862 290.065M293.279 348.073L325.578 232.032L293.279 116.016M293.279 348.073L358.993 232.032L293.279 116.016M293.279 348.073L375.713 261.542M293.279 348.073L391.862 406.081M293.279 348.073L325.578 464.089L293.279 580.105M293.279 348.073L358.993 464.089M293.279 348.073L375.713 434.605M293.279 348.073V116.016M293.279 348.073V580.105M293.279 116.016L391.862 174.024M293.279 116.016L375.713 202.548M391.862 406.081L457.576 406.081L490.421 464.089M391.862 406.081L358.993 464.089M391.862 406.081L490.422 464.089L391.862 522.097M358.993 464.089L293.279 580.105M358.993 464.089L391.862 522.097M358.993 464.089L490.421 464.089M293.279 580.105L391.862 522.097M293.279 580.105L375.713 493.574M391.862 522.097L457.576 522.097L490.421 464.089M490.421 464.089L375.712 434.58M375.711 493.574L490.42 464.089M-35.2973 1159.93L-2.42776 1217.93L-35.2973 1275.97M-35.2973 1159.93H-101.012M-35.2973 1159.93V1275.97M-35.2973 1159.93L-2.42776 1101.92L-35.2972 1043.91M-35.2973 1159.93L-35.2972 1043.91M-101.012 1159.93L-133.856 1217.93M-101.012 1159.93L-133.856 1101.92M-133.856 1217.93L-101.012 1275.97M-133.856 1217.93L-35.2973 1275.97M-101.012 1275.97H-35.2973M-101.012 1275.97L-133.856 1333.98M-35.2973 1275.97L-117.706 1189.44M-35.2973 1275.97L-2.42776 1333.98L-35.2972 1391.98M-35.2973 1275.97L-35.2972 1391.98M-35.2973 1275.97L-133.856 1333.98M-35.2973 1275.97L-117.706 1362.5M-35.2958 1275.97L-67.5948 1159.93L-35.2958 1043.91M-35.2958 1275.97L-101.01 1159.93M-35.2958 1275.97L-67.5948 1391.98L-35.2958 1508L-101.01 1391.98M-35.2958 1275.97L-101.01 1391.98M-101.01 1159.93L-35.2958 1043.91M-101.01 1159.93L-133.855 1101.92M-101.01 1159.93L-133.855 1217.93M-101.01 1159.93H-232.439M-133.856 1101.92L-101.012 1043.91M-133.856 1101.92L-35.2972 1043.91M-133.856 1101.92L-199.572 1101.92M-101.012 1043.91H-35.2972M-101.012 1043.91L-133.857 985.903M-101.012 1043.91L-199.57 985.903M-101.012 1043.91L-199.569 1101.92M-101.012 1043.91L-215.72 1014.4M-101.012 1043.91L-232.44 1043.91M-35.2972 1043.91L-117.706 1130.44M-35.2972 1043.91L-2.42776 985.903L-35.2972 927.895M-35.2972 1043.91V927.895M-35.2972 1043.91L-133.857 985.903M-35.2972 1043.91L-117.706 957.379M-35.2958 1043.91L-67.5948 927.895L-35.2958 811.879M-35.2958 1043.91L-101.01 927.895M-35.2972 1391.98H-101.012M-35.2972 1391.98L-2.42776 1449.99L-35.2973 1508M-35.2972 1391.98L-35.2973 1508M-101.012 1391.98L-133.856 1333.98M-101.012 1391.98L-133.856 1449.99M-133.856 1333.98L-199.571 1333.98L-232.44 1275.97M-133.856 1333.98L-101.012 1275.97M-101.01 1391.98L-133.855 1333.98M-101.01 1391.98L-133.855 1449.99M-101.01 1391.98L-232.439 1391.98M-133.856 1449.99L-101.012 1508H-35.2973M-133.856 1449.99L-35.2973 1508M-35.2973 1508L-117.706 1421.47M-199.569 1101.92H-133.855M-199.569 1101.92L-232.439 1159.93M-133.855 1101.92L-232.439 1159.93M-133.855 1217.93H-199.569L-232.439 1159.93M-133.855 1217.93L-232.439 1159.93M-232.439 1159.93L-117.706 1130.44M-232.439 1159.93L-117.706 1189.44M-133.855 1333.98H-199.569L-232.439 1391.98M-133.855 1333.98L-232.439 1391.98M-133.855 1449.99H-199.569L-232.439 1391.98M-133.855 1449.99L-232.439 1391.98M-232.439 1391.98L-117.706 1362.47M-232.439 1391.98L-117.706 1421.47M-298.155 1043.91L-331 1101.92L-298.155 1159.93M-298.155 1043.91H-232.441M-298.155 1043.91L-331 985.903L-298.155 927.895M-232.441 1043.91L-199.572 1101.92M-232.441 1043.91L-199.572 985.903L-232.441 927.895M-199.572 1101.92L-232.441 1159.93M-199.572 1101.92L-232.44 1043.91M-232.441 1159.93H-298.155M-232.441 1159.93L-199.572 1217.94L-232.441 1275.97M-298.155 1159.93L-331 1217.94L-298.155 1275.97M-298.154 1159.93L-199.57 1101.92M-298.154 1159.93L-265.855 1043.91L-298.154 927.895M-298.154 1159.93L-232.44 1043.91M-298.154 1159.93L-215.744 1073.4M-298.154 1159.93L-199.57 1217.94M-298.154 1159.93L-265.855 1275.97L-298.154 1391.98M-298.154 1159.93L-232.44 1275.97M-298.154 1159.93L-215.744 1246.46M-298.154 1159.93V927.895M-298.154 1159.93V1391.98M-232.44 1043.91L-298.154 927.895M-232.44 1043.91L-199.57 985.903M-232.441 927.895H-298.155M-232.441 927.895L-199.572 869.887L-232.441 811.879M-298.155 927.895L-331 869.887L-298.155 811.879M-298.154 927.895L-199.57 985.903M-298.154 927.895L-215.744 1014.43M-298.154 927.895L-199.57 869.887M-298.154 927.895L-265.855 811.879L-298.154 695.838M-298.154 927.895L-232.44 811.879L-298.154 695.838M-298.154 927.895L-215.744 841.363M-298.154 927.895V695.838M-199.57 985.903L-133.857 985.903M-298.155 1275.97H-232.441M-298.155 1275.97L-331 1333.98L-298.155 1391.98H-232.441L-199.572 1333.98L-232.441 1275.97M-199.57 1217.94L-133.857 1217.94L-101.012 1275.97M-199.57 1217.94L-232.44 1275.97M-199.57 1217.94L-101.011 1275.97L-298.154 1391.98M-232.44 1275.97L-298.154 1391.98M-298.154 1391.98L-215.744 1305.45M-133.857 985.903L-101.012 927.895M-215.745 1073.4L-101.012 1043.91M-101.012 1275.97L-215.72 1246.46M-101.012 1275.97L-232.44 1275.97M-101.012 1275.97L-215.745 1305.45M-35.2973 695.837L-2.42776 753.845L-35.2973 811.879M-35.2973 695.837H-101.012M-35.2973 695.837V811.879M-35.2973 695.837L-2.42776 637.83L-35.2972 579.822M-35.2973 695.837L-35.2972 579.822M-101.012 695.837L-133.856 753.845M-101.012 695.837L-133.856 637.83M-133.856 753.845L-101.012 811.879M-133.856 753.845L-35.2973 811.879M-133.856 753.845L-199.571 753.845L-232.44 811.879M-101.012 811.879H-35.2973M-101.012 811.879L-133.856 869.887M-101.012 811.879L-199.57 869.887M-101.012 811.879L-215.72 782.369M-101.012 811.879L-232.44 811.879M-101.012 811.879L-298.154 695.838M-35.2973 811.879L-117.706 725.347M-35.2973 811.879L-2.42776 869.887L-35.2972 927.895M-35.2973 811.879L-35.2972 927.895M-35.2973 811.879L-133.856 869.887M-35.2973 811.879L-117.706 898.411M-35.2958 811.879L-67.5948 695.838L-35.2958 579.822L-101.01 695.838M-35.2958 811.879L-101.01 695.838M-35.2958 811.879L-101.01 927.895M-101.01 695.838L-133.855 637.83M-101.01 695.838L-133.855 753.846M-101.01 695.838L-232.439 695.838M-133.856 637.83L-101.012 579.822M-133.856 637.83L-35.2972 579.822M-133.856 637.83L-199.572 637.83M-101.012 579.822H-35.2972M-101.012 579.822L-133.857 521.814L-199.572 521.814M-101.012 579.822L-199.569 637.83M-101.012 579.822L-215.72 550.337M-101.012 579.822L-232.44 579.822M-101.012 579.822L-298.154 463.806M-35.2972 579.822L-117.706 666.353M-35.2972 927.895H-101.012M-101.012 927.895L-133.856 869.887M-133.856 869.887L-199.57 869.887M-101.01 927.895L-133.855 869.887M-101.01 927.895L-133.855 985.903M-101.01 927.895L-232.439 927.895M-199.569 637.83H-133.855M-199.569 637.83L-232.439 695.838M-133.855 637.83L-232.439 695.838M-133.855 753.846H-199.569L-232.439 695.838M-133.855 753.846L-232.439 695.838M-232.439 695.838L-117.706 666.353M-232.439 695.838L-117.706 725.347M-133.855 869.887H-199.569L-232.439 927.895M-133.855 869.887L-232.439 927.895M-133.855 985.903H-199.569L-232.439 927.895M-133.855 985.903L-232.439 927.895M-232.439 927.895L-117.706 898.385M-232.439 927.895L-117.706 957.379M-298.155 579.822L-331 637.83L-298.155 695.838M-298.155 579.822H-232.441M-298.155 579.822L-331 521.814L-298.155 463.806H-232.441L-199.572 521.814M-232.441 579.822L-199.572 637.83M-232.441 579.822L-199.572 521.814M-199.572 637.83L-232.441 695.838M-232.441 695.838H-298.155M-232.441 695.838L-199.572 753.846L-232.441 811.879M-298.155 695.838L-331 753.846L-298.155 811.879M-298.154 695.838L-199.57 637.83M-298.154 695.838L-265.855 579.822L-298.154 463.806M-298.154 695.838L-232.44 579.822M-298.154 695.838L-215.744 609.306M-298.154 695.838L-215.744 782.369M-298.154 695.838V463.806M-232.44 579.822L-298.154 463.806M-298.154 463.806L-215.744 550.337M-298.155 811.879H-232.441M-199.57 869.887L-232.44 811.879M-215.745 609.306L-101.012 579.822M-215.745 841.363L-101.012 811.879M-2.43024 1101.92L-35.2997 1159.93L-2.43024 1217.93M-2.43024 1101.92H63.2839M-2.43024 1101.92L-35.2997 1043.91L-2.43024 985.903M63.2839 1101.92L96.1286 1159.93L63.2839 1217.93M63.2839 1101.92L96.1286 1043.91L63.2839 985.903M63.2839 1217.93H-2.43024M63.2839 1217.93L96.1286 1275.97L63.2839 1333.98M-2.43024 1217.93L-35.2997 1275.97L-2.43024 1333.98M-2.42926 1217.93L96.1296 1159.93M-2.42926 1217.93L29.8696 1101.92L-2.42926 985.903M-2.42926 1217.93L63.2849 1101.92L-2.42926 985.903M-2.42926 1217.93L79.9801 1131.4M-2.42926 1217.93L96.1296 1275.97M-2.42926 1217.93L29.8696 1333.98L-2.42926 1449.99M-2.42926 1217.93L63.2849 1333.98L-2.42926 1449.99M-2.42926 1217.93L79.9801 1304.47M-2.42926 1217.93V985.903M-2.42926 1217.93V1449.99M63.2839 985.903H-2.43024M63.2839 985.903L96.1286 927.895L63.2839 869.887M-2.43024 985.903L-35.2997 927.895L-2.43024 869.887M-2.42926 985.903L96.1296 1043.91M-2.42926 985.903L79.9801 1072.43M-2.42926 985.903L96.1296 927.895M-2.42926 985.903L29.8696 869.887L-2.42926 753.846M-2.42926 985.903L63.2849 869.887L-2.42926 753.846M-2.42926 985.903L79.9801 899.371M-2.42926 985.903V753.846M-2.43024 1333.98H63.2839M-2.43024 1333.98L-35.2997 1391.98L-2.43024 1449.99H63.2839L96.1286 1391.98L63.2839 1333.98M-2.42926 1449.99L96.1296 1391.98M-2.42926 1449.99L79.9801 1363.46M63.2873 1101.92L96.132 1043.91H161.846L194.716 1101.92M63.2873 1101.92L96.132 1159.93H161.846L194.716 1101.92M63.2873 1101.92H194.716M194.716 1101.92L79.9826 1072.43M194.716 1101.92L79.9822 1131.4M96.1335 1043.91L194.717 1101.92L96.1335 1159.93M63.2873 1333.98L96.132 1275.97H161.846L194.716 1333.98M63.2873 1333.98L96.132 1391.98H161.846L194.716 1333.98M63.2873 1333.98H194.716M194.716 1333.98L79.9826 1304.47M194.716 1333.98L79.9822 1363.46M96.1335 1275.97L194.717 1333.98L96.1335 1391.98M-2.43024 637.83L-35.2997 695.838L-2.43024 753.846M-2.43024 637.83H63.2839M-2.43024 637.83L-35.2997 579.822L-2.43024 521.814H63.2839L96.1286 579.822L63.2839 637.83M63.2839 637.83L96.1286 695.838L63.2839 753.846M63.2839 753.846H-2.43024M63.2839 753.846L96.1286 811.879L63.2839 869.887M-2.43024 753.846L-35.2997 811.879L-2.43024 869.887M-2.42926 753.846L96.1296 695.838M-2.42926 753.846L29.8696 637.83L-2.42926 521.814M-2.42926 753.846L63.2849 637.83L-2.42926 521.814M-2.42926 753.846L79.9801 667.314M-2.42926 753.846L96.1296 811.879M-2.42926 753.846L79.9801 840.377M-2.42926 753.846V521.814M-2.42926 521.814L96.1296 579.822M-2.42926 521.814L79.9801 608.345M-2.43024 869.887H63.2839M63.2873 637.83L96.132 579.822H161.846L194.716 637.83M63.2873 637.83L96.132 695.838H161.846L194.716 637.83M63.2873 637.83H194.716M194.716 637.83L79.9826 608.345M194.716 637.83L79.9822 667.314M96.1335 579.822L194.717 637.83L96.1335 695.838M63.2873 869.887L96.132 811.879H161.846L194.716 869.887M63.2873 869.887L96.132 927.895H161.846L194.716 869.887M63.2873 869.887H194.716M194.716 869.887L79.9826 840.377M194.716 869.887L79.9822 899.371M96.1335 811.879L194.717 869.887L96.1335 927.895" stroke="white" stroke-opacity="0.1" stroke-width="1.5" stroke-linecap="round" stroke-linejoin="round"/>
</g>
<defs>
<clipPath id="clip0_2654_2221">
<rect width="589" height="1508" fill="white"/>
</clipPath>
</defs>
</svg>
