<svg width="14" height="15" viewBox="0 0 14 15" fill="none" xmlns="http://www.w3.org/2000/svg">
<path d="M6.71317 11.9576C6.78965 12.033 6.89273 12.0752 7.00011 12.0752C7.1075 12.0752 7.21057 12.033 7.28705 11.9576L11.5289 7.71848C11.5673 7.6808 11.5979 7.63592 11.6189 7.58642C11.64 7.53691 11.6511 7.48375 11.6516 7.42995C11.6521 7.37616 11.642 7.3228 11.6218 7.27291C11.6017 7.22302 11.572 7.17758 11.5343 7.13919C11.4966 7.10079 11.4517 7.0702 11.4022 7.04915C11.3527 7.0281 11.2996 7.01701 11.2458 7.0165C11.192 7.016 11.1386 7.0261 11.0887 7.04622C11.0388 7.06634 10.9934 7.09609 10.955 7.13377L7.40616 10.6907V1.02143C7.40616 0.913743 7.36338 0.810463 7.28723 0.734315C7.21108 0.658167 7.1078 0.615387 7.00011 0.615387C6.89242 0.615387 6.78914 0.658167 6.713 0.734315C6.63685 0.810463 6.59407 0.913743 6.59407 1.02143V10.6907L3.04523 7.13377C3.00771 7.0958 2.96303 7.06565 2.91378 7.04507C2.86452 7.02449 2.81167 7.01389 2.75829 7.01389C2.70491 7.01389 2.65206 7.02449 2.6028 7.04507C2.55355 7.06565 2.50887 7.0958 2.47135 7.13377C2.39597 7.21025 2.35371 7.31333 2.35371 7.42071C2.35371 7.5281 2.39597 7.63117 2.47135 7.70765L6.71317 11.9576ZM13.0556 12.1877C12.9479 12.1877 12.8446 12.2305 12.7685 12.3066C12.6923 12.3828 12.6496 12.486 12.6496 12.5937V13.9229H1.35067V12.5937C1.35067 12.486 1.30789 12.3828 1.23174 12.3066C1.15559 12.2305 1.05231 12.1877 0.94462 12.1877C0.83693 12.1877 0.73365 12.2305 0.657502 12.3066C0.581354 12.3828 0.538574 12.486 0.538574 12.5937V14.3289C0.538574 14.4366 0.581354 14.5399 0.657502 14.616C0.73365 14.6922 0.83693 14.7349 0.94462 14.7349H13.0556C13.1633 14.7349 13.2666 14.6922 13.3427 14.616C13.4189 14.5399 13.4617 14.4366 13.4617 14.3289V12.5937C13.4617 12.486 13.4189 12.3828 13.3427 12.3066C13.2666 12.2305 13.1633 12.1877 13.0556 12.1877Z" fill="#244C60"/>
</svg>
