<svg width="29" height="31" viewBox="0 0 29 31" fill="none" xmlns="http://www.w3.org/2000/svg">
<path d="M9 20.1104H10.5M20 20.1104H18.5M14.5 20.1104H14H10.5M14.5 20.1104V29.6104M14.5 20.1104H16.5H18.5M14.5 29.6104H10.5M14.5 29.6104H18.5M10.5 20.1104V29.6104M10.5 29.6104H7V6.61037H22V15.1104M18.5 20.1104V29.6104M18.5 29.6104H22V15.1104M22 15.1104H26V29.6104H22.5H28H28.5H3M0.5 29.6104H3M3 29.6104V15.1104H5H7M10 9.61037H13.5V12.1104H10V9.61037ZM15.5 9.61037V12.1104H19V9.61037H15.5ZM10 15.1104H13.5V17.6104H10V15.1104ZM15.5 15.1104H19V17.6104H15.5V15.1104ZM19.8252 3.21589H18.7525C18.6557 3.21589 18.6154 3.33985 18.6938 3.39679L19.5616 4.02728C19.5966 4.05275 19.6113 4.09789 19.5979 4.13909L19.2664 5.15925C19.2365 5.25138 19.3419 5.32799 19.4203 5.27105L20.2881 4.64056C20.3231 4.6151 20.3706 4.61509 20.4057 4.64056L21.2735 5.27105C21.3518 5.32799 21.4573 5.25138 21.4273 5.15925L21.0959 4.13909C21.0825 4.09789 21.0971 4.05275 21.1322 4.02728L22 3.39679C22.0784 3.33985 22.0381 3.21589 21.9412 3.21589H20.8686C20.8252 3.21589 20.7868 3.18799 20.7735 3.14679L20.442 2.12663C20.412 2.0345 20.2817 2.0345 20.2518 2.12663L19.9203 3.14679C19.9069 3.18799 19.8685 3.21589 19.8252 3.21589ZM8.13144 3.21591H7.05878C6.96191 3.21591 6.92163 3.33988 7 3.39682L7.8678 4.02731C7.90285 4.05277 7.91752 4.09791 7.90413 4.13911L7.57266 5.15928C7.54272 5.25141 7.64817 5.32802 7.72654 5.27108L8.59435 4.64059C8.62939 4.61512 8.67685 4.61512 8.7119 4.64058L9.5797 5.27108C9.65808 5.32802 9.76352 5.25141 9.73359 5.15928L9.40212 4.13911C9.38873 4.09791 9.4034 4.05277 9.43845 4.02731L10.3062 3.39682C10.3846 3.33988 10.3443 3.21591 10.2475 3.21591H9.17481C9.13148 3.21591 9.09309 3.18802 9.0797 3.14682L8.74823 2.12665C8.71829 2.03452 8.58795 2.03452 8.55802 2.12665L8.22655 3.14682C8.21316 3.18802 8.17476 3.21591 8.13144 3.21591ZM14.0777 2.15836H13.0051C12.9082 2.15836 12.8679 2.28232 12.9463 2.33926L13.8141 2.96976C13.8491 2.99522 13.8638 3.04036 13.8504 3.08156L13.5189 4.10172C13.489 4.19385 13.5945 4.27046 13.6728 4.21352L14.5406 3.58303C14.5757 3.55757 14.6231 3.55756 14.6582 3.58303L15.526 4.21352C15.6044 4.27046 15.7098 4.19385 15.6799 4.10172L15.3484 3.08156C15.335 3.04036 15.3497 2.99522 15.3847 2.96976L16.2525 2.33926C16.3309 2.28232 16.2906 2.15836 16.1938 2.15836H15.1211C15.0778 2.15836 15.0394 2.13046 15.026 2.08926L14.6945 1.0691C14.6646 0.976967 14.5342 0.976966 14.5043 1.0691L14.1728 2.08926C14.1594 2.13046 14.121 2.15836 14.0777 2.15836Z" stroke="white" stroke-linecap="round" stroke-linejoin="round"/>
</svg>
