<svg width="30" height="30" viewBox="0 0 30 30" fill="none" xmlns="http://www.w3.org/2000/svg">
<path d="M9.6665 19.7687H11.1665M20.6665 19.7687H19.1665M15.1665 19.7687H14.6665H11.1665M15.1665 19.7687V29.2687M15.1665 19.7687H17.1665H19.1665M15.1665 29.2687H11.1665M15.1665 29.2687H19.1665M11.1665 19.7687V29.2687M11.1665 29.2687H7.6665V6.26868H22.6665V14.7687M19.1665 19.7687V29.2687M19.1665 29.2687H22.6665V14.7687M22.6665 14.7687H26.6665V29.2687H23.1665H28.6665H29.1665H3.6665M1.1665 29.2687H3.6665M3.6665 29.2687V14.7687H5.6665H7.6665M10.6665 9.26868H14.1665V11.7687H10.6665V9.26868ZM16.1665 9.26868V11.7687H19.6665V9.26868H16.1665ZM10.6665 14.7687H14.1665V17.2687H10.6665V14.7687ZM16.1665 14.7687H19.6665V17.2687H16.1665V14.7687ZM24.4917 3.40207H23.419C23.3222 3.40207 23.2819 3.52603 23.3603 3.58297L24.2281 4.21347C24.2631 4.23893 24.2778 4.28407 24.2644 4.32527L23.9329 5.34543C23.903 5.43756 24.0084 5.51418 24.0868 5.45724L24.9546 4.82675C24.9897 4.80128 25.0371 4.80128 25.0722 4.82674L25.94 5.45723C26.0183 5.51417 26.1238 5.43756 26.0938 5.34543L25.7624 4.32527C25.749 4.28407 25.7637 4.23893 25.7987 4.21347L26.6665 3.58297C26.7449 3.52603 26.7046 3.40207 26.6077 3.40207H25.5351C25.4917 3.40207 25.4533 3.37418 25.44 3.33297L25.1085 2.31281C25.0786 2.22068 24.9482 2.22068 24.9183 2.31281L24.5868 3.33297C24.5734 3.37418 24.535 3.40207 24.4917 3.40207ZM5.18545 3.40207H4.11279C4.01592 3.40207 3.97564 3.52603 4.05401 3.58297L4.92181 4.21347C4.95686 4.23893 4.97153 4.28407 4.95814 4.32527L4.62667 5.34543C4.59673 5.43756 4.70218 5.51418 4.78055 5.45724L5.64836 4.82674C5.6834 4.80128 5.73086 4.80128 5.76591 4.82674L6.63371 5.45724C6.71209 5.51418 6.81753 5.43756 6.7876 5.34543L6.45613 4.32527C6.44274 4.28407 6.45741 4.23893 6.49246 4.21347L7.36026 3.58297C7.43863 3.52603 7.39835 3.40207 7.30148 3.40207H6.22882C6.18549 3.40207 6.1471 3.37418 6.13371 3.33297L5.80224 2.31281C5.7723 2.22068 5.64196 2.22068 5.61203 2.31281L5.28056 3.33297C5.26717 3.37418 5.22878 3.40207 5.18545 3.40207ZM11.7979 2.27014H10.7253C10.6284 2.27014 10.5881 2.3941 10.6665 2.45104L11.5343 3.08153C11.5694 3.107 11.584 3.15213 11.5706 3.19334L11.2392 4.2135C11.2092 4.30563 11.3147 4.38224 11.393 4.3253L12.2608 3.69481C12.2959 3.66934 12.3434 3.66934 12.3784 3.69481L13.2462 4.3253C13.3246 4.38224 13.43 4.30563 13.4001 4.2135L13.0686 3.19334C13.0552 3.15213 13.0699 3.107 13.1049 3.08153L13.9728 2.45104C14.0511 2.3941 14.0108 2.27014 13.914 2.27014H12.8413C12.798 2.27014 12.7596 2.24224 12.7462 2.20104L12.4147 1.18088C12.3848 1.08874 12.2545 1.08874 12.2245 1.18087L11.8931 2.20104C11.8797 2.24224 11.8413 2.27014 11.7979 2.27014ZM17.4917 2.15837H16.419C16.3222 2.15837 16.2819 2.28233 16.3603 2.33927L17.2281 2.96977C17.2631 2.99523 17.2778 3.04037 17.2644 3.08157L16.9329 4.10173C16.903 4.19386 17.0084 4.27047 17.0868 4.21353L17.9546 3.58304C17.9897 3.55758 18.0371 3.55758 18.0722 3.58304L18.94 4.21353C19.0183 4.27047 19.1238 4.19386 19.0938 4.10173L18.7624 3.08157C18.749 3.04037 18.7637 2.99523 18.7987 2.96977L19.6665 2.33927C19.7449 2.28233 19.7046 2.15837 19.6077 2.15837H18.5351C18.4917 2.15837 18.4533 2.13048 18.44 2.08927L18.1085 1.06911C18.0786 0.976978 17.9482 0.976977 17.9183 1.06911L17.5868 2.08927C17.5734 2.13048 17.535 2.15837 17.4917 2.15837Z" stroke="white" stroke-linecap="round" stroke-linejoin="round"/>
</svg>
