<svg width="35" height="36" viewBox="0 0 35 36" fill="none" xmlns="http://www.w3.org/2000/svg">
<path d="M29.1808 4.72949H8.94094C8.65086 4.72949 8.37266 4.84473 8.16754 5.04984C7.96242 5.25496 7.84719 5.53316 7.84719 5.82324C7.84719 6.11332 7.96242 6.39152 8.16754 6.59664C8.37266 6.80176 8.65086 6.91699 8.94094 6.91699H27.0359L4.59328 29.3607C4.48479 29.4606 4.39761 29.5814 4.33698 29.7158C4.27635 29.8502 4.24352 29.9954 4.24047 30.1429C4.23741 30.2903 4.2642 30.4368 4.31921 30.5736C4.37422 30.7104 4.45633 30.8346 4.56059 30.9389C4.66485 31.0432 4.78911 31.1253 4.92591 31.1803C5.06271 31.2353 5.20922 31.2621 5.35664 31.259C5.50406 31.256 5.64933 31.2231 5.78374 31.1625C5.91814 31.1019 6.0389 31.0147 6.13875 30.9062L28.5825 8.46246V26.5586C28.5825 26.8486 28.6977 27.1268 28.9029 27.332C29.108 27.5371 29.3862 27.6523 29.6763 27.6523C29.9663 27.6523 30.2445 27.5371 30.4496 27.332C30.6548 27.1268 30.77 26.8486 30.77 26.5586V6.3198C30.7694 5.89839 30.6018 5.49439 30.304 5.19631C30.0061 4.89822 29.6022 4.73036 29.1808 4.72949Z" fill="#5A5A5A"/>
</svg>
