<svg width="208" height="208" viewBox="0 0 208 208" fill="none" xmlns="http://www.w3.org/2000/svg">
<path d="M166.207 25.7668C149.591 9.15078 127.499 0 104 0C80.5021 0 58.4094 9.15078 41.7938 25.7668C25.1778 42.3832 16.027 64.4751 16.027 87.973C16.027 135.509 60.9737 175.047 85.1208 196.289C88.4764 199.24 91.3742 201.79 93.6829 203.946C96.5754 206.648 100.288 207.999 104 207.999C107.713 207.999 111.425 206.648 114.318 203.946C116.626 201.789 119.524 199.24 122.88 196.289C147.027 175.047 191.973 135.509 191.973 87.973C191.973 64.4751 182.823 42.3832 166.207 25.7668ZM114.832 187.141C111.403 190.157 108.442 192.762 106 195.043C104.878 196.09 103.122 196.09 102 195.043C99.5585 192.762 96.5969 190.157 93.1678 187.14C70.4665 167.171 28.2104 130 28.2104 87.9734C28.2104 46.1833 62.2091 12.1847 104 12.1847C145.79 12.1847 179.788 46.1833 179.788 87.9734C179.789 130 137.533 167.171 114.832 187.141Z" fill="#5A5A5A"/>
<path d="M104.001 45.8811C82.6233 45.8811 65.2317 63.2723 65.2317 84.6495C65.2317 106.027 82.6233 123.418 104.001 123.418C125.378 123.418 142.769 106.027 142.769 84.6495C142.769 63.2723 125.378 45.8811 104.001 45.8811ZM104.001 111.233C89.3418 111.233 77.4159 99.3074 77.4159 84.6491C77.4159 69.9908 89.3418 58.0649 104.001 58.0649C118.659 58.0649 130.585 69.9908 130.585 84.6491C130.585 99.3074 118.659 111.233 104.001 111.233Z" fill="#5A5A5A"/>
</svg>
