<svg width="44" height="48" viewBox="0 0 44 48" fill="none" xmlns="http://www.w3.org/2000/svg">
<path fill-rule="evenodd" clip-rule="evenodd" d="M25.9768 5.15C24.8443 4.17443 23.4434 3.64379 22.0003 3.64379C20.5573 3.64379 19.1564 4.17443 18.0238 5.15L6.10716 15.414C5.34648 16.0693 4.73175 16.904 4.30913 17.8555C3.8865 18.807 3.66696 19.8507 3.66699 20.908V37C3.66699 38.8565 4.34303 40.637 5.54639 41.9497C6.74975 43.2625 8.38185 44 10.0837 44H33.917C35.6188 44 37.2509 43.2625 38.4543 41.9497C39.6576 40.637 40.3337 38.8565 40.3337 37V20.908C40.3337 19.8507 40.1141 18.807 39.6915 17.8555C39.2689 16.904 38.6542 16.0693 37.8935 15.414L25.9768 5.15ZM19.1605 6.72C19.9694 6.02345 20.9698 5.64459 22.0003 5.64459C23.0308 5.64459 24.0313 6.02345 24.8402 6.72L36.7568 16.984C37.3002 17.4519 37.7394 18.0481 38.0414 18.7277C38.3433 19.4073 38.5002 20.1528 38.5003 20.908V37C38.5003 38.3261 38.0174 39.5979 37.1579 40.5355C36.2984 41.4732 35.1326 42 33.917 42H10.0837C8.86808 42 7.70229 41.4732 6.84275 40.5355C5.98321 39.5979 5.50033 38.3261 5.50033 37V20.908C5.50019 20.1529 5.65682 19.4076 5.95846 18.728C6.2601 18.0484 6.69892 17.4521 7.24199 16.984L19.1605 6.72Z" fill="white"/>
</svg>
