<svg width="31" height="30" viewBox="0 0 31 30" fill="none" xmlns="http://www.w3.org/2000/svg">
<g clip-path="url(#clip0_2675_306)">
<path d="M29.833 26H28.833V15.4455C28.936 15.4795 29.0425 15.4995 29.1495 15.4995C29.2871 15.4997 29.4233 15.4716 29.5495 15.4168C29.6757 15.362 29.7892 15.2817 29.883 15.181L30.5655 14.449C30.6553 14.3531 30.7251 14.2402 30.7709 14.1171C30.8167 13.9939 30.8374 13.8628 30.832 13.7315C30.8274 13.6001 30.7968 13.4709 30.7418 13.3514C30.6869 13.2319 30.6088 13.1246 30.512 13.0355L16.8545 0.399507C16.5756 0.144105 16.2112 0.00244141 15.833 0.00244141C15.4548 0.00244141 15.0904 0.144105 14.8115 0.399507L1.15401 13.036C0.957508 13.2175 0.844008 13.4645 0.834008 13.732C0.82867 13.8634 0.849528 13.9946 0.895366 14.1178C0.941205 14.2411 1.01111 14.354 1.10101 14.45L1.78301 15.1815C2.05851 15.4775 2.47201 15.5665 2.83301 15.4465V26H1.83301C1.28151 26 0.833008 26.4485 0.833008 27V29C0.833008 29.5515 1.28151 30 1.83301 30H29.833C30.3845 30 30.833 29.5515 30.833 29V27C30.833 26.4485 30.3845 26 29.833 26ZM26.833 26V13.7195L27.833 14.6445V25.9995L26.833 26ZM5.83301 14H9.83301V15H5.83301V14ZM5.83301 16H9.83301V21H5.83301V16ZM5.83301 22H9.83301V23H5.83301V22ZM9.83301 13H5.83301V12.7945L9.83301 9.09351V13ZM5.83301 24H9.83301V26H5.83301V24ZM10.833 8.16801L11.833 7.24301V26H10.833V8.16801ZM12.833 16.5H18.833V17.5H12.833V16.5ZM18.833 15.5H17.333V4.93001L18.833 6.31801V15.5ZM16.333 15.5H15.333V4.00451L15.833 3.54201L16.333 4.00451V15.5ZM14.333 15.5H12.833V6.31751L14.333 4.92951V15.5ZM12.833 18.5H18.833V26H12.833V18.5ZM19.833 7.24301L20.833 8.16801V26H19.833V7.24301ZM25.833 21H21.833V16H25.833V21ZM25.833 15H21.833V14H25.833V15ZM21.833 22H25.833V23H21.833V22ZM25.833 13H21.833V9.09351L25.833 12.7945V13ZM21.833 24H25.833V26H21.833V24ZM1.83251 13.7705L15.49 1.13401C15.5836 1.04842 15.7059 1.00096 15.8328 1.00096C15.9596 1.00096 16.0819 1.04842 16.1755 1.13401L29.833 13.7685L29.1485 14.5005L16.1725 2.49351C16.0803 2.40772 15.959 2.36003 15.833 2.36003C15.707 2.36003 15.5857 2.40772 15.4935 2.49351L2.51451 14.4995L1.83251 13.7705ZM3.83301 14.645L4.83301 13.72V26.0005H3.83301V14.645ZM1.83301 29V27H29.833L29.834 29H1.83301Z" fill="white"/>
</g>
<defs>
<clipPath id="clip0_2675_306">
<rect width="30" height="30" fill="white" transform="translate(0.833008)"/>
</clipPath>
</defs>
</svg>
