<svg width="18" height="21" viewBox="0 0 18 21" fill="none" xmlns="http://www.w3.org/2000/svg">
<path d="M15.0074 0H7.50745C5.84995 0 4.50745 1.3425 4.50745 3V6.75C4.50745 7.1625 4.84495 7.5 5.25745 7.5C5.66995 7.5 6.00745 7.1625 6.00745 6.75V3C6.00745 2.175 6.68245 1.5 7.50745 1.5V2.25C7.50745 3.4875 8.51995 4.5 9.75745 4.5H12.7574C13.9949 4.5 15.0074 3.4875 15.0074 2.25V1.5C15.8324 1.5 16.5074 2.175 16.5074 3V18C16.5074 18.825 15.8324 19.5 15.0074 19.5H14.2574C13.8449 19.5 13.5074 19.8375 13.5074 20.25C13.5074 20.6625 13.8449 21 14.2574 21H15.0074C16.6649 21 18.0074 19.6575 18.0074 18V3C18.0074 1.3425 16.6649 0 15.0074 0ZM13.5074 2.25C13.5074 2.6625 13.1699 3 12.7574 3H9.75745C9.34495 3 9.00745 2.6625 9.00745 2.25V1.5H13.5074V2.25Z" fill="black"/>
<path d="M10.815 15C10.23 14.415 9.2775 14.415 8.6925 15L8.25 15.4425L5.5575 12.75L6 12.3075C6.585 11.7225 6.585 10.77 6 10.185L4.0575 8.24246C3.4725 7.65746 2.52 7.65746 1.935 8.24246L1.095 9.08246C0.39 9.78746 0 10.7325 0 11.7375V12.255C0 13.26 0.39 14.1975 1.095 14.91L6.09 19.905C6.795 20.61 7.74 21 8.745 21H9.2625C10.2675 21 11.205 20.61 11.9175 19.905L12.7575 19.065C13.3425 18.48 13.3425 17.5275 12.7575 16.9425L10.815 15ZM10.8525 18.84C10.4325 19.26 9.855 19.5 9.2625 19.5H8.745C8.1525 19.5 7.575 19.26 7.155 18.84L2.16 13.845C1.74 13.425 1.5 12.8475 1.5 12.255V11.7375C1.5 11.145 1.74 10.5675 2.16 10.1475L3 9.30746L4.9425 11.25L3.975 12.2175C3.90547 12.2868 3.85031 12.3693 3.81268 12.46C3.77504 12.5507 3.75567 12.648 3.75567 12.7462C3.75567 12.8444 3.77504 12.9417 3.81268 13.0324C3.85031 13.1232 3.90547 13.2056 3.975 13.275L7.725 17.025C8.0175 17.3175 8.49 17.3175 8.7825 17.025L9.75 16.0575L11.6925 18L10.8525 18.84Z" fill="black"/>
</svg>
