<svg width="35" height="40" viewBox="0 0 35 40" fill="none" xmlns="http://www.w3.org/2000/svg">
<path d="M17.2645 39.0474C14.5984 39.0439 11.9705 38.4124 9.59396 37.204C7.21739 35.9955 5.15896 34.2442 3.58548 32.0918C2.012 29.9395 0.967734 27.4467 0.537317 24.8155C0.1069 22.1843 0.302438 19.4887 1.10808 16.9472C1.1589 16.7773 1.24268 16.6191 1.35463 16.4816C1.46659 16.3441 1.60453 16.23 1.76058 16.1459C1.91663 16.0617 2.08774 16.009 2.26413 15.991C2.44052 15.9729 2.61874 15.9898 2.78861 16.0406C2.95849 16.0914 3.11669 16.1752 3.25419 16.2871C3.39169 16.3991 3.50579 16.537 3.58997 16.6931C3.67416 16.8491 3.72679 17.0202 3.74485 17.1966C3.76291 17.373 3.74605 17.5512 3.69524 17.7211C3.01532 19.8876 2.85597 22.184 3.23014 24.4236C3.6043 26.6633 4.50143 28.7831 5.84865 30.611C7.29723 32.5591 9.22019 34.104 11.4346 35.0989C13.6489 36.0939 16.0811 36.5056 18.4995 36.295C20.918 36.0844 23.2423 35.2585 25.2514 33.8958C27.2605 32.5331 28.8874 30.679 29.9775 28.5099C31.0675 26.3407 31.5844 23.9288 31.479 21.5035C31.3735 19.0781 30.6492 16.7202 29.375 14.6538C28.1007 12.5875 26.319 10.8817 24.1992 9.69851C22.0794 8.51536 19.6921 7.8943 17.2645 7.89443H8.35932C8.00133 7.89443 7.65799 7.75221 7.40485 7.49907C7.15171 7.24593 7.0095 6.9026 7.0095 6.54461C7.0095 6.18661 7.15171 5.84328 7.40485 5.59014C7.65799 5.337 8.00133 5.19479 8.35932 5.19479H17.2645C19.4977 5.1785 21.712 5.60429 23.7799 6.44762C25.8478 7.29095 27.7284 8.53514 29.3133 10.1085C30.8981 11.6819 32.156 13.5533 33.0144 15.615C33.8728 17.6767 34.3147 19.8878 34.3147 22.1211C34.3147 24.3543 33.8728 26.5655 33.0144 28.6272C32.156 30.6888 30.8981 32.5603 29.3133 34.1337C27.7284 35.707 25.8478 36.9512 23.7799 37.7945C21.712 38.6379 19.4977 39.0637 17.2645 39.0474Z" fill="#222222"/>
<path d="M13.4248 12.9613C13.2476 12.9614 13.0721 12.9265 12.9084 12.8585C12.7447 12.7906 12.596 12.6909 12.471 12.5654L7.40464 7.49904C7.15142 7.24594 7.00912 6.90261 7.00903 6.54459C7.00895 6.18656 7.15109 5.84317 7.40419 5.58995C7.6573 5.33673 8.00062 5.19442 8.35865 5.19434C8.71667 5.19425 9.06007 5.3364 9.31329 5.5895L14.3796 10.6567C14.5682 10.8455 14.6965 11.0859 14.7485 11.3476C14.8005 11.6093 14.7738 11.8805 14.6717 12.127C14.5696 12.3735 14.3968 12.5842 14.175 12.7326C13.9533 12.8809 13.6925 12.9602 13.4257 12.9604L13.4248 12.9613Z" fill="#222222"/>
<path d="M8.3593 7.89428C8.09243 7.89423 7.83156 7.81506 7.60966 7.66679C7.38777 7.51853 7.2148 7.30781 7.11262 7.06127C7.01044 6.81474 6.98364 6.54344 7.03559 6.28167C7.08755 6.01991 7.21594 5.77941 7.40453 5.59059L12.4709 0.522465C12.7254 0.276585 13.0664 0.14053 13.4203 0.143606C13.7742 0.146681 14.1128 0.28864 14.3631 0.538908C14.6133 0.789176 14.7553 1.12773 14.7584 1.48165C14.7614 1.83556 14.6254 2.17653 14.3795 2.43111L9.31317 7.49834C9.1881 7.62391 9.03944 7.72354 8.87574 7.79149C8.71205 7.85944 8.53654 7.89437 8.3593 7.89428Z" fill="#222222"/>
</svg>
