<svg width="31" height="30" viewBox="0 0 31 30" fill="none" xmlns="http://www.w3.org/2000/svg">
<path d="M11.2627 1.73627C11.1746 1.73786 11.0886 1.76427 11.0147 1.81246C11.0147 1.81246 10.6285 2.06049 10.2352 2.44318C9.8454 2.82586 9.39008 3.35914 9.3635 4.06427C9.34578 4.49479 9.54067 4.78712 9.7267 5.10957C9.91272 5.43379 10.1236 5.75269 10.2493 5.97769C10.2848 6.04325 10.2919 6.09285 10.2671 6.19384C10.2275 6.32447 10.1658 6.44733 10.0846 6.55704C9.90564 6.80862 9.67709 7.0035 9.67709 7.0035C9.62325 7.04022 9.57765 7.08775 9.54319 7.14306C9.50873 7.19837 9.48615 7.26024 9.47691 7.32475C9.46766 7.38926 9.47195 7.45498 9.48949 7.51774C9.50703 7.5805 9.53745 7.63893 9.5788 7.68929C9.62015 7.73966 9.67154 7.78086 9.72969 7.81028C9.78783 7.8397 9.85147 7.8567 9.91654 7.86018C9.98161 7.86367 10.0467 7.85357 10.1077 7.83053C10.1686 7.80749 10.2241 7.77201 10.2706 7.72635C10.2706 7.72635 10.5824 7.47123 10.8482 7.09563C10.9811 6.90783 11.1104 6.68814 11.1777 6.41707C11.2541 6.11423 11.2143 5.79376 11.0661 5.51883C10.9084 5.23713 10.7011 4.92531 10.5399 4.64361C10.3787 4.36191 10.3007 4.0749 10.3007 4.0997C10.3114 3.82686 10.5753 3.42292 10.8907 3.11287C11.2078 2.8046 11.5214 2.60263 11.5214 2.60263C11.608 2.54792 11.6743 2.4664 11.7103 2.37048C11.7462 2.27457 11.7498 2.16953 11.7205 2.07139C11.6912 1.97324 11.6306 1.88737 11.548 1.82686C11.4653 1.76636 11.3652 1.73455 11.2627 1.73627ZM15.9524 1.73627C15.863 1.73719 15.7757 1.76362 15.7008 1.81246C15.7008 1.81246 15.3128 2.06049 14.9213 2.44318C14.528 2.82586 14.0762 3.35914 14.0496 4.06427C14.0319 4.49479 14.2268 4.78712 14.4128 5.10957C14.5971 5.43379 14.8114 5.75269 14.939 5.97769C14.9744 6.04325 14.9762 6.09285 14.9514 6.19384C14.9133 6.32438 14.8527 6.44728 14.7725 6.55704C14.5953 6.80862 14.3597 7.0035 14.3597 7.0035C14.3069 7.04075 14.2624 7.08849 14.2289 7.14373C14.1955 7.19896 14.1738 7.26051 14.1652 7.32452C14.1566 7.38853 14.1613 7.45362 14.179 7.51573C14.1967 7.57784 14.227 7.63563 14.2681 7.68549C14.3091 7.73534 14.36 7.77619 14.4176 7.80548C14.4751 7.83476 14.5381 7.85186 14.6026 7.85569C14.6671 7.85953 14.7316 7.85002 14.7923 7.82777C14.8529 7.80551 14.9083 7.77099 14.9549 7.72635C14.9549 7.72635 15.2703 7.47123 15.5378 7.09563C15.6707 6.90783 15.7965 6.68814 15.8621 6.41707C15.9404 6.11492 15.9025 5.79434 15.7558 5.51883C15.5963 5.23713 15.3872 4.92531 15.2242 4.64361C15.0648 4.36014 14.9868 4.0749 14.9868 4.0997C14.9975 3.82686 15.2615 3.42292 15.5786 3.11287C15.8939 2.8046 16.2075 2.60263 16.2075 2.60263C16.2939 2.54807 16.36 2.46687 16.396 2.37132C16.432 2.27576 16.4359 2.17108 16.4071 2.07312C16.3782 1.97517 16.3182 1.88929 16.2362 1.82851C16.1541 1.76772 16.0545 1.73534 15.9524 1.73627ZM20.6421 1.73627C20.5521 1.73686 20.4641 1.7633 20.3887 1.81246C20.3887 1.81246 20.0007 2.06049 19.6092 2.44318C19.2176 2.82586 18.7641 3.35914 18.7375 4.06427C18.7198 4.49479 18.9147 4.78712 19.1007 5.10957C19.2867 5.43379 19.4976 5.75269 19.6233 5.97769C19.6606 6.04325 19.6659 6.09285 19.6411 6.19384C19.6009 6.32455 19.5385 6.4474 19.4568 6.55704C19.2796 6.80862 19.0493 7.0035 19.0493 7.0035C18.9966 7.04075 18.9521 7.08849 18.9186 7.14373C18.8851 7.19896 18.8634 7.26051 18.8548 7.32452C18.8462 7.38853 18.8509 7.45362 18.8686 7.51573C18.8863 7.57784 18.9167 7.63563 18.9577 7.68549C18.9988 7.73534 19.0497 7.77619 19.1072 7.80548C19.1648 7.83476 19.2278 7.85186 19.2923 7.85569C19.3567 7.85953 19.4213 7.85002 19.4819 7.82777C19.5425 7.80551 19.5979 7.77099 19.6446 7.72635C19.6446 7.72635 19.9564 7.47123 20.2222 7.09563C20.3551 6.90783 20.4862 6.68814 20.5517 6.41707C20.6299 6.1149 20.592 5.79439 20.4454 5.51883C20.286 5.23713 20.0769 4.92531 19.9139 4.64361C19.7527 4.36014 19.6765 4.0749 19.6747 4.0997C19.6854 3.82686 19.9476 3.42292 20.2647 3.11287C20.5801 2.8046 20.8936 2.60263 20.8936 2.60263C20.9797 2.54823 21.0457 2.46734 21.0818 2.37215C21.1179 2.27695 21.1221 2.17261 21.0937 2.07484C21.0653 1.97708 21.0059 1.89119 20.9244 1.83012C20.843 1.76905 20.7439 1.73612 20.6421 1.73627ZM15.1286 8.61397C14.5897 8.61537 14.0734 8.83016 13.6926 9.21134C13.3117 9.59252 13.0974 10.109 13.0964 10.6479C13.0964 10.9969 13.1868 11.33 13.3498 11.6241C10.4574 12.0526 7.81517 13.5058 5.90437 15.719C3.99356 17.9322 2.94134 20.7582 2.93936 23.6822C2.93936 24.196 2.98365 24.7098 3.0492 25.22C2.75258 25.2923 2.48861 25.4616 2.29922 25.701C2.10983 25.9405 2.00589 26.2364 2.00391 26.5417V26.6285C2.00391 27.3744 2.61691 27.9927 3.36456 27.9927H26.8908C27.6367 27.9927 28.255 27.3744 28.255 26.6285V26.5399C28.2521 26.2333 28.1466 25.9364 27.9551 25.6968C27.7637 25.4573 27.4975 25.2887 27.1991 25.2182C27.2664 24.7098 27.3125 24.1977 27.316 23.6839C27.316 23.6828 27.316 23.6816 27.316 23.6804C27.314 20.7564 26.2618 17.9305 24.351 15.7172C22.4402 13.504 19.798 12.0508 16.9056 11.6223C17.0686 11.3282 17.1589 10.9951 17.1589 10.6479C17.1575 10.1096 16.9432 9.59385 16.5628 9.21311C16.1824 8.83236 15.6668 8.61584 15.1286 8.61397ZM15.1286 9.55296C15.738 9.55296 16.2217 10.0366 16.2217 10.6461C16.2183 10.816 16.1748 10.9828 16.0948 11.1327C16.0147 11.2826 15.9004 11.4115 15.7611 11.5089C15.3391 11.4875 14.9163 11.4875 14.4943 11.5089C14.3548 11.4114 14.2403 11.2822 14.1602 11.1319C14.0802 10.9816 14.0368 10.8146 14.0337 10.6443C14.0337 10.0349 14.5191 9.55119 15.1286 9.55119V9.55296ZM15.1286 12.4302C15.3802 12.4302 15.6317 12.4426 15.8886 12.4585C15.8945 12.4586 15.9004 12.4586 15.9063 12.4585C18.7485 12.6538 21.4105 13.921 23.3542 16.0038C25.2979 18.0866 26.3783 20.8298 26.377 23.6786C26.3653 24.1801 26.3203 24.6802 26.2424 25.1757H4.00591C3.93013 24.6807 3.88751 24.1811 3.87835 23.6804C3.87659 20.8312 4.95679 18.0877 6.90053 16.0045C8.84428 13.9213 11.5065 12.6539 14.349 12.4585C14.3549 12.4586 14.3608 12.4586 14.3667 12.4585C14.6203 12.4403 14.8744 12.4309 15.1286 12.4302ZM15.1286 13.4578C15.0041 13.4578 14.8846 13.5072 14.7966 13.5953C14.7085 13.6833 14.6591 13.8027 14.6591 13.9273C14.6591 14.0518 14.7085 14.1712 14.7966 14.2592C14.8846 14.3473 15.0041 14.3968 15.1286 14.3968C16.243 14.3968 17.3007 14.6271 18.2591 15.0417C20.2895 15.9222 22.4191 17.6939 23.1224 19.7065C23.1405 19.7674 23.1707 19.824 23.2112 19.8729C23.2517 19.9218 23.3018 19.962 23.3583 19.991C23.4148 20.02 23.4766 20.0372 23.54 20.0416C23.6033 20.046 23.6669 20.0376 23.7269 20.0167C23.7869 19.9958 23.8421 19.963 23.889 19.9202C23.9359 19.8774 23.9737 19.8255 24 19.7677C24.0263 19.7099 24.0406 19.6473 24.042 19.5838C24.0434 19.5203 24.032 19.4572 24.0083 19.3982C23.1703 17.0065 20.8547 15.1462 18.633 14.1824C17.5577 13.7212 16.4013 13.479 15.2313 13.4702C15.1976 13.4629 15.1631 13.4575 15.1286 13.4578ZM3.36456 26.1147H3.55945C3.56535 26.1148 3.57126 26.1148 3.57717 26.1147H26.6676C26.6735 26.1148 26.6794 26.1148 26.6853 26.1147H26.8908C27.1335 26.1147 27.316 26.2972 27.316 26.5399V26.6267C27.316 26.8694 27.1335 27.0519 26.8908 27.0519H3.36279C3.30678 27.0532 3.25111 27.043 3.19916 27.022C3.14721 27.001 3.10008 26.9697 3.06063 26.9299C3.02118 26.8901 2.99024 26.8427 2.9697 26.7906C2.94915 26.7385 2.93943 26.6827 2.94113 26.6267V26.5381C2.94113 26.2972 3.12007 26.1147 3.36456 26.1147Z" fill="white"/>
</svg>
