<svg width="31" height="30" viewBox="0 0 31 30" fill="none" xmlns="http://www.w3.org/2000/svg">
<g clip-path="url(#clip0_2675_299)">
<path d="M21.0104 6.22732H18.165C18.0407 6.22732 17.9215 6.17793 17.8336 6.09003C17.7457 6.00212 17.6963 5.88289 17.6963 5.75857V2.74451C17.6963 2.62019 17.7457 2.50096 17.8336 2.41305C17.9215 2.32514 18.0407 2.27576 18.165 2.27576H21.0104C21.1347 2.27576 21.2539 2.32514 21.3418 2.41305C21.4297 2.50096 21.4791 2.62019 21.4791 2.74451V5.75857C21.4791 5.88289 21.4297 6.00212 21.3418 6.09003C21.2539 6.17793 21.1347 6.22732 21.0104 6.22732ZM18.6361 5.28982H20.5416V3.21326H18.6338L18.6361 5.28982ZM25.7846 6.22732H22.9393C22.8149 6.22732 22.6957 6.17793 22.6078 6.09003C22.5199 6.00212 22.4705 5.88289 22.4705 5.75857V2.74451C22.4705 2.62019 22.5199 2.50096 22.6078 2.41305C22.6957 2.32514 22.8149 2.27576 22.9393 2.27576H25.7822C25.9065 2.27576 26.0258 2.32514 26.1137 2.41305C26.2016 2.50096 26.251 2.62019 26.251 2.74451V5.75857C26.251 5.88248 26.2019 6.00136 26.1145 6.0892C26.0271 6.17704 25.9085 6.2267 25.7846 6.22732ZM23.4104 5.28982H25.3158V3.21326H23.408L23.4104 5.28982Z" fill="white"/>
<path d="M30.0312 21.9937H28.625V0.46875C28.625 0.34443 28.5756 0.225201 28.4877 0.137294C28.3998 0.049386 28.2806 0 28.1562 0L15.793 0C15.6686 0 15.5494 0.049386 15.4615 0.137294C15.3736 0.225201 15.3242 0.34443 15.3242 0.46875V11.25H13.3203V3.98438C13.3203 3.86005 13.2709 3.74083 13.183 3.65292C13.0951 3.56501 12.9759 3.51562 12.8516 3.51562H3.91016C3.78584 3.51562 3.66661 3.56501 3.5787 3.65292C3.49079 3.74083 3.44141 3.86005 3.44141 3.98438V11.25H0.96875C0.84443 11.25 0.725201 11.2994 0.637294 11.3873C0.549386 11.4752 0.5 11.5944 0.5 11.7188L0.5 22.4625C0.5 22.5868 0.549386 22.706 0.637294 22.794C0.725201 22.8819 0.84443 22.9312 0.96875 22.9312H29.5625V29.5312C29.5625 29.6556 29.6119 29.7748 29.6998 29.8627C29.7877 29.9506 29.9069 30 30.0312 30C30.1556 30 30.2748 29.9506 30.3627 29.8627C30.4506 29.7748 30.5 29.6556 30.5 29.5312V22.4625C30.5 22.3382 30.4506 22.219 30.3627 22.131C30.2748 22.0431 30.1556 21.9937 30.0312 21.9937ZM15.3242 18.2437H1.4375V15.6656H15.3242V18.2437ZM1.4375 19.1812H15.3242V21.9937H1.4375V19.1812ZM4.37891 4.45312H12.3828V11.25H4.37891V4.45312ZM3.91016 12.1875H15.3242V14.7375H1.4375V12.1875H3.91016ZM16.2617 21.9937V0.9375H27.6875V21.9937H16.2617Z" fill="white"/>
<path d="M27.4529 24.4922H21.5936C21.4692 24.4922 21.35 24.5416 21.2621 24.6295C21.1742 24.7174 21.1248 24.8367 21.1248 24.961V27.804C21.1248 27.9283 21.1742 28.0475 21.2621 28.1354C21.35 28.2233 21.4692 28.2727 21.5936 28.2727H27.4529C27.5773 28.2727 27.6965 28.2233 27.7844 28.1354C27.8723 28.0475 27.9217 27.9283 27.9217 27.804V24.961C27.9217 24.8367 27.8723 24.7174 27.7844 24.6295C27.6965 24.5416 27.5773 24.4922 27.4529 24.4922ZM26.9842 27.3352H22.0623V25.4297H26.9842V27.3352ZM8.7334 24.4922H2.87402C2.7497 24.4922 2.63047 24.5416 2.54257 24.6295C2.45466 24.7174 2.40527 24.8367 2.40527 24.961V27.804C2.40527 27.9283 2.45466 28.0475 2.54257 28.1354C2.63047 28.2233 2.7497 28.2727 2.87402 28.2727H8.7334C8.85772 28.2727 8.97695 28.2233 9.06485 28.1354C9.15276 28.0475 9.20215 27.9283 9.20215 27.804V24.961C9.20215 24.8367 9.15276 24.7174 9.06485 24.6295C8.97695 24.5416 8.85772 24.4922 8.7334 24.4922ZM8.26465 27.3352H3.34277V25.4297H8.26465V27.3352ZM18.092 24.4922H12.2326C12.1083 24.4922 11.9891 24.5416 11.9012 24.6295C11.8133 24.7174 11.7639 24.8367 11.7639 24.961V27.804C11.7639 27.9283 11.8133 28.0475 11.9012 28.1354C11.9891 28.2233 12.1083 28.2727 12.2326 28.2727H18.092C18.2163 28.2727 18.3355 28.2233 18.4234 28.1354C18.5114 28.0475 18.5607 27.9283 18.5607 27.804V24.961C18.5607 24.8367 18.5114 24.7174 18.4234 24.6295C18.3355 24.5416 18.2163 24.4922 18.092 24.4922ZM17.6232 27.3352H12.7014V25.4297H17.6232V27.3352ZM10.2264 7.38286H8.85059V6.00708C8.85059 5.88276 8.8012 5.76353 8.71329 5.67562C8.62538 5.58772 8.50616 5.53833 8.38184 5.53833C8.25752 5.53833 8.13829 5.58772 8.05038 5.67562C7.96247 5.76353 7.91309 5.88276 7.91309 6.00708V7.38286H6.53496C6.41064 7.38286 6.29141 7.43225 6.2035 7.52015C6.1156 7.60806 6.06621 7.72729 6.06621 7.85161C6.06621 7.97593 6.1156 8.09516 6.2035 8.18307C6.29141 8.27098 6.41064 8.32036 6.53496 8.32036H7.91309V9.69849C7.91309 9.82281 7.96247 9.94203 8.05038 10.0299C8.13829 10.1179 8.25752 10.1672 8.38184 10.1672C8.50616 10.1672 8.62538 10.1179 8.71329 10.0299C8.8012 9.94203 8.85059 9.82281 8.85059 9.69849V8.32036H10.2264C10.3507 8.32036 10.4699 8.27098 10.5578 8.18307C10.6457 8.09516 10.6951 7.97593 10.6951 7.85161C10.6951 7.72729 10.6457 7.60806 10.5578 7.52015C10.4699 7.43225 10.3507 7.38286 10.2264 7.38286ZM21.01 11.904H18.1646C18.0403 11.904 17.9211 11.9533 17.8332 12.0412C17.7453 12.1292 17.6959 12.2484 17.6959 12.3727V15.3868C17.6959 15.5111 17.7453 15.6303 17.8332 15.7182C17.9211 15.8061 18.0403 15.8555 18.1646 15.8555H21.01C21.1343 15.8555 21.2535 15.8061 21.3414 15.7182C21.4293 15.6303 21.4787 15.5111 21.4787 15.3868V12.3727C21.4787 12.2484 21.4293 12.1292 21.3414 12.0412C21.2535 11.9533 21.1343 11.904 21.01 11.904ZM20.5412 14.918H18.6334V12.8415H20.5389L20.5412 14.918ZM21.01 7.08989H18.1646C18.0403 7.08989 17.9211 7.13928 17.8332 7.22719C17.7453 7.31509 17.6959 7.43432 17.6959 7.55864V10.5727C17.6959 10.697 17.7453 10.8163 17.8332 10.9042C17.9211 10.9921 18.0403 11.0415 18.1646 11.0415H21.01C21.1343 11.0415 21.2535 10.9921 21.3414 10.9042C21.4293 10.8163 21.4787 10.697 21.4787 10.5727V7.55864C21.4787 7.43432 21.4293 7.31509 21.3414 7.22719C21.2535 7.13928 21.1343 7.08989 21.01 7.08989ZM20.5412 10.104H18.6334V8.02739H20.5389L20.5412 10.104ZM25.7842 11.904H22.9389C22.8145 11.904 22.6953 11.9533 22.6074 12.0412C22.5195 12.1292 22.4701 12.2484 22.4701 12.3727V15.3868C22.4701 15.5111 22.5195 15.6303 22.6074 15.7182C22.6953 15.8061 22.8145 15.8555 22.9389 15.8555H25.7818C25.9062 15.8555 26.0254 15.8061 26.1133 15.7182C26.2012 15.6303 26.2506 15.5111 26.2506 15.3868V12.3727C26.2506 12.2488 26.2015 12.1299 26.1141 12.0421C26.0267 11.9542 25.9081 11.9046 25.7842 11.904ZM25.3154 14.918H23.4076V12.8415H25.3131L25.3154 14.918ZM25.7842 7.08989H22.9389C22.8145 7.08989 22.6953 7.13928 22.6074 7.22719C22.5195 7.31509 22.4701 7.43432 22.4701 7.55864V10.5727C22.4701 10.697 22.5195 10.8163 22.6074 10.9042C22.6953 10.9921 22.8145 11.0415 22.9389 11.0415H25.7818C25.9062 11.0415 26.0254 10.9921 26.1133 10.9042C26.2012 10.8163 26.2506 10.697 26.2506 10.5727V7.55864C26.2506 7.43473 26.2015 7.31585 26.1141 7.22801C26.0267 7.14017 25.9081 7.09051 25.7842 7.08989ZM25.3154 10.104H23.4076V8.02739H25.3131L25.3154 10.104ZM21.01 16.95H18.1646C18.0403 16.95 17.9211 16.9994 17.8332 17.0873C17.7453 17.1753 17.6959 17.2945 17.6959 17.4188V20.4305C17.6959 20.5548 17.7453 20.6741 17.8332 20.762C17.9211 20.8499 18.0403 20.8993 18.1646 20.8993H21.01C21.1343 20.8993 21.2535 20.8499 21.3414 20.762C21.4293 20.6741 21.4787 20.5548 21.4787 20.4305V17.4188C21.4787 17.2945 21.4293 17.1753 21.3414 17.0873C21.2535 16.9994 21.1343 16.95 21.01 16.95ZM20.5412 19.9641H18.6334V17.8875H20.5389L20.5412 19.9641ZM25.7842 16.95H22.9389C22.8145 16.95 22.6953 16.9994 22.6074 17.0873C22.5195 17.1753 22.4701 17.2945 22.4701 17.4188V20.4305C22.4701 20.5548 22.5195 20.6741 22.6074 20.762C22.6953 20.8499 22.8145 20.8993 22.9389 20.8993H25.7818C25.9062 20.8993 26.0254 20.8499 26.1133 20.762C26.2012 20.6741 26.2506 20.5548 26.2506 20.4305V17.4188C26.2506 17.2949 26.2015 17.176 26.1141 17.0882C26.0267 17.0003 25.9081 16.9507 25.7842 16.95ZM25.3154 19.9641H23.4076V17.8875H25.3131L25.3154 19.9641Z" fill="white"/>
</g>
<defs>
<clipPath id="clip0_2675_299">
<rect width="30" height="30" fill="white" transform="translate(0.5)"/>
</clipPath>
</defs>
</svg>
