<svg width="31" height="30" viewBox="0 0 31 30" fill="none" xmlns="http://www.w3.org/2000/svg">
<g clip-path="url(#clip0_2675_292)">
<path d="M2.46387 21.4852L10.2557 5.85413C10.8791 4.60315 12.6639 4.60315 13.2879 5.85413L15.3357 9.96272" stroke="white" stroke-miterlimit="10" stroke-linecap="round" stroke-linejoin="round"/>
<path d="M7.42725 11.5277C8.01904 11.8172 8.26162 12.3861 9.21494 12.3861C10.4929 12.3861 10.4929 11.3631 11.7714 11.3631C12.9808 11.3631 13.0458 12.2789 14.1321 12.3773M28.214 12.3873L25.5538 7.05176L24.7019 5.34316M23.7849 3.50273L22.7255 1.37813C22.1021 0.126562 20.3167 0.126562 19.6933 1.37813L16.8649 7.05176L11.2101 18.3949" stroke="white" stroke-miterlimit="10" stroke-linecap="round" stroke-linejoin="round"/>
<path d="M16.8651 7.05173C17.4575 7.3406 17.6995 7.90955 18.6528 7.90955C19.9313 7.90955 19.9313 6.88708 21.2093 6.88708C22.4878 6.88708 22.4878 7.90955 23.7663 7.90955C24.7196 7.90955 24.9616 7.3406 25.554 7.05173M6.15537 29.5605H29.0239C29.4124 29.5605 29.7271 29.2459 29.7271 28.8574V12.8472C29.7271 12.3615 29.2472 12.0222 28.7896 12.184L1.07471 21.9761C0.794043 22.0752 0.605957 22.3406 0.605957 22.6388V28.8574C0.605957 29.2459 0.920605 29.5605 1.30908 29.5605H4.10459M20.5227 18.7758L25.1249 17.1498M15.4574 26.159L25.8303 22.4942M7.13383 25.5193L16.6777 22.1474M20.7212 15.0345V11.4404M7.66006 19.6494V16.1672M22.5664 11.7403L20.7213 10.675V13.4571L22.5664 12.3919C22.8171 12.2471 22.8171 11.8851 22.5664 11.7403ZM9.50506 16.4666L7.65994 15.4013V18.1834L9.50506 17.1181C9.75584 16.9734 9.75584 16.6114 9.50506 16.4666Z" stroke="white" stroke-miterlimit="10" stroke-linecap="round" stroke-linejoin="round"/>
</g>
<defs>
<clipPath id="clip0_2675_292">
<rect width="30" height="30" fill="white" transform="translate(0.166504)"/>
</clipPath>
</defs>
</svg>
