<svg width="34" height="34" viewBox="0 0 34 34" fill="none" xmlns="http://www.w3.org/2000/svg">
<g clip-path="url(#clip0_2849_2)">
<path d="M28.9921 15.5472V6.97212C28.9921 4.93409 27.3231 3.25078 25.285 3.25078H24.8233V2.66949C24.8233 1.21539 23.6444 0.0365683 22.1903 0.0365683C20.7362 0.0365683 19.5574 1.21539 19.5574 2.66949V3.25078H9.90338V2.66949C9.90338 1.1952 8.70818 0 7.23389 0C5.7596 0 4.5644 1.1952 4.5644 2.66949V3.25078H4.16544C2.12734 3.25078 0.46875 4.93409 0.46875 6.97212V26.6623C0.46875 28.7004 2.12734 30.3845 4.16544 30.3845H15.7645C16.7092 31.5145 17.8899 32.4237 19.2237 33.0484C20.5576 33.673 22.012 33.9978 23.4849 34C29.0213 34 33.5313 29.4891 33.5313 23.9526C33.5314 20.4434 31.6981 17.343 28.9921 15.5472ZM21.0202 2.66949C21.0089 2.03247 21.5161 1.50691 22.1531 1.49565C22.1634 1.4955 22.1736 1.49543 22.1838 1.4955C22.8269 1.4887 23.3537 2.00446 23.3605 2.64755C23.3606 2.65486 23.3606 2.66218 23.3605 2.66949V5.51802H21.0202V2.66949ZM6.02714 2.66949C6.03409 2.01411 6.57106 1.48848 7.22643 1.49543C7.22756 1.49541 7.22868 1.49544 7.2298 1.4955C7.88759 1.4955 8.44065 2.01177 8.44065 2.66949V5.51802H6.02714V2.66949ZM1.93148 6.97212C1.93148 5.74057 2.93389 4.71351 4.16544 4.71351H4.5644V6.27981C4.5644 6.68367 4.90171 6.98075 5.30564 6.98075H9.1541C9.55796 6.98075 9.90338 6.68367 9.90338 6.27981V4.71351H19.5574V6.27981C19.5547 6.37268 19.5711 6.46512 19.6054 6.55145C19.6398 6.63778 19.6914 6.71618 19.7572 6.78182C19.8229 6.84747 19.9014 6.89897 19.9878 6.93318C20.0742 6.96739 20.1667 6.98358 20.2595 6.98075H24.108C24.2015 6.98386 24.2948 6.96797 24.382 6.93403C24.4693 6.90009 24.5487 6.84881 24.6156 6.78329C24.6824 6.71777 24.7353 6.63937 24.771 6.55283C24.8067 6.46629 24.8245 6.37341 24.8233 6.27981V4.71351H25.285C26.5249 4.72602 27.5246 5.73223 27.5293 6.97212V9.32112H1.93148V6.97212ZM4.16544 28.9218C2.93389 28.9218 1.93148 27.8938 1.93148 26.6623V10.7839H27.5293V14.7518C26.2562 14.1929 24.8808 13.9045 23.4904 13.905C17.954 13.905 13.4468 18.4225 13.4468 23.9591C13.444 25.6984 13.8936 27.4086 14.7515 28.9218H4.16544ZM23.4849 32.5242C18.7472 32.5242 14.9066 28.6836 14.9066 23.946C14.9066 19.2083 18.7472 15.3677 23.4849 15.3677C28.2225 15.3677 32.0631 19.2083 32.0631 23.946V23.946C32.0578 28.6814 28.2203 32.5189 23.4849 32.5242Z" fill="#274D60" fill-opacity="0.3"/>
<path d="M26.9303 23.9484H23.7262V19.5478C23.7262 19.1438 23.3987 18.8164 22.9948 18.8164C22.5909 18.8164 22.2634 19.1438 22.2634 19.5478V24.679C22.2665 24.8745 22.3464 25.0609 22.4858 25.1979C22.6253 25.3349 22.8131 25.4115 23.0085 25.4111H26.9303C27.3342 25.4111 27.6616 25.0837 27.6616 24.6798C27.6616 24.2758 27.3342 23.9484 26.9303 23.9484Z" fill="#274D60" fill-opacity="0.3"/>
</g>
<defs>
<clipPath id="clip0_2849_2">
<rect width="34" height="34" fill="white"/>
</clipPath>
</defs>
</svg>
