<svg width="460" height="460" viewBox="0 0 460 460" fill="none" xmlns="http://www.w3.org/2000/svg">
<path d="M86 96.667C94.8366 96.667 102 89.5035 102 80.667C102 71.8304 94.8366 64.667 86 64.667C77.1634 64.667 70 71.8304 70 80.667C70 89.5035 77.1634 96.667 86 96.667Z" fill="#5A5A5A"/>
<path d="M139.333 96.667C148.17 96.667 155.333 89.5035 155.333 80.667C155.333 71.8304 148.17 64.667 139.333 64.667C130.497 64.667 123.333 71.8304 123.333 80.667C123.333 89.5035 130.497 96.667 139.333 96.667Z" fill="#5A5A5A"/>
<path d="M192.667 96.667C201.503 96.667 208.667 89.5035 208.667 80.667C208.667 71.8304 201.503 64.667 192.667 64.667C183.83 64.667 176.667 71.8304 176.667 80.667C176.667 89.5035 183.83 96.667 192.667 96.667Z" fill="#5A5A5A"/>
<path fill-rule="evenodd" clip-rule="evenodd" d="M459.333 251.334V70.0003C459.333 51.612 452.029 33.9768 439.026 20.9743C426.024 7.97173 408.388 0.666992 390 0.666992H70C51.6116 0.666992 33.9764 7.97173 20.9739 20.9743C7.97136 33.9768 0.666626 51.612 0.666626 70.0003V390C0.666626 408.389 7.97136 426.024 20.9739 439.026C33.9764 452.029 51.6116 459.334 70 459.334H230C234.243 459.334 238.313 457.648 241.314 454.647C244.314 451.647 246 447.577 246 443.334C246 439.09 244.314 435.021 241.314 432.02C238.313 429.019 234.243 427.334 230 427.334H70C60.0985 427.334 50.6027 423.4 43.6013 416.399C36.6 409.398 32.6666 399.902 32.6666 390V70.0003C32.6666 49.371 49.3706 32.667 70 32.667H390C410.629 32.667 427.333 49.371 427.333 70.0003V251.334C427.333 255.577 429.019 259.647 432.02 262.647C435.02 265.648 439.09 267.334 443.333 267.334C447.577 267.334 451.646 265.648 454.647 262.647C457.648 259.647 459.333 255.577 459.333 251.334Z" fill="#5A5A5A"/>
<path fill-rule="evenodd" clip-rule="evenodd" d="M443.333 128.667H16.6666C12.4232 128.667 8.3535 130.353 5.35292 133.353C2.35234 136.354 0.666626 140.424 0.666626 144.667C0.666626 148.91 2.35234 152.98 5.35292 155.981C8.3535 158.981 12.4232 160.667 16.6666 160.667H443.333C447.577 160.667 451.646 158.981 454.647 155.981C457.648 152.98 459.333 148.91 459.333 144.667C459.333 140.424 457.648 136.354 454.647 133.353C451.646 130.353 447.577 128.667 443.333 128.667ZM431.749 434.16L386.928 370.16C385.756 368.364 384.234 366.821 382.453 365.625C380.673 364.428 378.67 363.602 376.563 363.195C374.457 362.788 372.291 362.809 370.192 363.256C368.094 363.703 366.107 364.568 364.35 365.799C362.593 367.029 361.101 368.601 359.964 370.419C358.826 372.238 358.066 374.267 357.728 376.386C357.39 378.504 357.482 380.669 357.998 382.751C358.514 384.834 359.443 386.791 360.731 388.507L405.531 452.507C406.735 454.229 408.267 455.696 410.039 456.825C411.811 457.955 413.788 458.724 415.857 459.09C417.926 459.455 420.047 459.41 422.098 458.956C424.15 458.501 426.092 457.648 427.813 456.443C429.535 455.238 431.002 453.706 432.132 451.935C433.261 450.163 434.031 448.186 434.396 446.117C434.762 444.048 434.716 441.927 434.262 439.875C433.808 437.824 432.954 435.882 431.749 434.16Z" fill="#5A5A5A"/>
<path fill-rule="evenodd" clip-rule="evenodd" d="M444.763 317.126L306.736 237.488C301.933 234.734 296.446 233.404 290.916 233.654C285.385 233.903 280.04 235.721 275.504 238.896C270.969 242.071 267.431 246.472 265.304 251.583C263.177 256.694 262.549 262.305 263.493 267.76L291.12 424.71C292.098 430.279 294.677 435.444 298.541 439.572C302.405 443.701 307.388 446.615 312.881 447.959C318.374 449.302 324.139 449.018 329.473 447.14C334.807 445.261 339.478 441.871 342.917 437.382L380.336 388.614L438.96 370.139C444.349 368.435 449.126 365.201 452.71 360.831C456.293 356.461 458.529 351.142 459.144 345.524C459.759 339.906 458.727 334.23 456.173 329.188C453.62 324.146 449.655 319.955 444.763 317.126ZM423.109 341.574L365.893 359.622C362.763 360.597 360.012 362.52 358.021 365.126L321.499 412.742L296.069 268.272L423.109 341.574Z" fill="#5A5A5A"/>
</svg>
