<svg width="17" height="18" viewBox="0 0 17 18" fill="none" xmlns="http://www.w3.org/2000/svg">
<path d="M-0.000244141 17.3615L4.67295 12.6889C3.4908 11.3918 2.83514 9.70031 2.83427 7.94534C2.83427 4.03976 6.01159 0.862305 9.91701 0.862305C13.8224 0.862305 16.9998 4.03976 16.9998 7.94534C16.9998 11.8509 13.8224 15.0284 9.91701 15.0284C8.16212 15.0275 6.47069 14.3718 5.1737 13.1896L0.500505 17.8623L-0.000244141 17.3615ZM16.2915 7.94534C16.2915 4.43003 13.4322 1.57061 9.91701 1.57061C6.40185 1.57061 3.54254 4.43074 3.54254 7.94534C3.54254 11.4599 6.40185 14.3201 9.91701 14.3201C13.4322 14.3201 16.2915 11.4599 16.2915 7.94534ZM6.44629 8.32844H9.53392V11.4118H10.1979V8.32675H13.2524L13.2651 7.65893H10.1979V4.60985H9.53392V6.15818V7.65448L6.44629 7.65893V8.32844Z" fill="white"/>
</svg>
