<svg width="34" height="34" viewBox="0 0 34 34" fill="none" xmlns="http://www.w3.org/2000/svg">
<path d="M30.547 4.56891C30.225 3.36021 27.5098 3.03619 24.4865 3.84505L11.135 7.43307L5.58894 4.23027L3.40002 4.81677L5.66714 8.90187L4.57302 9.19529L4.8661 10.2897C7.64084 11.8935 10.8052 12.221 13.6762 11.4509L15.3707 10.9949L14.2892 14.7335L16.4785 14.2178L20.8604 9.51829L27.8498 7.63809C29.6613 7.15223 30.8713 5.77761 30.547 4.56891ZM26.0668 13.6V19.2668L27.2 20.4V30.6H29.4668V20.4L30.6 19.2668V13.6H26.0668ZM19.2668 22.6668V19.2668H3.40002V30.6H24.9332V22.6668H19.2668ZM5.6668 21.5335H7.93358V23.8H5.6668V21.5335ZM10.2 28.3336H7.93324V26.0668H10.2V28.3336ZM10.2 21.5335H12.4668V23.8H10.2V21.5335ZM14.7332 28.3336H12.4665V26.0668H14.7332V28.3336ZM17 23.8H14.7332V21.5335H17V23.8Z" fill="#274D60" fill-opacity="0.3"/>
</svg>
