<svg width="34" height="34" viewBox="0 0 34 34" fill="none" xmlns="http://www.w3.org/2000/svg">
<path d="M28.6875 17C28.6875 16.6462 28.6663 16.2913 28.6344 15.9375H32.9375L32.7633 14.7241C32.2207 10.9315 30.3284 7.4618 27.4339 4.95185C24.5393 2.4419 20.8366 1.06012 17.0053 1.06012C13.1741 1.06012 9.47135 2.4419 6.57677 4.95185C3.68219 7.4618 1.78995 10.9315 1.24738 14.7241L1.0625 15.9375H5.36563C5.33375 16.2913 5.3125 16.6462 5.3125 17C5.3125 17.3538 5.33375 17.7087 5.36563 18.0625H1.0625L1.23675 19.2759C1.77933 23.0685 3.67156 26.5382 6.56614 29.0482C9.46072 31.5581 13.1634 32.9399 16.9947 32.9399C20.8259 32.9399 24.5287 31.5581 27.4232 29.0482C30.3178 26.5382 32.21 23.0685 32.7526 19.2759L32.9375 18.0625H28.6344C28.6663 17.7087 28.6875 17.3538 28.6875 17ZM20.1875 13.8125V7.98471C21.9601 8.61673 23.5074 9.75675 24.6362 11.2625L25.2737 12.1125L26.9737 10.8375L26.3362 9.98752C26.2193 9.8324 26.0907 9.6879 25.9664 9.53915L27.4646 8.04102C28.8982 9.70061 29.9129 11.6798 30.4236 13.8125H20.1875ZM6.53756 8.03996L8.03569 9.53809C7.91138 9.68684 7.78281 9.83134 7.66594 9.98646L7.02844 10.8365L8.72844 12.1115L9.36594 11.2615C10.4943 9.75641 12.0408 8.6168 13.8125 7.98471V13.8125H3.57637C4.08756 11.6792 5.10304 9.69963 6.53756 8.03996ZM13.8125 20.1875V26.0153C12.0399 25.3833 10.4926 24.2433 9.36381 22.7375L8.72631 21.8875L7.02631 23.1625L7.66381 24.0125C7.78069 24.1677 7.90925 24.3121 8.03356 24.4609L6.53544 25.959C5.10183 24.2994 4.0871 22.3203 3.57637 20.1875H13.8125ZM8.041 27.4614L9.53594 25.9665C11.0117 27.208 12.7737 28.0622 14.6625 28.4517L15.9375 28.712V18.0625H7.50125C7.41625 17.3567 7.41625 16.6433 7.50125 15.9375H15.9375V5.28809L14.6625 5.5484C12.7737 5.93789 11.0117 6.79203 9.53594 8.03359L8.041 6.53865C10.5254 4.37764 13.7072 3.18746 17 3.18746C20.2928 3.18746 23.4746 4.37764 25.959 6.53865L24.4641 8.03359C22.9883 6.79203 21.2263 5.93789 19.3375 5.5484L18.0625 5.28809V15.9375H26.4988C26.5838 16.6433 26.5838 17.3567 26.4988 18.0625H18.0625V28.712L19.3375 28.4517C21.2263 28.0622 22.9883 27.208 24.4641 25.9665L25.959 27.4614C23.4746 29.6224 20.2928 30.8126 17 30.8126C13.7072 30.8126 10.5254 29.6224 8.041 27.4614ZM27.4624 25.9601L25.9643 24.462C26.0886 24.3132 26.2172 24.1687 26.3341 24.0136L26.9716 23.1636L25.2716 21.8886L24.6341 22.7386C23.5057 24.2436 21.9592 25.3832 20.1875 26.0153V20.1875H30.4236C29.9124 22.3208 28.897 24.3004 27.4624 25.9601Z" fill="#274D60" fill-opacity="0.3"/>
</svg>
