<svg width="34" height="34" viewBox="0 0 34 34" fill="none" xmlns="http://www.w3.org/2000/svg">
<path d="M9.65249 13.8803H13.8116V12.7796C13.8116 12.2433 14.2237 11.7818 14.7595 11.7566C15.3314 11.7296 15.8036 12.1854 15.8036 12.7515V13.8803H18.0613V12.7796C18.0613 12.2433 18.4734 11.7818 19.0092 11.7566C19.5811 11.7296 20.0533 12.1854 20.0533 12.7515V13.8803H24.212C27.6853 13.8803 30.6649 11.1175 30.6775 7.46896C30.6806 6.59286 29.7206 6.15693 29.0758 6.6487C29.0596 6.66112 27.4307 7.89101 25.1795 8.48557C23.5 8.92934 21.9353 8.91068 20.4984 8.43538H13.3663C11.9295 8.91061 10.3648 8.92927 8.68529 8.48557C6.43414 7.89101 4.80517 6.66105 4.79056 6.64983C4.13664 6.14704 3.18723 6.61424 3.18723 7.43935C3.18729 11.142 6.20166 13.8803 9.65249 13.8803Z" fill="#274D60" fill-opacity="0.3"/>
<path d="M32.2631 14.0857C32.2469 14.0981 30.618 15.328 28.3668 15.9226C26.6877 16.3662 25.1234 16.3474 23.6868 15.8724H10.1783C8.74166 16.3474 7.17724 16.3663 5.498 15.9226C3.24685 15.328 1.61789 14.0981 1.60328 14.0868C0.960244 13.5921 -0.00337759 14.0265 8.9016e-06 14.9095C0.0140861 18.5376 2.98543 21.3173 6.47584 21.3173H9.56179V20.2166C9.56179 19.6803 9.97394 19.2188 10.5097 19.1935C11.0817 19.1666 11.5538 19.6223 11.5538 20.1884V21.3173H13.8115V20.2166C13.8115 19.6803 14.2237 19.2188 14.7594 19.1935C15.3314 19.1666 15.8035 19.6223 15.8035 20.1884V21.3173H18.0612V20.2166C18.0612 19.6803 18.4734 19.2188 19.0091 19.1935C19.5811 19.1666 20.0533 19.6223 20.0533 20.1884V21.3173H22.3109V20.2166C22.3109 19.6803 22.7231 19.2188 23.2588 19.1935C23.8308 19.1666 24.303 19.6223 24.303 20.1884V21.3173H27.3891C30.8688 21.3173 33.8519 18.55 33.8648 14.9067C33.8679 14.0416 32.9169 13.587 32.2631 14.0857ZM11.8228 6.44334H15.9364V5.34266C15.9364 4.80634 16.3486 4.34484 16.8843 4.31961C17.4563 4.29265 17.9285 4.74843 17.9285 5.31451V6.44334H22.0437C24.9384 6.44334 27.4746 4.16045 27.4903 1.03638C27.4923 0.628008 27.2672 0.244007 26.8921 0.0825181C26.4524 -0.106793 25.95 0.0390914 25.6811 0.423225C25.669 0.44029 24.4414 2.12716 22.4371 2.34064C20.9235 2.50193 19.2974 1.80232 17.6024 0.261471C17.2226 -0.0838846 16.6423 -0.0838846 16.2625 0.261471C14.5675 1.80226 12.9412 2.50193 11.4277 2.34064C9.42354 2.12716 8.19591 0.44029 8.18654 0.427276C8.05476 0.239048 7.86196 0.10216 7.64081 0.039802C7.41966 -0.0225559 7.18375 -0.00655023 6.97305 0.0851077C6.60479 0.244538 6.37338 0.620106 6.37457 1.02144C6.38387 4.09325 8.88376 6.44334 11.8228 6.44334ZM27.5567 32.008H26.4279V27.5591H23.307C22.7569 27.5591 22.311 27.1131 22.311 26.5631C22.311 26.013 22.7569 25.567 23.307 25.567H26.4279V23.3094H7.437V25.567H10.5579C11.108 25.567 11.5539 26.013 11.5539 26.5631C11.5539 27.1131 11.108 27.5591 10.5579 27.5591H7.437V32.008H6.30817C5.7581 32.008 5.31215 32.4539 5.31215 33.004C5.31215 33.5541 5.7581 34 6.30817 34H27.5567C28.1068 34 28.5527 33.5541 28.5527 33.004C28.5527 32.4539 28.1068 32.008 27.5567 32.008ZM18.0613 31.012V28.7178C18.0613 28.0864 17.5446 27.5487 16.9133 27.5592C16.2996 27.5695 15.8036 28.0718 15.8036 28.6879V31.012C15.8036 31.562 15.3577 32.008 14.8076 32.008C14.2575 32.008 13.8116 31.5621 13.8116 31.012V28.7403C13.8116 27.0314 15.1635 25.6 16.8722 25.5676C18.6205 25.5345 20.0533 26.947 20.0533 28.6879V31.012C20.0533 31.562 19.6074 32.008 19.0573 32.008C18.5072 32.008 18.0613 31.5621 18.0613 31.012Z" fill="#274D60" fill-opacity="0.3"/>
</svg>
