<svg width="34" height="34" viewBox="0 0 34 34" fill="none" xmlns="http://www.w3.org/2000/svg">
<g clip-path="url(#clip0_2817_11)">
<mask id="mask0_2817_11" style="mask-type:luminance" maskUnits="userSpaceOnUse" x="0" y="0" width="34" height="34">
<path d="M0 9.91821e-05H33.9999V34H0V9.91821e-05Z" fill="white"/>
</mask>
<g mask="url(#mask0_2817_11)">
<path d="M26.159 7.43298C27.7294 7.43298 29.0026 6.15985 29.0026 4.58941C29.0026 3.01891 27.7294 1.74577 26.159 1.74577C24.5886 1.74577 23.3154 3.01891 23.3154 4.58941C23.3154 6.15985 24.5886 7.43298 26.159 7.43298Z" fill="#274D60" fill-opacity="0.3"/>
<path d="M27.3447 7.6494L26.2378 8.05202L25.1309 7.6494C25.1 7.6437 25.0683 7.64487 25.0379 7.65281C25.0075 7.66075 24.9793 7.67528 24.9551 7.69536C24.931 7.71544 24.9116 7.74059 24.8983 7.76901C24.8849 7.79744 24.878 7.82845 24.878 7.85984V8.92393C24.878 8.95533 24.8849 8.98634 24.8983 9.01476C24.9116 9.04319 24.931 9.06833 24.9551 9.08841C24.9793 9.10849 25.0075 9.12302 25.0379 9.13096C25.0683 9.13891 25.1 9.14007 25.1309 9.13437L26.2378 8.73169L27.3447 9.13437C27.3756 9.14008 27.4074 9.13893 27.4378 9.13099C27.4681 9.12305 27.4964 9.10853 27.5205 9.08844C27.5447 9.06836 27.5641 9.04321 27.5774 9.01478C27.5908 8.98635 27.5977 8.95533 27.5977 8.92393V7.85984C27.5977 7.82844 27.5908 7.79742 27.5774 7.76899C27.5641 7.74056 27.5447 7.71541 27.5205 7.69533C27.4964 7.67525 27.4681 7.66072 27.4378 7.65278C27.4074 7.64485 27.3756 7.64369 27.3447 7.6494Z" fill="#274D60" fill-opacity="0.3"/>
<path d="M15.8568 25.9321H17.0976L16.4771 23.6546L15.8568 25.9321Z" fill="#274D60" fill-opacity="0.3"/>
<path d="M21.6097 23.2041H20.7684V24.7848H21.6097C22.0857 24.7848 22.3747 24.5893 22.3747 23.9944C22.3747 23.3996 22.0857 23.2041 21.6097 23.2041Z" fill="#274D60" fill-opacity="0.3"/>
<path d="M12.2708 23.7991C12.2708 23.5016 12.1093 23.2042 11.7864 23.2042H10.8941V24.3855H11.7864C12.1093 24.3855 12.2708 24.0881 12.2708 23.7991Z" fill="#274D60" fill-opacity="0.3"/>
<path d="M11.7439 25.4053H10.894V27.105H11.7439C12.1688 27.105 12.4237 26.867 12.4237 26.3231V26.1871C12.4237 25.6093 12.1688 25.4053 11.7439 25.4053Z" fill="#274D60" fill-opacity="0.3"/>
<path d="M22.9185 28.3117C22.7485 28.3117 22.5871 28.2437 22.4936 28.0652L21.3293 25.8047H20.7684V27.8527C20.7684 28.1247 20.437 28.2607 20.1056 28.2607C19.7741 28.2607 19.4426 28.1247 19.4426 27.8527V22.4478C19.4426 22.2354 19.6041 22.0484 19.8506 22.0484H21.6097C22.774 22.0484 23.7003 22.4818 23.7003 23.867C23.7003 24.8188 23.2669 25.3628 22.672 25.5922L23.7088 27.4704C23.7428 27.5214 23.7513 27.5809 23.7513 27.6233C23.7513 27.9547 23.3094 28.3117 22.9185 28.3117ZM18.1003 28.2607C17.8879 28.2607 17.7179 28.1927 17.6669 28.0142L17.3779 26.9519H15.5848L15.2958 28.0142C15.2448 28.1927 15.075 28.2607 14.8625 28.2607C14.497 28.2607 14.0127 28.0312 14.0127 27.7168C14.0127 27.6913 14.0212 27.6573 14.0297 27.6233L15.6103 22.4393C15.7038 22.1419 16.0862 21.9975 16.4771 21.9975C16.8681 21.9975 17.2505 22.1419 17.344 22.4393L18.9331 27.6233C18.9417 27.6573 18.9502 27.6913 18.9502 27.7168C18.9502 28.0312 18.4657 28.2607 18.1003 28.2607ZM13.7496 26.4336C13.7496 27.7762 13.0017 28.2607 12.0413 28.2607H10.1547C9.79782 28.2607 9.57688 28.0737 9.57688 27.8612V22.4563C9.57688 22.1844 9.86575 22.0484 10.1547 22.0484H11.8968C12.7468 22.0484 13.5966 22.3544 13.5966 23.5611C13.5966 24.2495 13.3246 24.6998 12.8742 24.8953C13.3926 25.0908 13.7496 25.4053 13.7496 26.2551V26.4336ZM26.5873 18.0912C27.135 17.9112 27.5309 17.3964 27.5309 16.7885C27.5309 16.4278 27.3906 16.1007 27.1631 15.8559L27.374 13.3015C27.3758 13.2793 27.373 13.2569 27.3658 13.2358C27.3585 13.2147 27.347 13.1953 27.3319 13.1789C27.3167 13.1625 27.2984 13.1494 27.278 13.1404C27.2575 13.1315 27.2354 13.1269 27.2131 13.1269H25.6048C25.5825 13.1269 25.5604 13.1315 25.54 13.1405C25.5196 13.1494 25.5012 13.1625 25.4861 13.1789C25.471 13.1954 25.4595 13.2147 25.4522 13.2358C25.445 13.2569 25.4422 13.2793 25.444 13.3015L25.6185 15.4165H21.9774V11.5818C21.9799 11.3115 22.2211 11.0834 22.5049 11.0834H22.5782V14.6069H24.7434L24.6412 13.3678C24.5947 12.8043 25.0394 12.3214 25.6048 12.3214H27.2131C27.7785 12.3214 28.2232 12.8043 28.1768 13.3678L27.9919 15.6061C28.22 15.9583 28.3411 16.369 28.3406 16.7885C28.3406 16.9596 28.3203 17.1259 28.2829 17.2857H29.8456V11.0834H29.9189C30.2028 11.0834 30.4439 11.3115 30.4464 11.5818V17.2857H33.1903V11.57C33.1813 9.7887 31.7138 8.33952 29.9189 8.33952H28.1582C28.0586 8.87455 27.4513 11.8401 26.2206 11.8401C24.9899 11.8401 24.3825 8.87455 24.283 8.33952H22.5049C20.7101 8.33952 19.2426 9.7887 19.2337 11.57V16.7885C19.2337 17.3964 19.6295 17.9112 20.1771 18.0912H17.3917C17.5302 18.0912 17.663 18.0362 17.7609 17.9383C17.8588 17.8404 17.9138 17.7076 17.9138 17.5691V13.3731C17.9138 12.7154 17.4996 12.1547 16.9179 11.9371V9.6274C16.9179 9.56168 16.8918 9.49866 16.8453 9.4522C16.7989 9.40574 16.7358 9.37964 16.6701 9.37964H16.0916C16.0259 9.37966 15.9629 9.40576 15.9165 9.45222C15.87 9.49869 15.8439 9.56169 15.8439 9.6274V11.9371C15.2622 12.1546 14.8479 12.7154 14.8479 13.3731V17.5691C14.8479 17.7076 14.9029 17.8404 15.0008 17.9383C15.0987 18.0362 15.2315 18.0912 15.37 18.0912H13.2143C13.4151 18.0185 13.5589 17.8266 13.5589 17.6008V13.4047C13.5589 12.747 13.1445 12.1863 12.5629 11.9687V9.65908C12.5629 9.62654 12.5565 9.59431 12.5441 9.56425C12.5316 9.53419 12.5134 9.50687 12.4903 9.48386C12.4673 9.46085 12.44 9.4426 12.41 9.43016C12.3799 9.41771 12.3477 9.4113 12.3151 9.41131H11.7366C11.7041 9.41131 11.6719 9.41772 11.6418 9.43017C11.6117 9.44263 11.5844 9.46088 11.5614 9.48389C11.5384 9.50689 11.5202 9.53421 11.5077 9.56426C11.4953 9.59432 11.4889 9.62654 11.4889 9.65908V11.9687C10.9071 12.1863 10.493 12.747 10.493 13.4047V17.6008C10.493 17.8266 10.6367 18.0185 10.8375 18.0912H0V32.2543H33.9999V18.0912H26.5873Z" fill="#274D60" fill-opacity="0.3"/>
</g>
</g>
<defs>
<clipPath id="clip0_2817_11">
<rect width="34" height="34" fill="white"/>
</clipPath>
</defs>
</svg>
