<svg width="34" height="34" viewBox="0 0 34 34" fill="none" xmlns="http://www.w3.org/2000/svg">
<path d="M29.1157 7.84125V6.90625H25.8421C25.8607 7.06031 25.8729 7.21597 25.8729 7.37428C25.8729 7.53259 25.8607 7.68772 25.8427 7.84072H29.1162L29.1157 7.84125ZM21.9613 4.52572H12.0387C10.4677 4.52572 9.18956 5.8039 9.18956 7.37481C9.18956 8.94572 10.4677 10.2239 12.0387 10.2239H21.9613C23.5323 10.2239 24.8104 8.94572 24.8104 7.37481C24.8104 5.8039 23.5323 4.52572 21.9613 4.52572ZM13.0587 8.2875C13.0587 8.42839 13.0027 8.56352 12.9031 8.66315C12.8034 8.76278 12.6683 8.81875 12.5274 8.81875C12.3865 8.81875 12.2514 8.76278 12.1518 8.66315C12.0521 8.56352 11.9962 8.42839 11.9962 8.2875V6.46212C11.9962 6.32123 12.0521 6.1861 12.1518 6.08647C12.2514 5.98684 12.3865 5.93087 12.5274 5.93087C12.6683 5.93087 12.8034 5.98684 12.9031 6.08647C13.0027 6.1861 13.0587 6.32123 13.0587 6.46212V8.2875ZM17.5312 8.2875C17.5312 8.42839 17.4753 8.56352 17.3757 8.66315C17.276 8.76278 17.1409 8.81875 17 8.81875C16.8591 8.81875 16.724 8.76278 16.6243 8.66315C16.5247 8.56352 16.4688 8.42839 16.4688 8.2875V6.46212C16.4688 6.32123 16.5247 6.1861 16.6243 6.08647C16.724 5.98684 16.8591 5.93087 17 5.93087C17.1409 5.93087 17.276 5.98684 17.3757 6.08647C17.4753 6.1861 17.5312 6.32123 17.5312 6.46212V8.2875ZM22.0038 8.2875C22.0038 8.42839 21.9479 8.56352 21.8482 8.66315C21.7486 8.76278 21.6135 8.81875 21.4726 8.81875C21.3317 8.81875 21.1966 8.76278 21.0969 8.66315C20.9973 8.56352 20.9413 8.42839 20.9413 8.2875V6.46212C20.9413 6.32123 20.9973 6.1861 21.0969 6.08647C21.1966 5.98684 21.3317 5.93087 21.4726 5.93087C21.6135 5.93087 21.7486 5.98684 21.8482 6.08647C21.9479 6.1861 22.0038 6.32123 22.0038 6.46212V8.2875ZM3.82181 8.38259C3.82181 8.37887 3.81969 8.37568 3.81969 8.3725V6.375C3.81969 6.37128 3.82181 6.36809 3.82181 6.3649V3.40637H2.125V30.5942H3.82181V8.38259ZM30.1782 6.3649C30.1782 6.36862 30.1803 6.37181 30.1803 6.375V8.3725C30.1803 8.37622 30.1782 8.3794 30.1782 8.38259V30.5936H31.875V3.40637H30.1782V6.3649ZM4.88431 6.90625V7.84125H8.15787C8.13928 7.68772 8.12759 7.53259 8.12759 7.37481C8.12759 7.21703 8.13981 7.06031 8.15841 6.90678H4.88484L4.88431 6.90625ZM13.0873 17.0892L12.9163 17.5876C12.4275 19.0304 11.8076 20.7288 10.9204 22.3656C9.88391 24.2813 9.6815 26.1779 10.319 28.0011C10.8614 29.5518 12.3505 30.5942 14.025 30.5942H20.0053C21.6909 30.5942 23.1832 29.5402 23.7187 27.9708C23.9238 27.3562 24.0295 26.7867 24.0401 26.2592C24.1926 20.553 19.9713 17.4006 17.9669 16.2297C19.3263 22.3842 15.2219 24.6686 15.1773 24.6925C15.0829 24.743 14.9755 24.7639 14.8691 24.7524C14.7627 24.7408 14.6623 24.6974 14.581 24.6278C14.4997 24.5582 14.4413 24.4657 14.4134 24.3623C14.3856 24.259 14.3897 24.1496 14.425 24.0486C15.7436 20.2842 14.0277 17.9977 13.0868 17.0898L13.0873 17.0892Z" fill="#274D60" fill-opacity="0.3"/>
</svg>
