<svg width="34" height="34" viewBox="0 0 34 34" fill="none" xmlns="http://www.w3.org/2000/svg">
<path d="M7.66956 22.919V27.1223H25.7378V22.919H7.66956Z" fill="#274D60" fill-opacity="0.1"/>
<path d="M20.8572 13.0133L26.704 21.5096L26.7986 21.8084V28.1881H6.61374V21.8134L6.70836 21.5146L12.5502 13.0083L12.5551 13.0034H13.5313C13.7568 13.41 14.0576 13.77 14.4178 14.0641H13.108L7.75421 21.8532H25.6531L20.3044 14.0691H18.9249C19.2867 13.7754 19.5893 13.4154 19.8163 13.0083H20.7825V13.0581L20.8522 13.0083L20.8572 13.0133Z" fill="#274D60" fill-opacity="0.3"/>
<path d="M12.4506 16.2604L12.6 16.2056C14.6419 15.4287 15.6528 15.0502 16.7037 15.0502C17.7147 15.0502 18.6609 15.4038 20.5235 16.0961L20.9867 16.2704C21.0845 16.3057 21.1689 16.3709 21.2278 16.4566C21.2868 16.5424 21.3174 16.6444 21.3154 16.7485V19.0145L21.2855 19.0245C21.4996 18.9547 21.7088 18.88 21.9229 18.8003C22.0507 18.7651 22.187 18.7788 22.3052 18.8386C22.4234 18.8984 22.5151 19.0002 22.5624 19.1239C22.6097 19.2477 22.6091 19.3847 22.5609 19.5081C22.5126 19.6315 22.4201 19.7325 22.3014 19.7914C20.5531 20.4567 18.6936 20.7813 16.8232 20.7476C14.8954 20.7036 12.9836 20.385 11.1457 19.8014C11.0139 19.7592 10.9039 19.667 10.8395 19.5445C10.775 19.4221 10.7612 19.2792 10.801 19.1466C10.8408 19.0141 10.9311 18.9025 11.0524 18.8359C11.1737 18.7692 11.3163 18.7529 11.4495 18.7904C11.6687 18.8551 11.8828 18.9199 12.097 18.9746V16.7335C12.0977 16.6273 12.1324 16.524 12.1961 16.4389C12.2597 16.3538 12.3489 16.2912 12.4506 16.2604Z" fill="#274D60" fill-opacity="0.3"/>
<path d="M7.98829 11.4246C8.11575 11.3652 8.21437 11.2576 8.26247 11.1254C8.31057 10.9933 8.3042 10.8474 8.24477 10.7199C8.18533 10.5925 8.07769 10.4939 7.94553 10.4458C7.81338 10.3977 7.66753 10.404 7.54007 10.4635C6.46932 10.9665 6.39959 11.589 6.74821 12.3261C6.89762 12.6398 7.12173 12.9386 7.37074 13.2673C7.87872 13.9397 8.48631 14.7415 8.17255 15.5682C8.12302 15.7003 8.12799 15.8466 8.18636 15.975C8.24474 16.1035 8.35173 16.2034 8.48382 16.253C8.6159 16.3025 8.76225 16.2975 8.89067 16.2392C9.01909 16.1808 9.11907 16.0738 9.1686 15.9417C9.68654 14.5721 8.88473 13.5114 8.21738 12.6249C8.02624 12.3914 7.85624 12.1414 7.70939 11.8778C7.63469 11.7185 7.67453 11.5741 7.98829 11.4246ZM5.51809 12.7195C5.59322 12.6094 5.62435 12.4751 5.60532 12.3431C5.5863 12.2112 5.51851 12.0912 5.41534 12.0068C5.31216 11.9223 5.18109 11.8797 5.04799 11.8871C4.91489 11.8946 4.78942 11.9517 4.69636 12.0472C3.50608 13.5064 4.3826 14.2136 5.47825 15.1001C6.20536 15.6827 7.07192 16.3849 7.04702 17.5653C7.04571 17.6349 7.05814 17.7041 7.08358 17.769C7.10903 17.8338 7.147 17.893 7.19533 17.9432C7.24366 17.9934 7.30139 18.0336 7.36524 18.0614C7.42909 18.0893 7.4978 18.1043 7.56746 18.1056C7.63711 18.1069 7.70634 18.0945 7.77119 18.0691C7.83604 18.0436 7.89524 18.0056 7.94542 17.9573C7.9956 17.909 8.03576 17.8512 8.06362 17.7874C8.09149 17.7235 8.1065 17.6548 8.10781 17.5852C8.13271 15.8819 7.052 15.0054 6.14062 14.2733C5.50813 13.7604 5.00513 13.352 5.51809 12.7195ZM5.70236 8.05801C5.8285 7.99659 5.92508 7.88758 5.97084 7.75496C6.01661 7.62233 6.00781 7.47696 5.94639 7.35082C5.88497 7.22468 5.77596 7.12811 5.64334 7.08234C5.51071 7.03658 5.36534 7.04537 5.2392 7.10679C4.00909 7.70442 4.3577 8.40165 4.79098 9.28813C5.02505 9.76623 5.30394 10.334 5.02505 10.9017C4.96363 11.0285 4.9551 11.1745 5.00133 11.3076C5.04756 11.4407 5.14477 11.55 5.27157 11.6114C5.39837 11.6728 5.54438 11.6814 5.67747 11.6351C5.81056 11.5889 5.91984 11.4917 5.98125 11.3649C6.47928 10.329 6.08086 9.51224 5.7422 8.82497C5.5679 8.47137 5.42845 8.19248 5.70236 8.05801Z" fill="#274D60" fill-opacity="0.3"/>
<path d="M26.4649 10.8818C26.4021 10.852 26.3341 10.8349 26.2647 10.8315C26.1953 10.828 26.1259 10.8382 26.0605 10.8616C25.9283 10.9088 25.8203 11.0065 25.7602 11.1333C25.7001 11.2601 25.6928 11.4056 25.74 11.5377C25.7872 11.6699 25.8849 11.7779 26.0117 11.838C26.3255 11.9874 26.3653 12.1368 26.2906 12.2962C26.191 12.5004 25.9918 12.7643 25.7826 13.0432C25.1103 13.9297 24.3135 14.9855 24.8364 16.36C24.8859 16.4915 24.9856 16.5978 25.1136 16.6557C25.2415 16.7136 25.3872 16.7183 25.5187 16.6688C25.6501 16.6193 25.7565 16.5196 25.8144 16.3916C25.8723 16.2637 25.877 16.1179 25.8274 15.9865C25.5137 15.1598 26.1213 14.358 26.6243 13.6857C26.8625 13.3933 27.0711 13.078 27.2468 12.7444C27.5954 12.0073 27.5307 11.3848 26.4649 10.8818ZM29.2987 12.4655C29.2056 12.37 29.0801 12.3129 28.947 12.3055C28.8139 12.298 28.6829 12.3407 28.5797 12.4251C28.4765 12.5095 28.4087 12.6295 28.3897 12.7615C28.3707 12.8934 28.4018 13.0277 28.4769 13.1378C28.9949 13.7703 28.4919 14.1837 27.8544 14.6917C26.948 15.4237 25.8623 16.3003 25.8922 18.0035C25.8948 18.1435 25.953 18.2767 26.0538 18.3739C26.1547 18.471 26.29 18.5241 26.4301 18.5214C26.5701 18.5188 26.7033 18.4607 26.8004 18.3598C26.8976 18.2589 26.9506 18.1236 26.948 17.9836C26.9331 16.7983 27.7946 16.1011 28.5217 15.5184C29.6174 14.6319 30.4939 13.9247 29.2987 12.4655ZM28.7558 7.52013C28.693 7.49005 28.6249 7.47262 28.5554 7.46886C28.4859 7.46509 28.4163 7.47505 28.3506 7.49817C28.285 7.5213 28.2245 7.55713 28.1727 7.60362C28.1209 7.65011 28.0787 7.70636 28.0486 7.76914C28.0185 7.83193 28.0011 7.90002 27.9973 7.96954C27.9936 8.03906 28.0035 8.10864 28.0267 8.17431C28.0734 8.30694 28.1708 8.41558 28.2976 8.47633C28.5666 8.6108 28.4321 8.88969 28.2578 9.23831C27.9191 9.93056 27.5157 10.7473 28.0187 11.7782C28.0795 11.9044 28.1879 12.0012 28.32 12.0474C28.4522 12.0937 28.5973 12.0855 28.7234 12.0247C28.8496 11.964 28.9464 11.8556 28.9927 11.7235C29.0389 11.5913 29.0307 11.4462 28.97 11.32C28.6961 10.7523 28.97 10.1846 29.209 9.70645C29.6423 8.81997 29.981 8.11776 28.7558 7.52013Z" fill="#274D60" fill-opacity="0.3"/>
<path fill-rule="evenodd" clip-rule="evenodd" d="M19.891 11.2603C19.8871 12.1128 19.547 12.9294 18.9447 13.5327C18.3423 14.1359 17.5263 14.4773 16.6738 14.4825C16.2487 14.4792 15.8284 14.3923 15.4369 14.2266C15.0454 14.0609 14.6903 13.8197 14.3921 13.5168C14.0938 13.2139 13.8581 12.8552 13.6984 12.4612C13.5388 12.0672 13.4583 11.6456 13.4616 11.2205C13.4616 10.7722 13.5512 10.339 13.7106 9.9505L13.7205 9.97042C13.7554 10.0451 13.8002 10.1198 13.85 10.1796L14.0343 10.4286L14.0691 10.3987C14.358 10.6228 14.7265 10.6975 15.1 10.6776C15.5397 10.6408 15.9686 10.5226 16.365 10.329L16.4148 10.3937C16.9776 11.0661 17.8342 11.8081 18.7605 11.7882C18.976 11.7879 19.1889 11.7405 19.3842 11.6493C19.5794 11.5581 19.7524 11.4253 19.891 11.2603Z" fill="#274D60" fill-opacity="0.3"/>
<path d="M18.7406 7.86377C19.5972 8.72037 19.9209 9.59689 19.8811 10.2393C19.8705 10.5393 19.7561 10.8262 19.5574 11.0511C19.4552 11.1616 19.3311 11.2497 19.1931 11.3097C19.0551 11.3697 18.9061 11.4004 18.7555 11.3997C18.2027 11.4097 17.4756 11.0511 16.7186 10.1447C16.9278 10.0252 17.132 9.8957 17.3262 9.74629C17.8459 9.36609 18.2718 8.87207 18.5713 8.30203C18.6402 8.16107 18.6968 8.01444 18.7406 7.86377Z" fill="#274D60" fill-opacity="0.3"/>
<path d="M18.397 6.69342C18.5962 7.1018 18.5563 7.62971 18.2924 8.16259C18.015 8.69177 17.6196 9.15012 17.137 9.50227C16.8582 9.71443 16.5577 9.89639 16.2405 10.0451C15.8787 10.2234 15.4869 10.3332 15.0851 10.3688C14.6618 10.3937 14.3082 10.2742 14.094 9.99531C14.0571 9.94734 14.0254 9.89559 13.9994 9.84093C13.5163 8.80504 14.0393 7.62971 14.8809 6.81793C15.1404 6.56676 15.4317 6.35076 15.7475 6.17548C16.0441 6.00783 16.3677 5.89322 16.7037 5.83682C17.4109 5.72726 18.0483 5.96133 18.397 6.69342Z" fill="#274D60" fill-opacity="0.3"/>
</svg>
