<svg width="34" height="34" viewBox="0 0 34 34" fill="none" xmlns="http://www.w3.org/2000/svg">
<g clip-path="url(#clip0_2824_99)">
<path d="M24.646 13.6119L21.5797 11.213H9.81499V12.0919H11.5727L12.0124 15.6054L11.2718 15.7455L4.50373 17.4776L2.35132 20.7359L0 20.6896L0.952663 22.7876H28.2008C28.2008 22.7876 34.0125 16.4642 34 13.9134C33.9944 12.7874 29.5807 13.0101 24.646 13.6119ZM12.8919 15.4459L12.4522 12.0937H15.0887L15.5285 14.9793C14.4964 15.1569 13.595 15.3164 12.8919 15.4459ZM16.4073 14.8291L15.9688 12.0925H19.2065L19.7438 14.2943C18.5685 14.4732 17.4388 14.6577 16.4073 14.8291ZM20.6189 14.1598L20.0866 12.0925H21.1963L23.5739 13.7476C22.5881 13.8752 21.5935 14.0153 20.6189 14.1598Z" fill="#274D60" fill-opacity="0.3"/>
</g>
<defs>
<clipPath id="clip0_2824_99">
<rect width="34" height="34" fill="white"/>
</clipPath>
</defs>
</svg>
