<svg width="34" height="34" viewBox="0 0 34 34" fill="none" xmlns="http://www.w3.org/2000/svg">
<g opacity="0.34">
<path d="M34 12.0195V10.0273H31.9414C31.9414 7.07273 29.7817 4.62905 26.9609 4.15145V2.05859H24.9688V4.15145C22.148 4.62905 19.9883 7.07273 19.9883 10.0273H17.9961V12.0195H24.9688V14.0117H9.03125V12.0195H16.0039V10.0273H14.0117C14.0117 7.07273 11.852 4.62905 9.03125 4.15145V2.05859H7.03906V4.15145C4.21832 4.62905 2.05859 7.07273 2.05859 10.0273H0V12.0195H7.03906V14.0117H0V23.9727H0.996094C1.55643 23.9727 1.8621 24.1886 2.35045 24.6769C2.74769 25.0741 3.25875 25.5726 4.05078 25.8155V31.9414H6.04297V25.8155C6.835 25.5726 7.34606 25.0741 7.7433 24.6769C8.23165 24.1886 8.47098 23.9727 9.03125 23.9727C9.59152 23.9727 9.83085 24.1886 10.3192 24.6769C10.8629 25.2207 11.6071 25.9648 13.0156 25.9648C14.4242 25.9648 15.1683 25.2207 15.7121 24.6769C16.2004 24.1886 16.4397 23.9727 17 23.9727C17.5603 23.9727 17.7996 24.1886 18.2879 24.6769C18.8317 25.2207 19.5758 25.9648 20.9844 25.9648C22.3929 25.9648 23.1371 25.2207 23.6808 24.6769C24.1692 24.1886 24.4085 23.9727 24.9688 23.9727C25.529 23.9727 25.7683 24.1886 26.2567 24.6769C26.6539 25.0741 27.165 25.5726 27.957 25.8155V31.9414H29.9492V25.8155C30.7412 25.5726 31.2523 25.0741 31.6496 24.6769C32.1379 24.1886 32.3772 23.9727 32.9375 23.9727H34V14.0117H26.9609V12.0195H34Z" fill="#274D60" fill-opacity="0.8"/>
</g>
</svg>
