<svg width="34" height="34" viewBox="0 0 34 34" fill="none" xmlns="http://www.w3.org/2000/svg">
<g clip-path="url(#clip0_2806_2)">
<path fill-rule="evenodd" clip-rule="evenodd" d="M30.5143 13.5443H25.5747C25.4552 9.12248 23.304 4.54134 20.3163 2.46987C26.3515 3.66495 30.853 7.94732 30.8928 13.0662C30.9015 13.1233 30.8976 13.1816 30.8815 13.2371C30.8654 13.2925 30.8374 13.3438 30.7995 13.3874C30.7616 13.431 30.7147 13.4658 30.6621 13.4895C30.6094 13.5131 30.5522 13.525 30.4944 13.5244L30.5143 13.5443ZM24.778 13.5443H20.3163C20.2765 9.481 19.5794 4.44175 18.3046 2.35036C21.8899 3.40602 24.6385 8.68428 24.778 13.5443ZM19.5196 13.5443H14.4604C14.5202 7.46929 15.9543 2.15118 16.99 2.15118C18.0258 2.15118 19.4599 7.46929 19.5196 13.5443ZM13.6438 13.5443H9.22202C9.36145 8.68428 12.1101 3.3861 15.6954 2.35036C14.4007 4.44175 13.7036 9.46108 13.6637 13.5443H13.6438ZM8.40538 13.5443H3.48564C3.37999 13.5443 3.27866 13.5023 3.20396 13.4276C3.12925 13.3529 3.08728 13.2516 3.08728 13.1459C3.08728 7.96724 7.56883 3.66495 13.6438 2.46987C10.6561 4.54134 8.56473 9.12248 8.4253 13.5443H8.40538ZM27.1283 22.8858H6.85178C6.74613 22.8858 6.6448 22.8438 6.5701 22.7691C6.49539 22.6944 6.45342 22.5931 6.45342 22.4874V19.4599C6.45342 19.3543 6.49539 19.2529 6.5701 19.1782C6.6448 19.1035 6.74613 19.0616 6.85178 19.0616H27.1283C27.2339 19.0616 27.3353 19.1035 27.41 19.1782C27.4847 19.2529 27.5266 19.3543 27.5266 19.4599V22.4874C27.5266 22.5931 27.4847 22.6944 27.41 22.7691C27.3353 22.8438 27.2339 22.8858 27.1283 22.8858ZM21.4517 25.3756H12.5483C12.4427 25.3756 12.3413 25.3336 12.2666 25.2589C12.1919 25.1842 12.15 25.0828 12.15 24.9772V23.6825H21.85V24.9772C21.85 25.0828 21.8081 25.1842 21.7333 25.2589C21.6586 25.3336 21.5573 25.3756 21.4517 25.3756ZM19.7188 33.4623H14.2812C14.2289 33.4623 14.1771 33.452 14.1287 33.4319C14.0804 33.4119 14.0365 33.3826 13.9995 33.3456C13.9625 33.3086 13.9332 33.2647 13.9131 33.2163C13.8931 33.168 13.8828 33.1162 13.8828 33.0639V26.1723H20.1172V33.0639C20.1172 33.1695 20.0752 33.2709 20.0005 33.3456C19.9258 33.4203 19.8244 33.4623 19.7188 33.4623ZM15.5759 31.5302C15.4702 31.5302 15.3689 31.4882 15.2942 31.4135C15.2195 31.3388 15.1775 31.2375 15.1775 31.1318V27.706C15.1775 27.6003 15.2195 27.499 15.2942 27.4243C15.3689 27.3496 15.4702 27.3076 15.5759 27.3076C15.6815 27.3076 15.7828 27.3496 15.8575 27.4243C15.9322 27.499 15.9742 27.6003 15.9742 27.706V31.1318C15.9742 31.2375 15.9322 31.3388 15.8575 31.4135C15.7828 31.4882 15.6815 31.5302 15.5759 31.5302ZM15.3966 18.2648V14.341H18.5835V18.2648H15.3966ZM31.8688 27.8454H24.9572C24.4422 27.8454 23.9482 27.6408 23.584 27.2766C23.2198 26.9124 23.0152 26.4184 23.0152 25.9034C23.0152 25.3883 23.2198 24.8944 23.584 24.5302C23.9482 24.166 24.4422 23.9614 24.9572 23.9614H31.8688C31.9744 23.9614 32.0757 24.0033 32.1505 24.0781C32.2252 24.1528 32.2671 24.2541 32.2671 24.3597V27.447C32.2671 27.5527 32.2252 27.654 32.1505 27.7287C32.0757 27.8034 31.9744 27.8454 31.8688 27.8454Z" fill="#274D60" fill-opacity="0.3"/>
<path fill-rule="evenodd" clip-rule="evenodd" d="M31.8688 33.3029C31.7631 33.3029 31.6618 33.2609 31.5871 33.1862C31.5124 33.1115 31.4704 33.0102 31.4704 32.9045V24.3199L32.546 14.9385C32.5566 14.8329 32.6087 14.7357 32.6908 14.6685C32.773 14.6013 32.8785 14.5694 32.9842 14.58C33.0898 14.5906 33.187 14.6427 33.2542 14.7248C33.3214 14.807 33.3533 14.9125 33.3427 15.0182L32.2671 24.3796V32.9045C32.2671 33.0102 32.2252 33.1115 32.1505 33.1862C32.0758 33.2609 31.9744 33.3029 31.8688 33.3029ZM25.4154 33.3029C25.363 33.3029 25.3112 33.2926 25.2629 33.2726C25.2146 33.2526 25.1707 33.2232 25.1337 33.1862C25.0967 33.1492 25.0673 33.1053 25.0473 33.057C25.0273 33.0087 25.017 32.9568 25.017 32.9045V27.447C25.017 27.3414 25.059 27.24 25.1337 27.1653C25.2084 27.0906 25.3097 27.0487 25.4154 27.0487C25.521 27.0487 25.6223 27.0906 25.697 27.1653C25.7717 27.24 25.8137 27.3414 25.8137 27.447V32.9045C25.8137 33.0102 25.7717 33.1115 25.697 33.1862C25.6223 33.2609 25.521 33.3029 25.4154 33.3029Z" fill="#274D60" fill-opacity="0.3"/>
<path fill-rule="evenodd" clip-rule="evenodd" d="M31.8688 30.6538H25.4154C25.3097 30.6538 25.2084 30.6118 25.1337 30.5371C25.059 30.4624 25.017 30.3611 25.017 30.2554C25.017 30.1498 25.059 30.0485 25.1337 29.9738C25.2084 29.8991 25.3097 29.8571 25.4154 29.8571H31.8688C31.9744 29.8571 32.0758 29.8991 32.1505 29.9738C32.2252 30.0485 32.2671 30.1498 32.2671 30.2554C32.2671 30.3611 32.2252 30.4624 32.1505 30.5371C32.0758 30.6118 31.9744 30.6538 31.8688 30.6538ZM9.04278 27.8454H2.13124C2.02559 27.8454 1.92426 27.8034 1.84956 27.7287C1.77485 27.654 1.73288 27.5527 1.73288 27.447V24.3597C1.73288 24.2541 1.77485 24.1528 1.84956 24.078C1.92426 24.0033 2.02559 23.9614 2.13124 23.9614H9.04278C9.55783 23.9614 10.0518 24.166 10.416 24.5302C10.7802 24.8944 10.9848 25.3883 10.9848 25.9034C10.9848 26.4184 10.7802 26.9124 10.416 27.2766C10.0518 27.6408 9.55783 27.8454 9.04278 27.8454Z" fill="#274D60" fill-opacity="0.3"/>
<path fill-rule="evenodd" clip-rule="evenodd" d="M2.13122 33.3029C2.02557 33.3029 1.92425 33.2609 1.84954 33.1862C1.77483 33.1115 1.73286 33.0102 1.73286 32.9045V24.3796L0.657292 15.0182C0.646727 14.9125 0.678564 14.807 0.745801 14.7248C0.813037 14.6427 0.910164 14.5906 1.01582 14.58C1.12147 14.5694 1.22699 14.6013 1.30917 14.6685C1.39134 14.7357 1.44345 14.8329 1.45401 14.9385L2.50966 24.3199V32.9045C2.50966 33.0102 2.46769 33.1115 2.39299 33.1862C2.31828 33.2609 2.21696 33.3029 2.1113 33.3029H2.13122ZM8.56473 33.3029C8.45908 33.3029 8.35776 33.2609 8.28305 33.1862C8.20834 33.1115 8.16637 33.0102 8.16637 32.9045V27.447C8.16637 27.3414 8.20834 27.24 8.28305 27.1653C8.35776 27.0906 8.45908 27.0487 8.56473 27.0487C8.67038 27.0487 8.77171 27.0906 8.84641 27.1653C8.92112 27.24 8.96309 27.3414 8.96309 27.447V32.9045C8.96309 33.0102 8.92112 33.1115 8.84641 33.1862C8.77171 33.2609 8.67038 33.3029 8.56473 33.3029Z" fill="#274D60" fill-opacity="0.3"/>
<path fill-rule="evenodd" clip-rule="evenodd" d="M8.56473 30.6538H2.15114C2.04549 30.6538 1.94417 30.6118 1.86946 30.5371C1.79475 30.4624 1.75278 30.3611 1.75278 30.2554C1.75278 30.1498 1.79475 30.0485 1.86946 29.9738C1.94417 29.8991 2.04549 29.8571 2.15114 29.8571H8.56473C8.67038 29.8571 8.77171 29.8991 8.84642 29.9738C8.92112 30.0485 8.96309 30.1498 8.96309 30.2554C8.96309 30.3611 8.92112 30.4624 8.84642 30.5371C8.77171 30.6118 8.67038 30.6538 8.56473 30.6538ZM33.6016 33.4622H0.39836C0.292708 33.4622 0.191384 33.4203 0.116677 33.3456C0.0419699 33.2709 0 33.1695 0 33.0639C0 32.9582 0.0419699 32.8569 0.116677 32.7822C0.191384 32.7075 0.292708 32.6655 0.39836 32.6655H33.6016C33.7073 32.6655 33.8086 32.7075 33.8833 32.7822C33.958 32.8569 34 32.9582 34 33.0639C34 33.1695 33.958 33.2709 33.8833 33.3456C33.8086 33.4203 33.7073 33.4622 33.6016 33.4622ZM15.5759 1.4142C15.7084 1.15009 15.9118 0.928038 16.1633 0.772868C16.4148 0.617699 16.7045 0.535522 17 0.535522C17.2955 0.535522 17.5852 0.617699 17.8367 0.772868C18.0882 0.928038 18.2916 1.15009 18.4241 1.4142C17.4762 1.33932 16.5238 1.33932 15.5759 1.4142Z" fill="#274D60" fill-opacity="0.3"/>
</g>
<defs>
<clipPath id="clip0_2806_2">
<rect width="34" height="34" fill="white"/>
</clipPath>
</defs>
</svg>
