<svg width="34" height="34" viewBox="0 0 34 34" fill="none" xmlns="http://www.w3.org/2000/svg">
<g clip-path="url(#clip0_2801_8)">
<path d="M25.5716 16.0546C25.1922 15.5262 25.0318 14.8632 25.1463 14.1954L25.3746 12.8643L24.4077 11.9218C24.393 11.9075 24.3797 11.8922 24.3654 11.8776C16.9658 18.0505 16.1241 27.9453 16.2047 32.803C16.206 32.8886 16.2389 32.9707 16.2971 33.0335C16.3553 33.0964 16.4346 33.1355 16.5198 33.1434C16.6051 33.1513 16.6903 33.1275 16.759 33.0764C16.8277 33.0253 16.8752 32.9507 16.8922 32.8668C18.9334 22.9258 22.7936 18.2273 25.5716 16.0546ZM11.0604 9.41644L8.82738 9.91629L7.97322 12.0392C7.95771 12.0777 7.94021 12.1151 7.92293 12.1525C11.408 17.0829 13.2231 27.1491 13.9487 32.2197C13.9566 32.2774 13.986 32.3299 14.0311 32.3667C14.0763 32.4034 14.1336 32.4217 14.1917 32.4178C14.2498 32.4138 14.3042 32.388 14.3439 32.3455C14.3837 32.303 14.4058 32.247 14.4058 32.1888C14.4941 21.2519 12.821 13.9546 11.1324 9.39783C11.1083 9.40381 11.0847 9.41101 11.0604 9.41644ZM26.3318 27.1251L26.0153 26.6898C25.7654 26.347 25.6078 25.9458 25.5576 25.5246C23.1218 26.1742 19.4577 27.8365 18.287 32.0408C18.2563 32.1508 18.2657 32.2681 18.3133 32.3718C18.361 32.4756 18.4439 32.5591 18.5473 32.6075C18.6507 32.6559 18.7679 32.666 18.8781 32.6362C18.9883 32.6063 19.0843 32.5383 19.1491 32.4443C20.4266 30.5917 22.723 28.1451 26.1476 27.6484C26.1495 27.6431 26.1508 27.6377 26.1527 27.6322L26.3318 27.1251ZM8.91366 22.8793C8.68585 23.1978 8.38585 23.4578 8.03823 23.6381L7.56098 23.8863L7.49486 24.4201C7.47495 24.5785 7.43997 24.7347 7.39041 24.8864C9.43555 27.1965 10.9426 30.3697 11.8534 32.6481C11.8829 32.7219 11.9387 32.7822 12.01 32.8173C12.0813 32.8525 12.163 32.86 12.2395 32.8384C12.316 32.8169 12.3818 32.7678 12.4243 32.7006C12.4668 32.6334 12.4829 32.5529 12.4695 32.4746C11.6631 27.7128 10.2526 24.7306 8.91366 22.8793ZM27.7548 12.091L27.3296 14.5699C27.3213 14.6182 27.3267 14.6679 27.3451 14.7134C27.3636 14.7588 27.3944 14.7982 27.4341 14.827C27.4738 14.8558 27.5207 14.873 27.5697 14.8765C27.6186 14.88 27.6675 14.8698 27.7109 14.8469L29.9372 13.6765L32.1633 14.8469C32.2067 14.8697 32.2556 14.8799 32.3045 14.8764C32.3534 14.8729 32.4004 14.8557 32.44 14.8269C32.4797 14.7981 32.5105 14.7587 32.529 14.7133C32.5475 14.6679 32.5529 14.6182 32.5446 14.5699L32.1194 12.091L33.9205 10.3354C33.9555 10.3012 33.9804 10.2578 33.9921 10.2102C34.0038 10.1626 34.002 10.1126 33.9869 10.066C33.9717 10.0194 33.9438 9.97789 33.9064 9.94627C33.8689 9.91465 33.8233 9.89414 33.7748 9.88705L31.2859 9.52543L30.1727 7.27006C30.151 7.22612 30.1174 7.18912 30.0758 7.16326C30.0341 7.13739 29.9861 7.12368 29.9371 7.12368C29.888 7.12368 29.84 7.13739 29.7983 7.16326C29.7567 7.18912 29.7231 7.22612 29.7014 7.27006L28.5882 9.52543L26.0993 9.88705C26.0507 9.89408 26.0051 9.91456 25.9676 9.94617C25.9301 9.97778 25.9022 10.0193 25.887 10.0659C25.8718 10.1126 25.87 10.1625 25.8818 10.2102C25.8936 10.2578 25.9184 10.3012 25.9535 10.3354L27.7548 12.091ZM10.5766 7.25478C10.6245 7.24412 10.6684 7.22026 10.7035 7.1859C10.7385 7.15154 10.7632 7.10805 10.7748 7.06037C10.7864 7.01269 10.7844 6.96272 10.769 6.91611C10.7537 6.86951 10.7256 6.82814 10.6879 6.79669L8.03967 4.58097L8.36364 1.14338C8.36816 1.09459 8.35896 1.04551 8.33708 1.00167C8.3152 0.957824 8.28151 0.920963 8.2398 0.895241C8.1981 0.869518 8.15004 0.855955 8.10104 0.85608C8.05204 0.856205 8.00405 0.870014 7.96247 0.89595L5.03681 2.72988L1.86747 1.35958C1.82248 1.34006 1.77291 1.33354 1.7244 1.34077C1.67588 1.34799 1.63037 1.36867 1.59301 1.40045C1.55563 1.4322 1.52788 1.47378 1.51291 1.52049C1.49793 1.56719 1.49633 1.61715 1.50828 1.66472L2.34838 5.01382L0.065662 7.60444C0.0332021 7.64123 0.0116916 7.68637 0.00356675 7.73475C-0.0045581 7.78314 0.0010273 7.83283 0.0196904 7.8782C0.0383535 7.92357 0.0693486 7.96281 0.109165 7.99148C0.148982 8.02014 0.196029 8.03708 0.244979 8.04039L3.68977 8.27641L5.44827 11.2479C5.47326 11.2901 5.50955 11.3245 5.55305 11.3472C5.59655 11.3699 5.64553 11.3799 5.69444 11.3762C5.74335 11.3725 5.79025 11.3552 5.82983 11.3262C5.86942 11.2972 5.90011 11.2578 5.91844 11.2123L7.20733 8.00904L10.5766 7.25478ZM33.4767 26.0846C33.4696 26.0361 33.4491 25.9905 33.4174 25.953C33.3858 25.9155 33.3443 25.8876 33.2977 25.8725L31.6784 25.347L31.1934 23.7151C31.1794 23.668 31.1526 23.6258 31.1159 23.5932C31.0792 23.5607 31.0342 23.539 30.9858 23.5307C30.9374 23.5225 30.8877 23.5279 30.8423 23.5464C30.7969 23.5649 30.7575 23.5958 30.7288 23.6355L29.7285 25.0132L28.0266 24.9703L28.0199 24.9702C27.9715 24.9702 27.924 24.9836 27.8826 25.0089C27.8413 25.0343 27.8078 25.0705 27.7858 25.1137C27.7638 25.1569 27.7542 25.2053 27.758 25.2537C27.7618 25.302 27.7789 25.3483 27.8074 25.3875L28.8085 26.7646L28.2417 28.37C28.2253 28.4162 28.2222 28.4662 28.2327 28.5141C28.2432 28.562 28.267 28.606 28.3012 28.6412C28.3355 28.6763 28.3789 28.7011 28.4266 28.7128C28.4742 28.7246 28.5242 28.7227 28.5709 28.7075L30.1899 28.1808L31.5416 29.216C31.5806 29.2457 31.6271 29.264 31.6759 29.2688C31.7247 29.2735 31.7738 29.2645 31.8178 29.2428C31.8617 29.2211 31.8987 29.1875 31.9246 29.1459C31.9505 29.1043 31.9642 29.0562 31.9643 29.0072L31.9637 27.3047L33.3659 26.3391C33.4062 26.3112 33.4379 26.2726 33.4575 26.2276C33.4771 26.1827 33.4837 26.1331 33.4767 26.0846ZM7.01616 21.6729C7.05966 21.6503 7.09597 21.6159 7.12097 21.5737C7.14597 21.5315 7.15867 21.4831 7.15763 21.4341C7.15659 21.3851 7.14186 21.3373 7.1151 21.2962C7.08834 21.2551 7.05062 21.2223 7.00619 21.2015L5.46389 20.4805L5.18356 18.8013C5.17547 18.7529 5.15402 18.7078 5.12162 18.671C5.08923 18.6342 5.04718 18.6072 5.00024 18.593C4.9533 18.5789 4.90334 18.5781 4.85599 18.5909C4.80865 18.6036 4.76582 18.6293 4.73233 18.6652L3.57004 19.9092L1.8863 19.6569C1.83777 19.6495 1.78814 19.6559 1.74306 19.6753C1.69797 19.6947 1.65923 19.7264 1.63123 19.7667C1.60322 19.807 1.58708 19.8544 1.58464 19.9034C1.58219 19.9525 1.59353 20.0012 1.61738 20.0441L2.44131 21.534L1.68107 23.0574C1.65924 23.1013 1.65011 23.1504 1.65471 23.1992C1.65931 23.248 1.67745 23.2945 1.7071 23.3336C1.73674 23.3726 1.7767 23.4026 1.82248 23.4201C1.86825 23.4377 1.91801 23.4421 1.96616 23.4328L3.63771 23.1097L4.85162 24.3034C4.88657 24.3378 4.93045 24.3618 4.97832 24.3726C5.02618 24.3833 5.0761 24.3805 5.12243 24.3644C5.16875 24.3482 5.20964 24.3194 5.24045 24.2812C5.27126 24.2431 5.29076 24.197 5.29675 24.1483L5.50598 22.4587L7.01616 21.6729ZM18.1891 7.42357L17.9847 6.92594L17.4589 6.81219C17.0761 6.72987 16.7183 6.55808 16.4147 6.3109C15.5673 8.56482 14.974 12.0511 15.598 17.295C15.6316 17.5772 16.0433 17.5739 16.0701 17.291C16.3008 14.8585 16.8953 10.9253 18.4133 7.84667C18.3251 7.71314 18.2501 7.57146 18.1891 7.42357ZM18.9388 1.39425L19.1107 3.08807L17.8128 4.18989C17.7753 4.22158 17.7475 4.26315 17.7324 4.30987C17.7174 4.35659 17.7157 4.4066 17.7276 4.45422C17.7396 4.50184 17.7646 4.54517 17.7999 4.57928C17.8352 4.61339 17.8794 4.63692 17.9274 4.64721L19.5914 5.00717L20.2382 6.58204C20.2568 6.62744 20.2877 6.66673 20.3275 6.69546C20.3673 6.72419 20.4143 6.74121 20.4633 6.74458C20.5122 6.74796 20.5611 6.73757 20.6045 6.71457C20.6478 6.69158 20.6838 6.65691 20.7085 6.61449L21.5651 5.14318L23.2628 5.0147C23.3117 5.01104 23.3586 4.99376 23.3982 4.9648C23.4379 4.93584 23.4686 4.89637 23.4869 4.85086C23.5052 4.80535 23.5104 4.75561 23.502 4.70729C23.4935 4.65896 23.4716 4.61398 23.4389 4.57743L22.3043 3.30815L22.7067 1.65387C22.7183 1.60619 22.7164 1.55619 22.7011 1.50955C22.6858 1.46291 22.6578 1.42149 22.6201 1.38997C22.5825 1.35846 22.5368 1.33812 22.4882 1.33126C22.4396 1.3244 22.39 1.3313 22.3452 1.35117L20.7873 2.03797L19.3383 1.14405C19.2966 1.11824 19.2484 1.10464 19.1994 1.10482C19.1503 1.105 19.1023 1.11893 19.0607 1.14504C19.0192 1.17107 18.9857 1.2082 18.9642 1.25224C18.9426 1.29628 18.9338 1.34547 18.9388 1.39425Z" fill="#274D60" fill-opacity="0.3"/>
</g>
<defs>
<clipPath id="clip0_2801_8">
<rect width="34" height="34" fill="white"/>
</clipPath>
</defs>
</svg>
