<svg width="34" height="34" viewBox="0 0 34 34" fill="none" xmlns="http://www.w3.org/2000/svg">
<path fill-rule="evenodd" clip-rule="evenodd" d="M10.1333 8.86273H17.8353L19.7961 3.07449C19.7961 3.07449 20.7059 1.26273 23.2235 1.96861C25.7412 2.67449 28.6588 5.59214 28.6588 5.59214L27.749 6.79998C27.749 6.79998 25.2314 4.48626 23.8196 3.88234C22.4078 3.27841 21.6 2.97253 20.5961 4.48626L19.1765 8.86273C19.3961 8.88626 19.5608 9.06665 19.5608 9.28626V32.2745C19.5608 32.7451 19.1765 33.1294 18.7059 33.1294H10.549C10.0784 33.1294 9.69412 32.7451 9.69412 32.2745V9.28626C9.69412 9.05096 9.8902 8.85489 10.1255 8.85489L10.1333 8.86273ZM16.4314 17.3568L14.5647 23.1137L13.051 27.851H11.3882L14.949 17.3568H11.2784C11.1059 17.3568 10.9569 17.4431 10.9569 17.5529V28.0392C10.9569 28.251 11.2471 28.4314 11.5922 28.4314H17.6706C18.0235 28.4314 18.3059 28.2588 18.3059 28.0392V17.5529C18.3059 17.4431 18.1647 17.3568 17.9843 17.3568H16.4157H16.4314Z" fill="#274D60" fill-opacity="0.3"/>
</svg>
