<svg width="34" height="34" viewBox="0 0 34 34" fill="none" xmlns="http://www.w3.org/2000/svg">
<path d="M26.2263 19.3903L17.716 11.2045C17.3142 10.8181 16.6857 10.8181 16.2839 11.2045L7.77359 19.3903C7.1039 20.0342 7.55723 21.1675 8.48965 21.1675H25.5154C26.4427 21.1675 26.9012 20.0342 26.2263 19.3903Z" fill="#274D60" fill-opacity="0.3"/>
<path d="M16.4394 6.3827C17.5942 5.22793 17.5942 3.35569 16.4394 2.20092C15.2847 1.04615 13.4124 1.04615 12.2576 2.20092C11.1029 3.35568 11.1029 5.22793 12.2576 6.3827C13.4124 7.53747 15.2847 7.53747 16.4394 6.3827Z" fill="#274D60" fill-opacity="0.3"/>
<path d="M6.5733 20.9049C6.25906 20.1218 6.44452 19.2358 7.05755 18.6485L11.3436 14.5273L9.7724 12.3791H12.5645L8.2424 6.48062L3.92543 12.3791H6.71755L2.96209 17.51H5.75421L1.99876 22.6409H4.79088L1.03027 27.7667H8.02603V22.1412C7.70194 22.068 7.40045 21.9173 7.14742 21.7019C6.8944 21.4866 6.69739 21.2131 6.5733 20.9049ZM29.2142 22.6358H32.0063L28.2509 17.5049H31.043L27.2875 12.3739H30.0797L25.7575 6.47546L21.4354 12.3739H24.2275L22.6563 14.5221L26.9424 18.6433C27.2391 18.9281 27.4438 19.2952 27.5301 19.6974C27.6164 20.0995 27.5804 20.5182 27.4266 20.8997C27.3026 21.2079 27.1055 21.4814 26.8525 21.6968C26.5995 21.9121 26.298 22.0629 25.9739 22.1361V27.7667H32.9697L29.2142 22.6358Z" fill="#274D60" fill-opacity="0.3"/>
<path d="M9.05634 32.6658H11.0294V24.2945H16.5157V32.6658H24.9436V22.1979H9.05634V32.6658Z" fill="#274D60" fill-opacity="0.3"/>
</svg>
