<svg width="34" height="34" viewBox="0 0 34 34" fill="none" xmlns="http://www.w3.org/2000/svg">
<path d="M17 23.29L17.51 21.25H16.49L17 23.29ZM9.9166 31.1667H16.2916V26.2933L14.535 19.2667C14.4086 19.21 14.2856 19.1462 14.1666 19.0754V23.5663C14.8442 23.9575 15.0764 24.8239 14.6852 25.5015C14.294 26.1791 13.4276 26.4113 12.75 26.0201C12.0723 25.6289 11.8402 24.7625 12.2314 24.0849C12.3557 23.8695 12.5346 23.6906 12.75 23.5663V17.9634L11.5671 18.6718C11.0727 18.9752 10.6401 19.3693 10.2921 19.8334C9.79634 20.4522 9.45628 21.181 9.30042 21.9584C9.24145 22.2738 9.21063 22.5938 9.20831 22.9146V30.4584C9.20831 30.8496 9.5254 31.1667 9.9166 31.1667ZM24.7916 30.4584V22.9146C24.7916 20.4102 23.2304 19.2306 22.4329 18.7071L21.25 17.9988V22.8296C21.6577 22.9737 22.0118 23.2387 22.2649 23.5893C22.518 23.9399 22.6582 24.3594 22.6666 24.7918V26.9168C22.6666 27.308 22.3494 27.6251 21.9582 27.6251C21.567 27.6251 21.2499 27.308 21.2499 26.9168V24.7918C21.2499 24.4006 20.9327 24.0834 20.5415 24.0834C20.1503 24.0834 19.8332 24.4006 19.8332 24.7918V26.9168C19.8332 27.308 19.516 27.6251 19.1248 27.6251C18.7336 27.6251 18.4165 27.308 18.4165 26.9168V24.7918C18.4177 24.3533 18.5545 23.926 18.8081 23.5684C19.0617 23.2108 19.4198 22.9404 19.8331 22.7943V19.0755C19.7141 19.1463 19.5911 19.2101 19.4648 19.2668L17.7081 26.2934V31.1668H24.0831C24.4745 31.1667 24.7916 30.8496 24.7916 30.4584ZM22.5604 15.2434C22.5604 15.4134 22.0787 16.66 22.0291 16.7805L23.1129 17.4464L22.5604 15.2434ZM25.5 15.5338C25.0302 15.6016 24.5531 15.6016 24.0833 15.5338L24.7917 18.3317L25.5 15.5338ZM30.2246 14.4429L29.0417 13.6921C28.5062 14.3037 27.8407 14.7878 27.0938 15.1087L25.7479 20.485C26.0755 21.2555 26.2442 22.0843 26.2438 22.9216V26.9166H31.9104C32.3016 26.9166 32.6188 26.5995 32.6188 26.2083V18.6645C32.6109 17.8155 32.387 16.9824 31.9681 16.2438C31.5492 15.5053 30.9492 14.8855 30.2246 14.4429ZM27.1787 13.4584C27.7104 13.0228 28.1493 12.4849 28.4693 11.8765C28.7893 11.2681 28.9839 10.6017 29.0416 9.91675C26.69 9.91675 25.6416 9.0384 25.1812 8.26636C24.4666 8.79129 23.6791 9.20891 22.8437 9.50596C23.1939 10.3055 23.3748 11.1689 23.375 12.0418C23.375 12.0418 23.375 13.7631 23.3254 13.9047C23.9647 14.0931 24.6354 14.1507 25.2975 14.074C25.9596 13.9973 26.5994 13.7879 27.1787 13.4584Z" fill="#274D60" fill-opacity="0.3"/>
<path d="M29.75 8.50002V7.79166C29.7453 5.05327 27.5217 2.83709 24.7833 2.84174C24.0722 2.84297 23.3696 2.99711 22.7233 3.2937C21.4908 3.99954 20.5381 5.1073 20.0246 6.4316C20.798 6.95806 21.5107 7.56859 22.1496 8.25199C23.2837 7.83443 24.3343 7.21799 25.2521 6.4316C25.6185 6.2946 26.0267 6.48067 26.1636 6.8471C26.1919 6.92274 26.2069 7.00256 26.2083 7.08331C26.2083 7.27456 26.4279 8.49995 29.0417 8.49995L29.75 8.50002ZM21.1862 14.1667C18.19 14.1667 16.4475 13.1467 15.6187 12.4596C15.26 12.9856 14.7783 13.416 14.2154 13.7135C13.6525 14.0111 13.0254 14.1666 12.3887 14.1667C12.6063 16.5441 14.6127 18.3564 17 18.3317C19.9041 18.3317 21.1862 15.3992 21.1862 14.1667Z" fill="#274D60" fill-opacity="0.3"/>
<path d="M14.7687 11.3333C14.801 11.2323 14.8628 11.1432 14.9461 11.0776C15.0294 11.0119 15.1304 10.9727 15.2362 10.965C15.3189 10.9541 15.4029 10.9661 15.4792 10.9999C15.5554 11.0336 15.6209 11.0877 15.6683 11.1562C15.7321 11.2341 17.1275 12.9837 20.8462 12.9837H21.3562V10.9296C21.3523 8.68686 19.5331 6.87085 17.2904 6.87085H16.2916C14.0517 6.87477 12.2368 8.68965 12.2329 10.9296V12.9625H12.75C13.2165 12.9427 13.6644 12.7738 14.0278 12.4805C14.3912 12.1873 14.6509 11.7852 14.7687 11.3333ZM11.4396 15.2433C11.4396 15.4133 11.9212 16.66 11.9708 16.7805L10.8871 17.4463L11.4396 15.2433ZM8.49998 15.5337C8.96976 15.6015 9.44684 15.6015 9.91663 15.5337L9.20827 18.3316L8.49998 15.5337ZM3.77538 14.4429L4.99373 13.6921C5.52918 14.3038 6.19475 14.7878 6.94163 15.1087L8.28748 20.485C7.95986 21.2556 7.7912 22.0843 7.79163 22.9216V26.9166H2.12498C1.73378 26.9166 1.41663 26.5995 1.41663 26.2083V18.6645C1.42074 17.8188 1.63928 16.9879 2.05179 16.2496C2.4643 15.5113 3.05731 14.8897 3.77538 14.4429ZM6.82123 13.4583C6.28949 13.0227 5.85062 12.4848 5.53062 11.8764C5.21063 11.2681 5.01602 10.6017 4.95834 9.9167C7.30998 9.9167 8.35834 9.03835 8.81873 8.26631C9.5333 8.79126 10.3208 9.20888 11.1562 9.50592C10.8061 10.3055 10.6252 11.1689 10.625 12.0418C10.625 12.0418 10.625 13.763 10.6746 13.9047C10.0353 14.0931 9.36453 14.1506 8.70245 14.0739C8.04038 13.9973 7.40056 13.7879 6.82123 13.4583Z" fill="#274D60" fill-opacity="0.3"/>
<path d="M4.25 8.50002V7.79166C4.25465 5.05327 6.47833 2.83709 9.21672 2.84174C9.92783 2.84297 10.6303 2.99711 11.2766 3.2937C12.5092 3.99954 13.4619 5.1073 13.9754 6.4316C13.202 6.95806 12.4893 7.56859 11.8504 8.25199C10.7162 7.83443 9.66564 7.21799 8.74789 6.4316C8.38146 6.2946 7.97333 6.48067 7.8364 6.8471C7.80814 6.92272 7.79301 7.0026 7.79164 7.08331C7.79164 7.27456 7.57204 8.49995 4.95829 8.49995L4.25 8.50002Z" fill="#274D60" fill-opacity="0.3"/>
</svg>
