<svg width="34" height="28" viewBox="0 0 34 28" fill="none" xmlns="http://www.w3.org/2000/svg">
<path d="M7.3409 22.1136C6.80599 22.1136 6.28309 22.2723 5.83833 22.5694C5.39357 22.8666 5.04693 23.289 4.84223 23.7832C4.63752 24.2774 4.58397 24.8212 4.68832 25.3458C4.79268 25.8704 5.05026 26.3523 5.4285 26.7306C5.80673 27.1088 6.28864 27.3664 6.81327 27.4708C7.3379 27.5751 7.88169 27.5216 8.37588 27.3169C8.87007 27.1122 9.29247 26.7655 9.58965 26.3207C9.88683 25.876 10.0454 25.3531 10.0454 24.8182C10.0446 24.1011 9.75942 23.4137 9.2524 22.9067C8.74537 22.3997 8.05794 22.1145 7.3409 22.1136ZM7.3409 25.9773C7.11165 25.9773 6.88755 25.9093 6.69694 25.7819C6.50633 25.6546 6.35777 25.4735 6.27004 25.2617C6.18231 25.05 6.15936 24.8169 6.20408 24.5921C6.2488 24.3672 6.3592 24.1607 6.5213 23.9986C6.6834 23.8365 6.88993 23.7261 7.11477 23.6814C7.33961 23.6366 7.57267 23.6596 7.78446 23.7473C7.99626 23.8351 8.17729 23.9836 8.30465 24.1742C8.43201 24.3648 8.49999 24.5889 8.49999 24.8182C8.49999 25.1256 8.37787 25.4204 8.1605 25.6378C7.94313 25.8552 7.64831 25.9773 7.3409 25.9773ZM23.1818 22.1136C22.6469 22.1136 22.124 22.2723 21.6792 22.5694C21.2345 22.8666 20.8878 23.289 20.6831 23.7832C20.4784 24.2774 20.4249 24.8212 20.5292 25.3458C20.6336 25.8704 20.8912 26.3523 21.2694 26.7306C21.6476 27.1088 22.1295 27.3664 22.6542 27.4708C23.1788 27.5751 23.7226 27.5216 24.2168 27.3169C24.711 27.1122 25.1334 26.7655 25.4306 26.3207C25.7277 25.876 25.8864 25.3531 25.8864 24.8182C25.8855 24.1011 25.6003 23.4137 25.0933 22.9067C24.5863 22.3997 23.8988 22.1145 23.1818 22.1136ZM23.1818 25.9773C22.9526 25.9773 22.7285 25.9093 22.5379 25.7819C22.3472 25.6546 22.1987 25.4735 22.1109 25.2617C22.0232 25.05 22.0003 24.8169 22.045 24.5921C22.0897 24.3672 22.2001 24.1607 22.3622 23.9986C22.5243 23.8365 22.7308 23.7261 22.9557 23.6814C23.1805 23.6366 23.4136 23.6596 23.6254 23.7473C23.8372 23.8351 24.0182 23.9836 24.1456 24.1742C24.2729 24.3648 24.3409 24.5889 24.3409 24.8182C24.3409 25.1256 24.2188 25.4204 24.0014 25.6378C23.784 25.8552 23.4892 25.9773 23.1818 25.9773ZM26.0471 9.75H20.8636V14.7727H30.367L28.4286 11.1718C28.1972 10.7417 27.8536 10.3823 27.4342 10.132C27.0149 9.88162 26.5355 9.74961 26.0471 9.75ZM20.0909 9.75H15.701C15.0832 9.74945 14.4728 9.88385 13.9123 10.1438C13.3519 10.4037 12.855 10.7829 12.4564 11.2549L9.47981 14.7727H20.0909V9.75Z" fill="#274D60" fill-opacity="0.3"/>
<path d="M30.9091 2.40911H18.5107C18.4189 1.86957 18.1395 1.37981 17.7217 1.02633C17.3038 0.672848 16.7745 0.478388 16.2273 0.477295H14.2954C14.1931 0.477601 14.095 0.518405 14.0226 0.590796C13.9502 0.663187 13.9094 0.761283 13.9091 0.863659V1.63639H12.75C12.6475 1.63639 12.5492 1.67709 12.4768 1.74955C12.4043 1.82201 12.3636 1.92028 12.3636 2.02275C12.3636 2.12522 12.4043 2.22349 12.4768 2.29595C12.5492 2.36841 12.6475 2.40911 12.75 2.40911H13.9091V3.18184H12.75C12.6475 3.18184 12.5492 3.22255 12.4768 3.295C12.4043 3.36746 12.3636 3.46573 12.3636 3.5682C12.3636 3.67067 12.4043 3.76895 12.4768 3.8414C12.5492 3.91386 12.6475 3.95457 12.75 3.95457H13.9091V4.72729C13.9094 4.82967 13.9502 4.92777 14.0226 5.00016C14.095 5.07255 14.1931 5.11335 14.2954 5.11366H16.2273C16.7745 5.11257 17.3038 4.91811 17.7217 4.56462C18.1395 4.21114 18.4189 3.72138 18.5107 3.18184H30.9091C31.4214 3.18205 31.9126 3.38564 32.2749 3.74788C32.6371 4.11012 32.8407 4.60137 32.8409 5.11366V19.0227C32.8403 19.2275 32.7587 19.4237 32.6139 19.5685C32.4691 19.7133 32.2729 19.7949 32.0682 19.7955H30.5227V15.5455H8.34158C7.21636 15.545 6.09574 15.6891 5.00726 15.9743C3.68383 16.3195 2.51227 17.0939 1.67607 18.1762C0.839876 19.2585 0.386287 20.5876 0.386353 21.9552V24.8182C0.386658 24.9206 0.427463 25.0187 0.499854 25.0911C0.572245 25.1635 0.67034 25.2043 0.772716 25.2046H3.47726C3.52804 25.2047 3.57835 25.1948 3.6253 25.1755C3.67224 25.1561 3.7149 25.1277 3.7508 25.0917C3.78671 25.0558 3.81516 25.0132 3.83453 24.9662C3.85389 24.9193 3.86378 24.869 3.86363 24.8182C3.86363 23.896 4.22998 23.0115 4.88209 22.3594C5.53421 21.7073 6.41867 21.3409 7.3409 21.3409C8.26313 21.3409 9.14759 21.7073 9.7997 22.3594C10.4518 23.0115 10.8182 23.896 10.8182 24.8182C10.8185 24.9206 10.8593 25.0187 10.9317 25.0911C11.0041 25.1635 11.1022 25.2043 11.2045 25.2046H19.3182C19.369 25.2047 19.4193 25.1948 19.4662 25.1755C19.5132 25.1561 19.5558 25.1277 19.5917 25.0917C19.6276 25.0558 19.6561 25.0132 19.6754 24.9662C19.6948 24.9193 19.7047 24.869 19.7045 24.8182C19.7045 23.896 20.0709 23.0115 20.723 22.3594C21.3751 21.7073 22.2596 21.3409 23.1818 21.3409C24.104 21.3409 24.9885 21.7073 25.6406 22.3594C26.2927 23.0115 26.6591 23.896 26.6591 24.8182C26.6594 24.9206 26.7002 25.0187 26.7726 25.0911C26.845 25.1635 26.9431 25.2043 27.0454 25.2046H30.1364C30.2387 25.2043 30.3368 25.1635 30.4092 25.0911C30.4816 25.0187 30.5224 24.9206 30.5227 24.8182V20.5682H32.0682C32.2711 20.5683 32.4721 20.5283 32.6597 20.4507C32.8472 20.373 33.0176 20.2592 33.1611 20.1157C33.3046 19.9721 33.4184 19.8018 33.4961 19.6142C33.5737 19.4267 33.6137 19.2257 33.6136 19.0227V5.11366C33.6128 4.39662 33.3276 3.70918 32.8206 3.20216C32.3136 2.69514 31.6261 2.40993 30.9091 2.40911ZM17.7727 17.8637H17C16.8975 17.8637 16.7992 17.823 16.7268 17.7505C16.6543 17.678 16.6136 17.5798 16.6136 17.4773C16.6136 17.3748 16.6543 17.2766 16.7268 17.2041C16.7992 17.1316 16.8975 17.0909 17 17.0909H17.7727C17.8752 17.0909 17.9735 17.1316 18.0459 17.2041C18.1184 17.2766 18.1591 17.3748 18.1591 17.4773C18.1591 17.5798 18.1184 17.678 18.0459 17.7505C17.9735 17.823 17.8752 17.8637 17.7727 17.8637Z" fill="#274D60" fill-opacity="0.3"/>
</svg>
