<svg width="34" height="34" viewBox="0 0 34 34" fill="none" xmlns="http://www.w3.org/2000/svg">
<g clip-path="url(#clip0_2823_80)">
<path fill-rule="evenodd" clip-rule="evenodd" d="M13.555 9.25955C13.555 8.05913 14.5281 7.08608 15.7284 7.08608C16.9288 7.08608 17.9019 8.05913 17.9019 9.25955C17.9019 10.46 16.9288 11.433 15.7284 11.433C14.5281 11.433 13.555 10.46 13.555 9.25955ZM19.4636 14.3932L24.0835 9.77825C25.0823 8.7807 23.7421 7.24253 22.6793 8.17136L18.5674 11.7647C18.0288 12.2354 17.4136 12.4662 16.6983 12.4662H14.9178C14.2025 12.4662 13.5873 12.2354 13.0487 11.7647L8.93681 8.17136C7.87391 7.24253 6.53383 8.7807 7.53258 9.77825L12.1525 14.3932C12.7064 14.9463 12.9856 15.6199 12.9856 16.4027V20.5871L12.1646 32.2241C12.0612 33.6899 14.1506 34.0356 14.3943 32.6069L15.8081 24.3218L17.2218 32.6069C17.467 34.0438 19.5579 33.7325 19.4515 32.2241L18.6305 20.5871V16.4028C18.6305 15.62 18.9098 14.9464 19.4636 14.3932ZM33.5353 6.01966H33.5317C33.534 6.05114 33.5353 6.08301 33.5353 6.11515C33.5353 6.82012 32.9638 7.39161 32.2588 7.39161C31.5538 7.39161 30.9824 6.82012 30.9824 6.11515C30.9824 5.41018 31.5538 4.83869 32.2588 4.83869C32.3317 4.83869 32.4032 4.84493 32.4728 4.85662V3.23153H27.7246V6.81302H27.7229C27.724 6.83493 27.7246 6.85698 27.7246 6.87909C27.7246 7.56786 27.1663 8.12627 26.4774 8.12627C25.7886 8.12627 25.2302 7.56792 25.2302 6.87909C25.2302 6.19026 25.7886 5.63198 26.4774 5.63198C26.5402 5.63198 26.6018 5.6367 26.6621 5.64559V0.996094C26.6621 0.855197 26.7181 0.720072 26.8177 0.620443C26.9173 0.520815 27.0525 0.464844 27.1933 0.464844H33.004C33.1449 0.464844 33.2801 0.520815 33.3797 0.620443C33.4793 0.720072 33.5353 0.855197 33.5353 0.996094V6.01966ZM32.4728 1.52734H27.7246V2.16896H32.4728V1.52734ZM7.30242 18.3175V18.3116L7.30229 11.4824C7.30009 11.3435 7.24336 11.2111 7.14436 11.1136C7.04536 11.0162 6.91201 10.9616 6.7731 10.9616C6.63418 10.9616 6.50083 11.0162 6.40183 11.1136C6.30283 11.2111 6.2461 11.3435 6.2439 11.4824V16.5836C5.96853 16.442 5.66326 16.3683 5.3536 16.3688C4.27728 16.3688 3.40484 17.2413 3.40484 18.3176C3.40484 19.3938 4.27728 20.2663 5.3536 20.2663C6.42991 20.2663 7.30235 19.3939 7.30235 18.3176L7.30242 18.3175ZM6.77316 7.21411C6.91406 7.21411 7.04918 7.15814 7.14881 7.05851C7.24844 6.95888 7.30441 6.82376 7.30441 6.68286V3.70826C9.36646 5.03844 10.9192 4.78889 12.144 2.41579C10.9958 3.3753 9.96385 3.12156 9.18484 2.2875C8.57788 1.51519 7.97405 1.21829 7.30441 1.07837V0.996094C7.30441 0.855197 7.24844 0.720072 7.14881 0.620443C7.04918 0.520815 6.91406 0.464844 6.77316 0.464844C6.63227 0.464844 6.49714 0.520815 6.39751 0.620443C6.29788 0.720072 6.24191 0.855197 6.24191 0.996094V6.68286C6.24191 6.82376 6.29788 6.95888 6.39751 7.05851C6.49714 7.15814 6.63227 7.21411 6.77316 7.21411ZM9.48513 15.7036C9.40973 15.5847 9.2902 15.5007 9.15282 15.4699C9.01544 15.4392 8.87148 15.4643 8.7526 15.5397C8.63372 15.6151 8.54966 15.7346 8.51891 15.872C8.48816 16.0093 8.51325 16.1533 8.58864 16.2722C8.78179 16.5758 8.93088 16.9053 9.03144 17.2509C9.12813 17.5848 9.17992 17.9425 9.17992 18.3174C9.17992 19.3741 8.75167 20.3307 8.05925 21.0231C7.36683 21.7155 6.41025 22.1438 5.35366 22.1438C5.21277 22.1438 5.07764 22.1997 4.97801 22.2994C4.87838 22.399 4.82241 22.5341 4.82241 22.675C4.82241 22.8159 4.87838 22.951 4.97801 23.0507C5.07764 23.1503 5.21277 23.2063 5.35366 23.2063C6.70357 23.2063 7.92584 22.659 8.81051 21.7743C9.69524 20.8897 10.2424 19.6674 10.2424 18.3175C10.2421 17.8569 10.1767 17.3986 10.0483 16.9563C9.92071 16.5142 9.73109 16.0925 9.48506 15.7037L9.48513 15.7036ZM2.89895 21.2539C2.46997 20.8949 2.12127 20.4456 1.88327 19.9362C1.65497 19.4477 1.52747 18.8994 1.52747 18.3175C1.52747 17.3019 1.92179 16.3796 2.56526 15.6955C3.21352 15.0064 4.11412 14.5576 5.11905 14.4971C5.25867 14.4878 5.38898 14.4238 5.48156 14.3189C5.57414 14.2139 5.62148 14.0767 5.61326 13.937C5.60504 13.7973 5.54193 13.6665 5.43768 13.5732C5.33343 13.4798 5.1965 13.4315 5.05676 13.4387C3.77193 13.516 2.62111 14.0891 1.79329 14.9692C0.969654 15.8447 0.464966 17.0227 0.464966 18.3174C0.46471 19.0318 0.621618 19.7375 0.924564 20.3844C1.22777 21.0331 1.66938 21.6076 2.21836 22.0673C2.32648 22.1554 2.46495 22.1974 2.60378 22.1841C2.74262 22.1709 2.87064 22.1035 2.96014 21.9965C3.04964 21.8895 3.09341 21.7516 3.08197 21.6126C3.07053 21.4736 3.0048 21.3447 2.89902 21.2539L2.89895 21.2539ZM33.5352 19.8747C33.5352 23.0187 30.9865 25.5675 27.8424 25.5675C24.6983 25.5675 22.1496 23.0187 22.1496 19.8747C22.1496 16.7306 24.6983 14.1819 27.8424 14.1819C30.9865 14.1819 33.5352 16.7306 33.5352 19.8747ZM30.109 22.7425L28.7828 20.4457C28.7799 20.4406 28.7769 20.4356 28.7739 20.4307C28.8744 20.2627 28.9274 20.0705 28.9271 19.8747C28.9271 19.4685 28.7038 19.1145 28.3733 18.9286C28.3735 18.9227 28.3737 18.9169 28.3737 18.911V16.2588C28.3737 16.1179 28.3177 15.9828 28.2181 15.8831C28.1184 15.7835 27.9833 15.7275 27.8424 15.7275C27.7015 15.7275 27.5664 15.7835 27.4668 15.8831C27.3671 15.9828 27.3112 16.1179 27.3112 16.2588V18.911C27.3112 18.9169 27.3113 18.9228 27.3115 18.9286C26.981 19.1145 26.7577 19.4685 26.7577 19.8747C26.7577 20.4737 27.2434 20.9593 27.8424 20.9593C27.8476 20.9593 27.8529 20.9592 27.8581 20.9591C27.8605 20.9637 27.8631 20.9683 27.8656 20.9728L29.1917 23.2697C29.2631 23.3884 29.3781 23.4744 29.5122 23.5092C29.6463 23.5441 29.7887 23.5249 29.9088 23.4559C30.0289 23.3869 30.1171 23.2735 30.1546 23.1401C30.192 23.0068 30.1756 22.864 30.109 22.7425Z" fill="#274D60" fill-opacity="0.3"/>
</g>
<defs>
<clipPath id="clip0_2823_80">
<rect width="34" height="34" fill="white"/>
</clipPath>
</defs>
</svg>
