<svg width="18" height="18" viewBox="0 0 18 18" fill="none" xmlns="http://www.w3.org/2000/svg">
<g clip-path="url(#clip0_2644_786)">
<path d="M6.99333 9.6461C6.94502 9.64609 6.89739 9.65756 6.85438 9.67957C6.81137 9.70157 6.7742 9.73348 6.74594 9.77267C6.71769 9.81186 6.69914 9.8572 6.69185 9.90496C6.68455 9.95272 6.6887 10.0015 6.70397 10.0474L6.90735 10.6572C6.92756 10.7179 6.96635 10.7707 7.01823 10.8081C7.0701 10.8455 7.13243 10.8657 7.1964 10.8657H10.3473C10.4282 10.8657 10.5058 10.8336 10.563 10.7764C10.6201 10.7193 10.6523 10.6417 10.6523 10.5608V9.95101C10.6523 9.87015 10.6201 9.79259 10.563 9.73541C10.5058 9.67823 10.4282 9.6461 10.3473 9.6461H6.99333ZM10.5163 2.40905C9.24516 1.96651 8.07469 1.27571 7.07291 0.376816C6.97681 0.293352 6.86111 0.235618 6.73663 0.209012C6.61216 0.182406 6.48297 0.187797 6.36114 0.22468C6.23931 0.261563 6.12882 0.328735 6.04001 0.419916C5.95119 0.511096 5.88694 0.623309 5.85327 0.746063L5.43066 2.29775L10.9303 3.61802L11.009 3.30396C11.0565 3.12009 11.0319 2.92503 10.9403 2.75867C10.8487 2.59232 10.697 2.46725 10.5163 2.40905ZM14.2386 14.6662L14.8625 14.8207C14.9247 14.8361 14.9901 14.8316 15.0496 14.8076C15.109 14.7837 15.1594 14.7417 15.1936 14.6875L15.6266 14.0027C15.649 13.9672 15.6639 13.9275 15.6702 13.886C15.6766 13.8446 15.6744 13.8023 15.6636 13.7617C15.6529 13.7212 15.6339 13.6832 15.6079 13.6504C15.5818 13.6175 15.5493 13.5903 15.5122 13.5706L14.9722 13.2834C14.9044 13.2473 14.8255 13.2381 14.7512 13.2578C14.6769 13.2774 14.6128 13.3243 14.5716 13.3892L14.0532 14.207C14.0274 14.2479 14.0116 14.2943 14.0073 14.3425C14.0029 14.3907 14.0101 14.4392 14.0282 14.4841C14.0463 14.529 14.0748 14.5689 14.1114 14.6005C14.148 14.6322 14.1916 14.6547 14.2386 14.6662ZM10.7096 14.3006L11.3337 14.4549C11.3958 14.4701 11.4611 14.4655 11.5204 14.4417C11.5797 14.4178 11.6301 14.3759 11.6643 14.3219L12.8141 12.5052C12.8571 12.4371 12.8715 12.3547 12.8539 12.276C12.8364 12.1973 12.7884 12.1288 12.7205 12.0854L12.2073 11.7573C12.1735 11.7356 12.1357 11.7209 12.0962 11.7139C12.0566 11.7068 12.0161 11.7077 11.9769 11.7164C11.9376 11.7251 11.9005 11.7415 11.8677 11.7646C11.8348 11.7876 11.8068 11.817 11.7853 11.8509L10.5257 13.8414C10.4999 13.8822 10.484 13.9285 10.4796 13.9766C10.4751 14.0247 10.4822 14.0732 10.5001 14.118C10.5181 14.1629 10.5465 14.2028 10.5829 14.2345C10.6193 14.2663 10.6627 14.2889 10.7096 14.3006ZM11.2621 5.98717H7.90806C7.85975 5.98716 7.81212 5.99863 7.76911 6.02064C7.7261 6.04264 7.68894 6.07455 7.66068 6.11374C7.63242 6.15293 7.61388 6.19827 7.60658 6.24603C7.59928 6.29379 7.60344 6.3426 7.6187 6.38844L7.82208 6.99826C7.84229 7.05895 7.88108 7.11174 7.93296 7.14917C7.98483 7.1866 8.04717 7.20677 8.11113 7.20682H11.2621C11.3429 7.20682 11.4205 7.17469 11.4777 7.11751C11.5349 7.06033 11.567 6.98277 11.567 6.90191V6.29208C11.567 6.21122 11.5349 6.13366 11.4777 6.07648C11.4205 6.0193 11.3429 5.98717 11.2621 5.98717Z" fill="#274D60" fill-opacity="0.2"/>
<path d="M4.8596 12.0854C5.028 12.0854 5.16451 11.9489 5.16451 11.7805C5.16451 11.6121 5.028 11.4756 4.8596 11.4756C4.6912 11.4756 4.55469 11.6121 4.55469 11.7805C4.55469 11.9489 4.6912 12.0854 4.8596 12.0854Z" fill="#274D60" fill-opacity="0.2"/>
<path d="M16.7509 16.049V15.4483C16.751 15.2287 16.6915 15.0131 16.5788 14.8246C16.466 14.6362 16.3042 14.4818 16.1106 14.3781L15.709 15.0123C15.6064 15.1746 15.4552 15.3004 15.277 15.372C15.0989 15.4436 14.9027 15.4573 14.7163 15.4111L14.0924 15.2568C13.9517 15.222 13.8213 15.1543 13.7119 15.0591C13.6025 14.964 13.5173 14.8443 13.4633 14.7098C13.4093 14.5753 13.388 14.4298 13.4012 14.2855C13.4144 14.1412 13.4618 14.002 13.5393 13.8795L13.9418 13.2435L13.2853 12.9002L12.1803 14.6464C12.0779 14.8088 11.9268 14.9348 11.7486 15.0065C11.5704 15.0781 11.3742 15.0916 11.1878 15.0452L10.5637 14.8912C10.4229 14.8565 10.2925 14.7887 10.1831 14.6936C10.0737 14.5985 9.98843 14.4788 9.93438 14.3443C9.88033 14.2098 9.85902 14.0643 9.87222 13.92C9.88541 13.7756 9.93273 13.6364 10.0103 13.514L11.1147 11.7693L10.5176 11.457C10.4618 11.4683 10.4048 11.4744 10.3478 11.4753H8.59792C7.75422 11.9571 7.04529 12.6433 6.53642 13.471C6.33962 13.7799 6.03762 14.007 5.68627 14.1104C5.33492 14.2139 4.958 14.1865 4.62524 14.0335L2.51312 13.0721C2.23865 13.5057 2.10008 14.0115 2.11521 14.5244C2.09566 15.0677 2.25282 15.6026 2.56313 16.049H16.7509ZM7.2987 16.9637C7.2987 16.8829 7.26657 16.8053 7.20939 16.7481C7.15221 16.6909 7.07465 16.6588 6.99379 16.6588H2.11521C2.03435 16.6588 1.95679 16.6909 1.89961 16.7481C1.84243 16.8053 1.8103 16.8829 1.8103 16.9637C1.8103 17.0446 1.84243 17.1221 1.89961 17.1793C1.95679 17.2365 2.03435 17.2686 2.11521 17.2686H6.99379C7.07465 17.2686 7.15221 17.2365 7.20939 17.1793C7.26657 17.1221 7.2987 17.0446 7.2987 16.9637ZM17.0558 16.9637C17.0558 16.8829 17.0237 16.8053 16.9665 16.7481C16.9094 16.6909 16.8318 16.6588 16.7509 16.6588H10.0429L10.3173 17.0247C10.3741 17.1004 10.4478 17.1619 10.5324 17.2042C10.6171 17.2466 10.7105 17.2686 10.8052 17.2686H16.7509C16.8318 17.2686 16.9094 17.2365 16.9665 17.1793C17.0237 17.1221 17.0558 17.0446 17.0558 16.9637Z" fill="#274D60" fill-opacity="0.2"/>
<path d="M4.81592 2.77759C4.77577 2.76759 4.73401 2.76587 4.69317 2.77253C4.65234 2.77919 4.61329 2.79408 4.57839 2.81632C4.54317 2.83962 4.51312 2.86992 4.49009 2.90532C4.46707 2.94073 4.45156 2.98048 4.44454 3.02213C3.91288 6.05651 3.16973 9.05 2.22052 11.9807C2.1957 12.0548 2.20047 12.1356 2.23383 12.2062C2.26718 12.2768 2.32654 12.3318 2.3995 12.3597C2.48854 12.4 5.03942 13.5504 4.87721 13.4769C5.07654 13.5689 5.30243 13.5856 5.51312 13.5239C5.72382 13.4623 5.90507 13.3264 6.02337 13.1415C6.42437 12.5126 6.92152 11.9504 7.49669 11.4755H7.19758C7.0056 11.4755 6.8185 11.4151 6.66275 11.3028C6.50701 11.1906 6.39053 11.0322 6.3298 10.8501L6.12642 10.2403C6.08058 10.1028 6.06806 9.95639 6.08989 9.81312C6.11172 9.66985 6.16729 9.53381 6.252 9.41623C6.33671 9.29864 6.44816 9.20286 6.57714 9.13679C6.70613 9.07071 6.84897 9.03623 6.9939 9.03619H10.2241L10.558 7.81655H8.11231C7.92034 7.81655 7.73323 7.75616 7.57749 7.64392C7.42174 7.53168 7.30526 7.37329 7.24453 7.19117L7.04116 6.58135C6.99531 6.44387 6.98279 6.29746 7.00462 6.15419C7.02646 6.01092 7.08202 5.87488 7.16673 5.7573C7.25145 5.63971 7.36289 5.54393 7.49188 5.47786C7.62086 5.41179 7.7637 5.37731 7.90863 5.37726H11.2242L11.413 4.6842C11.4237 4.64481 11.4265 4.60365 11.421 4.56318C11.4156 4.5227 11.4021 4.48374 11.3813 4.44859C11.3605 4.41343 11.3329 4.38282 11.3 4.35855C11.2672 4.33429 11.2298 4.31687 11.1901 4.30733L4.81592 2.77759ZM5.77425 11.7804C5.77425 12.023 5.67788 12.2557 5.50633 12.4272C5.33479 12.5987 5.10212 12.6951 4.85952 12.6951C4.61692 12.6951 4.38425 12.5987 4.21271 12.4272C4.04116 12.2557 3.94479 12.023 3.94479 11.7804C3.94479 11.5378 4.04116 11.3051 4.21271 11.1336C4.38425 10.962 4.61692 10.8657 4.85952 10.8657C5.10212 10.8657 5.33479 10.962 5.50633 11.1336C5.67788 11.3051 5.77425 11.5378 5.77425 11.7804Z" fill="#274D60" fill-opacity="0.2"/>
</g>
<defs>
<clipPath id="clip0_2644_786">
<rect width="17.075" height="17.075" fill="white" transform="translate(0.895996 0.193848)"/>
</clipPath>
</defs>
</svg>
