<svg width="34" height="34" viewBox="0 0 34 34" fill="none" xmlns="http://www.w3.org/2000/svg">
<path d="M3.1363 29.9854C3.8165 30.5603 5.61491 30.9756 6.42267 30.9756C6.88333 30.9756 7.30388 30.8404 7.62468 30.6176C7.69972 30.5657 7.70875 30.4583 7.64441 30.3937L7.28781 30.0342C7.24756 29.994 7.27552 29.925 7.33263 29.924L8.07425 29.912C8.10731 29.9112 8.13915 29.8994 8.16472 29.8785C8.19029 29.8575 8.20812 29.8286 8.21536 29.7963C8.23529 29.7118 8.24571 29.6243 8.24571 29.5351C8.24571 28.7398 7.42938 28.0949 6.42267 28.0949C5.61491 28.0949 3.81676 28.51 3.1363 29.0848C3.05472 28.9158 2.9291 28.7719 2.77266 28.6682C2.65022 28.5865 2.51172 28.532 2.36646 28.5082C2.2889 28.4957 2.22634 28.5709 2.25231 28.6451C2.32004 28.837 2.48732 29.3307 2.48732 29.5351C2.48732 29.7393 2.3205 30.2316 2.25231 30.4251C2.22641 30.4993 2.28883 30.5748 2.36646 30.5621C2.51172 30.5383 2.65022 30.4837 2.77266 30.402C2.92916 30.2984 3.05479 30.1545 3.1363 29.9854ZM6.71393 28.8623C6.75778 28.8623 6.79982 28.8798 6.8308 28.9108C6.86178 28.9418 6.87915 28.9839 6.87911 29.0278C6.87907 29.0716 6.8616 29.1137 6.83056 29.1446C6.79952 29.1756 6.75745 29.193 6.71359 29.193C6.66974 29.1929 6.6277 29.1755 6.59672 29.1444C6.56574 29.1134 6.54836 29.0713 6.54841 29.0274C6.54845 28.9836 6.56592 28.9415 6.59696 28.9106C6.628 28.8796 6.67007 28.8622 6.71393 28.8623ZM18.1571 32.4542C18.8372 33.029 20.6356 33.444 21.4434 33.444C21.9038 33.444 22.3243 33.3091 22.6455 33.0863C22.7202 33.0344 22.7292 32.927 22.6651 32.8622L22.3085 32.5029C22.2683 32.4624 22.2963 32.3935 22.3533 32.3927L23.0947 32.3804C23.1278 32.3798 23.1597 32.3681 23.1853 32.3471C23.211 32.3262 23.2289 32.2973 23.2361 32.265C23.2558 32.1802 23.2664 32.093 23.2664 32.0038C23.2664 31.2082 22.4501 30.5634 21.4434 30.5634C20.6356 30.5634 18.8372 30.9787 18.1571 31.5535C18.0754 31.3845 17.9498 31.2406 17.7934 31.1369C17.6709 31.0553 17.5324 31.0007 17.3872 30.9769C17.3096 30.9641 17.247 31.0396 17.273 31.1136C17.341 31.3073 17.5078 31.7997 17.5078 32.0038C17.5078 32.2077 17.341 32.7001 17.273 32.8938C17.2471 32.968 17.3096 33.0432 17.3872 33.0308C17.5325 33.007 17.671 32.9523 17.7934 32.8705C17.9498 32.7669 18.0755 32.623 18.1571 32.4541V32.4542ZM21.7347 31.3307C21.7786 31.3307 21.8206 31.3482 21.8516 31.3793C21.8826 31.4103 21.9 31.4524 21.8999 31.4963C21.8999 31.5401 21.8824 31.5822 21.8514 31.6131C21.8203 31.6441 21.7782 31.6615 21.7344 31.6615C21.7126 31.6614 21.6911 31.6571 21.6711 31.6488C21.651 31.6405 21.6328 31.6283 21.6175 31.6129C21.5865 31.5819 21.5691 31.5398 21.5691 31.4959C21.5692 31.4521 21.5867 31.41 21.6177 31.379C21.6487 31.348 21.6908 31.3307 21.7347 31.3307ZM10.6158 12.6919L10.4776 9.97254L11.2734 12.5025C11.5159 13.274 12.3003 13.311 12.3131 13.3165H18.2554C18.2963 13.2223 18.3246 13.1232 18.3394 13.0216C18.4315 12.3881 17.9926 11.8 17.3591 11.708L13.2659 11.1127L12.6348 9.10621L13.4391 10.4467L14.7862 10.6426L18.3435 8.44109L14.0796 9.63201V8.12646C14.0796 6.84967 13.0445 5.81466 11.7678 5.81466H11.5317C9.44826 5.81466 7.75935 7.50363 7.75935 9.58739V12.9258C7.75935 13.0582 7.76792 13.1881 7.78293 13.3165H10.8119C10.6948 13.1282 10.6273 12.9133 10.6158 12.6919ZM12.5761 0.00652983C11.1637 -0.0936104 9.93727 0.969881 9.83713 2.38254C9.73673 3.79499 10.8006 5.02118 12.2129 5.12158C13.6257 5.22172 14.8518 4.1579 14.9522 2.74551C15.0523 1.33306 13.9885 0.106604 12.5761 0.00652983Z" fill="#274D60" fill-opacity="0.3"/>
<path d="M28.176 15.4255C28.0093 17.3971 27.063 19.2676 26.1385 20.9729C25.663 20.5794 24.9709 20.5158 24.4215 20.864C24.2221 20.9906 23.7313 20.9906 23.5315 20.864C22.3653 20.1244 20.6725 20.1244 19.506 20.864C19.3064 20.9908 18.8157 20.9906 18.6159 20.864C17.4496 20.1244 15.7568 20.1244 14.5903 20.864C14.3909 20.9906 13.9 20.9908 13.7004 20.864C12.5341 20.1244 10.8409 20.1244 9.6747 20.864C9.47528 20.9908 8.98448 20.9906 8.78473 20.864C7.6185 20.1244 5.92562 20.1244 4.75913 20.864C4.55965 20.9906 4.06884 20.9908 3.86916 20.864C3.24215 20.4663 2.46294 20.2829 1.69509 20.313C0.894898 18.789 0.1558 17.1457 0.0103704 15.4254C-0.0524497 14.6846 0.534845 14.0491 1.27826 14.0491H26.9081C27.6515 14.0491 28.2386 14.6846 28.1761 15.4254L28.176 15.4255ZM22.4118 22.6299C21.936 22.3282 21.1016 22.3282 20.6258 22.6299C19.7486 23.1865 18.3737 23.1863 17.4961 22.6299C17.0205 22.3282 16.1859 22.3282 15.7102 22.6299C14.833 23.1863 13.4581 23.1863 12.5806 22.6299C12.1048 22.3282 11.2704 22.3282 10.7946 22.6299C10.356 22.9082 9.79284 23.0472 9.22991 23.0472C8.66652 23.0472 8.10367 22.9082 7.66499 22.6299C7.18926 22.3282 6.3548 22.3282 5.879 22.6299C5.00144 23.1863 3.62691 23.1863 2.74935 22.6299C2.27362 22.3282 1.43916 22.3282 0.963429 22.6299C0.822897 22.719 0.652726 22.7486 0.490338 22.7123C0.327951 22.6759 0.186645 22.5766 0.097495 22.4361C-0.0879105 22.1435 -0.00105143 21.756 0.2916 21.5702C1.16882 21.0138 2.54369 21.0138 3.42125 21.5702C3.89698 21.8719 4.73144 21.8719 5.20717 21.5702C6.08473 21.0138 7.45926 21.0138 8.33682 21.5702C8.81255 21.8719 9.64701 21.8719 10.1227 21.5702C11.0003 21.0138 12.3751 21.0138 13.2525 21.5702C13.7281 21.8719 14.5626 21.8719 15.0384 21.5702C15.9156 21.0138 17.2905 21.0138 18.168 21.5702C18.6438 21.8719 19.4782 21.8719 19.9539 21.5702C20.8315 21.0138 22.206 21.0138 23.0837 21.5702C23.5593 21.8719 24.3939 21.8719 24.8696 21.5702C25.1622 21.3847 25.5497 21.4714 25.7352 21.7643C25.9209 22.0568 25.834 22.4444 25.5414 22.6299C24.6639 23.1863 23.2893 23.1863 22.4118 22.6299Z" fill="white"/>
<path d="M31.3521 2.70428L32.3596 2.09314C32.6273 1.93071 32.7126 1.58208 32.5502 1.3142C32.3879 1.04645 32.039 0.961118 31.7712 1.12348L15.831 10.7946L17.4577 11.0309C17.5018 11.0374 17.5449 11.0457 17.5879 11.0553L19.0681 10.157C19.073 10.4047 19.1553 10.6447 19.3034 10.8434C19.6686 11.3368 20.3557 11.4792 20.8914 11.1528C21.4665 10.8024 21.6314 10.0608 21.2916 9.50332C21.1832 9.32508 21.0299 9.1784 20.847 9.07792L30.5031 3.21939C30.5067 4.4562 30.4987 1.58646 30.5636 24.5505C30.8608 24.6161 31.1479 24.716 31.4149 24.8501C31.4126 24.0506 31.3562 4.12682 31.3521 2.70428ZM20.4486 10.4266C20.2807 10.529 20.0665 10.4712 19.9682 10.3098C19.9442 10.2706 19.9282 10.2271 19.9211 10.1818C19.914 10.1364 19.916 10.0901 19.9268 10.0455C19.9376 10.0009 19.9571 9.95881 19.9842 9.92174C20.0113 9.88467 20.0454 9.85331 20.0846 9.82944C20.1238 9.80551 20.1674 9.78955 20.2127 9.78245C20.2581 9.77535 20.3044 9.77726 20.3491 9.78807C20.3937 9.79888 20.4358 9.81838 20.4729 9.84545C20.51 9.87252 20.5414 9.90664 20.5653 9.94585C20.661 10.1031 20.6205 10.3217 20.4486 10.4266ZM30.5786 29.8749C30.5786 30.7162 31.2632 31.4007 32.1044 31.4007C32.9459 31.4007 33.6304 30.7162 33.6304 29.8749V29.3191C33.6314 29.2626 33.6211 29.2065 33.6002 29.154C33.5793 29.1015 33.5481 29.0538 33.5085 29.0135C33.4689 28.9732 33.4217 28.9412 33.3696 28.9193C33.3175 28.8975 33.2616 28.8862 33.2051 28.8862C33.1486 28.8862 33.0927 28.8975 33.0406 28.9193C32.9885 28.9412 32.9413 28.9732 32.9017 29.0135C32.8621 29.0538 32.831 29.1015 32.81 29.154C32.7891 29.2065 32.7789 29.2626 32.7799 29.3191V29.8749C32.7799 30.2472 32.4769 30.5502 32.1044 30.5502C31.7322 30.5502 31.4289 30.2472 31.4289 29.8736L31.4237 27.9728C31.1285 27.9201 30.8416 27.8348 30.5724 27.7164L30.5786 29.8749Z" fill="#274D60" fill-opacity="0.3"/>
<path d="M1.27831 14.0491C0.534897 14.0491 -0.0524644 14.6846 0.0103556 15.4254C0.155918 17.1457 0.894883 18.789 1.69514 20.313C2.46299 20.2829 3.2422 20.4663 3.86921 20.8639C4.06889 20.9908 4.5597 20.9906 4.75918 20.8639C5.92567 20.1244 7.61856 20.1244 8.78478 20.8639C8.98453 20.9906 9.47533 20.9908 9.67475 20.8639C10.841 20.1244 12.5341 20.1244 13.7003 20.8639C13.9001 20.9908 14.3909 20.9906 14.5904 20.8639C15.7569 20.1244 17.4497 20.1244 18.6159 20.8639C18.8157 20.9906 19.3065 20.9908 19.506 20.8639C20.6725 20.1244 22.3653 20.1244 23.5316 20.8639C23.7313 20.9906 24.2221 20.9906 24.4216 20.8639C24.971 20.5158 25.6631 20.5794 26.1385 20.9729C27.063 19.2676 28.0093 17.3971 28.1761 15.4254C28.2386 14.6846 27.6516 14.0491 26.9082 14.0491H1.27831ZM25.5414 22.6299C25.834 22.4444 25.9209 22.0569 25.7352 21.7643C25.5497 21.4717 25.1622 21.3848 24.8696 21.5705C24.3938 21.872 23.5594 21.872 23.0836 21.5705C22.206 21.0139 20.8315 21.0139 19.9539 21.5705C19.4782 21.8722 18.6437 21.872 18.168 21.5705C17.2905 21.0139 15.9157 21.0139 15.0383 21.5705C14.5626 21.872 13.7281 21.872 13.2524 21.5705C12.3752 21.0139 11.0003 21.0139 10.1227 21.5705C9.64699 21.872 8.81254 21.872 8.3368 21.5705C7.45925 21.0139 6.08471 21.0139 5.20716 21.5705C4.73142 21.872 3.89697 21.872 3.42123 21.5705C2.54368 21.0139 1.16887 21.0139 0.291519 21.5705C-0.00106622 21.756 -0.0879252 22.1436 0.0975467 22.4361C0.283284 22.7288 0.67083 22.8154 0.963414 22.6302C1.43888 22.3285 2.2736 22.3282 2.74934 22.6302C3.62689 23.1867 5.00143 23.1867 5.87905 22.6302C6.35472 22.3285 7.18924 22.3282 7.66497 22.6302C8.10359 22.9083 8.66677 23.0475 9.2299 23.0475C9.79282 23.0475 10.3559 22.9083 10.7946 22.6302C11.2704 22.3285 12.1048 22.3282 12.5805 22.6302C13.4581 23.1867 14.8329 23.1867 15.7103 22.6302C16.1859 22.3285 17.0204 22.3285 17.4962 22.6302C18.3737 23.1867 19.7483 23.1867 20.6258 22.6302C21.1016 22.3285 21.936 22.3285 22.4118 22.6302C23.2893 23.1863 24.6638 23.1863 25.5414 22.6299ZM33.0367 25.7163C32.561 26.018 31.7263 26.018 31.2508 25.7163C30.3732 25.1598 28.9984 25.1598 28.1209 25.7163C27.6451 26.018 26.8107 26.018 26.3349 25.7163C25.4577 25.1598 24.0828 25.1598 23.2052 25.7163C22.7295 26.018 21.895 26.018 21.4193 25.7163C20.542 25.1598 19.1672 25.1598 18.2896 25.7163C17.8139 26.018 16.9794 26.018 16.5037 25.7163C15.6265 25.1598 14.2516 25.1598 13.374 25.7163C12.8983 26.018 12.0638 26.018 11.5881 25.7163C10.7106 25.1598 9.33601 25.1598 8.45846 25.7163C8.16587 25.9017 8.07895 26.2893 8.26469 26.5821C8.45016 26.8747 8.8377 26.9613 9.13029 26.7759C9.60602 26.4742 10.4405 26.4742 10.9163 26.7759C11.7938 27.3323 13.1686 27.3323 14.0459 26.7759C14.5217 26.4742 15.3561 26.4742 15.8318 26.7759C16.7094 27.3323 18.0842 27.3323 18.9616 26.7759C19.4375 26.4742 20.272 26.4742 20.7475 26.7759C21.1864 27.054 21.7493 27.1933 22.3124 27.1933C22.8755 27.1933 23.4385 27.054 23.8773 26.7759C24.3531 26.4742 25.1875 26.4742 25.6631 26.7759C26.5406 27.3323 27.9154 27.3323 28.793 26.7759C29.2684 26.4742 30.1032 26.4742 30.5786 26.7759C31.4562 27.3323 32.831 27.3323 33.7085 26.7759C34.0012 26.5904 34.0878 26.2028 33.9023 25.91C33.7166 25.6175 33.329 25.5305 33.0367 25.7163Z" fill="#274D60" fill-opacity="0.3"/>
</svg>
