<svg width="34" height="34" viewBox="0 0 34 34" fill="none" xmlns="http://www.w3.org/2000/svg">
<g clip-path="url(#clip0_2801_45)">
<path d="M33.4333 34H0.566667C0.416377 34 0.272243 33.9403 0.165973 33.834C0.0597022 33.7277 0 33.5836 0 33.4333C0 33.283 0.0597022 33.1389 0.165973 33.0326C0.272243 32.9263 0.416377 32.8666 0.566667 32.8666H33.4333C33.5836 32.8666 33.7278 32.9263 33.834 33.0326C33.9403 33.1389 34 33.283 34 33.4333C34 33.5836 33.9403 33.7277 33.834 33.834C33.7278 33.9403 33.5836 34 33.4333 34ZM9.33512 13.7126C7.88658 16.5126 7.60608 19.7944 8.5595 22.8026C8.62537 23.0109 8.55808 23.2354 8.398 23.3842C8.34069 23.4372 8.29499 23.5015 8.26378 23.5731C8.23257 23.6447 8.21653 23.7219 8.21667 23.8V24.9616C8.21667 25.1904 7.95954 25.325 7.77183 25.1947L7.3355 24.8922C7.07915 24.7151 6.72555 24.7778 6.54642 25.0353C6.36862 25.2931 6.43238 25.6459 6.6895 25.8244L7.97512 26.7155C8.04971 26.767 8.11066 26.8359 8.15273 26.9163C8.19481 26.9966 8.21675 27.0859 8.21667 27.1766V31.1666C8.21667 31.3169 8.15696 31.4611 8.05069 31.5673C7.94442 31.6736 7.80029 31.7333 7.65 31.7333C7.49971 31.7333 7.35558 31.6736 7.24931 31.5673C7.14304 31.4611 7.08333 31.3169 7.08333 31.1666V30.0978C4.21076 30.8457 1.41497 28.7212 1.27996 25.8308C1.2325 24.7973 1.51938 23.8042 2.09738 22.9726C2.20363 22.8196 2.22133 22.6227 2.15404 22.4492C0.335042 17.7997 3.92062 12.7634 8.85062 12.8902C9.26712 12.9008 9.52708 13.3421 9.33512 13.7126Z" fill="#274D60" fill-opacity="0.3"/>
<path d="M27.4656 12.5928C24.961 13.1475 23.1625 15.3626 23.1625 17.9393V24.8441C23.1625 26.0968 23.5861 27.3077 24.3985 28.3043C24.6372 28.5961 24.5288 29.0367 24.1818 29.184C23.2205 29.5902 22.2052 29.8544 21.1678 29.9682C20.8335 30.005 20.5416 29.7408 20.5416 29.4036V27.664C20.5416 27.4812 20.6302 27.3098 20.7782 27.2035L22.2176 26.1736C22.8274 25.7352 22.1673 24.8158 21.5574 25.2514L20.99 25.658C20.8023 25.7918 20.5416 25.658 20.5416 25.4278V22.8792C20.5416 22.129 19.4083 22.129 19.4083 22.8792V24.0118C19.4083 24.2427 19.1469 24.3766 18.9599 24.242C18.3536 23.8078 18.3678 23.8078 18.275 23.7695C17.6566 23.5202 17.1891 24.3667 17.7324 24.757L19.1717 25.7869C19.2449 25.8393 19.3045 25.9085 19.3456 25.9885C19.3867 26.0686 19.4082 26.1573 19.4083 26.2473V31.1667C19.4083 31.317 19.3486 31.4611 19.2423 31.5674C19.1361 31.6736 18.9919 31.7333 18.8416 31.7333C18.6913 31.7333 18.5472 31.6736 18.4409 31.5674C18.3347 31.4611 18.275 31.317 18.275 31.1667V29.8995C13.0489 29.0735 9.05247 24.4963 9.13889 19.0216C9.23168 13.1268 14.0809 8.35763 19.9764 8.35834C23.0201 8.35905 25.7741 9.62059 27.7447 11.6478C28.0514 11.963 27.8948 12.4985 27.4656 12.5928ZM13.0162 30.0462C11.907 30.3835 10.7064 30.2917 9.67155 29.7979C9.57542 29.7522 9.49419 29.6802 9.43727 29.5902C9.38035 29.5003 9.35006 29.396 9.3499 29.2896V26.656C9.3499 26.1143 10.0394 25.8883 10.3627 26.3231C11.1473 27.3785 12.0991 28.2987 13.1804 29.0473C13.5678 29.3153 13.4667 29.9091 13.0162 30.0462Z" fill="#274D60" fill-opacity="0.3"/>
<path d="M19.452 7.23442C16.0598 7.37481 12.8406 8.98719 10.6633 11.6812C10.5331 11.8423 10.3256 11.9176 10.1216 11.8816C9.02153 11.689 7.89378 11.7221 6.80689 11.9788C6.38848 12.078 6.01214 11.701 6.1225 11.2854C7.15008 7.41575 9.88226 0 13.8635 0C16.642 0 18.7523 3.65217 19.9489 6.44491C20.1053 6.80985 19.8487 7.21799 19.452 7.23442ZM30.6298 12.5526C30.467 12.5232 30.303 12.5014 30.1383 12.4872C29.973 12.4731 29.8202 12.3913 29.7239 12.2563C27.9288 9.74065 25.1947 7.96167 22.0785 7.40959C21.7287 7.34761 21.5241 6.97949 21.6523 6.64813L23.3141 2.35025C24.0739 0.386113 26.8558 0.387529 27.6151 2.35025L31.2657 11.792C31.4263 12.2073 31.0681 12.6316 30.6298 12.5526ZM34 17.9393V24.8441C34 26.9804 32.4481 28.7605 30.413 29.1175C30.0666 29.1784 29.75 28.9099 29.75 28.5586V24.8108C29.75 24.509 29.5219 24.2455 29.2209 24.2264C29.1435 24.2212 29.0658 24.232 28.9928 24.258C28.9197 24.2841 28.8527 24.3249 28.7961 24.3779C28.7394 24.4309 28.6943 24.495 28.6634 24.5661C28.6326 24.6373 28.6166 24.7141 28.6167 24.7917V31.1667C28.6167 31.317 28.557 31.4611 28.4507 31.5674C28.3444 31.6736 28.2003 31.7333 28.05 31.7333C27.8997 31.7333 27.7556 31.6736 27.6493 31.5674C27.5431 31.4611 27.4834 31.317 27.4834 31.1667V29.0275C25.6474 28.5225 24.2959 26.838 24.2959 24.8441V17.9393C24.2959 15.5427 26.2386 13.6 28.6351 13.6H29.6608C32.0573 13.6 34 15.5427 34 17.9393Z" fill="#274D60" fill-opacity="0.3"/>
</g>
<defs>
<clipPath id="clip0_2801_45">
<rect width="34" height="34" fill="white"/>
</clipPath>
</defs>
</svg>
