<svg width="18" height="18" viewBox="0 0 18 18" fill="none" xmlns="http://www.w3.org/2000/svg">
<g clip-path="url(#clip0_2644_759)">
<path d="M8.43492 6.11475C8.44201 6.26177 8.38318 6.41954 8.2669 6.52361L7.01018 7.70008L7.32726 15.8019C7.32317 17.7391 4.53661 17.7585 4.49298 15.8019L4.81007 7.70017L3.55335 6.52361C3.43638 6.42304 3.38217 6.26219 3.389 6.11099L3.63351 0.572291C3.66442 0.0657613 4.4357 0.0911177 4.42025 0.610368L4.25948 4.20961C4.25761 4.44132 4.46865 4.47325 4.6534 4.45702C4.71622 4.45702 4.77645 4.43207 4.82087 4.38766C4.86528 4.34324 4.89023 4.28301 4.89023 4.22019V0.610539C4.89066 0.0826655 5.65912 0.0608949 5.67321 0.591415V4.22019C5.67466 4.53045 6.14567 4.52942 6.14704 4.22019V0.610454C6.14704 0.420751 6.27288 0.245049 6.45866 0.206374C6.7077 0.154722 6.92993 0.346389 6.92993 0.591244V4.22011C6.93283 4.44439 7.15079 4.47299 7.32778 4.45694C7.35977 4.45695 7.39144 4.45047 7.42087 4.4379C7.45029 4.42534 7.47687 4.40693 7.49899 4.38381C7.5211 4.36069 7.53831 4.33332 7.54955 4.30337C7.5608 4.27341 7.56587 4.24149 7.56444 4.20952L7.40342 0.610368C7.39206 0.392662 7.56008 0.209362 7.77779 0.198007C7.99165 0.190323 8.17504 0.358427 8.18656 0.572377L8.43492 6.11475ZM13.2136 7.7268L13.5268 15.8019C13.5421 16.1913 13.4007 16.5619 13.1294 16.8408C12.2692 17.7802 10.6194 17.0753 10.6925 15.8018L11.0093 7.7268C9.81381 6.81005 9.16061 5.33946 9.25238 3.74269C9.34707 1.59286 11.0519 -0.528363 13.1218 0.449949C15.5975 1.77104 15.5123 6.15326 13.2136 7.7268Z" fill="#274D60" fill-opacity="0.2"/>
</g>
<defs>
<clipPath id="clip0_2644_759">
<rect width="17.075" height="17.075" fill="white" transform="translate(0.635498 0.197754)"/>
</clipPath>
</defs>
</svg>
