<svg width="32" height="32" viewBox="0 0 32 32" fill="none" xmlns="http://www.w3.org/2000/svg">
<path d="M14.1091 6.73937C14.4 7.32119 15.0303 8.38785 16 8.38785C16.9697 8.38785 17.6 7.32119 17.8909 6.73937C18.1334 6.59391 18.3273 6.35149 18.4243 6.0121C18.5697 5.52725 18.4727 4.89694 18.0849 4.55755C17.794 3.49088 16.9697 2.76361 16 2.76361C15.0303 2.76361 14.2061 3.49088 13.9152 4.50907C13.5273 4.84846 13.4788 5.47876 13.5758 5.96361C13.6727 6.35149 13.8667 6.59391 14.1091 6.73937ZM20.994 10.6666C20.897 10.0363 20.3637 9.45452 19.6364 9.26058C19.0061 9.06664 18.7637 8.92119 17.9879 8.8727C17.8424 8.8727 17.6485 8.92119 17.5515 9.06664C17.4546 9.2121 17.4061 9.35755 17.4546 9.50301C17.8909 10.9091 16.7758 12.3636 16 13.1879C15.0788 12.2182 14.2061 10.5697 14.5455 9.50301C14.594 9.35755 14.5455 9.16361 14.4485 9.06664C14.3515 8.92119 14.2061 8.8727 14.0121 8.8727C13.2364 8.92119 12.994 9.06664 12.3152 9.26058C11.5879 9.45452 11.0546 9.98785 10.9576 10.6666L10.2788 14.5939H21.5758L20.994 10.6666ZM21.8182 15.8545C21.7697 15.6606 21.5758 15.5151 21.4303 15.5151H10.5212C10.3273 15.5151 10.1818 15.6606 10.1334 15.8545L6.06063 28.5576C5.96366 28.8485 6.15759 29.1879 6.4485 29.1879H25.4546C25.7455 29.1879 25.9394 28.8485 25.8424 28.5576L21.8182 15.8545ZM26.5212 17.0182C25.8424 17.4545 25.4546 18.1818 25.4546 18.9575C25.4546 20.2666 26.6667 21.3818 28.1212 21.3818C29.5758 21.3818 30.7879 20.3151 30.7879 18.9575C30.7879 17.6485 29.5758 16.5333 28.1212 16.5333C27.5394 16.5333 26.9576 16.6788 26.5212 17.0182ZM28.1212 21.6242C26.7637 21.6242 25.7455 22.1576 25.2121 23.1757L26.8606 29.2363H31.0303C31.2727 29.2363 31.5152 28.9939 31.5152 28.7515V24.6788C31.5152 22.9818 29.9637 21.6242 28.1212 21.6242Z" fill="#274D60" fill-opacity="0.3"/>
<path d="M23.4182 17.5515L24.8243 21.9636C25.0667 21.7212 25.3091 21.4787 25.6 21.2848C24.9212 20.6545 24.4849 19.8303 24.4849 18.8606C24.4849 17.9878 24.8243 17.1636 25.4546 16.5333C24.6303 16.6787 23.903 17.0181 23.4182 17.5515ZM25.9394 16.2909C27.4424 16.2909 28.6061 15.1757 28.6061 13.8666C28.6061 12.5575 27.394 11.4424 25.9394 11.4424C25.3576 11.4424 24.7758 11.6363 24.3394 11.9272C23.6606 12.3636 23.2727 13.0909 23.2727 13.8666C23.2727 15.2242 24.4849 16.2909 25.9394 16.2909ZM3.8788 21.2848C5.33335 21.2848 6.54547 20.2181 6.54547 18.909C6.54547 18.1333 6.15759 17.4545 5.4788 16.9697C5.04244 16.6787 4.46062 16.4848 3.8788 16.4848C2.42426 16.4848 1.21214 17.5515 1.21214 18.909C1.21214 20.1697 2.42426 21.2848 3.8788 21.2848ZM6.78789 23.0787C6.25456 22.109 5.18789 21.5272 3.8788 21.5272C1.98789 21.5272 0.484863 22.8848 0.484863 24.5818V28.6545C0.484863 28.8969 0.727288 29.1394 0.969712 29.1394H5.13941C5.04244 28.8484 5.04244 28.5575 5.13941 28.2181L6.78789 23.0787Z" fill="#274D60" fill-opacity="0.3"/>
<path d="M6.40004 21.2848C6.69095 21.4788 6.93338 21.6727 7.1758 21.9636L8.58186 17.5515C8.09701 17.0182 7.36974 16.6788 6.49701 16.5818C7.12732 17.2121 7.46671 18.0364 7.46671 18.9091C7.51519 19.8303 7.07883 20.6545 6.40004 21.2848ZM6.06065 16.2424C7.51519 16.2424 8.72732 15.1758 8.72732 13.8667C8.72732 12.4606 7.46671 11.4909 6.06065 11.4909C4.6061 11.4909 3.39398 12.5576 3.39398 13.8667C3.39398 15.1273 4.55762 16.2424 6.06065 16.2424Z" fill="#274D60" fill-opacity="0.3"/>
</svg>
