<?xml version="1.0" encoding="UTF-8"?> <svg xmlns="http://www.w3.org/2000/svg" width="1347" height="225" viewBox="0 0 1347 225" fill="none"> <path d="M1.94922 91.84C5.37922 73.58 12.7792 57.08 24.3592 42.58C36.5092 27.37 51.5892 15.91 69.6892 8.49998C78.6192 4.83998 87.8592 2.35998 97.4092 1.09999C107.599 -0.240015 117.799 -0.160022 127.999 1.27998C139.569 2.91998 150.599 6.28997 161.089 11.37C170.709 16.03 179.499 21.99 187.399 29.21C202.109 42.66 212.599 58.86 218.789 77.81C221.529 86.2 223.129 94.83 223.849 103.63C225.129 119.24 223.019 134.43 217.949 149.18C213.699 161.53 207.329 172.75 199.079 182.9C190.409 193.56 180.129 202.35 168.259 209.25C162.029 212.87 155.519 215.92 148.669 218.22C148.289 218.35 147.889 218.38 147.499 218.45C146.309 213.88 143.849 210.14 140.089 207.29C134.579 203.11 128.409 200.06 122.269 196.98C114.269 192.97 106.169 189.17 98.2192 185.06C86.7192 179.11 76.6992 171.33 69.0192 160.74C62.4492 151.66 57.8192 141.75 56.2492 130.6C55.5192 125.39 55.2792 120.11 54.8992 114.86C54.5292 109.67 53.8992 104.54 52.3992 99.54C50.8392 94.3 48.0392 90.09 42.7292 88.08C34.2592 84.89 25.5592 84.39 16.8492 86.72C12.3192 87.93 7.97919 89.85 3.54919 91.43C3.03919 91.63 2.48922 91.71 1.94922 91.84ZM161.799 166.82C163.129 166.64 164.519 166.63 165.789 166.24C167.559 165.7 167.919 164.59 166.789 163.14C165.869 161.96 164.779 160.78 163.509 160.04C160.199 158.11 156.889 156.08 153.329 154.73C147.659 152.58 141.829 150.83 136.009 149.12C125.669 146.08 115.319 143.06 104.599 141.55C102.649 141.28 100.699 140.64 98.8892 139.86C97.0092 139.05 96.6092 137.64 97.7492 135.94C98.7192 134.51 99.8892 133.09 101.279 132.08C105.209 129.21 109.219 126.41 113.339 123.82C120.999 119 126.889 112.68 130.539 104.37C132.599 99.69 133.639 94.83 132.809 89.66C131.839 83.61 129.129 78.45 124.939 74.08C118.059 66.9 110.459 60.54 102.189 55.02C98.0592 52.26 93.6892 49.96 88.8292 48.64C84.2792 47.41 80.1492 48.06 76.4092 51.01C72.3992 54.16 71.8992 57.92 74.9492 62.07C76.8292 64.64 79.3592 66.47 81.9692 68.17C88.2692 72.28 94.3392 76.71 100.049 81.6C103.719 84.74 107.009 88.23 108.619 92.94C109.759 96.27 109.269 99.35 106.579 101.71C104.429 103.6 102.129 105.37 99.6892 106.86C95.2392 109.58 91.0392 112.58 87.3292 116.28C82.3092 121.27 78.3592 126.88 76.3292 133.73C75.6692 135.97 75.3292 138.25 75.6792 140.59C76.2592 144.4 78.4192 147.15 81.4792 149.32C86.4592 152.86 92.1592 154.7 97.9392 156.34C108.009 159.19 118.189 161.55 128.459 163.59C135.709 165.03 142.949 165.98 150.359 165.45C151.929 165.34 153.529 165.67 155.109 165.87C157.329 166.17 159.539 166.51 161.799 166.82ZM144.559 81.55C151.939 82.01 160.719 75.58 160.819 65.24C160.909 56.28 153.579 49.13 144.409 49.05C135.729 48.97 128.339 56.3 128.299 65.01C128.259 74.28 135.369 81.51 144.559 81.55Z" fill="#5E81AF"></path> <path d="M471.53 170.85C468.22 170.64 465.19 170.49 462.17 170.25C458.86 169.99 456.88 167.88 457.01 164.85C457.11 162.57 458.59 160.72 460.85 160.26C461.86 160.05 462.91 160.04 463.95 160.04C467.94 160.02 471.94 160.03 476.12 160.03C477.85 155.88 479.63 151.8 481.28 147.67C486.76 133.95 492.16 120.21 497.65 106.5C501.03 98.05 504.52 89.64 507.97 81.22C508.27 80.48 508.55 79.73 508.92 79.02C511.3 74.51 517.23 73.72 520.6 77.55C521.58 78.66 522.3 80.07 522.85 81.46C536.97 117 551.04 152.56 565.12 188.12C568.62 196.95 572.09 205.8 575.59 214.63C576.1 215.92 576.56 217.18 575.65 218.64C567.75 218.64 559.78 218.64 551.51 218.64C545.07 202.78 539.36 186.45 533.01 170.35C515.84 170.35 498.82 170.35 481.67 170.35C480.07 174.28 478.47 178.18 476.91 182.11C473.34 191.09 469.84 200.09 466.2 209.04C465.27 211.31 464.09 213.53 462.71 215.56C461.22 217.76 459.12 218.91 456.2 218.81C450.45 218.61 444.68 218.77 438.92 218.75C433.45 218.73 430.26 216.23 428.35 211.09C425.74 204.06 422.86 197.12 420.15 190.13C411.18 166.98 402.26 143.81 393.25 120.67C391.87 117.13 390.15 113.72 388.4 109.83C387.98 110.72 387.77 111.12 387.61 111.53C375.52 142.98 363.44 174.43 351.36 205.88C350.07 209.23 348.86 212.61 347.48 215.93C346.51 218.29 344.14 219.25 341.82 218.45C339.72 217.72 338.43 215.37 338.89 213.05C339 212.51 339.17 211.97 339.37 211.45C344.84 197.3 350.35 183.17 355.79 169.01C366.53 141.06 377.22 113.1 387.94 85.15C388.77 82.99 389.54 80.8 390.52 78.71C391.95 75.65 395.3 74.35 398.13 75.61C399.92 76.41 400.97 77.92 401.68 79.65C403.39 83.87 405.03 88.11 406.71 92.34C422.26 131.69 437.82 171.05 453.37 210.4C453.66 211.14 454.01 211.85 454.49 212.94C460.23 198.74 465.84 184.89 471.53 170.85ZM528.93 159.94C521.86 141.77 514.9 123.89 507.77 105.56C500.39 123.92 493.2 141.83 485.92 159.94C500.36 159.94 514.4 159.94 528.93 159.94Z" fill="#343441"></path> <path d="M1.95 91.84C2.49 91.71 3.03999 91.62 3.55999 91.44C7.98999 89.86 12.33 87.94 16.86 86.73C25.57 84.4 34.27 84.9 42.74 88.09C48.05 90.09 50.85 94.31 52.41 99.55C53.9 104.56 54.54 109.69 54.91 114.87C55.28 120.12 55.53 125.4 56.26 130.61C57.82 141.76 62.45 151.67 69.03 160.75C76.7 171.34 86.72 179.12 98.23 185.07C106.18 189.18 114.28 192.98 122.28 196.99C128.42 200.07 134.59 203.12 140.1 207.3C143.86 210.15 146.32 213.89 147.51 218.46C146.54 218.94 145.61 219.6 144.58 219.87C140.52 220.94 136.44 221.96 132.34 222.84C130.26 223.29 128.1 223.42 125.98 223.66C123.14 223.98 120.31 224.47 117.47 224.53C113.58 224.61 109.67 224.34 105.78 224.22C104.98 224.2 104.18 224.22 103.39 224.14C99.76 223.77 96.09 223.6 92.51 222.94C88.22 222.14 83.97 221.09 79.79 219.84C72 217.51 64.56 214.38 57.45 210.37C51.46 206.99 45.71 203.26 40.53 198.79C36.13 195.01 32.09 190.79 28.13 186.53C25.32 183.51 22.8 180.2 20.38 176.85C18.24 173.89 16.26 170.8 14.52 167.59C12.14 163.2 9.79999 158.75 7.89999 154.13C5.87999 149.21 4.30999 144.1 3.02999 138.9C1.80999 133.95 1.15 128.94 0.569999 123.88C-0.200001 117.18 0.0800006 110.47 0.290001 103.79C0.390001 99.83 0.460004 95.7 1.95 91.84Z" fill="#D3EAF7"></path> <path d="M1247.76 216.6C1247.75 215.98 1247.7 215.35 1247.75 214.73C1247.88 212.95 1249.16 211.29 1250.85 211.29C1256.1 211.28 1260.13 208.56 1263.98 205.56C1270.71 200.32 1276.38 194.03 1281.43 187.17C1281.57 186.99 1281.63 186.75 1281.77 186.42C1279.28 184.96 1276.84 183.45 1274.32 182.09C1261.3 175.07 1253.46 164.05 1249.58 150.01C1247.13 141.17 1246.96 132.22 1248.45 123.18C1249.26 118.28 1250.18 113.43 1252.2 108.86C1256.09 100.04 1262.36 93.2399 1270.23 87.8399C1279.06 81.7699 1288.89 78.1899 1299.39 76.2899C1305.56 75.1799 1311.8 75.33 1318 74.83C1325.69 74.21 1333.34 74.8499 1341.01 74.9699C1342.67 74.9999 1344.34 75.0999 1346.07 75.1699C1346.07 123.05 1346.07 170.76 1346.07 218.6C1338.08 218.6 1330.21 218.6 1322.13 218.6C1322.13 173.87 1322.13 129.28 1322.13 84.5599C1317.23 84.1499 1312.52 84.0899 1307.84 84.5399C1300.34 85.2699 1293.07 87.06 1286.18 90.19C1276.66 94.51 1268.65 100.63 1262.96 109.56C1259.73 114.63 1257.95 120.22 1257.01 126.11C1255.76 133.96 1255.99 141.73 1258.43 149.33C1262.24 161.17 1270.06 169.53 1281.07 175.04C1282.78 175.9 1284.52 176.69 1286.27 177.48C1288.31 178.41 1288.37 178.3 1289.91 176.68C1292.99 173.44 1296.07 170.19 1299.29 167.1C1304.66 161.95 1312.97 163.35 1317.54 167.12C1319.14 168.44 1320.14 170.18 1320.23 172.29C1320.31 174.2 1320.38 176.13 1320.2 178.02C1319.86 181.63 1318 184.33 1314.73 185.92C1308.16 189.13 1301.22 190.15 1293.98 189.35C1293.58 189.31 1293.19 189.24 1292.8 189.15C1291.39 188.81 1290.49 189.32 1289.6 190.49C1285.92 195.33 1282.18 200.11 1278.36 204.84C1274.82 209.21 1270.71 213.02 1266.19 216.34C1264.15 217.84 1261.82 218.95 1259.08 218.76C1257.33 218.64 1255.55 218.59 1253.81 218.77C1251.36 219.02 1249.35 218.38 1247.72 216.53L1247.76 216.6ZM1298.13 179.65C1301.41 180.16 1304.17 179.91 1306.89 179.38C1308.85 179 1310.44 178 1311.2 176.02C1311.96 174.03 1311.06 172.52 1308.97 172.24C1307.58 172.05 1306.28 172.3 1305.09 173.04C1302.42 174.7 1300.34 176.94 1298.13 179.65Z" fill="#343441"></path> <path d="M587.66 75.97C592.47 75.85 597.18 75.69 601.89 75.63C610.84 75.51 619.8 75.2 628.75 75.44C641.42 75.77 653.65 78.25 664.87 84.51C680.27 93.1 690.15 106.11 694.87 122.94C699.92 140.98 699.91 159.05 692.71 176.54C683.39 199.15 666.33 212.67 642.37 217.45C633.38 219.24 624.24 219.19 615.14 219.18C606.27 219.17 597.39 218.92 588.52 218.78C588.28 218.78 588.05 218.71 587.67 218.66C587.66 171.1 587.66 123.55 587.66 75.97ZM611.69 210.38C613.98 210.38 616.05 210.35 618.12 210.39C627.18 210.54 636.17 210.04 645.01 207.86C660.68 204 672.56 195.16 680.24 180.92C682.21 177.28 683.92 173.47 685.39 169.6C689.49 158.81 691.11 147.65 689.27 136.18C687.12 122.75 680.97 111.27 671.67 101.45C664.58 93.96 655.94 89.04 646 86.32C639.08 84.43 632.03 83.71 624.9 83.73C620.53 83.75 616.16 84.05 611.69 84.23C611.69 126.37 611.69 168.16 611.69 210.38Z" fill="#343441"></path> <path d="M889.421 135.4C867.971 135.4 846.861 135.4 825.511 135.4C825.511 163 825.511 190.56 825.511 218.25C817.391 218.25 809.501 218.25 801.461 218.25C801.461 170.73 801.461 123.19 801.461 75.54C809.371 75.54 817.181 75.54 824.981 75.54C825.051 75.59 825.121 75.63 825.171 75.69C825.221 75.75 825.251 75.82 825.281 75.89C825.311 75.96 825.341 76.04 825.341 76.12C825.361 76.36 825.371 76.6 825.381 76.84C825.401 92.6 825.421 108.36 825.451 124.12C825.451 124.19 825.501 124.26 825.531 124.34C827.451 124.87 880.151 125.11 889.221 124.62C889.291 124.06 889.421 123.46 889.421 122.86C889.451 108.7 889.461 94.55 889.491 80.39C889.491 79.52 889.481 78.58 889.791 77.8C890.481 76.02 891.861 74.99 893.811 74.9C895.741 74.8 897.501 75.83 898.201 77.61C898.511 78.4 898.651 79.32 898.651 80.17C898.671 124.73 898.671 169.29 898.661 213.85C898.661 216.48 897.051 218.37 894.631 218.68C892.581 218.95 890.501 217.59 889.851 215.48C889.671 214.89 889.651 214.23 889.651 213.59C889.551 198.95 889.441 184.31 889.391 169.67C889.361 158.95 889.411 148.23 889.431 137.51C889.421 136.88 889.421 136.25 889.421 135.4Z" fill="#343441"></path> <path d="M1247.71 216.53C1247.83 217.21 1247.94 217.89 1248.07 218.66C1239.56 218.66 1231.19 218.66 1222.59 218.66C1216.51 202.64 1210.42 186.61 1204.31 170.51C1187.24 170.51 1170.22 170.51 1153.02 170.51C1152.13 172.65 1151.17 174.83 1150.29 177.04C1145.98 187.87 1141.69 198.71 1137.39 209.54C1136.66 211.39 1135.88 213.23 1135.18 215.09C1134.12 217.91 1131.5 219.31 1128.92 218.38C1126.34 217.45 1125.2 214.71 1126.34 211.86C1130.35 201.86 1134.41 191.87 1138.45 181.88C1139.71 178.77 1140.96 175.66 1142.2 172.55C1142.37 172.13 1142.48 171.68 1142.68 171.06C1141.79 170.99 1141.11 170.92 1140.42 170.87C1137.87 170.7 1135.31 170.59 1132.77 170.37C1130.19 170.15 1128.21 167.9 1128.22 165.35C1128.23 162.79 1130.21 160.52 1132.79 160.35C1134.78 160.21 1136.79 160.31 1138.79 160.3C1141.59 160.3 1144.39 160.3 1147.33 160.3C1148.88 156.72 1150.51 153.18 1151.95 149.57C1158.58 132.96 1165.14 116.33 1171.77 99.72C1174.28 93.42 1176.91 87.16 1179.48 80.88C1179.69 80.36 1179.88 79.83 1180.14 79.34C1182.58 74.6 1188.75 73.89 1192.12 78.03C1193.06 79.18 1193.74 80.6 1194.29 81.99C1210.88 123.85 1227.43 165.72 1243.99 207.59C1244.93 209.97 1245.82 212.36 1246.78 214.73C1247.04 215.38 1247.44 215.97 1247.78 216.59C1247.76 216.6 1247.71 216.53 1247.71 216.53ZM1200.23 160.21C1193.2 142.14 1186.23 124.23 1179.07 105.82C1175.26 115.29 1171.63 124.22 1168.06 133.18C1164.48 142.16 1160.76 151.08 1157.28 160.22C1171.76 160.21 1185.88 160.21 1200.23 160.21Z" fill="#343441"></path> <path d="M1026.59 75.91C1034.66 75.91 1042.49 75.91 1050.66 75.91C1050.68 79.12 1050.7 82.28 1050.71 85.45C1050.72 88.65 1050.71 91.85 1050.71 95.05C1050.71 98.25 1050.71 101.45 1050.71 104.65C1050.71 107.85 1050.71 111.05 1050.71 114.25C1050.71 117.42 1050.71 120.59 1050.71 124.17C1051.49 123.64 1051.94 123.38 1052.34 123.05C1067.24 110.59 1082.15 98.13 1097.04 85.66C1100.35 82.89 1103.62 80.07 1106.91 77.29C1107.46 76.83 1108.01 76.36 1108.6 75.95C1110.68 74.52 1113.31 74.87 1114.83 76.76C1116.37 78.67 1116.19 81.6 1114.27 83.23C1109.02 87.67 1103.72 92.05 1098.44 96.45C1089.35 104.02 1080.26 111.6 1071.16 119.16C1070.85 119.42 1070.43 119.54 1070.03 119.74C1071.65 122.57 1073.02 124.98 1074.42 127.38C1090.23 154.59 1106.05 181.81 1121.85 209.03C1122.45 210.06 1123 211.14 1123.43 212.25C1124.34 214.6 1123.39 217.08 1121.26 218.2C1119.01 219.38 1116.41 218.66 1115 216.41C1114.36 215.4 1113.82 214.33 1113.22 213.29C1097.69 186.19 1082.17 159.09 1066.63 132C1065.57 130.15 1064.47 128.33 1063.28 126.31C1060.7 128.48 1058.32 130.48 1055.96 132.49C1054.56 133.68 1053.23 134.96 1051.77 136.08C1050.77 136.85 1050.48 137.73 1050.48 138.95C1050.53 149.51 1050.53 160.07 1050.51 170.62C1050.48 186.22 1050.43 201.81 1050.39 217.41C1050.39 217.64 1050.35 217.88 1050.32 218.1C1048.68 218.59 1030.07 218.74 1026.59 218.29C1026.59 170.91 1026.59 123.52 1026.59 75.91Z" fill="#343441"></path> <path d="M939.388 97.45C944.768 97.78 949.808 97.96 954.808 98.43C968.118 99.69 980.688 103.31 991.828 110.95C1005.34 120.22 1013.5 132.9 1015.41 149.28C1016.6 159.45 1016.25 169.56 1012.72 179.32C1007.88 192.73 998.748 202.41 986.388 209.19C977.748 213.93 968.448 216.62 958.708 217.92C947.968 219.35 937.198 219.35 926.398 219.05C922.978 218.96 919.548 219.04 915.988 219.04C915.988 171.08 915.988 123.47 915.988 75.69C923.728 75.69 931.438 75.69 939.378 75.69C939.388 82.91 939.388 90.13 939.388 97.45ZM939.538 210.11C944.318 210.11 948.908 210.49 953.408 210.03C960.958 209.25 968.318 207.37 975.478 204.8C995.028 197.8 1004.74 183.27 1006.9 163.23C1007.5 157.69 1006.88 152.09 1005.73 146.58C1002.49 131.1 993.868 119.99 979.278 113.61C973.178 110.94 966.788 109.34 960.328 107.86C953.448 106.29 946.588 106.43 939.538 107.07C939.538 141.31 939.538 175.49 939.538 210.11Z" fill="#343441"></path> <path d="M711.238 219.41C711.238 171.15 711.238 123.12 711.238 74.95C711.848 74.9 712.378 74.82 712.908 74.82C734.898 74.84 756.888 74.87 778.878 74.9C779.038 74.9 779.198 74.9 779.358 74.91C782.308 74.98 784.058 76.56 784.078 79.17C784.098 81.73 782.118 83.75 779.308 83.82C775.068 83.94 770.828 83.97 766.598 83.98C757.078 84 747.568 83.98 738.048 83.98C737.258 83.98 736.468 83.98 735.508 83.98C735.508 95.57 735.508 107.03 735.508 118.67C736.088 118.73 736.688 118.85 737.288 118.85C750.168 118.86 763.038 118.88 775.918 118.84C779.198 118.83 782.468 118.58 785.748 118.59C787.908 118.6 789.728 120.29 790.108 122.36C790.478 124.32 789.418 126.36 787.438 127.22C786.658 127.56 785.758 127.72 784.898 127.75C781.228 127.88 777.548 128.01 773.868 127.98C761.958 127.9 750.038 127.76 738.128 127.65C737.248 127.64 736.378 127.65 735.528 127.65C735.048 129.42 734.928 206.94 735.398 210.02C735.978 210.05 736.588 210.12 737.208 210.12C750.958 210.16 764.718 210.19 778.468 210.23C778.868 210.23 779.268 210.22 779.668 210.23C782.408 210.3 784.338 212.07 784.408 214.58C784.468 217.09 782.408 219.23 779.658 219.26C771.898 219.36 764.148 219.4 756.388 219.41C742.158 219.43 727.918 219.4 713.688 219.39C712.898 219.4 712.118 219.41 711.238 219.41Z" fill="#343441"></path> <path d="M300.258 218.5C291.848 218.5 283.888 218.5 275.828 218.5C275.828 170.63 275.828 122.91 275.828 75.01C276.448 74.94 277.048 74.82 277.648 74.82C296.438 74.84 315.238 74.86 334.028 74.92C335.048 74.92 336.108 75.09 337.068 75.42C338.968 76.07 340.118 78.05 339.878 79.95C339.618 82.03 337.808 83.84 335.728 83.89C331.648 84 327.568 84.03 323.498 84.03C316.458 84.04 309.418 84.01 302.388 84C301.758 84 301.128 84 300.248 84C300.258 128.86 300.258 173.6 300.258 218.5Z" fill="#343441"></path> <path d="M535.34 33.26C535.39 20.94 545.01 11.38 557.3 11.44C569.88 11.5 579.48 21.04 579.39 33.38C579.31 45.59 569.56 55.17 557.27 55.13C544.94 55.09 535.29 45.47 535.34 33.26ZM573.44 33.25C573.46 24.19 566.46 17.05 557.44 16.92C548.56 16.79 541.25 24.18 541.2 33.32C541.15 42.36 548.24 49.5 557.25 49.5C566.54 49.5 573.42 42.59 573.44 33.25Z" fill="#525F3F"></path> <path d="M380.322 11.44C393.002 11.46 402.462 20.8 402.452 33.28C402.442 45.55 392.812 55.14 380.512 55.13C368.162 55.12 358.392 45.48 358.442 33.36C358.492 21 368.062 11.41 380.322 11.44ZM380.292 49.5C389.562 49.53 396.572 42.59 396.602 33.34C396.642 24.21 389.482 16.95 380.422 16.92C371.562 16.89 364.462 24.12 364.402 33.23C364.342 42.42 371.232 49.47 380.292 49.5Z" fill="#525F3F"></path> <path d="M280.908 42.66C286.548 49.29 293.438 51.07 301.348 48.39C307.038 46.47 310.348 42.31 311.348 36.12C310.648 36.05 310.058 35.95 309.468 35.94C304.748 35.93 300.028 35.94 295.308 35.93C294.368 35.93 293.068 36.2 292.858 35.03C292.618 33.69 292.828 32.23 293.108 30.87C293.168 30.56 294.348 30.33 295.008 30.33C299.568 30.28 304.128 30.31 308.688 30.31C309.478 30.31 310.268 30.31 311.258 30.31C311.068 27.57 310.098 25.36 308.568 23.37C302.338 15.28 289.468 14.74 282.568 22.27C282.038 22.85 281.528 23.44 280.918 24.12C280.378 23.75 279.928 23.45 279.488 23.13C278.528 22.43 277.568 21.72 276.488 20.93C277.578 19.11 278.918 17.67 280.448 16.39C288.638 9.57 303.388 9.39 311.598 17.95C317.878 24.5 319.248 32.23 316.458 40.59C313.748 48.7 307.908 53.46 299.358 54.78C294.588 55.52 289.968 55.08 285.478 53.3C282.688 52.19 280.288 50.49 278.238 48.31C276.498 46.47 276.528 46.05 278.458 44.53C279.208 43.94 279.978 43.37 280.908 42.66Z" fill="#525F3F"></path> <path d="M436.08 26.17C437.06 25.32 437.66 24.83 438.22 24.3C441.9 20.86 445.61 17.46 449.22 13.94C450.4 12.79 451.59 12.17 453.24 12.36C454.11 12.46 455 12.31 455.87 12.41C456.27 12.46 456.82 12.74 456.97 13.07C457.11 13.4 456.94 13.98 456.72 14.33C456.42 14.78 455.93 15.11 455.52 15.49C449.97 20.67 444.42 25.84 438.75 31.14C439.18 31.67 439.52 32.17 439.94 32.61C445.74 38.78 451.55 44.95 457.36 51.11C457.74 51.52 458.19 51.89 458.48 52.35C458.96 53.11 458.54 54.07 457.63 54.13C456.04 54.22 454.42 54.26 452.85 54.07C452.26 54 451.71 53.28 451.23 52.78C446.94 48.26 442.66 43.72 438.4 39.17C437.81 38.54 437.31 37.81 436.77 37.12C436.61 37.21 436.44 37.31 436.28 37.4C436.22 37.91 436.1 38.41 436.09 38.92C436.07 43.08 436.09 47.23 436.08 51.39C436.07 54.1 436 54.17 433.2 54.17C432.72 54.17 432.24 54.2 431.76 54.15C430.83 54.07 430.33 53.53 430.29 52.59C430.27 52.11 430.28 51.63 430.28 51.15C430.28 39.24 430.28 27.33 430.28 15.42C430.28 15.02 430.26 14.62 430.29 14.22C430.39 12.72 430.64 12.41 432.17 12.38C436.41 12.3 436.12 12.26 436.09 15.99C436.07 19.2 436.08 22.39 436.08 26.17Z" fill="#525F3F"></path> <path d="M331.91 25.86C333.13 24.72 334.35 23.58 335.56 22.44C338.65 19.54 341.77 16.68 344.81 13.73C345.79 12.78 346.79 12.23 348.19 12.36C349.22 12.46 350.27 12.32 351.3 12.42C351.69 12.46 352.23 12.8 352.35 13.14C352.47 13.48 352.26 14.04 352.02 14.39C351.71 14.84 351.23 15.17 350.82 15.55C345.68 20.35 340.53 25.14 335.39 29.94C334.99 30.32 334.57 30.68 334.03 31.16C334.6 31.81 335.04 32.34 335.51 32.85C341.15 38.85 346.8 44.84 352.44 50.83C352.71 51.12 352.98 51.42 353.26 51.7C353.78 52.22 354.42 52.81 353.81 53.53C353.48 53.92 352.76 54.14 352.2 54.16C348.03 54.37 348.02 54.34 345.21 51.35C341.32 47.22 337.43 43.09 333.53 38.96C333 38.4 332.44 37.88 331.6 37.06C331.53 38.05 331.45 38.65 331.45 39.25C331.44 43.41 331.46 47.56 331.44 51.72C331.43 53.97 331.23 54.15 328.97 54.18C328.49 54.19 328.01 54.21 327.53 54.17C326.08 54.07 325.73 53.73 325.65 52.28C325.61 51.56 325.64 50.84 325.64 50.12C325.64 38.69 325.64 27.26 325.64 15.83C325.64 15.27 325.63 14.71 325.65 14.15C325.66 13.84 325.63 13.45 325.8 13.23C327.02 11.63 328.74 12.53 330.24 12.45C331.25 12.39 331.45 13.29 331.45 14.16C331.44 17.52 331.45 20.87 331.45 24.23C331.45 24.69 331.45 25.15 331.45 25.6C331.59 25.7 331.75 25.78 331.91 25.86Z" fill="#525F3F"></path> <path d="M508.282 35.64C508.282 40.77 508.282 45.79 508.282 50.82C508.282 54.16 508.142 54.29 504.732 54.18C502.792 54.12 502.552 53.91 502.542 51.91C502.522 45.59 502.532 39.28 502.532 32.96C502.532 26.96 502.522 20.97 502.532 14.97C502.542 12.5 502.642 12.39 505.102 12.39C509.022 12.4 512.942 12.39 516.852 12.51C518.432 12.56 520.062 12.76 521.572 13.21C526.992 14.8 529.802 19.42 529.202 25.48C528.682 30.68 524.762 34.47 519.122 35C515.632 35.33 512.122 35.42 508.282 35.64ZM508.362 29.7C511.772 29.7 515.042 29.91 518.262 29.64C521.532 29.36 523.432 26.95 523.412 23.81C523.382 20.67 521.432 18.58 518.102 18.15C517.552 18.08 516.992 17.98 516.442 17.95C513.772 17.84 511.102 17.77 508.372 17.98C508.362 21.98 508.362 25.72 508.362 29.7Z" fill="#525F3F"></path> <path d="M465.882 45.5C467.222 46.67 468.342 47.69 469.512 48.66C470.742 49.68 472.182 49.79 473.572 49.2C475.182 48.52 475.812 46.94 476.212 45.41C476.362 44.85 475.812 44.08 475.522 43.44C471.292 34.14 467.042 24.85 462.802 15.56C461.492 12.68 461.662 12.4 464.732 12.39C465.682 12.39 466.642 12.39 467.732 12.39C471.532 20.84 475.322 29.24 479.322 38.12C482.982 29.19 486.422 20.81 489.942 12.24C491.242 12.24 492.502 12.19 493.762 12.25C495.442 12.33 495.832 12.95 495.142 14.58C492.762 20.25 490.342 25.89 487.942 31.55C485.512 37.28 482.882 42.94 480.692 48.76C477.662 56.81 469.022 56.36 464.882 52.26C464.202 51.58 463.502 50.93 462.852 50.23C462.192 49.53 462.222 48.79 462.932 48.13C463.862 47.27 464.822 46.44 465.882 45.5Z" fill="#525F3F"></path> <path d="M592.959 35.45C592.959 40.85 592.959 45.88 592.959 50.91C592.959 51.47 593.009 52.04 592.939 52.59C592.789 53.99 592.399 54.18 590.059 54.18C587.759 54.18 587.369 53.96 587.209 52.54C587.159 52.07 587.199 51.58 587.199 51.1C587.199 39.18 587.199 27.26 587.199 15.35C587.199 15.11 587.189 14.87 587.199 14.63C587.259 12.65 587.449 12.4 589.419 12.4C593.499 12.4 597.579 12.43 601.659 12.5C602.689 12.52 603.729 12.66 604.749 12.85C610.719 13.96 614.199 18.3 614.039 24.37C613.879 30.09 609.909 34.34 603.979 34.98C601.279 35.27 598.559 35.31 595.839 35.44C594.969 35.48 594.109 35.45 592.959 35.45ZM593.059 29.77C596.259 29.77 599.209 29.82 602.159 29.74C603.089 29.71 604.069 29.45 604.929 29.09C607.039 28.19 608.389 25.72 608.169 23.42C607.939 20.98 606.329 18.83 604.059 18.36C600.449 17.61 596.799 17.82 593.049 17.95C593.059 21.96 593.059 25.76 593.059 29.77Z" fill="#525F3F"></path> <path d="M632.672 17.88C632.672 18.99 632.672 19.85 632.672 20.71C632.672 30.77 632.672 40.8399 632.672 50.8999C632.672 51.5399 632.772 52.21 632.602 52.8C632.462 53.27 632.022 53.9699 631.652 54.0099C630.402 54.1699 629.102 54.1699 627.852 54.0299C627.482 53.9899 627.022 53.32 626.892 52.85C626.722 52.26 626.822 51.5799 626.822 50.9499C626.822 40.8899 626.822 30.8199 626.822 20.7599C626.822 19.8999 626.822 19.0399 626.822 17.8699C624.452 17.8699 622.322 17.89 620.192 17.86C618.022 17.84 617.892 17.6899 617.852 15.5399C617.852 15.2999 617.852 15.06 617.852 14.82C617.882 12.54 618.002 12.39 620.322 12.38C626.632 12.37 632.942 12.36 639.252 12.38C641.422 12.39 641.512 12.51 641.542 14.74C641.552 15.06 641.552 15.3799 641.542 15.6999C641.492 17.6699 641.342 17.83 639.292 17.86C637.222 17.9 635.152 17.88 632.672 17.88Z" fill="#525F3F"></path> <path d="M415.32 40.74C413.41 40.74 411.49 40.75 409.58 40.74C407.2 40.72 407.04 40.55 407.06 38.1C407.06 37.86 407.07 37.62 407.06 37.38C407.03 36.21 407.56 35.59 408.76 35.59C413.15 35.59 417.54 35.56 421.92 35.61C423.31 35.62 423.67 36.07 423.77 37.52C423.8 37.92 423.79 38.32 423.77 38.72C423.68 40.35 423.38 40.7 421.78 40.73C419.63 40.77 417.47 40.74 415.32 40.74Z" fill="#525F3F"></path> <path d="M161.799 166.82C159.539 166.51 157.329 166.17 155.109 165.9C153.529 165.71 151.929 165.37 150.359 165.48C142.949 166.01 135.709 165.06 128.459 163.62C118.189 161.58 108.009 159.22 97.939 156.37C92.159 154.73 86.459 152.89 81.479 149.35C78.419 147.18 76.259 144.43 75.679 140.62C75.319 138.28 75.6589 136 76.3289 133.76C78.3589 126.92 82.3089 121.3 87.3289 116.31C91.0389 112.62 95.239 109.62 99.689 106.89C102.129 105.4 104.429 103.62 106.579 101.74C109.269 99.38 109.759 96.3 108.619 92.97C107.009 88.26 103.719 84.77 100.049 81.63C94.3389 76.74 88.269 72.31 81.969 68.2C79.359 66.5 76.839 64.67 74.949 62.1C71.899 57.95 72.399 54.19 76.409 51.04C80.149 48.09 84.2789 47.44 88.8289 48.67C93.6789 49.98 98.059 52.29 102.189 55.05C110.459 60.57 118.049 66.93 124.939 74.11C129.129 78.48 131.839 83.65 132.809 89.69C133.639 94.86 132.589 99.71 130.539 104.4C126.889 112.71 120.999 119.04 113.339 123.85C109.219 126.44 105.209 129.23 101.279 132.11C99.899 133.12 98.719 134.53 97.749 135.97C96.609 137.66 97.009 139.08 98.889 139.89C100.699 140.67 102.649 141.31 104.599 141.58C115.319 143.09 125.669 146.11 136.009 149.15C141.829 150.86 147.659 152.61 153.329 154.76C156.889 156.11 160.199 158.14 163.509 160.07C164.779 160.81 165.869 161.99 166.789 163.17C167.919 164.62 167.549 165.72 165.789 166.27C164.519 166.63 163.129 166.64 161.799 166.82Z" fill="#B4C97F"></path> <path d="M144.561 81.55C135.361 81.51 128.261 74.28 128.301 65.01C128.341 56.3 135.731 48.97 144.411 49.05C153.591 49.13 160.911 56.29 160.821 65.24C160.721 75.58 151.941 82.01 144.561 81.55Z" fill="#B4C97F"></path> </svg> 