<svg width="34" height="34" viewBox="0 0 34 34" fill="none" xmlns="http://www.w3.org/2000/svg">
<path d="M30.5918 8.63233C30.364 8.15586 29.793 7.95445 29.3168 8.18229L27.2919 9.15076C27.4939 10.0109 27.2699 10.8841 26.7448 11.5321L30.1418 9.90739C30.6181 9.67962 30.8197 9.10873 30.5918 8.63233ZM27.0245 30.8185C28.5799 30.4192 29.7294 29.0079 29.7294 27.3281C29.7294 25.8106 28.7909 24.5132 27.4631 23.9821L25.0261 12.5524L23.1914 13.1172L25.4334 23.6326L19.3212 22.8202L17.9347 26.9658C17.4068 28.5444 15.702 29.3799 14.1411 28.8579C13.6596 28.6974 13.227 28.4164 12.8846 28.0417C12.5533 29.6917 11.0965 30.9346 9.34902 30.9346C7.35716 30.9346 5.7425 29.3199 5.7425 27.3281C5.7425 25.3362 7.35716 23.7216 9.34902 23.7216C10.4567 23.7216 11.4475 24.2212 12.1089 25.0072L13.0277 21.9838L11.6402 18.638L12.9125 18.6196L10.2693 16.6165L15.7251 18.8712L13.5126 25.487C13.2208 26.3593 13.6915 27.3028 14.5637 27.5946C15.4366 27.8864 16.3798 27.415 16.6712 26.5434L19.373 18.4648C19.6492 17.6395 19.2431 16.7407 18.4412 16.4023L15.3353 15.0915L16.9549 12.763L14.3531 9.16789L18.4121 12.4883C18.5893 12.6332 18.7994 12.732 19.024 12.776C19.2485 12.82 19.4805 12.8078 19.6992 12.7404L24.9983 11.1091C25.7308 10.8836 26.1418 10.1069 25.9163 9.37448C25.6907 8.64196 24.9143 8.2309 24.1816 8.45648L19.5936 9.86894L16.1105 7.01978L19.2315 8.43942C19.1424 7.93041 18.864 7.45428 18.4149 7.12583L15.5039 4.99712C14.5407 4.29288 13.1827 4.54794 12.54 5.55161L7.86949 12.8451C7.12766 14.0035 7.62843 15.5426 8.88889 16.0551L9.52772 16.3149L7.52809 16.3125C6.88594 16.3125 6.36532 16.833 6.36532 17.4752C6.36532 18.1175 6.88594 18.638 7.52809 18.638H9.57022L10.7389 21.4562C10.2835 21.3484 9.81709 21.2938 9.34908 21.2935C6.01629 21.2935 3.31448 23.9953 3.31448 27.3281C3.31448 29.0937 4.07291 30.6819 5.28137 31.7853L4.37253 32.6942C4.07384 32.9929 4.07384 33.4772 4.37253 33.7759C4.6713 34.0746 5.1556 34.0746 5.45429 33.7759L6.55405 32.6761C7.41628 33.1281 8.37544 33.3637 9.34895 33.3627C12.4153 33.3627 25.1192 31.0642 25.1192 31.0642L27.7861 33.7719C28.0825 34.0728 28.5669 34.0765 28.8678 33.78C29.1688 33.4837 29.1724 32.9993 28.876 32.6984L27.0245 30.8185Z" fill="#274D60" fill-opacity="0.3"/>
<path d="M19.8926 6.12651C21.5844 6.12651 22.9558 4.75504 22.9558 3.06325C22.9558 1.37147 21.5844 0 19.8926 0C18.2008 0 16.8293 1.37147 16.8293 3.06325C16.8293 4.75504 18.2008 6.12651 19.8926 6.12651Z" fill="#274D60" fill-opacity="0.3"/>
</svg>
