<svg width="34" height="34" viewBox="0 0 34 34" fill="none" xmlns="http://www.w3.org/2000/svg">
<path d="M26.9609 17.9961C23.1166 17.9961 19.9883 21.1244 19.9883 24.9688C19.9883 28.8131 23.1166 31.9414 26.9609 31.9414C30.8053 31.9414 34 28.8131 34 24.9688C34 21.1244 30.8053 17.9961 26.9609 17.9961ZM30.6535 24.6769L26.6691 28.6613C26.4745 28.8558 26.2196 28.9531 25.9648 28.9531C25.71 28.9531 25.4551 28.8558 25.2606 28.6613L23.2684 26.6691C22.8793 26.28 22.8793 25.6496 23.2684 25.2605C23.6575 24.8715 24.2879 24.8715 24.677 25.2605L25.9648 26.5485L29.245 23.2684C29.6341 22.8793 30.2644 22.8793 30.6535 23.2684C31.0426 23.6574 31.0426 24.2878 30.6535 24.6769Z" fill="#274D60" fill-opacity="0.3"/>
<path d="M10.7481 24.674C11.8833 25.6215 13.0905 26.6292 14.36 27.7168C14.5458 27.8773 14.7773 27.957 15.0078 27.957C15.2384 27.957 15.4699 27.8773 15.6557 27.7168C16.4914 27.0008 17.2888 26.3301 18.0677 25.6778C18.0486 25.4398 17.9961 25.2116 17.9961 24.9688C17.9961 20.0253 22.0175 16.0039 26.9609 16.0039C27.3488 16.0039 27.7184 16.0703 28.0934 16.1183C29.2765 14.375 29.9492 12.5869 29.9492 10.5409C29.9492 5.70543 26.5232 2.05859 21.9805 2.05859C18.5038 2.05859 16.2374 4.36887 15.0078 6.52255C13.7782 4.36887 11.5118 2.05859 8.03516 2.05859C3.49244 2.05859 0 5.70543 0 10.5409C0 15.7568 4.31634 19.3044 10.7481 24.674ZM9.03125 14.0117H10.4077L12.1246 10.5779C12.3114 10.2063 12.7034 9.9865 13.1246 10.0332C13.3269 10.0555 13.5174 10.1393 13.6707 10.2732C13.8239 10.4071 13.9324 10.5847 13.9816 10.7822L15.3211 16.1381L16.109 14.5623C16.1917 14.3969 16.3189 14.2577 16.4763 14.1605C16.6337 14.0633 16.815 14.0117 17 14.0117H20.9844C21.5349 14.0117 21.9805 14.4572 21.9805 15.0078C21.9805 15.5584 21.5349 16.0039 20.9844 16.0039H17.6157L15.8989 19.4377C15.816 19.6031 15.6888 19.7421 15.5314 19.8394C15.3741 19.9366 15.1928 19.9882 15.0078 19.9883C14.7857 19.9883 14.5699 19.914 14.3949 19.7772C14.2198 19.6404 14.0956 19.449 14.0419 19.2334L12.7024 13.8775L11.9145 15.4533C11.8317 15.6188 11.7045 15.7579 11.5471 15.8551C11.3898 15.9524 11.2084 16.0039 11.0234 16.0039H9.03125C8.48068 16.0039 8.03516 15.5584 8.03516 15.0078C8.03516 14.4572 8.48068 14.0117 9.03125 14.0117Z" fill="#274D60" fill-opacity="0.3"/>
</svg>
