<svg width="30" height="30" viewBox="0 0 30 30" fill="none" xmlns="http://www.w3.org/2000/svg">
<path d="M12.365 18.2194L11.7806 20.5887C11.7275 20.78 11.6319 20.95 11.4937 21.0881L9.36873 23.1919C9.16952 23.3895 8.90028 23.5004 8.61967 23.5004C8.33906 23.5004 8.06982 23.3895 7.87061 23.1919C7.77159 23.0925 7.69325 22.9744 7.64014 22.8446C7.58703 22.7147 7.56019 22.5756 7.56118 22.4353C7.56217 22.295 7.59096 22.1563 7.6459 22.0272C7.70083 21.898 7.78082 21.7811 7.88123 21.6831L9.78311 19.7812L10.4206 17.2312L12.365 18.2194ZM9.28373 4.89562C8.66748 5.43749 8.26373 6.17062 8.14686 7.00999L7.44561 11.9187L5.70311 11.6212C4.87436 11.4725 4.28998 10.7075 4.38561 9.86812L4.83186 5.78812C4.88498 5.35249 5.11873 4.94874 5.46936 4.68312C5.83061 4.42812 6.28748 4.32187 6.72311 4.40687L9.28373 4.89562Z" fill="#274D60" fill-opacity="0.3"/>
<path d="M21.375 8.62498C21.375 8.90677 21.263 9.17702 21.0638 9.37628C20.8645 9.57554 20.5943 9.68748 20.3125 9.68748H16.0625C15.9137 9.68748 15.7661 9.65667 15.6301 9.59611L14.4347 9.06379L13.5072 14.6313L15.4866 15.6502C15.8404 15.8309 16.0625 16.1953 16.0625 16.5937V21.375C16.0625 21.6568 15.9505 21.927 15.7513 22.1263C15.552 22.3255 15.2818 22.4375 15 22.4375C14.7182 22.4375 14.4479 22.3255 14.2487 22.1263C14.0494 21.927 13.9375 21.6568 13.9375 21.375V17.2419L9.85749 15.1402C9.51389 14.9636 9.23388 14.6843 9.0564 14.3412C8.87892 13.998 8.8128 13.6081 8.86724 13.2256L9.72468 7.22992C9.76419 6.94482 9.86991 6.67293 10.0334 6.43602C10.1969 6.19912 10.4135 6.00379 10.666 5.86567C10.9175 5.72543 11.1982 5.64596 11.4858 5.6336C11.7734 5.62124 12.06 5.67633 12.3225 5.79448L16.2888 7.56248H20.3125C20.5943 7.56248 20.8645 7.67442 21.0638 7.87368C21.263 8.07294 21.375 8.34319 21.375 8.62498Z" fill="#274D60" fill-opacity="0.3"/>
<path d="M19.251 21.375C19.1385 21.375 19.0272 21.3512 18.9245 21.3051C18.8218 21.259 18.7301 21.1917 18.6553 21.1076C18.5805 21.0235 18.5244 20.9245 18.4907 20.8171C18.4569 20.7097 18.4463 20.5964 18.4595 20.4846L19.522 11.4534C19.5336 11.3493 19.5657 11.2485 19.6165 11.1568C19.6674 11.0652 19.7359 10.9846 19.8181 10.9197C19.9004 10.8547 19.9947 10.8068 20.0956 10.7786C20.1965 10.7503 20.302 10.7425 20.406 10.7553C20.51 10.7673 20.6105 10.7997 20.7019 10.8507C20.7934 10.9017 20.8738 10.9702 20.9387 11.0523C21.0035 11.1344 21.0515 11.2286 21.0799 11.3293C21.1083 11.4301 21.1165 11.5354 21.104 11.6393L20.0415 20.6706C20.0189 20.8644 19.9259 21.0432 19.7802 21.1731C19.6345 21.3029 19.4462 21.3748 19.251 21.375Z" fill="#274D60" fill-opacity="0.3"/>
<path d="M29.875 22.7616V29.875H0.125V26.6875L4.596 24.6124C4.66573 24.5794 4.74196 24.5623 4.81913 24.5625H10.3059C10.3834 24.5625 10.4599 24.5455 10.5301 24.5126L12.6051 23.5489C12.6752 23.5169 12.7512 23.5003 12.8283 23.5H17.1707C17.2482 23.5 17.3247 23.483 17.3949 23.4501L21.7533 21.426C21.8267 21.3917 21.8913 21.3412 21.9424 21.2783L25.183 17.2663C25.2573 17.1738 25.3606 17.1091 25.4763 17.0825L29.875 16.0625V20.9181L27.2687 22.4375H25.3594C25.2547 22.4374 25.1511 22.458 25.0545 22.4981C24.9578 22.5383 24.8701 22.5971 24.7962 22.6712L22.6712 24.7962C22.526 24.9465 22.4456 25.1477 22.4473 25.3567C22.449 25.5656 22.5327 25.7655 22.6804 25.9133C22.8281 26.0611 23.0279 26.1451 23.2369 26.147C23.4458 26.1489 23.6471 26.0687 23.7975 25.9236L25.6887 24.0323H27.4833C27.6246 24.0326 27.7633 23.9948 27.8849 23.9229L29.875 22.7616ZM17.125 2.78125C17.125 3.48573 16.8451 4.16136 16.347 4.6595C15.8489 5.15765 15.1732 5.4375 14.4688 5.4375C13.7643 5.4375 13.0886 5.15765 12.5905 4.6595C12.0924 4.16136 11.8125 3.48573 11.8125 2.78125C11.8125 2.07677 12.0924 1.40114 12.5905 0.902998C13.0886 0.404854 13.7643 0.125 14.4688 0.125C15.1732 0.125 15.8489 0.404854 16.347 0.902998C16.8451 1.40114 17.125 2.07677 17.125 2.78125Z" fill="#274D60" fill-opacity="0.3"/>
</svg>
