<svg width="32" height="32" viewBox="0 0 32 32" fill="none" xmlns="http://www.w3.org/2000/svg">
<path d="M8.40816 13.9355C6.86091 12.3882 6.71723 9.96087 7.97691 8.25H3.6433C2.23037 8.25 1.08081 9.39956 1.08081 10.8125V29.4374C1.08081 30.8503 2.23037 31.9999 3.6433 31.9999H12.8933C14.3062 31.9999 15.4558 30.8503 15.4558 29.4374V19.3925C14.3726 19.3373 13.3621 18.8895 12.5896 18.117L8.40816 13.9355ZM11.4981 27.3124C11.4981 27.8302 11.0784 28.2499 10.5606 28.2499C10.0429 28.2499 9.62315 27.8302 9.62315 27.3124V24.4999H6.91341V27.3124C6.91341 27.8302 6.49366 28.2499 5.97592 28.2499C5.45817 28.2499 5.03842 27.8302 5.03842 27.3124V19.8125C5.03842 19.2947 5.45817 18.875 5.97592 18.875C6.49366 18.875 6.91341 19.2947 6.91341 19.8125V22.6249H9.62315V19.8125C9.62315 19.2947 10.0429 18.875 10.5606 18.875C11.0784 18.875 11.4981 19.2947 11.4981 19.8125V27.3124Z" fill="#274D60" fill-opacity="0.3"/>
<path d="M30.9089 24.5242L30.3755 21.5835L28.2997 20.5525L27.8345 19.0424L26.3244 18.5772L25.8593 17.0672L24.3492 16.602L23.884 15.0919L21.5931 12.801C21.6292 12.717 21.6635 12.6321 21.6958 12.5465L22.4488 11.7935C23.4251 10.8172 23.4251 9.23428 22.4488 8.25797L18.2673 4.07655C17.602 3.41124 16.6551 3.19974 15.8104 3.44117C16.3765 4.43311 16.7004 5.58035 16.7004 6.80197C16.7004 7.87397 16.4443 8.94222 15.9598 9.89115C15.7941 10.2157 15.4651 10.4025 15.124 10.4026C14.976 10.4026 14.8302 10.3673 14.6985 10.2998C14.2374 10.0644 14.0544 9.49971 14.2898 9.03859C14.6451 8.34259 14.8253 7.5901 14.8253 6.80204C14.8259 6.01339 14.6359 5.23628 14.2715 4.53686L9.73394 9.0744C8.75763 10.0507 8.75763 11.6336 9.73394 12.61L13.9154 16.7914C14.8917 17.7677 16.4747 17.7677 17.451 16.7914L18.204 16.0384C18.2896 16.0062 18.3745 15.9719 18.4585 15.9358L27.241 24.7182L30.1825 25.2509C30.6119 25.3285 30.9867 24.9535 30.9089 24.5242ZM15.8104 3.44111C14.6384 1.38749 12.4275 0 9.8985 0C6.27995 0 3.31278 2.8403 3.10822 6.40847C3.28576 6.38658 3.46445 6.37541 3.64334 6.37504H4.99121C5.20846 3.85761 7.32564 1.87499 9.8985 1.87499C11.7987 1.87499 13.45 2.95705 14.2716 4.53673L14.7319 4.07648C15.0313 3.77622 15.4026 3.5575 15.8104 3.44111Z" fill="#274D60" fill-opacity="0.3"/>
</svg>
