<svg width="34" height="34" viewBox="0 0 34 34" fill="none" xmlns="http://www.w3.org/2000/svg">
<path d="M33.6971 5.18584C33.6753 5.14447 33.6456 5.1078 33.6096 5.07795C33.5736 5.04809 33.532 5.02562 33.4873 5.01184C33.4427 4.99805 33.3957 4.99321 33.3491 4.9976C33.3026 5.00199 33.2573 5.01552 33.216 5.03742L31.9773 5.68237L31.3169 5.24731C31.2373 5.19573 31.1406 5.17757 31.0477 5.19673C30.9548 5.21589 30.8731 5.27084 30.8204 5.3497C30.7937 5.38875 30.7751 5.43278 30.7658 5.47917C30.7565 5.52555 30.7566 5.57334 30.7662 5.61968C30.7757 5.66602 30.7945 5.70995 30.8214 5.74887C30.8483 5.78778 30.8828 5.82087 30.9228 5.84616L31.2504 6.06121L15.8532 13.9748L14.8704 12.0961L15.6792 11.6764C15.799 11.7869 15.9476 11.8614 16.1078 11.8913C16.2681 11.9212 16.4335 11.9053 16.5851 11.8453L20.5675 10.2943C20.6145 10.2758 20.657 10.2476 20.6923 10.2115C20.7276 10.1754 20.7548 10.1322 20.7722 10.0848C20.7896 10.0374 20.7968 9.9869 20.7933 9.93655C20.7898 9.88619 20.7757 9.83715 20.7518 9.79265L19.0524 6.54741C19.0288 6.50306 18.9962 6.46417 18.9565 6.43328C18.9169 6.40238 18.8712 6.38018 18.8225 6.36811C18.7737 6.35604 18.7229 6.35437 18.6735 6.36322C18.624 6.37207 18.577 6.39123 18.5354 6.41946L14.9932 8.80482C14.8586 8.89726 14.7521 9.02497 14.6853 9.17396C14.6185 9.32295 14.594 9.48746 14.6145 9.64946L10.4938 11.8095C10.361 11.7039 10.2004 11.6389 10.0314 11.6226C9.8625 11.6062 9.69243 11.6392 9.54178 11.7174L7.68878 12.69C7.64673 12.7111 7.60931 12.7404 7.57873 12.7761C7.54816 12.8119 7.52504 12.8534 7.51074 12.8982C7.49643 12.9431 7.49123 12.9903 7.49545 13.0372C7.49966 13.084 7.51319 13.1296 7.53526 13.1711L8.74847 15.4899C8.77026 15.532 8.80013 15.5694 8.83639 15.5999C8.87264 15.6304 8.91455 15.6534 8.95973 15.6677C9.00491 15.6819 9.05245 15.6871 9.09965 15.683C9.14684 15.6788 9.19275 15.6654 9.23474 15.6435L11.0877 14.6709C11.2303 14.5959 11.3496 14.4832 11.4326 14.3451C11.5156 14.2071 11.5591 14.0489 11.5585 13.8878V13.8366L12.3824 13.4015L13.35 15.2493L12.495 15.6845C11.848 16.0144 11.2572 16.4446 10.7445 16.959C10.5549 17.1486 10.033 17.476 8.66112 17.5374C8.61365 17.5395 8.56707 17.551 8.52408 17.5713C8.48109 17.5915 8.44253 17.62 8.41064 17.6553C8.37874 17.6905 8.35414 17.7317 8.33826 17.7765C8.32238 17.8212 8.31553 17.8687 8.31811 17.9162C8.32785 18.1487 8.26642 18.3786 8.14202 18.5752C8.01763 18.7719 7.8362 18.9259 7.62196 19.0167L3.99311 20.5319C3.39419 20.7827 2.97449 21.3458 2.87216 22.0368C2.8056 22.4618 2.40139 23.3318 0.440703 24.4631C0.399663 24.4866 0.363728 24.518 0.335004 24.5556C0.306281 24.5932 0.285347 24.6361 0.273429 24.6819C0.261512 24.7276 0.258851 24.7753 0.265602 24.8222C0.272353 24.869 0.288381 24.914 0.312745 24.9545L2.59048 28.8294C2.61865 28.8762 2.65704 28.916 2.70278 28.9458C2.74853 28.9757 2.80044 28.9948 2.85461 29.0017C2.90879 29.0086 2.96383 29.0032 3.01561 28.9858C3.06739 28.9684 3.11455 28.9395 3.15358 28.9013L8.90193 23.1069C9.13163 23.3111 9.22329 23.5234 9.46502 23.5113L11.5535 23.4089C11.6119 23.4072 11.6691 23.391 11.7198 23.3619C11.7705 23.3327 11.8132 23.2915 11.8441 23.2418C11.875 23.1922 11.8931 23.1356 11.8969 23.0773C11.9007 23.0189 11.8899 22.9605 11.8657 22.9073C11.8555 22.8868 11.0774 21.1004 11.7173 20.0255L11.8861 20.3428C12.0588 20.6738 12.3557 20.9228 12.7117 21.0351C13.0678 21.1474 13.4539 21.1138 13.7852 20.9417C14.2939 20.6734 14.6915 20.234 14.9078 19.7012C15.1242 19.1683 15.1454 18.5761 14.9677 18.0291L26.8431 11.487C27.0715 11.3586 27.2592 11.1687 27.385 10.9388C27.5108 10.709 27.5696 10.4485 27.5547 10.1869L27.4676 8.85091L33.5436 5.67217C33.5857 5.65048 33.6232 5.62065 33.6537 5.58441C33.6843 5.54817 33.7074 5.50623 33.7217 5.46101C33.736 5.4158 33.7412 5.3682 33.7369 5.32097C33.7327 5.27374 33.7192 5.22782 33.6971 5.18584ZM13.4525 20.3066C13.29 20.3898 13.1014 20.4058 12.9272 20.3512C12.753 20.2967 12.6072 20.1759 12.5212 20.0149L12.2652 19.5183L14.3281 18.382C14.4165 18.7545 14.3784 19.1458 14.2199 19.4943C14.0614 19.8427 13.7914 20.1285 13.4525 20.3066Z" fill="#274D60" fill-opacity="0.3"/>
</svg>
