<svg width="34" height="34" viewBox="0 0 34 34" fill="none" xmlns="http://www.w3.org/2000/svg">
<g clip-path="url(#clip0_2781_12)">
<path d="M20.3959 1.12687C19.9525 0.683539 19.2312 0.683539 18.788 1.12687C18.3434 1.57146 18.3433 2.29004 18.788 2.73463L31.2656 15.2122C31.7089 15.6555 32.4302 15.6556 32.8735 15.2122C33.3181 14.7676 33.3182 14.0491 32.8735 13.6045L20.3959 1.12687ZM16.6363 10.7263L2.8741 26.5279C1.62925 27.9559 1.86951 30.1689 3.39798 31.2922C4.60618 32.1816 6.31083 32.1384 7.47227 31.1264L23.2739 17.3641C20.0555 16.4672 17.5374 13.9605 16.6363 10.7263ZM1.30173 31.0907L0.399938 31.9926C-0.0433238 32.4359 -0.0433238 33.1571 0.399938 33.6005C0.8432 34.0438 1.5645 34.0438 2.0077 33.6005L2.90956 32.6986C2.24344 32.2987 1.68171 31.7235 1.30173 31.0907ZM18.5747 4.55954C17.5099 6.70327 17.4126 9.36323 18.555 11.7216C19.3559 13.3463 20.7242 14.7401 22.5034 15.5505C24.6886 16.5278 27.2506 16.5133 29.4408 15.4256L18.5747 4.55954ZM22.2206 0.91357L33.0868 11.7797C34.6118 8.70993 34.0295 4.9097 31.56 2.44025C29.0906 -0.0290668 25.2904 -0.61145 22.2206 0.91357ZM2.22843 12.9941C1.03651 12.9941 0.0667114 12.0244 0.0667114 10.8324C0.0667114 9.64041 1.03644 8.67068 2.22843 8.67068C3.42043 8.67068 4.39016 9.64041 4.39016 10.8324C4.39016 12.0244 3.42036 12.9941 2.22843 12.9941ZM9.43404 11.5961C8.24212 11.5961 7.27232 10.6264 7.27232 9.43442C7.27232 8.24243 8.24205 7.2727 9.43404 7.2727C10.626 7.2727 11.5958 8.24243 11.5958 9.43442C11.5958 10.6264 10.626 11.5961 9.43404 11.5961Z" fill="#274D60" fill-opacity="0.3"/>
<path d="M3.66949 11.553C3.27151 11.553 2.94891 11.2304 2.94891 10.8325V3.66988C2.9489 3.52586 2.99205 3.38515 3.07279 3.26589C3.15353 3.14664 3.26815 3.05431 3.40187 3.00084L10.6075 0.118605C11.0808 -0.070786 11.5957 0.27871 11.5957 0.787648V9.43441C11.5957 9.83238 11.2731 10.155 10.8752 10.155C10.4772 10.155 10.1546 9.83238 10.1546 9.43441V1.85194L4.39006 4.15776V10.8325C4.39006 11.2304 4.06746 11.553 3.66949 11.553ZM24.5659 33.9336C23.3739 33.9336 22.4042 32.9639 22.4042 31.7719C22.4042 30.5799 23.3739 29.6102 24.5659 29.6102C25.7578 29.6102 26.7276 30.5799 26.7276 31.7719C26.7276 32.9639 25.7578 33.9336 24.5659 33.9336ZM31.7715 32.5355C30.5796 32.5355 29.6098 31.5658 29.6098 30.3738C29.6098 29.1818 30.5795 28.2121 31.7715 28.2121C32.9634 28.2121 33.9332 29.1818 33.9332 30.3738C33.9332 31.5658 32.9635 32.5355 31.7715 32.5355Z" fill="#274D60" fill-opacity="0.3"/>
<path d="M26.0071 32.4925C25.6092 32.4925 25.2865 32.1699 25.2865 31.7719V24.6094C25.2865 24.4654 25.3296 24.3247 25.4104 24.2054C25.4911 24.0861 25.6057 23.9938 25.7395 23.9403L32.9451 21.0581C33.4175 20.8691 33.9333 21.2173 33.9333 21.7271V30.3739C33.9333 30.7719 33.6107 31.0945 33.2127 31.0945C32.8148 31.0945 32.4922 30.7719 32.4922 30.3739V22.7914L26.7276 25.0973V31.772C26.7276 32.1699 26.405 32.4925 26.0071 32.4925Z" fill="#274D60" fill-opacity="0.3"/>
</g>
<defs>
<clipPath id="clip0_2781_12">
<rect width="34" height="34" fill="white"/>
</clipPath>
</defs>
</svg>
