<svg width="34" height="34" viewBox="0 0 34 34" fill="none" xmlns="http://www.w3.org/2000/svg">
<path fill-rule="evenodd" clip-rule="evenodd" d="M23.3115 7.38313C22.8627 5.82117 22.8858 4.62213 22.5426 3.19787C22.0623 1.20513 19.6869 0.977053 18.2288 2.3699C17.9609 2.62585 17.7053 2.92274 17.46 3.24349C17.4533 3.25249 17.4443 3.2595 17.4339 3.26377C17.4236 3.26805 17.4122 3.26943 17.4011 3.26777C15.7328 3.04133 14.2398 4.33551 14.2398 6.02707C14.2398 7.56496 15.4866 8.81174 17.0245 8.81174C18.5624 8.81174 19.8092 7.56503 19.8092 6.02707C19.8092 5.24378 19.4857 4.53611 18.9651 4.03012C18.9584 4.02382 18.9532 4.0161 18.9499 4.00754C18.9466 3.99897 18.9453 3.98976 18.946 3.98061C18.9465 3.97144 18.949 3.96249 18.9534 3.95441C18.9578 3.94634 18.9639 3.93935 18.9713 3.93397C19.1707 3.78511 19.3745 3.67937 19.5844 3.62504C21.1318 3.22459 21.5267 5.02081 22.062 5.87693C22.3564 6.3479 22.7349 6.86653 23.2015 7.44052C23.2107 7.45193 23.2235 7.45978 23.2378 7.46274C23.2521 7.46569 23.267 7.46356 23.28 7.45671C23.293 7.45003 23.3032 7.43903 23.309 7.4256C23.3147 7.41217 23.3156 7.39715 23.3115 7.38313ZM22.0578 17.9953C21.0953 17.9953 20.3152 18.7755 20.3152 19.738C20.3152 20.7005 21.0954 21.4806 22.0578 21.4806C23.0203 21.4806 23.8004 20.7004 23.8004 19.738C23.8004 18.7756 23.0202 17.9953 22.0578 17.9953ZM17.8207 19.7602C18.616 20.0248 19.6827 21.5611 20.8823 21.8607C21.8388 22.0995 23.246 21.9867 23.836 21.6561L26.1887 20.3372C26.4699 20.1796 26.8221 20.3629 26.9786 20.6447C27.0822 20.8312 27.1276 20.9847 27.0632 21.2043C27.0112 21.3813 26.8774 21.4788 26.7403 21.6022C25.7697 22.4754 24.8839 22.8975 24.7645 23.9663C24.7633 23.9762 24.7645 23.9863 24.768 23.9957C24.7715 24.0051 24.7773 24.0135 24.7848 24.0201L28.1016 27.046C28.1177 27.0607 28.1248 27.0807 28.1216 27.1022C28.1201 27.1125 28.1161 27.1223 28.1099 27.1307C28.1037 27.1391 28.0955 27.1457 28.086 27.1501L26.2516 28.0164C26.2432 28.0202 26.2358 28.0259 26.2299 28.0329C26.224 28.04 26.2197 28.0483 26.2175 28.0572C26.2149 28.066 26.2144 28.0753 26.216 28.0844C26.2175 28.0934 26.2211 28.102 26.2265 28.1095C26.7771 28.9103 27.3819 29.6564 27.8512 30.3902C28.3729 31.206 26.8623 32.3922 25.8547 30.6416C25.852 30.6368 25.8487 30.6324 25.8448 30.6286L24.0709 28.834C24.0637 28.8266 24.0549 28.8211 24.045 28.818C24.0352 28.8148 24.0248 28.8142 24.0147 28.8162L23.2349 28.9555C23.224 28.9572 23.2139 28.9618 23.2054 28.9688C23.197 28.9759 23.1905 28.985 23.1868 28.9953C22.851 29.8796 22.9851 31.0487 23.01 31.6738C23.0505 32.6915 21.3969 32.7548 21.0813 31.2691C20.906 30.4437 20.8037 29.7479 20.7681 29.0691C20.7674 29.0541 20.7614 29.0399 20.7512 29.029C20.7409 29.0181 20.7271 29.0112 20.7123 29.0095L19.0897 28.8188C19.0807 28.8179 19.072 28.815 19.0642 28.8103C19.0565 28.8056 19.0499 28.7993 19.0448 28.7918C19.0396 28.7844 19.0361 28.7759 19.0345 28.767C19.0329 28.7581 19.0333 28.749 19.0357 28.7402L20.1519 24.372C20.1561 24.3565 20.154 24.34 20.1462 24.326C19.2928 22.757 17.1455 21.3068 16.9462 20.6273C16.8039 20.1424 17.2699 19.577 17.8207 19.7602ZM16.0146 19.7602C15.2194 20.0248 14.1527 21.5612 12.9531 21.8607C11.9966 22.0995 10.5893 21.9867 9.99935 21.6561L7.64655 20.3372C7.36537 20.1796 7.0132 20.3629 6.85666 20.6448C6.75303 20.8313 6.70767 20.9848 6.77207 21.2043C6.82402 21.3813 6.95784 21.4788 7.095 21.6022C8.13873 22.5412 9.08447 22.9585 9.08447 24.2195C9.06231 26.754 7.12369 28.6083 5.98415 30.3902C5.46225 31.2063 6.97396 32.3929 7.98158 30.6399C7.98364 30.6363 7.98608 30.6328 7.98886 30.6297L9.95501 28.3913C10.1445 28.1756 10.1641 28.0513 10.4382 28.0513C11.9416 28.0513 11.4339 30.8648 11.3976 31.7759C11.3571 32.7936 13.0107 32.857 13.3263 31.3712C13.7674 29.2949 13.7458 28.0387 13.3664 25.8087C13.0139 23.7365 16.6276 21.5187 16.8892 20.6273C17.0314 20.1423 16.5654 19.577 16.0146 19.7602ZM11.6998 17.9953C12.6622 17.9953 13.4424 18.7755 13.4424 19.738C13.4424 20.7005 12.6622 21.4806 11.6998 21.4806C10.7373 21.4806 9.95712 20.7004 9.95712 19.738C9.95712 18.7756 10.7373 17.9953 11.6998 17.9953ZM21.9739 14.9521C21.6749 14.555 21.1462 14.7775 21.1462 15.1919V17.2747C21.1464 17.2874 21.1426 17.2999 21.1355 17.3104C21.1283 17.3209 21.1181 17.329 21.1063 17.3335C20.1725 17.7035 19.5077 18.6003 19.4738 19.6518C19.473 19.6769 19.4588 19.6979 19.4358 19.7079C19.4128 19.7179 19.3878 19.714 19.3689 19.6975C18.9727 19.3517 18.5486 19.0207 18.1148 18.8764C17.7085 18.7412 17.3079 18.7801 16.9657 18.9365C16.9573 18.9405 16.948 18.9426 16.9387 18.9425C16.9293 18.9424 16.9201 18.9401 16.9118 18.9359C16.5582 18.7643 16.1395 18.7176 15.7147 18.8589C15.2403 19.0167 14.7797 19.3943 14.3535 19.7725C14.3445 19.7807 14.3332 19.786 14.3212 19.7879C14.3091 19.7898 14.2968 19.788 14.2857 19.7829C14.2745 19.7781 14.2649 19.77 14.2583 19.7598C14.2516 19.7496 14.2481 19.7376 14.2482 19.7254C14.2438 18.7797 13.7214 17.9456 12.9353 17.5089C12.9253 17.5036 12.917 17.4956 12.9113 17.4858C12.9055 17.4761 12.9026 17.4649 12.9027 17.4536V15.1919C12.9027 14.7775 12.374 14.555 12.075 14.9521L8.51974 19.6747C8.51057 19.687 8.49723 19.6955 8.48221 19.6987C8.4672 19.7018 8.45154 19.6994 8.4382 19.6918L8.11112 19.5085C7.64913 19.2495 7.12716 19.2858 6.69802 19.5183C6.67286 19.5319 6.64294 19.5275 6.62288 19.5072C6.60282 19.4869 6.59867 19.4569 6.61254 19.4319L11.0632 11.41C11.5346 10.5605 12.2785 10.0169 13.2311 9.8261C15.7714 9.31725 18.3005 9.31902 20.8185 9.82467C21.7705 10.0158 22.5138 10.5592 22.9849 11.4083L27.6084 19.7416C27.6238 19.7693 27.6166 19.8036 27.5913 19.8228C27.566 19.842 27.531 19.8396 27.5085 19.8173C27.0469 19.3594 26.3382 19.1856 25.7333 19.5247L25.5587 19.6225C25.5453 19.6301 25.5297 19.6325 25.5147 19.6293C25.4997 19.6262 25.4864 19.6177 25.4772 19.6054L21.9739 14.9521ZM16.8864 22.1585C16.3884 22.6508 15.8736 23.1148 15.3975 23.6289C14.9914 24.0676 14.1913 24.9928 14.3029 25.6494C14.6391 27.6253 14.712 29.0058 14.3968 30.8367C14.3952 30.8454 14.3955 30.8543 14.3976 30.8629C14.3998 30.8715 14.4038 30.8795 14.4093 30.8864C14.8209 31.4137 15.4612 31.7437 16.1771 31.7437H18.2548C18.9762 31.7437 19.6209 31.4055 20.0319 30.8723C20.0375 30.8654 20.0414 30.8573 20.0435 30.8487C20.0456 30.8401 20.0458 30.8311 20.0441 30.8224C19.9887 30.5169 19.9425 30.2098 19.9056 29.9015C19.904 29.8873 19.8977 29.8741 19.8876 29.864C19.8775 29.8539 19.8643 29.8475 19.8501 29.846L17.9237 29.6196C17.9147 29.6187 17.906 29.6158 17.8982 29.6111C17.8905 29.6064 17.8839 29.6001 17.8788 29.5925C17.8736 29.5852 17.8701 29.5767 17.8685 29.5678C17.8669 29.5589 17.8673 29.5497 17.8697 29.541L19.1528 24.5197C19.1551 24.5111 19.1555 24.502 19.154 24.4932C19.1525 24.4844 19.1491 24.4761 19.144 24.4687C18.6079 23.6698 17.6726 22.8452 16.9753 22.1584C16.9634 22.1467 16.9475 22.1402 16.9308 22.1402C16.9142 22.1403 16.8982 22.1468 16.8864 22.1585Z" fill="#274D60" fill-opacity="0.3"/>
</svg>
