<svg width="34" height="34" viewBox="0 0 34 34" fill="none" xmlns="http://www.w3.org/2000/svg">
<path d="M19.5871 8.28742L10.6224 0.252399C10.4404 0.0898489 10.2049 0 9.96088 0C9.71687 0 9.4814 0.0898489 9.29941 0.252399L0.334696 8.28742C-0.347894 8.89278 0.0838798 10.0277 0.996169 10.0277H18.9256C19.8379 10.0277 20.2697 8.89272 19.5871 8.28742ZM18.9256 32.0078H17.9295V12.0198H1.99226V32.0078H0.996169C0.445595 32.0078 7.5136e-05 32.4533 7.5136e-05 33.0039C7.5136e-05 33.5545 0.445595 34 0.996169 34H2.98836C3.53893 34 3.98445 33.5545 3.98445 33.0039V28.0235H5.97664V33.0039C5.97664 33.5545 6.42216 34 6.97273 34C7.52331 34 7.96882 33.5545 7.96882 33.0039V32.0078H11.9531V33.0039C11.9531 33.5545 12.3987 34 12.9492 34C13.4998 34 13.9453 33.5545 13.9453 33.0039V28.0235H15.9375V33.0039C15.9375 33.5545 16.383 34 16.9336 34H18.9258C19.4764 34 19.9219 33.5545 19.9219 33.0039C19.9217 32.4533 19.4762 32.0078 18.9256 32.0078ZM5.97657 26.0314H3.98438V24.0392H5.97657V26.0314ZM11.9531 30.0157H7.96876V28.0235H11.9531V30.0157ZM11.9531 26.0314H7.96876V24.0392H11.9531V26.0314ZM9.96088 21.9807C7.76343 21.9807 5.97657 20.1937 5.97657 17.9963C5.97657 15.7989 7.7635 14.012 9.96088 14.012C12.1583 14.012 13.9452 15.799 13.9452 17.9963C13.9452 20.1937 12.1583 21.9807 9.96088 21.9807ZM15.9374 26.0314H13.9452V24.0392H15.9374V26.0314ZM32.0074 30.0157H28.4924C27.6928 30.0157 26.974 29.5419 26.6617 28.8085L24.4623 21.6187C23.6469 19.7153 21.9216 18.3987 19.9216 18.0768V22.0766C20.465 22.2485 20.9194 22.7121 21.1502 23.2541L23.867 31.5846C24.1738 32.3017 24.6844 32.9128 25.3355 33.3422C25.9865 33.7716 26.7494 34.0003 27.5293 33.9999H32.0074C33.1056 33.9999 33.9995 33.1059 33.9995 32.0077C33.9995 30.9094 33.1056 30.0157 32.0074 30.0157Z" fill="#274D60" fill-opacity="0.3"/>
</svg>
