<svg width="34" height="34" viewBox="0 0 34 34" fill="none" xmlns="http://www.w3.org/2000/svg">
<path fill-rule="evenodd" clip-rule="evenodd" d="M3.55074 14.0157H21.5854V7.0417H3.55074V14.0157ZM12.0839 28.0593H10.8076V28.5779H12.0839V28.0593ZM10.8076 23.5901V27.2624H12.0839V23.5901C12.0839 23.2428 11.8011 22.9599 11.4537 22.9599H11.4378C11.0905 22.9599 10.8076 23.2428 10.8076 23.5901ZM3.45113 28.0593H2.17547V28.5779H3.4518V28.0593H3.45113ZM3.45113 27.2624V23.5901C3.45113 23.2428 3.16891 22.9599 2.82094 22.9599H2.805C2.4577 22.9599 2.1748 23.2428 2.1748 23.5901V27.2624H3.45113ZM10.0107 25.5093H4.24801V27.2624H10.0101V25.5093H10.0107ZM11.0473 22.2188C10.4497 22.3895 10.0107 22.9387 10.0107 23.5901V24.7124H4.24801V23.5901C4.24801 22.9387 3.80906 22.3895 3.21141 22.2188V20.2897C3.21141 19.6755 3.71145 19.1754 4.3257 19.1754H9.93305C10.5473 19.1754 11.0473 19.6755 11.0473 20.2897V22.2188ZM19.8429 24.5026C20.5846 24.5026 21.1876 23.8996 21.1876 23.1578C21.1876 22.4167 20.5846 21.8131 19.8429 21.8131H14.9215C14.1797 21.8131 13.5768 22.4167 13.5768 23.1578C13.5768 23.8996 14.1804 24.5026 14.9215 24.5026H16.9841V27.4185L14.7707 28.6271C14.5775 28.732 14.5064 28.9744 14.612 29.1676C14.7176 29.3608 14.9593 29.4319 15.1526 29.3263L16.9841 28.3262V28.9763C16.9841 29.1968 17.1627 29.3748 17.3825 29.3748C17.6023 29.3748 17.7809 29.1968 17.7809 28.9763V28.3262L19.6124 29.3263C19.6729 29.3595 19.7386 29.3748 19.803 29.3748C19.9445 29.3748 20.0806 29.2997 20.153 29.1676C20.2586 28.9744 20.1875 28.732 19.9943 28.6271L17.7809 27.4185V24.5026H19.8429ZM32.5889 28.0593H31.3125V28.5779H32.5889V28.0593ZM31.3132 23.5901V27.2624H32.5895V23.5901C32.5895 23.2428 32.3066 22.9599 31.9593 22.9599H31.9434C31.5954 22.9599 31.3132 23.2428 31.3132 23.5901ZM23.9567 28.0593H22.6804V28.5779H23.9567V28.0593ZM23.9567 27.2624V23.5901C23.9567 23.2428 23.6738 22.9599 23.3265 22.9599H23.3106C22.9633 22.9599 22.6804 23.2428 22.6804 23.5901V27.2624H23.9567ZM30.5163 25.5093H24.7543V27.2624H30.5163V25.5093ZM30.438 19.1754C31.0522 19.1754 31.5523 19.6755 31.5523 20.2897V22.2188C30.9546 22.3895 30.5157 22.9387 30.5157 23.5901V24.7124H24.7536V23.5901C24.7536 22.9387 24.3146 22.3895 23.717 22.2188V20.2897C23.717 19.6755 24.217 19.1754 24.8313 19.1754H30.438ZM28.1709 7.7051C27.7864 7.29604 27.3209 6.87701 26.7611 6.4374C27.0459 8.42229 27.5612 9.72982 28.3389 10.4191C28.1237 9.9151 28.0281 9.33006 28.056 8.66732C28.0686 8.36451 28.1078 8.04377 28.1709 7.7051ZM31.0708 7.7051C31.1339 8.04377 31.1724 8.36451 31.185 8.66732C31.2129 9.33006 31.118 9.9151 30.9021 10.4191C31.6804 9.72982 32.1957 8.42229 32.4806 6.4374C31.9208 6.87701 31.4553 7.2967 31.0708 7.7051ZM29.6205 5.67174C28.5852 8.25561 28.5866 9.9317 29.6205 10.8787C30.6551 9.9317 30.6564 8.25494 29.6205 5.67174ZM27.5858 11.7884L28.0759 14.0157H31.1658L31.6552 11.7884H27.5858ZM2.17547 6.24549H22.962V4.67432H2.17547V6.24549Z" fill="#274D60" fill-opacity="0.3"/>
</svg>
