<svg width="34" height="34" viewBox="0 0 34 34" fill="none" xmlns="http://www.w3.org/2000/svg">
<path d="M27.7016 13.9969H26.0905V9.09145C26.0905 4.07889 22.0126 0 17.0003 0C11.9862 0 7.90893 4.07835 7.90893 9.09145V13.9969H6.29842C5.37151 13.9969 4.62051 14.7483 4.62051 15.6748V32.3222C4.62051 33.2487 5.37151 34 6.29842 34H27.7017C28.6267 34 29.3796 33.2487 29.3796 32.3222V15.6748C29.3796 14.7483 28.6266 13.9969 27.7016 13.9969ZM11.2644 9.09145C11.2644 5.92815 13.837 3.35553 17.0002 3.35553C20.1627 3.35553 22.7354 5.92815 22.7354 9.09145V13.9969H11.2644V9.09145Z" fill="#274D60" fill-opacity="0.3"/>
</svg>
