<?xml version="1.0" encoding="UTF-8"?> <svg xmlns="http://www.w3.org/2000/svg" width="378" height="112" viewBox="0 0 378 112" fill="none"> <path d="M48.9999 112L14.4747 92.2822C5.54205 87.1811 0 77.6319 0 67.3508V44.6716C0 34.3905 5.54205 24.8413 14.4747 19.7402L48.9999 0L83.5252 19.7176C92.4578 24.8188 97.9999 34.3679 97.9999 44.649V67.3283C97.9999 77.6094 92.4578 87.1585 83.5252 92.2597L48.9999 112ZM48.9999 3.89622L16.1531 22.668C8.2793 27.1723 3.37931 35.5954 3.37931 44.6716V67.3508C3.37931 76.4157 8.26803 84.8501 16.1531 89.3544L48.9999 108.126L81.8468 89.3544C89.7206 84.8501 94.6206 76.427 94.6206 67.3508V44.6716C94.6206 35.6066 89.7318 27.1723 81.8468 22.668L48.9999 3.89622Z" fill="#C39B78"></path> <path d="M70.9653 98.4644H67.586V80.3683C67.586 70.0872 73.128 60.5381 82.0607 55.4369L95.4652 47.7796L97.1436 50.7187L83.739 58.376C75.854 62.8803 70.9653 71.3034 70.9653 80.3796V98.4644Z" fill="#C39B78"></path> <path d="M50.6893 110.052H47.31V84.7488C47.31 73.1051 51.3313 61.6979 58.6306 52.633C62.6633 47.6219 67.5407 43.4554 73.1391 40.2686L92.4237 29.2556L94.1021 32.1946L74.8175 43.2077C69.5908 46.1918 65.04 50.0768 61.2665 54.7613C54.4516 63.2294 50.6893 73.8821 50.6893 84.76V110.052Z" fill="#C39B78"></path> <path d="M30.4137 98.4644H27.0344V89.1405C27.0344 69.8958 34.4013 51.6871 47.7833 37.8701C52.6045 32.8703 58.1353 28.5799 64.2067 25.1003L77.724 17.3754L79.4024 20.3033L65.8851 28.0282C60.084 31.3501 54.8123 35.449 50.2051 40.2123C37.4314 53.3987 30.4024 70.7741 30.4024 89.1405V98.4644H30.4137Z" fill="#C39B78"></path> <path d="M70.9652 89.1405H67.5859L67.586 98.4644H70.9653L70.9652 89.1405Z" fill="#C39B78"></path> <path d="M47.7829 40.2123C43.1871 35.449 37.9041 31.3501 32.1029 28.0282L18.5857 20.3033L20.2641 17.3754L33.7813 25.1003C39.8641 28.5799 45.3836 32.8703 50.2047 37.8701L47.7829 40.2123Z" fill="#C39B78"></path> <path d="M30.4137 98.4644H27.0344L27.0341 80.3683C27.0341 71.3034 22.1453 62.8691 14.2603 58.3648L0.8557 50.7074L2.53409 47.7683L15.9387 55.4257C24.8713 60.5268 30.4134 70.076 30.4134 80.3571L30.4137 98.4644Z" fill="#C39B78"></path> <path d="M136.266 62.376V20.6824H159.515C163.578 20.6824 166.716 21.6057 168.928 23.441C171.128 25.2763 172.234 27.8659 172.234 31.1875C172.234 35.5899 170.022 38.6524 165.61 40.3751C170.982 41.4448 173.668 44.7213 173.668 50.1933C173.668 54.3255 172.46 57.3881 170.045 59.381C167.63 61.3739 163.928 62.3647 158.94 62.3647L136.266 62.376ZM142.191 26.1433V38.2021H157.044C160.305 38.2021 162.664 37.763 164.12 36.8847C165.576 36.0065 166.309 34.4189 166.309 32.122C166.309 29.9827 165.666 28.4514 164.379 27.5282C163.093 26.6049 161.073 26.1545 158.308 26.1545H142.191V26.1433ZM142.191 43.6629V56.9264H157.563C160.982 56.9264 163.488 56.4535 165.102 55.4852C166.716 54.5282 167.517 52.9181 167.517 50.6662C167.517 48.1779 166.783 46.3876 165.327 45.2955C163.872 44.2033 161.569 43.6629 158.421 43.6629H142.191Z" fill="#113955"></path> <path d="M181.794 41.5349C181.794 34.8355 183.837 29.5098 187.922 25.5465C192.008 21.5832 197.605 19.6016 204.704 19.6016C211.758 19.6016 217.333 21.5945 221.43 25.569C225.515 29.5549 227.558 34.8693 227.558 41.5349C227.558 48.2342 225.515 53.5599 221.43 57.5232C217.344 61.4865 211.747 63.4682 204.648 63.4682C197.583 63.4682 192.008 61.4753 187.922 57.5007C183.837 53.5149 181.794 48.2004 181.794 41.5349ZM192.358 29.5098C189.423 32.4035 187.956 36.4118 187.956 41.5349C187.956 46.6692 189.423 50.6775 192.358 53.5599C195.292 56.4536 199.411 57.8948 204.704 57.8948C209.997 57.8948 214.105 56.4536 217.017 53.5599C219.929 50.6662 221.396 46.6579 221.396 41.5349C221.396 36.4006 219.929 32.3922 216.995 29.5098C214.06 26.6162 209.941 25.175 204.648 25.175C199.389 25.175 195.292 26.6162 192.358 29.5098Z" fill="#113955"></path> <path d="M240.616 20.6937H276.02V62.3873H270.095V26.1545H246.552V42.9761C246.552 46.1512 246.394 48.9323 246.067 51.308C245.74 53.6838 245.277 55.6204 244.69 57.1066C244.092 58.6041 243.359 59.8089 242.478 60.7209C241.598 61.6441 240.65 62.2859 239.657 62.6462C238.664 63.0065 237.524 63.1867 236.26 63.1867C235.109 63.1867 233.766 63.0516 232.231 62.7813V58.0749C232.919 58.2325 233.845 58.3001 234.996 58.3001C237.219 58.3001 238.72 56.9828 239.488 54.3368C240.255 51.6908 240.639 47.2884 240.639 41.1295V20.6937H240.616Z" fill="#113955"></path> <path d="M294.383 20.6937V37.2338H319.821V20.6937H325.746V62.3872H319.821V42.6946H294.383V62.3872H288.457V20.6937H294.383Z" fill="#113955"></path> <path d="M333.398 62.376L353.249 20.6824H359.412L377.999 62.376H371.837L366.544 50.4861H345.191L339.661 62.376H333.398ZM347.674 45.0365H364.14L356.139 27.2917L347.674 45.0365Z" fill="#113955"></path> <path d="M148.499 88.0447H139.544L139.57 103.341H136.266V85.1929H148.525L148.499 88.0447Z" fill="#C39B78"></path> <path d="M162.535 103.6C160.694 103.6 159.034 103.203 157.554 102.408C156.075 101.595 154.913 100.48 154.07 99.0632C153.227 97.6286 152.806 96.0299 152.806 94.2669C152.806 92.504 153.227 90.9138 154.07 89.4966C154.913 88.062 156.075 86.9472 157.554 86.1521C159.034 85.3398 160.694 84.9336 162.535 84.9336C164.376 84.9336 166.036 85.3398 167.516 86.1521C168.996 86.9472 170.157 88.0533 171 89.4706C171.843 90.8879 172.265 92.4867 172.265 94.2669C172.265 96.0472 171.843 97.6459 171 99.0632C170.157 100.48 168.996 101.595 167.516 102.408C166.036 103.203 164.376 103.6 162.535 103.6ZM162.535 100.645C163.74 100.645 164.823 100.377 165.787 99.841C166.75 99.2879 167.507 98.5274 168.058 97.5595C168.609 96.5743 168.884 95.4768 168.884 94.2669C168.884 93.057 168.609 91.9682 168.058 91.0003C167.507 90.0151 166.75 89.2546 165.787 88.7188C164.823 88.1657 163.74 87.8891 162.535 87.8891C161.331 87.8891 160.247 88.1657 159.283 88.7188C158.32 89.2546 157.563 90.0151 157.012 91.0003C156.462 91.9682 156.187 93.057 156.187 94.2669C156.187 95.4768 156.462 96.5743 157.012 97.5595C157.563 98.5274 158.32 99.2879 159.283 99.841C160.247 100.377 161.331 100.645 162.535 100.645Z" fill="#C39B78"></path> <path d="M189.187 103.6C187.363 103.6 185.712 103.203 184.232 102.408C182.77 101.595 181.617 100.48 180.774 99.0632C179.948 97.6459 179.535 96.0472 179.535 94.2669C179.535 92.4867 179.957 90.8879 180.8 89.4706C181.643 88.0533 182.796 86.9472 184.258 86.1521C185.738 85.3398 187.389 84.9336 189.213 84.9336C190.693 84.9336 192.043 85.1929 193.265 85.7114C194.486 86.2299 195.519 86.9817 196.362 87.9669L194.194 90.0151C192.886 88.5978 191.278 87.8891 189.368 87.8891C188.129 87.8891 187.019 88.1657 186.039 88.7188C185.058 89.2546 184.292 90.0064 183.742 90.9743C183.191 91.9422 182.916 93.0398 182.916 94.2669C182.916 95.4941 183.191 96.5916 183.742 97.5595C184.292 98.5274 185.058 99.2879 186.039 99.841C187.019 100.377 188.129 100.645 189.368 100.645C191.278 100.645 192.886 99.9274 194.194 98.4928L196.362 100.567C195.519 101.552 194.478 102.304 193.239 102.822C192.017 103.341 190.667 103.6 189.187 103.6Z" fill="#C39B78"></path> <path d="M217.288 88.0447H211.301V103.341H207.972V88.0447H202.011V85.1929H217.288V88.0447Z" fill="#C39B78"></path> <path d="M225.111 85.1929H228.414V98.078L238.118 85.1929H241.241V103.341H237.937V90.4817L228.234 103.341H225.111V85.1929Z" fill="#C39B78"></path> <path d="M267.261 85.1929V103.341H263.906V95.5632H254.564V103.341H251.209V85.1929H254.564V92.6854H263.906V85.1929H267.261Z" fill="#C39B78"></path> <path d="M277.258 85.1929H280.561V98.078L290.265 85.1929H293.388V103.341H290.084V90.4817L280.381 103.341H277.258V85.1929Z" fill="#C39B78"></path> <path d="M321.808 100.489V107.334H318.712V103.341H303.382V85.1929H306.685V100.489H315.795V85.1929H319.124V100.489H321.808Z" fill="#C39B78"></path> <path d="M341.883 99.141H332.851L331.07 103.341H327.612L335.741 85.1929H339.044L347.199 103.341H343.69L341.883 99.141ZM340.773 96.4965L337.367 88.5632L333.986 96.4965H340.773Z" fill="#C39B78"></path> </svg> 