<svg width="659" height="147" viewBox="0 0 659 147" fill="none" xmlns="http://www.w3.org/2000/svg">
<path d="M9.54245 0.20913V110.269C9.54245 128.646 16.8011 137.837 31.3222 137.837C45.8433 137.837 53.1021 128.65 53.1021 110.269V0.20913H62.0204V109.854C62.0204 120.912 59.4943 129.787 54.4496 136.487C49.4011 143.19 41.621 146.539 31.113 146.539C20.6049 146.539 12.7881 143.19 7.6736 136.487C2.55542 129.787 0 120.908 0 109.854V0.20913H9.54245Z" fill="#966C54" fill-opacity="0.9"/>
<path d="M216.546 145.296H161.373V0.20913H170.916V136.593H216.55V145.299L216.546 145.296Z" fill="#966C54" fill-opacity="0.9"/>
<path d="M372.937 113.167H327.718L320.459 145.296H311.747L343.48 0H357.377L389.735 145.296H380.192L372.933 113.167H372.937ZM350.122 10.9847L329.172 104.879H371.487L350.122 10.9847Z" fill="#966C54" fill-opacity="0.9"/>
<path d="M487.226 0.20913H517.719C528.366 0.20913 535.97 2.76634 540.534 7.87711C545.098 12.9916 547.378 20.7293 547.378 31.0902V39.3819C547.378 47.6736 545.957 54.1346 543.126 58.761C540.292 63.3912 535.35 66.4657 528.296 67.9846C542.818 70.8867 550.076 81.2514 550.076 99.0749V111.718C550.076 134.102 539.498 145.296 518.343 145.296H487.23V0.20913H487.226ZM496.765 64.2534H512.946C521.794 64.2534 528.157 62.6317 532.027 59.3811C535.897 56.1378 537.835 50.0914 537.835 41.2457V31.9194C537.835 24.0423 536.311 18.2381 533.271 14.5068C530.228 10.7755 524.974 8.91174 517.509 8.91174H496.769V64.2534H496.765ZM496.765 136.589H518.335C533.132 136.589 540.53 128.232 540.53 111.509V98.4512C540.53 89.1945 538.456 82.6309 534.307 78.7602C530.158 74.8932 523.656 72.956 514.811 72.956H496.765V136.589Z" fill="#966C54" fill-opacity="0.9"/>
<path d="M648.596 0.20913H658.138V145.296H648.596V0.20913Z" fill="#966C54" fill-opacity="0.9"/>
</svg>
