<?xml version="1.0" encoding="UTF-8"?>
<svg xmlns="http://www.w3.org/2000/svg" version="1.1" viewBox="0 0 841.89 323.79">
  <defs>
    <style>
      .cls-1 {
        fill: #554b48;
      }
    </style>
  </defs>
  <!-- Generator: Adobe Illustrator 28.6.0, SVG Export Plug-In . SVG Version: 1.2.0 Build 709)  -->
  <g>
    <g id="_Слой_1" data-name="Слой_1">
      <g>
        <g>
          <path class="cls-1" d="M608.14,316.84l-1.72,5.77-3.51-4.89-5.31-7.3-5.27,7.3-3.52,4.85-1.72-5.73-6.23-20.98h4.97l4.81,16.12,4.05-5.62.77-1.07,2.18-2.98,2.18,2.98.77,1.07,4.05,5.62,4.81-16.12h4.97l-6.27,20.98Z"/>
          <path class="cls-1" d="M625.89,322.61v-26.74h4.78v26.74h-4.78Z"/>
          <path class="cls-1" d="M668.88,295.9v26.74l-4.78-3.67-17.19-13.26v16.92h-4.78v-26.67l4.78,3.67,17.19,13.26v-17.04l4.78.04Z"/>
          <path class="cls-1" d="M685.14,303.08v2.49h17.19v4.78h-17.19v5.04c0,1.34,1.11,2.45,2.45,2.45h19.52v4.78h-19.52c-3.97,0-7.18-3.25-7.18-7.22v-12.3c0-3.97,3.21-7.22,7.18-7.22h19.52v4.78h-19.52c-1.34,0-2.45,1.11-2.45,2.45Z"/>
          <path class="cls-1" d="M771.59,314.08c0,4.7-3.82,8.52-8.52,8.52h-18.22v-26.74h16.85c3.97,0,7.22,3.25,7.22,7.22,0,1.45-.42,2.79-1.15,3.9,2.29,1.53,3.82,4.13,3.82,7.11ZM749.62,305.53h12.11c1.34,0,2.45-1.11,2.45-2.45s-1.11-2.45-2.45-2.45h-12.11v4.89ZM763.07,317.79c2.06,0,3.75-1.68,3.75-3.75s-1.68-3.75-3.75-3.75h-13.45v7.53h13.45v-.04Z"/>
          <path class="cls-1" d="M807.91,322.61h-5.35l-2.45-4.78-5.85-11.46-5.85,11.46-2.45,4.78h-5.35l2.45-4.78,11.19-21.97,11.19,21.97,2.45,4.78Z"/>
          <path class="cls-1" d="M839.44,317.87l2.45,4.78h-5.35l-2.45-4.78-2.56-5.01-.11-.23c-.84-1.37-2.33-2.29-4.05-2.29h-4.78v12.3h-4.78v-26.74h16.89c1.99,0,3.78.8,5.08,2.1,1.3,1.34,2.1,3.13,2.1,5.12,0,2.9-1.72,5.42-4.2,6.57-.65.31-1.34.5-2.06.57l3.82,7.6ZM834.71,305.57c.34,0,.69-.08.99-.23.88-.38,1.45-1.26,1.45-2.22,0-.88-.46-1.49-.73-1.76-.31-.3-.88-.69-1.72-.69h-12.11v4.93l12.11-.04Z"/>
        </g>
        <g>
          <path class="cls-1" d="M258.73,233.86c0,17.58-14.3,31.88-31.88,31.88h-68.19v-100.06h63.04c14.87,0,27.02,12.15,27.02,27.02,0,5.43-1.57,10.43-4.29,14.58,8.58,5.72,14.3,15.44,14.3,26.59ZM176.54,201.84h45.31c5,0,9.15-4.15,9.15-9.15s-4.15-9.15-9.15-9.15h-45.31v18.3ZM226.85,247.73c7.72,0,14.01-6.29,14.01-14.01s-6.29-14.01-14.01-14.01h-50.32v28.16h50.32v-.14Z"/>
          <path class="cls-1" d="M380.25,265.74h-20.01l-9.15-17.87-21.87-42.89-21.87,42.89-9.15,17.87h-20.01l9.15-17.87,41.88-82.2,41.88,82.2,9.15,17.87Z"/>
          <path class="cls-1" d="M481.9,248.01v17.87h-50.75c-5,0-9.72-1.14-14.01-3.29-6.29-3.14-11.44-8.29-14.44-14.58-2.14-4.29-3.29-9.01-3.29-14.01v-68.19h17.87v69.9c.86,6.29,5.86,11.29,12.15,12.15l52.46.14Z"/>
          <path class="cls-1" d="M566.83,205.84l43.31,59.9h-22.01l-34.59-47.75-25.3,23.02v24.73h-17.87v-100.06h17.87v51.17l14.72-13.44,13.29-12.15,27.87-25.59h26.45l-43.74,40.17Z"/>
          <path class="cls-1" d="M716.79,215.71c0,27.59-22.44,50.03-50.03,50.03s-50.03-22.44-50.03-50.03,22.44-50.03,50.03-50.03,50.03,22.44,50.03,50.03ZM698.93,215.71c0-17.73-14.44-32.16-32.16-32.16s-32.16,14.44-32.16,32.16,14.44,32.16,32.16,32.16,32.16-14.44,32.16-32.16Z"/>
          <path class="cls-1" d="M841.89,165.82v100.06l-17.87-13.72-64.33-49.6v63.33h-17.87v-99.78l17.87,13.72,64.33,49.6v-63.76l17.87.14Z"/>
        </g>
        <g>
          <path class="cls-1" d="M116.08,157.84c2.78-2.04,5.64-3.99,8.32-6.14,11.44-9.18,18.82-20.91,21.3-35.43,1.82-10.6,1.61-21.3.47-31.98-2.21-20.65-8.6-40.21-15.5-59.64-2.37-6.67-4.69-13.36-6.88-20.1-.51-1.56-1.24-1.98-2.77-1.98-23.36.03-46.71.02-70.07,0-6,0-12,.04-18.01-.04-1.51-.02-2.33.46-2.96,1.87-8.68,19.48-15.21,39.65-19.33,60.56-3.14,15.95-4.81,32.05-2.69,48.28,1.75,13.39,5.91,25.86,16.33,35.21,3.08,2.76,6.87,4.74,10.35,7.05.62.41,1.33.7,1.89,1.26-4.77-.79-9.09-2.69-13.13-5.24-10.82-6.83-16.81-17.06-20.04-29.09C-.43,108.37-.69,94.08.98,79.65c2.52-21.8,7.92-42.87,15.56-63.39,1.84-4.93,4.08-9.72,6.05-14.6C23.13.34,23.93.03,25.26.03,59.31.05,93.37.05,127.43,0c1.77,0,2.71.53,3.42,2.19,6.15,14.37,11.27,29.09,15.14,44.24,3.64,14.24,6.31,28.65,6.99,43.35.56,11.9-.17,23.71-3.79,35.17-4.1,13.02-11.54,23.4-23.99,29.65-2.87,1.44-5.93,2.48-8.91,3.71-.08-.16-.15-.31-.23-.47Z"/>
          <path class="cls-1" d="M105.74,84.32c-2.25.35-4.5.7-6.76,1.04-15.52,2.33-30.97,4.96-45.95,9.8-7.52,2.42-14.83,5.35-21.41,9.82-5.4,3.68-10.03,8.07-12.4,14.37-2.59,6.89-.93,12.9,3.9,18.2,3.79,4.15,8.57,6.8,13.7,8.9.63.26,1.25.55,1.87.83-.07.25-.15.5-.22.75-2.43-.64-4.94-1.08-7.28-1.95-8.24-3.05-13.48-9.17-16.93-17.03-3.14-7.17-4.76-14.72-5.12-22.49-.31-6.63-.13-13.27-.3-19.91-.05-2.13.88-2.47,2.73-2.46,19.96.11,39.92.23,59.87.17,10.77-.03,21.53-.42,32.3-.64.64-.01,1.28,0,1.92,0,.02.2.04.4.06.6Z"/>
          <path class="cls-1" d="M77.98,177.37c.2,3.11.45,6.21.59,9.32.84,18.41,1.61,36.81,2.49,55.22.89,18.69,1.87,37.37,2.85,56.05.07,1.39-.36,2.07-1.74,2.49-6.49,1.98-12.98,3.96-19.4,6.16-4.2,1.44-7.96,3.72-11.17,6.88-1.31,1.29-1.07,2.14.15,3.16,3.51,2.93,7.66,4.44,12.1,4.8,7.55.62,475.97.9,483.53,1.34.79.05,1.57.23,2.35.35-.02.22-.04.43-.05.65H6.05c.89-.62,1.45-1.08,2.06-1.43,9.77-5.59,20.16-9.77,30.9-13,11.61-3.49,23.32-6.67,35.01-9.86,1.89-.52,2.48-1.34,2.47-3.27-.08-15.62-.14-31.24-.05-46.86.12-19.37.39-38.74.6-58.11.04-3.9.11-7.8.18-11.71.01-.74.1-1.47.15-2.21.2,0,.39.01.59.02Z"/>
          <path class="cls-1" d="M124.17,17.32c1.31,3.39,2.66,6.76,3.92,10.17,6.96,18.79,13.31,37.75,15.79,57.75,1.52,12.2,1.66,24.37-1.76,36.35-4.6,16.11-14.88,26.92-30.48,32.8-15.83,5.96-32.17,7.18-48.85,5.33-11.08-1.23-21.69-4.04-31.59-9.3-.57-.3-1.13-.64-1.68-.98-.11-.07-.16-.23-.43-.64.81.25,1.39.37,1.92.6,11.6,5.15,23.84,7.29,36.43,7.82,11.4.48,22.68-.5,33.71-3.47,9.37-2.52,18.22-6.11,25.2-13.26,7.23-7.41,11.05-16.47,12.9-26.47,2.57-13.92,1.39-27.77-.93-41.6-2.98-17.8-8.32-34.96-13.81-52.09-.3-.94-.56-1.89-.84-2.83.17-.06.34-.12.51-.17Z"/>
          <path class="cls-1" d="M87.24,283.28c-.93-12.67-2.07-25.33-2.75-38.01-1.02-19.1-1.73-38.22-2.54-57.33-.28-6.56-.44-13.13-.67-19.7-.09-2.69.07-2.92,2.65-2.89,4.53.04,4.04-.61,4.04,4.04,0,36.85,0,73.71-.02,110.56,0,1.07-.1,2.15-.16,3.22-.18.04-.37.07-.55.11Z"/>
        </g>
      </g>
    </g>
  </g>
</svg>