<?xml version="1.0" encoding="UTF-8"?> <svg xmlns="http://www.w3.org/2000/svg" width="397" height="114" viewBox="0 0 397 114" fill="none"> <g clip-path="url(#clip0_977_18887)"> <mask id="mask0_977_18887" style="mask-type:luminance" maskUnits="userSpaceOnUse" x="0" y="0" width="397" height="114"> <path d="M0 0.996094H397V113.78H0V0.996094Z" fill="white"></path> </mask> <g mask="url(#mask0_977_18887)"> <path d="M265.417 30.3982V41.2886H262.913V28.3455H269.757V30.3982H265.417ZM275.694 41.4916C272.281 41.4916 270.648 38.5705 270.648 34.781C270.648 30.9914 272.281 28.0681 275.694 28.0681C279.107 28.0681 280.74 30.9914 280.74 34.781C280.74 38.5705 279.127 41.4916 275.694 41.4916ZM275.694 30.3982C274.043 30.3982 273.19 32.2479 273.19 34.8735C273.19 37.4991 274.043 39.3465 275.694 39.3465C277.345 39.3465 278.198 37.4968 278.198 34.8735C278.198 32.2479 277.363 30.3057 275.694 30.3057V30.3982ZM286.472 36.3329C286.068 36.3364 285.664 36.3062 285.265 36.2427V41.2886H282.779V28.7335C283.958 28.2568 285.219 28.0184 286.49 28.032C289.718 28.032 291.518 29.6583 291.518 32.1915C291.518 34.7246 289.828 36.3329 286.472 36.3329ZM286.582 30.0102C286.135 30.0056 285.69 30.0741 285.265 30.2132V34.2802C285.619 34.3479 285.98 34.3772 286.341 34.3727C288.197 34.3727 289.086 33.5426 289.086 32.1734C289.086 30.8042 288.215 30.008 286.582 30.008V30.0102ZM299.92 41.2864V35.7419H295.932V41.2886H293.39V28.3455H295.932V33.7073H299.92V28.3455H302.388V41.2886L299.92 41.2864ZM309.55 41.4916C306.137 41.4916 304.504 38.5705 304.504 34.781C304.504 30.9914 306.137 28.0681 309.55 28.0681C312.965 28.0681 314.596 30.9914 314.596 34.781C314.596 38.5705 312.965 41.4916 309.55 41.4916ZM309.55 30.3982C307.88 30.3982 307.046 32.2479 307.046 34.8735C307.046 37.4991 307.88 39.3465 309.55 39.3465C311.221 39.3465 312.056 37.4968 312.056 34.8735C312.056 32.2479 311.201 30.3057 309.55 30.3057V30.3982ZM324.166 41.2886L323.034 30.3621H320.939L320.605 33.5968C320.251 37.1292 319.323 40.2916 316.188 41.6225L315.446 39.4209C317.302 38.2931 317.857 36.1682 318.137 33.3193L318.656 28.2891H325.409L326.837 41.2345L324.166 41.2886ZM332.497 41.4916C331.225 41.5136 329.962 41.2748 328.786 40.7901V28.2914H331.254V33.3216C331.682 33.2404 332.118 33.1975 332.553 33.1907C335.855 33.1907 337.561 34.9276 337.561 37.3141C337.561 39.6984 335.781 41.4916 332.497 41.4916ZM332.386 35.1126C331.993 35.1204 331.602 35.1642 331.218 35.2434V39.3668C331.64 39.4863 332.077 39.5472 332.515 39.5518C334.148 39.5518 335.021 38.8119 335.021 37.3141C335.021 35.8163 334.112 35.1126 332.386 35.1126ZM338.898 41.2886V28.3455H341.346V41.2886H338.898ZM356.186 41.2886L354.329 36.9983C354.18 36.4822 353.872 36.026 353.45 35.6941C353.027 35.3622 352.511 35.1714 351.974 35.1487V41.2525H349.692V35.1509C349.156 35.1706 348.641 35.3605 348.22 35.6932C347.8 36.0258 347.497 36.4838 347.355 37.0006L345.501 41.2886H342.81L344.777 36.7231C345.264 35.6314 346.146 34.7607 347.244 34.2825L343.051 28.3839H345.927L349.638 34.2622V28.2936H352.031V34.172L355.739 28.2936H358.633L354.553 34.2847C355.64 34.7945 356.49 35.7013 356.928 36.8179L358.895 41.3834L356.186 41.2931V41.2886ZM366.891 41.2864V35.7419H362.885V41.2886H360.343V28.3455H362.885V33.7073H366.891V28.3455H369.433V41.2886L366.891 41.2864ZM375.594 41.4916C374.322 41.514 373.059 41.2753 371.883 40.7901V28.2914H374.351V33.3216C374.779 33.2404 375.213 33.1975 375.65 33.1907C378.932 33.1907 380.658 34.9276 380.658 37.3141C380.658 39.6984 378.84 41.4916 375.594 41.4916ZM375.483 35.1126C375.091 35.1201 374.699 35.1639 374.315 35.2434V39.3668C374.737 39.4863 375.172 39.5472 375.612 39.5518C377.245 39.5518 378.118 38.8119 378.118 37.3141C378.118 35.8163 377.188 35.1126 375.483 35.1126ZM381.993 41.2886V28.3455H384.517V41.2886H381.993ZM394.476 41.2864V32.0606C394.255 32.5794 394 33.087 393.716 33.5787L389.042 41.2886H386.965V28.3455H389.209V37.3119C389.432 36.7908 389.694 36.2833 389.987 35.796L394.532 28.2891H396.741V41.2322L394.476 41.2864ZM391.844 27.2921C391.481 27.3143 391.118 27.2592 390.779 27.1303C390.44 27.0014 390.132 26.8018 389.875 26.5447C389.619 26.2876 389.421 25.9789 389.293 25.6391C389.165 25.2993 389.111 24.9363 389.135 24.574L390.526 24.3507C390.637 25.3139 391.007 25.8485 391.844 25.8485C392.678 25.8485 393.03 25.3139 393.141 24.3507L394.514 24.574C394.539 24.9334 394.488 25.2939 394.364 25.6321C394.24 25.9703 394.046 26.2785 393.795 26.5365C393.542 26.7944 393.238 26.9952 392.901 27.1256C392.564 27.2559 392.204 27.3127 391.844 27.2921ZM341.125 60.8116L339.494 56.6521C339.283 56.1201 338.922 55.6614 338.453 55.3327C337.985 55.004 337.431 54.8196 336.859 54.8024V60.8679H334.317V47.9248H336.859V53.7874L340.94 47.9248H343.87L339.437 53.8415C340.026 54.0777 340.561 54.4305 341.011 54.8785C341.46 55.3266 341.814 55.8608 342.052 56.4491L344.019 60.9221L341.125 60.8116ZM351.42 56.9679L349.322 60.8138H346.448L348.58 57.1145C346.577 54.3857 345.26 51.2153 344.74 47.8707H347.432C347.78 50.3979 348.598 52.8376 349.843 55.0641C350.914 52.7948 351.603 50.3643 351.882 47.8707H354.573C354.117 51.0777 353.046 54.1665 351.42 56.9679ZM360.063 55.8581C359.66 55.8581 359.256 55.8288 358.857 55.7678V60.8138H356.389V48.2948C357.567 47.8186 358.829 47.581 360.099 47.5955C363.345 47.5955 365.127 49.2399 365.127 51.773C365.127 54.3039 363.438 55.8581 360.063 55.8581ZM360.174 49.5354C359.727 49.534 359.282 49.6025 358.857 49.7384V53.8438C359.217 53.9092 359.585 53.9407 359.951 53.934C361.807 53.934 362.678 53.1219 362.678 51.7527C362.678 50.3858 361.751 49.5354 360.174 49.5354ZM371.658 61.0349C368.224 61.0349 366.612 58.0957 366.612 54.3242C366.612 50.5505 368.224 47.5933 371.658 47.5933C375.088 47.5933 376.703 50.5324 376.703 54.3242C376.703 58.1138 375.07 61.0349 371.658 61.0349ZM371.658 49.9414C370.006 49.9414 369.154 51.7911 369.154 54.4144C369.154 57.0401 370.006 58.8717 371.658 58.8717C373.309 58.8717 374.161 57.022 374.161 54.4144C374.161 51.8091 373.309 49.8489 371.658 49.8489V49.9392V49.9414ZM382.419 55.8581C382.016 55.8581 381.612 55.8288 381.213 55.7656V60.8138H378.727V48.2948C379.906 47.8224 381.167 47.5842 382.437 47.5933C385.665 47.5933 387.447 49.2399 387.447 51.7708C387.447 54.3039 385.871 55.8581 382.419 55.8581ZM382.53 49.5354C382.083 49.5354 381.639 49.6031 381.213 49.7384V53.8438C381.576 53.9092 381.941 53.9385 382.307 53.934C384.163 53.934 385.034 53.1219 385.034 51.7527C385.034 50.3858 384.181 49.5354 382.53 49.5354ZM393.996 49.9414V60.8138H391.435V49.9414H388.67V47.8143H396.723V49.9414H393.996ZM119.157 21.1905C121.383 21.1905 121.863 18.9168 121.142 18.3438C119.581 17.9372 117.963 17.7939 116.355 17.9198C114.501 18.01 116.874 21.3394 119.157 21.1905ZM114.093 13.6092C113.893 13.6192 113.697 13.669 113.516 13.7556C113.336 13.8422 113.174 13.9639 113.041 14.1137C112.908 14.2634 112.806 14.4382 112.742 14.6277C112.677 14.8172 112.651 15.0177 112.665 15.2175C112.679 15.5181 112.782 15.8078 112.962 16.0493C113.141 16.2909 113.389 16.4733 113.673 16.5731C113.958 16.6746 114.268 16.689 114.561 16.6143C114.855 16.5395 115.12 16.3792 115.322 16.1536C115.596 15.8531 115.741 15.4569 115.726 15.0505C115.714 14.8482 115.663 14.65 115.575 14.4677C115.486 14.2853 115.363 14.1223 115.211 13.9882C115.059 13.8541 114.882 13.7515 114.69 13.6864C114.498 13.6214 114.295 13.5951 114.093 13.6092ZM121.899 15.3099C121.908 15.511 121.957 15.7082 122.043 15.8898C122.13 16.0715 122.252 16.2337 122.403 16.3669C122.554 16.5 122.73 16.6013 122.921 16.6647C123.112 16.728 123.314 16.7521 123.515 16.7355C123.917 16.7122 124.294 16.5308 124.563 16.2308C124.832 15.9308 124.972 15.5365 124.951 15.134C124.94 14.9346 124.89 14.7394 124.803 14.5595C124.716 14.3797 124.595 14.2186 124.446 14.0856C124.297 13.9526 124.124 13.8502 123.935 13.7843C123.747 13.7185 123.547 13.6904 123.348 13.7016C123.146 13.709 122.948 13.7569 122.765 13.8423C122.582 13.9278 122.418 14.0492 122.283 14.1992C122.148 14.3492 122.044 14.5248 121.978 14.7156C121.913 14.9064 121.886 15.1085 121.899 15.3099Z" fill="#17171B"></path> <path d="M141.341 87.4712C140.653 81.4642 139 75.6076 136.446 70.1272C134.24 65.0513 132.459 59.8008 131.123 54.4299C129.767 49.3456 130.861 50.178 128.619 42.7275C128.375 41.9132 128.247 39.6372 128.134 38.8612C128.134 38.8612 127.8 36.4409 127.782 34.8303C127.902 30.8693 128.601 26.9445 129.86 23.1842C130.737 19.4714 131.355 15.7021 131.714 11.9058C131.885 9.50578 131.935 7.09897 131.863 4.69442C131.755 3.7484 131.33 2.86696 130.655 2.19476C129.981 1.52257 129.098 1.09953 128.152 0.995097C127.207 0.792086 126.817 1.36503 126.298 1.86579C125.371 2.93724 125.371 4.64028 123.329 3.4177C121.645 2.45453 119.679 2.10237 117.765 2.42069C115.035 2.54926 113.923 4.02899 112.922 3.69515C112.518 3.57039 112.145 3.36297 111.825 3.08609C111.506 2.8092 111.248 2.4689 111.068 2.08685C110.734 1.58834 110.77 0.995097 109.768 1.16202C109.092 1.26218 108.447 1.51384 107.882 1.89819C107.317 2.28254 106.846 2.78964 106.504 3.38161C105.855 4.5275 106.188 5.98918 106.207 8.79976C106.207 10.2953 107.116 13.3653 107.357 17.8405C107.546 21.7338 108.018 25.6068 108.767 29.4325C108.767 30.0054 109.008 32.1686 109.008 32.1686C109.286 34.2777 109.452 36.1251 109.452 36.8649C109.452 36.8649 109.452 56.0022 94.7792 48.3103C81.6264 41.3944 75.1886 41.1553 72.351 41.3199C69.5111 41.4868 55.6544 42.5605 48.919 54.263C46.5257 58.6616 45.0843 63.5113 44.6896 68.5009C44.1144 78.356 51.425 88.4501 58.6771 95.0503C62.0155 98.1022 62.3876 102.133 56.489 100.856C51.61 99.821 43.1692 88.2291 28.0314 87.5997C24.8685 87.4243 21.6965 87.5231 18.5507 87.8952C14.5131 88.4592 10.6491 89.9051 7.23397 92.1292C8.1083 91.8439 9.05067 91.8439 9.925 92.1292C9.925 92.1292 8.97761 92.4246 8.88739 92.481C6.54048 93.2813 4.43387 94.6616 2.76321 96.4939C3.7445 96.1205 4.76675 95.8654 5.80838 95.7337C5.56477 96.0112 4.48881 96.5683 4.13692 96.8999C2.84801 97.742 1.71216 98.7978 0.77821 100.022C1.68048 99.5774 2.62561 99.2323 3.59781 98.9864C2.04139 99.7759 0.814301 101.084 0.13083 102.686C0.717307 102.253 1.40755 101.986 2.13387 101.908C1.13218 102.592 0.382625 103.587 0 104.738C0.442114 104.461 0.945131 104.296 1.46619 104.258C1.46619 104.258 0.947386 104.887 0.927085 104.962C0.514624 105.857 0.397705 106.86 0.593244 107.826C0.764676 107.705 0.922574 107.563 1.05791 107.402C1.20679 110.49 2.22636 112.487 4.08053 113.391C7.9603 110.249 14.6935 110.933 14.6935 110.933H107.449C107.449 110.933 109.306 104.978 100.716 103.536C96.3379 102.778 93.1461 97.6217 91.716 94.4029C90.5835 91.4931 89.9571 88.411 89.8641 85.2899C89.7152 82.0147 92.4965 80.6477 94.3529 81.9244C96.8951 83.6433 100.845 91.669 104.74 97.1029C108.601 102.219 113.04 106.872 117.968 110.971H131.714C131.714 110.971 131.919 110.619 131.714 108.584C131.511 106.552 129.266 105.147 124.834 103.796C118.674 101.946 119.657 92.0547 120.936 85.8629C122.217 79.6688 124.778 67.2061 121.845 59.6451C119.583 53.8029 118.135 50.8051 116.635 46.9975C114.939 42.1518 113.52 37.2137 112.385 32.207C112.385 32.207 109.935 23.1842 109.601 20.5022C109.1 17.5862 109.138 14.6028 109.714 11.7006C110.01 10.4081 110.639 10.3697 112.2 10.2795C113.263 10.2735 114.296 10.6344 115.124 11.3013C115.952 11.9683 116.524 12.9004 116.745 13.9405C117.151 15.0683 120.566 15.0119 121.103 13.9405C121.642 12.8668 123.311 9.44488 125.425 9.59376C129.544 9.88925 129.544 12.6254 129.284 14.9736C129.236 17.6981 128.849 20.406 128.134 23.0354C127.602 24.9978 127.2 26.9918 126.929 29.0084C126.763 30.0979 125.666 36.883 126.334 40.1019C127.726 46.7945 129.415 53.0427 129.007 60.4391C128.82 63.9354 131.863 72.5115 132.846 80.8868C133.83 89.2644 133.922 91.1502 132.733 97.1593C131.827 101.743 132.456 104.037 133.254 104.831C135.871 107.438 138.208 105.496 139.767 101.005C141.172 96.6383 141.706 92.0412 141.341 87.4712ZM149.671 66.0805C150.043 62.7872 150.043 56.8345 150.043 47.1644C150.043 37.4943 150.043 31.5415 149.671 28.2505H169.968L169.262 34.4446C166.677 34.1337 164.074 33.9981 161.471 34.0386H158.078C158.078 36.8289 157.911 39.1229 157.911 47.1103C157.911 56.7984 157.911 62.7331 158.283 66.0241L149.671 66.0805ZM167.818 47.2208C167.818 35.9965 173.94 27.567 182.435 27.567C190.932 27.567 197.054 35.9988 197.054 47.2208C197.054 58.4428 190.932 66.8745 182.437 66.8745C173.94 66.8745 167.818 58.3142 167.818 47.2208ZM188.446 47.2208C188.446 38.2161 186.055 32.8746 182.435 32.8746C178.819 32.8746 176.426 38.162 176.426 47.2208C176.426 56.2796 178.817 61.5872 182.437 61.5872C186.053 61.5872 188.446 56.1691 188.446 47.2185V47.2208ZM198.777 66.0805C199.26 59.2932 199.317 52.5081 199.317 45.7411C199.317 40.7109 199.204 32.9649 198.926 28.2505H211.745C219.167 28.2505 224.603 31.431 224.603 39.5289C224.603 48.9216 217.497 50.9201 209.408 50.9201H207.22C207.22 58.1293 207.442 62.6948 207.552 66.0783H198.777V66.0805ZM208.926 33.5581C208.409 33.5762 207.895 33.6258 207.385 33.7047C207.275 34.8145 207.182 39.2537 207.182 39.4928V45.52C207.89 45.6072 208.603 45.6448 209.316 45.6328C213.304 45.6328 216.18 43.9297 216.18 39.5289C216.18 35.1303 212.86 33.5581 208.926 33.5581ZM238.184 28.2505C241.153 38.753 247.108 57.2225 250.038 66.0783H241.004C240.577 64.4339 239.779 61.2534 238.703 57.8157H228.501C227.691 60.5344 227.021 63.293 226.495 66.0805H219.315C220.746 61.9391 225.586 47.5907 228.87 36.7183C229.502 34.9724 230.023 33.1882 230.429 31.3746C230.373 30.2525 230 29.1692 229.353 28.2505H238.184ZM237.329 52.287C236.264 48.2572 235.114 44.2502 233.88 40.2688H233.75C232.462 44.2591 231.225 48.2655 230.039 52.287H237.329ZM171.19 92.0367C171.19 80.7966 177.312 72.3852 185.807 72.3852C194.304 72.3852 200.354 80.7989 200.354 92.0389C200.354 103.279 194.232 111.675 185.735 111.675C177.238 111.675 171.19 103.259 171.19 92.0367ZM191.819 92.0367C191.819 83.0365 189.428 77.6725 185.81 77.6725C182.191 77.6725 179.798 83.0342 179.798 92.0389C179.798 101.044 182.191 106.385 185.81 106.385C189.428 106.385 191.821 101.044 191.821 92.0389L191.819 92.0367ZM227.292 92.0367C227.292 80.7966 233.413 72.3852 241.911 72.3852C250.408 72.3852 256.53 80.7989 256.53 92.0389C256.53 103.279 250.444 111.675 241.911 111.675C233.377 111.675 227.292 103.259 227.292 92.0367ZM247.922 92.0367C247.922 83.0365 245.529 77.6725 241.911 77.6725C238.292 77.6725 235.899 83.0342 235.899 92.0389C235.899 101.044 238.292 106.385 241.911 106.385C245.529 106.385 247.922 101.041 247.922 92.0367ZM322.59 73.1047C322.479 75.1213 322.256 80.5011 322.256 83.7538C322.256 85.0125 322.256 87.2501 322.423 88.414C323.054 88.414 324.762 88.5629 326.839 88.5629C328.917 88.5629 330.548 88.5629 331.236 88.414C331.346 87.2501 331.403 85.0125 331.403 83.7538C331.403 80.5733 331.197 75.1213 331.087 73.107H339.638C339.268 76.3777 339.268 82.3508 339.268 92.0186C339.268 101.689 339.268 107.644 339.638 110.935H331.03C331.143 108.808 331.403 104.723 331.403 99.2684C331.403 97.4187 331.403 95.6615 331.29 94.2382C330.604 94.2382 328.899 94.0713 326.839 94.0713C324.78 94.0713 323.129 94.1841 322.368 94.2382C322.256 95.6615 322.256 97.4729 322.256 99.2684C322.256 104.815 322.535 108.808 322.646 110.935H314.02C314.39 107.641 314.39 101.689 314.39 92.0186C314.39 82.3508 314.39 76.3777 314.02 73.1047H322.59ZM358.99 73.1047C361.976 83.5891 367.913 102.077 370.845 110.933H361.755C361.329 109.288 360.53 106.108 359.472 102.67H349.27C348.457 105.389 347.782 108.148 347.246 110.935H340.067C341.515 106.793 346.337 92.4449 349.64 81.5726C350.267 79.8267 350.783 78.0424 351.18 76.2289C351.125 75.1093 350.759 74.0273 350.122 73.1047H358.99ZM358.137 97.1413C357.069 93.1121 355.918 89.1051 354.686 85.123H354.575C353.299 89.1168 352.062 93.1231 350.865 97.1413H358.137Z" fill="#17171B"></path> <path d="M396.738 73.1063C396.368 76.3793 396.368 82.3523 396.368 92.0224C396.368 101.693 396.368 107.645 396.738 110.936H388.166C388.333 108.809 388.333 107.368 388.503 94.5556L385.367 94.4428C383.12 99.8609 380.989 105.315 379.245 110.936H369.69C372.715 104.614 376.48 96.3105 377.705 93.0194C375.654 92.3683 373.869 91.0734 372.613 89.3269C371.361 87.5822 370.706 85.4788 370.748 83.3313C370.731 81.413 371.274 79.5314 372.311 77.9176C373.35 76.3003 374.836 75.0204 376.59 74.2341C379.292 73.3169 382.148 72.9406 384.995 73.1266L396.738 73.1063ZM388.503 78.3959C387.712 78.2638 386.911 78.1959 386.109 78.1928C381.749 78.1928 379.356 79.8733 379.356 83.7396C379.356 86.0674 380.357 89.081 385.367 89.081C386.423 89.081 387.221 89.081 388.503 88.9344V78.3959ZM211.486 87.899H210.037C210.037 84.0892 210.037 81.1681 210.168 78.653H213.137C216.665 78.6034 220.197 78.7455 223.711 79.0793V73.1063H201.617C202.098 79.8733 202.154 86.6584 202.154 93.4458C202.154 98.4759 202.041 106.202 201.784 110.936H213.879C221.3 110.936 226.734 107.237 226.734 99.1955C226.734 89.8389 219.611 87.899 211.486 87.899ZM211.021 105.721C210.743 105.741 210.464 105.741 210.186 105.721C210.186 104.593 209.983 99.5632 209.983 99.3985V93.3691C210.448 93.2818 210.921 93.244 211.393 93.2563C215.363 93.2563 218.239 94.9593 218.239 99.3579C218.239 103.759 214.973 105.644 211.059 105.644L211.021 105.721ZM170.674 103.098C168.935 104.915 166.58 106.015 164.071 106.184C158.504 106.184 154.942 100.138 154.942 91.9841C154.942 83.0741 158.337 77.674 163.699 77.674C165.158 77.777 166.578 78.1959 167.859 78.9016C169.14 79.6073 170.253 80.5831 171.12 81.7613V81.8719H171.287V73.4965C169.063 72.8062 166.752 72.4326 164.423 72.3867C152.4 72.3867 145.87 83.4802 145.87 93.3533C145.87 102.782 151.437 111.676 162.122 111.676C164.272 111.632 166.386 111.112 168.311 110.152C170.235 109.193 171.923 107.818 173.252 106.127L170.674 103.098ZM274.356 110.936C272.912 102.099 270.917 93.361 268.383 84.7727H268.049C265.67 93.3811 263.774 102.116 262.372 110.936H254.283C257.082 98.0907 260.757 85.4518 265.284 73.1085H272.818C277.572 85.3775 281.258 98.0336 283.837 110.936H274.356ZM310.81 73.1063H307.099C305.245 73.1063 304.891 73.2191 304.244 73.2191C303.427 75.38 296.304 88.878 293.353 93.5563C293.243 92.3901 293.52 85.0885 293.52 83.8298C293.52 80.6493 293.723 75.195 293.836 73.1807H285.264C285.637 76.4515 285.637 82.4245 285.637 92.0946C285.637 101.765 285.637 107.717 285.264 111.009H292.814C293.399 107.174 294.517 103.44 296.137 99.9151C298.028 96.1178 300.114 92.421 302.387 88.8397C302.498 90.2833 302.498 97.4947 302.498 99.288C302.498 104.835 302.238 108.83 302.128 110.954H310.736C310.366 107.661 310.366 101.708 310.366 92.0405C310.366 82.3704 310.438 76.3973 310.81 73.1063Z" fill="#17171B"></path> </g> </g> <defs> <clipPath id="clip0_977_18887"> <rect width="397" height="114" fill="white"></rect> </clipPath> </defs> </svg> 