<?xml version="1.0" encoding="UTF-8"?> <!-- Creator: CorelDRAW 2020 (64-Bit) --> <svg xmlns="http://www.w3.org/2000/svg" xmlns:xlink="http://www.w3.org/1999/xlink" xmlns:xodm="http://www.corel.com/coreldraw/odm/2003" xml:space="preserve" width="1637px" height="360px" style="shape-rendering:geometricPrecision; text-rendering:geometricPrecision; image-rendering:optimizeQuality; fill-rule:evenodd; clip-rule:evenodd" viewBox="0 0 1637 359.72"> <defs> <style type="text/css"> <![CDATA[ .fil0 {fill:#1090CF;fill-rule:nonzero} ]]> </style> </defs> <g id="Слой_x0020_1"> <metadata id="CorelCorpID_0Corel-Layer"></metadata> <g id="_2688087896512"> <path class="fil0" d="M0 264.07l20.93 -29.31c8.38,7.94 18.58,14.38 30.6,19.32 12.02,4.94 24.48,7.41 37.36,7.41 20.18,0 36.93,-6.01 50.24,-18.03 13.31,-12.03 21.36,-27.27 24.15,-45.74l-109.5 0 0 -33.81 109.83 0c-2.37,-18.47 -10.31,-33.66 -23.84,-45.57 -13.52,-11.92 -30.38,-17.88 -50.56,-17.88 -23.62,0 -45.3,8.59 -65.05,25.77l-19.97 -31.24c10.3,-10.52 23.08,-18.52 38.32,-24 15.25,-5.47 31.24,-8.21 47.99,-8.21 34.99,0 63.23,11.17 84.7,33.5 21.47,22.32 32.2,50.13 32.2,83.41 0,34.14 -11.16,62.58 -33.49,85.34 -22.33,22.76 -50.67,34.14 -85.02,34.14 -34.78,0 -64.41,-11.7 -88.89,-35.1zm243.47 31.24l0 -164.25 40.9 0 0 63.44 70.21 0 0 -63.44 40.9 0 0 164.25 -40.9 0 0 -66.35 -70.21 0 0 66.35 -40.9 0zm185.83 -82.13c0,-25.33 7.78,-46 23.35,-61.99 15.56,-16 35.69,-24 60.38,-24 22.76,0 40.58,7.36 53.46,22.06 12.89,14.71 19.33,33.34 19.33,55.88 0,3.65 -0.43,8.91 -1.29,15.78l-113.04 0c1.29,13.74 6.55,24.42 15.78,32.04 9.23,7.63 20.4,11.44 33.49,11.44 16.32,0 31.99,-6.01 47.02,-18.04l16.1 29.31c-8.15,7.3 -18.19,13.04 -30.11,17.23 -11.91,4.19 -23.88,6.28 -35.91,6.28 -26.4,0 -47.77,-8.32 -64.09,-24.96 -16.31,-16.64 -24.47,-36.98 -24.47,-61.03zm43.15 -20.29l72.47 0c-0.22,-10.73 -3.39,-19.21 -9.5,-25.44 -6.12,-6.23 -13.91,-9.34 -23.35,-9.34 -10.31,0 -19,3.17 -26.09,9.5 -7.09,6.33 -11.59,14.76 -13.53,25.28zm147.5 166.83l0 -228.66 37.36 0 0 12.24 -0.64 11.59 0.64 0c5.37,-8.8 12.72,-15.62 22.06,-20.45 9.34,-4.83 19.59,-7.25 30.76,-7.25 22.11,0 39.77,7.95 52.98,23.84 13.2,15.88 19.8,36.6 19.8,62.15 0,25.77 -7.03,46.54 -21.09,62.32 -14.06,15.78 -32.05,23.67 -53.94,23.67 -19.54,0 -35.32,-7.73 -47.35,-23.19l-0.64 0c0.64,3.87 0.96,8.59 0.96,14.17l0 69.57 -40.9 0zm39.62 -145.57c0,13.74 3.65,25.6 10.95,35.58 7.3,9.99 17.28,14.98 29.95,14.98 11.81,0 21.63,-4.56 29.47,-13.69 7.83,-9.12 11.75,-21.52 11.75,-37.19 0,-15.46 -3.76,-27.92 -11.27,-37.36 -7.52,-9.45 -17.29,-14.17 -29.31,-14.17 -11.81,0 -21.68,4.34 -29.63,13.04 -7.94,8.7 -11.91,21.63 -11.91,38.81zm158.12 81.16l0 -164.25 107.89 0 0 34.78 -66.98 0 0 129.47 -40.91 0zm121.42 -82.13c0,-25.33 7.78,-46 23.35,-61.99 15.56,-16 35.69,-24 60.38,-24 22.76,0 40.58,7.36 53.46,22.06 12.89,14.71 19.33,33.34 19.33,55.88 0,3.65 -0.43,8.91 -1.29,15.78l-113.04 0c1.29,13.74 6.55,24.42 15.78,32.04 9.23,7.63 20.4,11.44 33.49,11.44 16.32,0 31.99,-6.01 47.02,-18.04l16.1 29.31c-8.15,7.3 -18.19,13.04 -30.11,17.23 -11.91,4.19 -23.88,6.28 -35.91,6.28 -26.4,0 -47.77,-8.32 -64.09,-24.96 -16.31,-16.64 -24.47,-36.98 -24.47,-61.03zm43.15 -20.29l72.47 0c-0.22,-10.73 -3.39,-19.21 -9.5,-25.44 -6.12,-6.23 -13.91,-9.34 -23.35,-9.34 -10.31,0 -19,3.17 -26.09,9.5 -7.09,6.33 -11.59,14.76 -13.53,25.28zm184.22 102.42l0 -129.47 -54.11 0 0 -34.78 149.11 0 0 34.78 -54.42 0 0 129.47 -40.58 0zm122.7 0l0 -164.25 38.97 0 0 87.92c0,7.94 -0.32,14.49 -0.97,19.64l0.65 0c0.86,-1.93 4.94,-8.48 12.24,-19.64l60.86 -87.92 39.62 0 0 164.25 -38.97 0 0 -87.6c0,-4.73 0.32,-11.28 0.97,-19.65l-0.65 0c-0.64,1.5 -4.72,8.05 -12.24,19.65l-60.87 87.6 -39.61 0zm195.17 0l0 -164.25 40.9 0 0 62.8 19.96 0 39.94 -62.8 45.41 0 -52.17 78.26 0 0.64 58.61 85.35 -47.34 0 -43.16 -66.67 -21.25 0 0 66.67 -40.9 0z"></path> <path class="fil0" d="M886.42 79.49l0 -78.18 66.03 0 0 78.18 -19.13 0 0 -61.89 -27.77 0 0 61.89 -19.13 0zm79.29 0l26.57 -78.18 20.12 0 26.56 78.18 -19.68 0 -4.81 -16.41 -24.38 0 -4.7 16.41 -19.68 0zm28.86 -31.71l15.42 0 -4.37 -15.2 -3.17 -13.45 -0.22 0c-1.17,5.69 -2.23,10.17 -3.17,13.45l-4.49 15.2zm57.65 31.71l0 -78.18 19.13 0 0 31.27 28.43 0 0 -31.27 19.13 0 0 78.18 -19.13 0 0 -30.62 -28.43 0 0 30.62 -19.13 0zm84.32 -39.26c0,-11.51 3.84,-21.1 11.53,-28.75 7.69,-7.65 17.51,-11.48 29.47,-11.48 5.47,0 10.79,0.93 15.96,2.79 5.18,1.86 9.62,4.61 13.34,8.25l-8.86 14.43c-2.62,-2.33 -5.7,-4.24 -9.23,-5.74 -3.54,-1.49 -6.98,-2.24 -10.34,-2.24 -7.29,0 -12.79,2.17 -16.51,6.51 -3.71,4.34 -5.57,9.6 -5.57,15.8 0,6.34 1.91,11.84 5.74,16.51 3.83,4.66 9.27,6.99 16.34,6.99 7.44,0 14.36,-3.2 20.78,-9.62l9.84 14c-8.46,8.74 -18.95,13.12 -31.49,13.12 -12.39,0 -22.32,-3.81 -29.8,-11.43 -7.47,-7.61 -11.2,-17.33 -11.2,-29.14zm87.6 39.26l0 -78.18 19.13 0 0 36.52 -0.87 13.34 0.22 0c2.33,-5.47 4.52,-9.92 6.56,-13.34l21.65 -36.52 19.35 0 0 78.18 -19.14 0 0 -36.41 0.88 -13.34 -0.22 0c-2.33,5.47 -4.52,9.91 -6.56,13.34l-21.76 36.41 -19.24 0zm83.56 -39.58c0,-11.3 3.88,-20.78 11.64,-28.43 7.76,-7.65 17.51,-11.48 29.25,-11.48 11.73,0 21.48,3.83 29.24,11.48 7.77,7.65 11.65,17.13 11.65,28.43 0,11.59 -3.88,21.3 -11.65,29.13 -7.76,7.84 -17.51,11.76 -29.24,11.76 -11.74,0 -21.49,-3.92 -29.25,-11.76 -7.76,-7.83 -11.64,-17.54 -11.64,-29.13zm19.79 0c0,6.63 2.04,12.19 6.12,16.67 4.08,4.48 9.07,6.72 14.98,6.72 5.9,0 10.9,-2.24 14.98,-6.72 4.08,-4.48 6.12,-10.04 6.12,-16.67 0,-6.34 -2.04,-11.67 -6.12,-15.97 -4.08,-4.3 -9.08,-6.45 -14.98,-6.45 -5.91,0 -10.9,2.15 -14.98,6.45 -4.08,4.3 -6.12,9.63 -6.12,15.97zm79.51 39.58l0 -78.18 19.13 0 0 31.27 28.43 0 0 -31.27 19.13 0 0 78.18 -19.13 0 0 -30.62 -28.43 0 0 30.62 -19.13 0zm79.94 0l26.57 -78.18 20.12 0 26.57 78.18 -19.68 0 -4.81 -16.41 -24.38 0 -4.7 16.41 -19.69 0zm28.87 -31.71l15.42 0 -4.38 -15.2 -3.17 -13.45 -0.22 0c-1.16,5.69 -2.22,10.17 -3.17,13.45l-4.48 15.2zm68.36 31.71l0 -61.78 -23.73 0 0 -16.4 66.59 0 0 16.4 -23.73 0 0 61.78 -19.13 0z"></path> </g> </g> </svg> 