<?xml version="1.0" encoding="UTF-8"?>
<svg xmlns="http://www.w3.org/2000/svg" version="1.1" viewBox="0 0 420.94 103.56">
  <defs>
    <style>
      .cls-1 {
        fill: #00577a;
      }
    </style>
  </defs>
  <!-- Generator: Adobe Illustrator 28.6.0, SVG Export Plug-In . SVG Version: 1.2.0 Build 709)  -->
  <g>
    <g id="_x30_0">
      <g>
        <g>
          <polygon class="cls-1" points="10.96 .84 0 .84 0 59.85 41.81 59.85 41.81 50.57 10.96 50.57 10.96 .84"/>
          <polygon class="cls-1" points="61.45 34.39 89.94 34.39 89.94 25.37 61.45 25.37 61.45 10.03 93.56 10.03 93.56 .84 50.49 .84 50.49 59.85 94.74 59.85 94.74 50.66 61.45 50.66 61.45 34.39"/>
          <path class="cls-1" d="M146.75,58.75c4.05-1.29,7.59-3.15,10.62-5.56v-23.52h-10.37v18.38c-3.49,2.02-7.53,3.03-12.14,3.03-4.1,0-7.77-.9-11-2.7-3.23-1.8-5.76-4.27-7.59-7.42-1.83-3.15-2.74-6.69-2.74-10.62s.91-7.64,2.74-10.79c1.83-3.15,4.35-5.59,7.59-7.33,3.23-1.74,6.92-2.61,11.08-2.61,6.35,0,11.77,2.25,16.27,6.74l6.91-6.74c-2.75-3.15-6.15-5.53-10.2-7.16-4.05-1.63-8.54-2.45-13.49-2.45-6.07,0-11.53,1.31-16.39,3.92-4.86,2.61-8.67,6.22-11.42,10.83s-4.13,9.81-4.13,15.59,1.37,10.99,4.13,15.59c2.75,4.61,6.55,8.22,11.38,10.83,4.83,2.61,10.26,3.92,16.27,3.92,4.27,0,8.43-.65,12.48-1.94Z"/>
          <polygon class="cls-1" points="216.04 50.66 182.74 50.66 182.74 34.39 211.23 34.39 211.23 25.37 182.74 25.37 182.74 10.03 214.85 10.03 214.85 .84 171.78 .84 171.78 59.85 216.04 59.85 216.04 50.66"/>
          <polygon class="cls-1" points="269.81 40.8 237.28 .84 228.26 .84 228.26 59.85 239.13 59.85 239.13 19.89 271.66 59.85 280.68 59.85 280.68 .84 269.81 .84 269.81 40.8"/>
          <path class="cls-1" d="M339.1,4.51c-4.89-2.44-10.48-3.67-16.77-3.67h-25.79v59h25.79c6.29,0,11.88-1.22,16.77-3.67,4.89-2.44,8.68-5.9,11.38-10.37,2.7-4.47,4.05-9.62,4.05-15.47s-1.35-11-4.05-15.47c-2.7-4.47-6.49-7.92-11.38-10.37ZM340.83,41.01c-1.77,3.06-4.3,5.42-7.59,7.08-3.29,1.66-7.09,2.49-11.42,2.49h-14.33V10.12h14.33c4.33,0,8.13.83,11.42,2.49,3.29,1.66,5.82,4.02,7.59,7.08,1.77,3.06,2.65,6.62,2.65,10.66s-.88,7.6-2.65,10.66Z"/>
          <path class="cls-1" d="M394.31.84h-10.79l-26.55,59h11.29l5.82-13.66h29.5l5.9,13.66h11.46L394.31.84ZM377.79,37.59l11.04-25.79,11.12,25.79h-22.17Z"/>
        </g>
        <g>
          <path class="cls-1" d="M132.37,83.3c1.34.6,2.37,1.45,3.08,2.56.72,1.11,1.07,2.43,1.07,3.96s-.36,2.83-1.07,3.95c-.71,1.12-1.74,1.98-3.08,2.58s-2.92.89-4.72.89h-4.71v6.02h-3.87v-20.86h8.58c1.81,0,3.38.3,4.72.89ZM131.31,92.89c.87-.71,1.31-1.74,1.31-3.07s-.44-2.35-1.31-3.07c-.87-.72-2.16-1.07-3.84-1.07h-4.53v8.28h4.53c1.69,0,2.97-.36,3.84-1.07Z"/>
          <path class="cls-1" d="M158.04,100.01v3.25h-15.64v-20.86h15.23v3.25h-11.35v5.42h10.07v3.19h-10.07v5.75h11.77Z"/>
          <path class="cls-1" d="M168.37,102.17c-1.7-.92-3.03-2.2-3.99-3.83-.96-1.63-1.45-3.47-1.45-5.51s.49-3.88,1.46-5.51c.97-1.63,2.31-2.91,4.01-3.83,1.7-.92,3.6-1.39,5.71-1.39,1.71,0,3.27.3,4.68.89,1.41.6,2.6,1.46,3.58,2.59l-2.5,2.35c-1.51-1.63-3.37-2.44-5.57-2.44-1.43,0-2.71.31-3.84.94s-2.02,1.5-2.65,2.61c-.64,1.11-.95,2.37-.95,3.78s.32,2.67.95,3.79c.64,1.11,1.52,1.98,2.65,2.61,1.13.63,2.41.94,3.84.94,2.21,0,4.06-.82,5.57-2.47l2.5,2.38c-.97,1.13-2.17,2-3.59,2.59-1.42.6-2.98.89-4.69.89-2.11,0-4.01-.46-5.71-1.39Z"/>
          <path class="cls-1" d="M203.07,85.68h-6.91v17.58h-3.84v-17.58h-6.88v-3.28h17.64v3.28Z"/>
          <path class="cls-1" d="M212.22,102.17c-1.71-.92-3.05-2.21-4.02-3.84-.97-1.64-1.46-3.47-1.46-5.5s.49-3.86,1.46-5.5c.97-1.64,2.31-2.92,4.02-3.84,1.71-.92,3.62-1.39,5.75-1.39s4.04.46,5.75,1.39c1.71.92,3.05,2.2,4.02,3.83.97,1.63,1.46,3.47,1.46,5.51s-.49,3.88-1.46,5.51c-.97,1.63-2.31,2.91-4.02,3.83-1.71.92-3.63,1.39-5.75,1.39s-4.04-.46-5.75-1.39ZM221.72,99.22c1.11-.62,1.99-1.5,2.62-2.62.64-1.12.95-2.38.95-3.77s-.32-2.65-.95-3.77c-.64-1.12-1.51-2-2.62-2.62s-2.36-.94-3.75-.94-2.64.31-3.75.94c-1.11.63-1.99,1.5-2.62,2.62-.64,1.12-.95,2.38-.95,3.77s.32,2.65.95,3.77c.63,1.12,1.51,2,2.62,2.62,1.11.63,2.36.94,3.75.94s2.64-.31,3.75-.94Z"/>
          <path class="cls-1" d="M249,83.3c1.34.6,2.37,1.45,3.08,2.56.71,1.11,1.07,2.43,1.07,3.96s-.36,2.83-1.07,3.95c-.71,1.12-1.74,1.98-3.08,2.58s-2.92.89-4.72.89h-4.71v6.02h-3.87v-20.86h8.58c1.81,0,3.38.3,4.72.89ZM247.94,92.89c.87-.71,1.31-1.74,1.31-3.07s-.44-2.35-1.31-3.07c-.88-.72-2.16-1.07-3.84-1.07h-4.53v8.28h4.53c1.69,0,2.97-.36,3.84-1.07Z"/>
          <path class="cls-1" d="M271.81,98.43h-10.43l-2.06,4.83h-3.99l9.39-20.86h3.81l9.42,20.86h-4.05l-2.09-4.83ZM270.53,95.39l-3.93-9.12-3.9,9.12h7.84Z"/>
          <path class="cls-1" d="M301.88,82.4v20.86h-3.87v-8.94h-10.79v8.94h-3.87v-20.86h3.87v8.61h10.79v-8.61h3.87Z"/>
        </g>
      </g>
    </g>
  </g>
</svg>