<?xml version="1.0" encoding="UTF-8"?> <svg xmlns="http://www.w3.org/2000/svg" width="210" height="61" viewBox="0 0 210 61" fill="none"> <g clip-path="url(#clip0_366_6219)"> <path d="M46.8084 24.1899C34.4607 23.2497 14.8299 27.6523 7.41042 40.6431C6.8285 40.399 6.26476 40.1187 5.74648 39.8023C5.95561 39.1785 6.14656 38.5819 6.31931 38.0033C6.71029 36.9004 7.27403 35.463 8.02871 33.7906C10.7565 28.2309 16.7121 27.2003 23.577 26.007C29.6508 24.9493 35.9337 23.8644 40.7891 19.4528L40.8164 19.4257C43.5714 16.6865 45.5809 13.6219 46.8266 10.268V24.1718L46.8084 24.1899ZM38.7524 49.5657C36.5702 48.5442 34.1243 47.2786 30.6691 47.2786C27.7595 47.2786 25.6591 48.5352 23.6133 49.7466C21.5675 50.967 19.6308 52.1151 16.8667 52.1151C16.4848 52.1151 16.1029 52.0337 15.7483 51.8981C14.6299 51.4732 13.4479 51.0574 12.1749 50.6235L11.5657 50.4155C9.91996 49.846 8.42878 48.9962 7.11946 47.9295C9.05617 48.7612 11.1202 49.2222 12.8023 49.2222C16.9121 49.2222 19.7763 47.5227 22.5495 45.8773C25.1136 44.3495 27.5413 42.9122 30.851 42.9122C34.6971 42.9122 37.5886 44.2772 40.1345 45.4886C41.0073 45.9045 41.8439 46.2932 42.6804 46.6277C41.562 47.8119 40.2345 48.8154 38.7615 49.5838M36.2156 50.6325C30.8237 52.4948 26.7957 53.887 24.1952 57.8014C22.895 55.8306 21.222 54.5017 19.1944 53.4259C21.222 52.9829 22.8405 52.0247 24.4226 51.0845C26.3593 49.9274 28.196 48.8425 30.6782 48.8425C33.1605 48.8425 35.0881 49.5838 36.8612 50.4065C36.8521 50.4065 36.8339 50.4065 36.8248 50.4155L36.2156 50.6235V50.6325ZM36.5884 27.4172C33.8333 28.9812 32.3149 30.5632 30.8328 32.091C29.2598 33.7183 27.6322 35.3997 24.4044 37.2439C24.0316 37.4338 23.6679 37.6417 23.3133 37.8406C22.8586 38.1028 22.4131 38.3649 21.9676 38.6271C19.2671 40.2362 16.7121 41.755 13.0296 41.755C11.6475 41.755 10.2473 41.5561 8.92887 41.1855C14.9027 31.0333 28.8688 26.459 40.2163 25.7358C39.0797 26.1516 37.8522 26.694 36.5884 27.4172ZM31.051 35.454C30.5146 35.454 30.0054 35.4901 29.5144 35.5534C30.4418 34.7398 31.2056 33.9533 31.9603 33.1668C33.4242 31.6481 34.8062 30.2197 37.3612 28.7642C41.6075 26.3505 45.3081 26.0612 46.8084 26.0522C46.7266 26.233 46.6356 26.4228 46.5538 26.6127C44.7626 30.5542 42.5349 35.454 31.1601 35.454H31.051ZM46.3356 40.0102C44.5716 39.8656 42.9077 39.0791 40.9983 38.1751C39.7708 37.5965 38.4705 36.9818 37.0157 36.4846C42.7895 35.3274 45.2808 32.4345 46.8266 29.614V36.1501C46.8266 37.479 46.6538 38.7717 46.3356 40.0102ZM13.0296 43.3099C17.1394 43.3099 19.9945 41.6104 22.7677 39.965C23.2042 39.7029 23.6406 39.4498 24.0679 39.1966C24.4589 38.9887 24.8317 38.7898 25.1863 38.5819C26.9503 37.6688 28.7961 36.9999 31.051 36.9999C34.8881 36.9999 37.7795 38.3649 40.3254 39.5673C42.1803 40.4442 43.9442 41.2759 45.8537 41.5109C45.3354 42.8941 44.6262 44.1959 43.7442 45.362C42.7895 45.0185 41.8166 44.5665 40.7982 44.0874C38.0977 42.8127 35.0426 41.3663 30.8419 41.3663C27.1049 41.3663 24.3771 42.9845 21.7403 44.5575C19.0307 46.1666 16.4757 47.6854 12.7932 47.6854C9.69265 47.6854 5.12819 45.8954 3.28241 43.2195C2.50954 41.7279 1.97308 40.0916 1.72758 38.383C4.12801 41.6104 8.66519 43.319 13.0205 43.319M1.56392 18.7477C2.23676 20.4291 3.02782 21.749 3.79159 22.9875C5.78285 26.251 7.38314 28.8817 4.89179 37.3253C4.68266 37.922 4.5099 38.4282 4.3826 38.835C2.67321 37.3886 1.56392 35.4449 1.56392 33.0854V18.7386V18.7477ZM1.56392 1.58031H8.87432C6.32841 7.99886 7.91051 11.633 9.43806 15.1677C10.8383 18.4041 12.1749 21.4959 9.84722 26.92C9.02889 28.2851 8.31967 29.605 7.69229 30.8344C7.88323 26.7392 6.56481 24.5605 5.11001 22.192C3.43698 19.4528 1.55482 16.352 1.55482 9.22833V1.58031H1.56392ZM25.941 19.4709C33.3332 15.6288 40.9619 11.6692 46.7084 3.54203C46.2356 9.19217 43.8897 14.1552 39.698 18.3228C35.179 22.418 29.1325 23.4667 23.286 24.4792C19.9945 25.0487 16.7848 25.6092 13.9934 26.694C17.5486 23.8373 21.6675 21.6857 25.941 19.4618M19.1398 14.8965L19.1762 14.9327C18.867 15.2401 18.5579 15.5474 18.2578 15.8548C19.8945 10.946 19.7035 5.6484 17.5577 1.56223H25.4682C26.7502 4.42797 26.0228 7.90846 19.1307 14.8965M25.7046 9.40009C27.5504 6.40778 27.9777 3.9398 27.1412 1.56223H41.4165C35.2336 3.49683 30.0327 6.27218 25.7046 9.40009ZM45.9264 1.96C40.3254 10.2589 32.6513 14.2456 25.2227 18.1058C20.4855 20.5648 15.9301 22.9333 12.0658 26.2872C12.6477 25.3561 13.2842 24.4159 13.9661 23.4576C19.5126 15.674 29.5144 5.77497 45.9264 1.96ZM10.5564 1.58031H15.7665C18.967 6.80555 18.2396 14.9689 14.0025 20.7908C13.5297 21.4055 13.0751 22.0112 12.6477 22.6078C12.6386 22.6259 12.6295 22.644 12.6114 22.653C12.9387 19.3624 11.893 16.9306 10.8565 14.544C9.34713 11.0635 7.9196 7.76381 10.5473 1.57127M0 0.0253906V36.123C0 43.2466 4.43716 49.5748 11.0474 51.862L11.6566 52.0699C17.4304 54.0678 21.2402 55.3786 23.4951 59.6637L24.1862 60.9745L24.8772 59.6637C27.1321 55.3876 30.9419 54.0678 36.7157 52.0699L37.3249 51.862C43.9261 49.5748 48.3723 43.2466 48.3723 36.123V0.0253906H0Z" fill="#CDAA94"></path> <path d="M68.6398 45.2393H69.9942V39.7248H73.0417V45.2393H74.3961V38.4671H68.6398V45.2393ZM79.8153 38.4671H78.4609L75.6069 45.2393H77.0581L77.3773 44.4556C77.4644 44.2912 77.6869 44.1364 78.0449 44.0009C78.3931 43.8655 78.8478 43.7881 79.409 43.7881H80.6279L81.2084 45.2393H82.6693L79.8153 38.4671ZM79.7089 42.5304C78.8672 42.5304 78.2964 42.6659 78.0062 42.9174L79.1381 40.1118L80.1152 42.5304H79.7089ZM89.3617 39.5894C89.2166 39.3088 89.0231 39.0766 88.7716 38.8831C88.5974 38.7477 88.3846 38.6509 88.1524 38.5736C87.9105 38.5058 87.6106 38.4671 87.2624 38.4671H83.8763V45.2393H85.2307V42.898C85.5597 42.7239 85.9853 42.6272 86.5078 42.6272H87.2527C87.6106 42.6272 87.9105 42.5981 88.1427 42.5207C88.3846 42.453 88.5974 42.3466 88.7716 42.2112C89.0231 42.0273 89.2166 41.7951 89.3617 41.5049C89.5068 41.2244 89.5746 40.9051 89.5746 40.5471C89.5746 40.1989 89.5068 39.8796 89.3617 39.5894ZM87.9976 41.1663C87.8428 41.3018 87.6493 41.3695 87.3978 41.3695H86.5078C85.966 41.3695 85.5403 41.4662 85.2307 41.6404V39.7248H87.3978C87.6493 39.7248 87.8428 39.8022 87.9976 39.9377C88.1524 40.0731 88.2201 40.2859 88.2201 40.5471C88.2201 40.818 88.1524 41.0309 87.9976 41.1663ZM90.8899 45.2393H92.2443V42.5304L94.9532 45.2393H96.7913L93.3085 41.8048L96.6946 38.4671H94.8564L92.2443 41.0792V38.4671H90.8899V45.2393ZM96.8363 42.1918V43.4495H99.7386V42.1918H96.8363ZM108.012 41.8532C108.012 41.3598 107.915 40.8954 107.731 40.4697C107.547 40.0441 107.296 39.6668 106.977 39.3475C106.657 39.0283 106.28 38.7767 105.845 38.5929C105.409 38.4188 104.935 38.322 104.432 38.322C103.92 38.322 103.445 38.4188 103.01 38.5929C102.575 38.7767 102.197 39.0283 101.878 39.3475C101.559 39.6668 101.307 40.0441 101.124 40.4697C100.94 40.8954 100.853 41.3598 100.853 41.8532C100.853 42.3563 100.94 42.8206 101.124 43.2463C101.307 43.672 101.559 44.0493 101.878 44.3686C102.197 44.6878 102.575 44.9393 103.01 45.1135C103.445 45.2973 103.92 45.3844 104.432 45.3844C104.935 45.3844 105.409 45.2973 105.845 45.1135C106.28 44.9393 106.657 44.6878 106.977 44.3686C107.296 44.0493 107.547 43.672 107.731 43.2463C107.915 42.8206 108.012 42.3563 108.012 41.8532ZM102.207 41.8532C102.207 41.5436 102.256 41.2437 102.372 40.9728C102.478 40.7019 102.633 40.4601 102.826 40.2472C103.02 40.0441 103.262 39.8796 103.533 39.7635C103.803 39.6474 104.103 39.5797 104.432 39.5797C104.761 39.5797 105.061 39.6474 105.332 39.7635C105.603 39.8796 105.835 40.0441 106.029 40.2472C106.222 40.4601 106.377 40.7019 106.493 40.9728C106.599 41.2437 106.657 41.5436 106.657 41.8532C106.657 42.1725 106.599 42.4724 106.493 42.7432C106.377 43.0141 106.222 43.256 106.029 43.4592C105.835 43.672 105.603 43.8365 105.332 43.9526C105.061 44.0686 104.761 44.1267 104.432 44.1267C104.103 44.1267 103.803 44.0686 103.533 43.9526C103.262 43.8365 103.02 43.672 102.826 43.4592C102.633 43.256 102.478 43.0141 102.372 42.7432C102.256 42.4724 102.207 42.1725 102.207 41.8532ZM114.354 39.7248V38.4671H108.646V39.7248H110.823V45.2393H112.177V39.7248H114.354ZM117.011 43.9816V42.6465C117.33 42.4724 117.756 42.3853 118.278 42.3853H120.387V41.1276H118.278C117.727 41.1276 117.311 41.2147 117.011 41.3888V39.7248H120.736V38.4671H115.657V45.2393H120.736V43.9816H117.011ZM123.061 38.4671V40.402C123.061 41.0696 123.041 41.6307 123.012 42.0854C122.983 42.5498 122.925 42.9174 122.838 43.1979C122.751 43.4785 122.635 43.6817 122.48 43.7978C122.325 43.9235 122.132 43.9816 121.9 43.9816H121.754V45.2393H121.9C122.316 45.2393 122.664 45.1812 122.954 45.0458C123.244 44.9103 123.477 44.7362 123.67 44.5137C123.854 44.2912 123.999 44.03 124.096 43.7204C124.192 43.4205 124.27 43.1012 124.318 42.7626C124.367 42.424 124.396 42.0757 124.405 41.7081C124.405 41.3501 124.415 40.9922 124.415 40.6439V39.7248H126.834V45.2393H128.188V38.4671H123.061ZM135.564 41.9209C135.351 41.6113 135.08 41.3791 134.732 41.2147C134.548 41.1373 134.354 41.0792 134.151 41.0405C133.938 41.0018 133.726 40.9825 133.513 40.9825H132.806C132.284 40.9825 131.858 40.8954 131.529 40.7213V38.4671H130.175V45.2393H133.513C133.842 45.2393 134.142 45.1909 134.432 45.0941C134.722 45.0071 134.964 44.862 135.177 44.6781C135.39 44.4943 135.564 44.2718 135.689 44.0106C135.815 43.7494 135.873 43.4495 135.873 43.1109C135.883 42.6368 135.777 42.2402 135.564 41.9209ZM134.267 43.7494C134.093 43.9042 133.871 43.9816 133.609 43.9816H131.529V41.979C131.839 42.1531 132.265 42.2402 132.806 42.2402H133.609C133.9 42.2402 134.122 42.3176 134.287 42.4724C134.441 42.6368 134.529 42.8497 134.529 43.1109C134.529 43.3818 134.441 43.5946 134.267 43.7494ZM144.534 41.1276C144.331 41.2244 144.089 41.2631 143.818 41.2727C143.634 41.2727 143.325 41.2437 142.88 41.1857C142.435 41.1373 142.164 41.1083 142.077 41.1083C141.816 41.1083 141.583 41.1566 141.4 41.2534V38.4671H140.045V45.2393H141.4V42.5111C141.593 42.4143 141.816 42.3659 142.077 42.3659C142.164 42.3659 142.435 42.395 142.88 42.4433C143.325 42.5014 143.634 42.5304 143.818 42.5304C144.089 42.5304 144.331 42.482 144.534 42.3853V45.2393H145.898V38.4671H144.534V41.1276ZM151.315 38.4671H149.961L147.107 45.2393H148.558L148.877 44.4556C148.964 44.2912 149.187 44.1364 149.545 44.0009C149.893 43.8655 150.348 43.7881 150.909 43.7881H152.128L152.708 45.2393H154.169L151.315 38.4671ZM151.209 42.5304C150.367 42.5304 149.796 42.6659 149.506 42.9174L150.638 40.1118L151.615 42.5304H151.209ZM163.622 41.9209C163.409 41.6113 163.138 41.3791 162.79 41.2147C162.606 41.1373 162.412 41.0792 162.209 41.0405C161.996 41.0018 161.783 40.9825 161.571 40.9825H160.864C160.342 40.9825 159.916 40.8954 159.587 40.7213V39.7248H163.457V38.4671H158.233V45.2393H161.571C161.89 45.2393 162.199 45.1909 162.49 45.0941C162.78 45.0071 163.031 44.862 163.244 44.6781C163.457 44.4943 163.622 44.2718 163.747 44.0106C163.873 43.7494 163.941 43.4495 163.941 43.1109C163.941 42.6368 163.834 42.2402 163.622 41.9209ZM162.325 43.7494C162.151 43.9042 161.928 43.9816 161.667 43.9816H159.587V41.979C159.897 42.1531 160.323 42.2402 160.864 42.2402H161.667C161.958 42.2402 162.18 42.3176 162.344 42.4724C162.499 42.6368 162.586 42.8497 162.586 43.1109C162.586 43.3818 162.499 43.5946 162.325 43.7494ZM168.775 38.4671H167.421L164.567 45.2393H166.018L166.337 44.4556C166.424 44.2912 166.647 44.1364 167.005 44.0009C167.353 43.8655 167.808 43.7881 168.369 43.7881H169.588L170.168 45.2393H171.629L168.775 38.4671ZM168.669 42.5304C167.827 42.5304 167.256 42.6659 166.966 42.9174L168.098 40.1118L169.075 42.5304H168.669ZM172.836 45.2393H174.239L177.577 40.4504V45.2393H178.931V38.4671H177.528L174.191 43.256V38.4671H172.836V45.2393ZM177.674 36.4355H176.706C176.687 36.6096 176.619 36.7548 176.484 36.8805C176.348 37.0063 176.155 37.0643 175.884 37.0643C175.613 37.0643 175.41 37.0063 175.274 36.8805C175.139 36.7548 175.071 36.6096 175.061 36.4355H174.094C174.094 36.629 174.133 36.8225 174.21 37.016C174.288 37.2095 174.394 37.3739 174.539 37.5287C174.684 37.6835 174.868 37.7996 175.091 37.8963C175.313 37.9931 175.574 38.0318 175.884 38.0318C176.184 38.0318 176.445 37.9931 176.667 37.8963C176.89 37.7996 177.074 37.6835 177.219 37.5287C177.364 37.3739 177.47 37.2095 177.548 37.016C177.625 36.8225 177.664 36.629 177.674 36.4355ZM180.918 45.2393H182.272V42.5304L184.981 45.2393H186.819L183.336 41.8048L186.722 38.4671H184.884L182.272 41.0792V38.4671H180.918V45.2393ZM191.46 38.4671H190.106L187.252 45.2393H188.703L189.022 44.4556C189.109 44.2912 189.332 44.1364 189.69 44.0009C190.038 43.8655 190.493 43.7881 191.054 43.7881H192.273L192.853 45.2393H194.314L191.46 38.4671ZM191.354 42.5304C190.512 42.5304 189.941 42.6659 189.651 42.9174L190.783 40.1118L191.76 42.5304H191.354ZM196.148 38.4671V40.402C196.148 41.0696 196.128 41.6307 196.099 42.0854C196.07 42.5498 196.012 42.9174 195.925 43.1979C195.838 43.4785 195.722 43.6817 195.567 43.7978C195.412 43.9235 195.219 43.9816 194.987 43.9816H194.842V45.2393H194.987C195.403 45.2393 195.751 45.1812 196.041 45.0458C196.331 44.9103 196.564 44.7362 196.757 44.5137C196.941 44.2912 197.086 44.03 197.183 43.7204C197.28 43.4205 197.357 43.1012 197.405 42.7626C197.454 42.424 197.483 42.0757 197.492 41.7081C197.492 41.3501 197.502 40.9922 197.502 40.6439V39.7248H199.921V45.2393H201.275V38.4671H196.148ZM204.617 43.9816V42.6465C204.936 42.4724 205.362 42.3853 205.884 42.3853H207.993V41.1276H205.884C205.333 41.1276 204.917 41.2147 204.617 41.3888V39.7248H208.341V38.4671H203.262V45.2393H208.341V43.9816H204.617Z" fill="#889496"></path> <path d="M93.88 15.2002C92.7149 12.1765 90.9831 8.67101 89.6448 6.27865H85.819C87.8972 9.66783 90.8099 15.8315 92.0222 19.0213L89.2197 24.9026H92.8724L101.957 6.27865H98.1309L93.8957 15.2002H93.88ZM150.559 15.2002C149.394 12.1765 147.662 8.67101 146.323 6.27865H142.498C144.576 9.66783 147.489 15.8315 148.701 19.0213L145.898 24.9026H149.551L158.635 6.27865H154.81L150.574 15.2002H150.559ZM185.022 15.2002C183.857 12.1765 182.126 8.67101 180.787 6.27865H176.961C179.04 9.66783 181.968 15.8315 183.165 19.0213L180.362 24.9026H184.015L193.083 6.27865H189.258L185.022 15.2002ZM116.016 13.705C115.623 14.0871 115.103 14.2864 114.457 14.2864H112.112C110.962 14.2864 109.844 14.3861 108.79 15.034V9.76751H114.457C115.103 9.76751 115.623 9.96688 116.016 10.3324C116.41 10.7145 116.614 11.2794 116.614 12.027C116.614 12.7746 116.41 13.3395 116.016 13.7216M118.047 7.45822C117.575 7.09272 117.04 6.79367 116.41 6.61092C115.78 6.41155 115.009 6.31187 114.095 6.31187H105.263V24.9358H108.79V18.4897C109.844 17.8916 110.994 17.7421 112.112 17.7421H114.08C115.009 17.7421 115.78 17.6424 116.394 17.443C117.008 17.2437 117.559 16.9612 118.031 16.5957C118.677 16.0807 119.181 15.4328 119.559 14.6519C119.936 13.8711 120.125 12.9906 120.125 12.0104C120.125 11.0302 119.936 10.1496 119.559 9.36879C119.181 8.58794 118.677 7.94001 118.031 7.42499M79.3797 20.799C78.9388 21.2309 78.3563 21.4303 77.6478 21.4303H72.2319V15.898C73.2867 16.5459 74.4203 16.6456 75.5539 16.6456H77.6478C78.4035 16.6456 78.9861 16.8615 79.4112 17.2769C79.8363 17.7088 80.0409 18.2903 80.0409 19.0379C80.0409 19.7855 79.8205 20.367 79.3639 20.799M80.5605 13.8212C80.0882 13.5887 79.5843 13.4225 79.049 13.3228C78.5137 13.2232 77.9627 13.1733 77.3802 13.1733H75.5381C74.4203 13.1733 73.271 13.0238 72.2161 12.4257V9.70106H82.3081V6.24542H68.6895V24.8693H77.3959C78.2618 24.8693 79.0648 24.7364 79.8048 24.4706C80.5605 24.2048 81.206 23.8227 81.757 23.3076C82.3081 22.8092 82.7489 22.1945 83.0795 21.4801C83.4102 20.7658 83.5676 19.9351 83.5676 19.0213C83.5676 17.7088 83.3 16.6123 82.7489 15.7484C82.1979 14.8845 81.4736 14.2366 80.5762 13.8046M208.198 16.5625C207.678 15.7983 207.017 15.2334 206.198 14.9011C206.765 14.5689 207.269 14.0871 207.694 13.4724C208.119 12.8577 208.339 12.0436 208.339 11.0302C208.339 10.2327 208.182 9.51831 207.851 8.87038C207.521 8.22244 207.064 7.69081 206.466 7.22563C205.868 6.77706 205.159 6.42817 204.34 6.19558C203.522 5.96299 202.624 5.83008 201.648 5.83008C200.892 5.83008 200.184 5.91315 199.507 6.07928C198.83 6.24542 198.216 6.47801 197.649 6.76044C197.082 7.04287 196.579 7.37515 196.153 7.74065C195.713 8.10615 195.351 8.50488 195.051 8.90361L197.744 11.1464C198.074 10.6813 198.578 10.2659 199.224 9.8672C199.885 9.48508 200.688 9.28572 201.648 9.28572C202.609 9.28572 203.38 9.45185 203.947 9.78413C204.514 10.1164 204.797 10.6148 204.797 11.296C204.797 11.5618 204.75 11.8276 204.671 12.0768C204.592 12.326 204.435 12.5586 204.214 12.758C203.994 12.9573 203.711 13.1069 203.364 13.2398C203.018 13.3727 202.561 13.4225 202.026 13.4225H200.011V16.7452H202.278C203.427 16.7452 204.23 16.9612 204.718 17.3766C205.191 17.8085 205.442 18.39 205.442 19.1376C205.442 20.0846 205.096 20.7491 204.403 21.1645C203.711 21.5798 202.75 21.7958 201.538 21.7958C200.53 21.7958 199.696 21.5632 199.035 21.1146C198.373 20.6661 197.822 20.0846 197.382 19.4034L194.485 21.3971C194.737 21.8124 195.067 22.2444 195.476 22.6929C195.886 23.1415 196.39 23.5568 196.972 23.939C197.555 24.3211 198.216 24.6367 198.987 24.8859C199.759 25.1351 200.609 25.2514 201.538 25.2514C202.609 25.2514 203.6 25.1185 204.514 24.8693C205.427 24.6201 206.198 24.238 206.875 23.723C207.536 23.2246 208.056 22.6099 208.418 21.8789C208.796 21.1645 208.969 20.3338 208.969 19.3868C208.969 18.2571 208.717 17.2935 208.198 16.5293M162.068 24.8361H165.594V9.66783H174.301V6.21219H162.068V24.8361ZM134.846 21.3805H126.911C127.257 20.583 127.541 19.7855 127.761 18.9881C127.966 18.1906 128.139 17.3433 128.249 16.4462C128.359 15.5491 128.438 14.6021 128.485 13.572C128.533 12.5586 128.548 11.4289 128.548 10.1995V9.66783H134.846V21.3805ZM138.373 6.21219H125.006V10.1995C125.006 11.2295 124.99 12.2263 124.959 13.1733C124.927 14.1369 124.849 15.0673 124.723 15.981C124.597 16.8948 124.408 17.7919 124.156 18.689C123.904 19.5696 123.558 20.4667 123.117 21.3805H120.598V29.7537H123.621L123.872 24.8361H137.743L137.995 29.7537H141.018V21.3805H138.373V6.21219Z" fill="#4D5556"></path> </g> <defs> <clipPath id="clip0_366_6219"> <rect width="209.721" height="61" fill="white"></rect> </clipPath> </defs> </svg> 