<svg width="34" height="34" viewBox="0 0 34 34" fill="none" xmlns="http://www.w3.org/2000/svg">
<path d="M17 11.3334C15.5193 11.3282 14.0676 11.7434 12.8136 12.5309C11.5597 13.3184 10.5551 14.4457 9.91667 15.7817C9.87135 15.8768 9.84784 15.9809 9.84784 16.0863C9.84784 16.1917 9.87135 16.2957 9.91667 16.3909C10.3373 17.2384 10.5562 18.1718 10.5562 19.1179C10.5562 20.0641 10.3373 20.9975 9.91667 21.845C9.87135 21.9402 9.84784 22.0442 9.84784 22.1496C9.84784 22.255 9.87135 22.3591 9.91667 22.4542C10.5137 23.7081 11.4356 24.7792 12.5865 25.5564C13.7375 26.3335 15.0756 26.7883 16.4617 26.8735C17.8479 26.9587 19.2315 26.6711 20.469 26.0408C21.7065 25.4104 22.7526 24.4602 23.4986 23.2889C24.2447 22.1175 24.6635 20.7678 24.7116 19.3799C24.7597 17.9919 24.4353 16.6164 23.772 15.3963C23.1088 14.1761 22.1309 13.1558 20.9401 12.4413C19.7492 11.7269 18.3887 11.3443 17 11.3334Z" fill="#274D60" fill-opacity="0.3"/>
<path d="M28.3333 0H5.66665C4.9152 0 4.19453 0.298511 3.66318 0.829864C3.13182 1.36122 2.83331 2.08189 2.83331 2.83333V31.1667C2.83331 31.9181 3.13182 32.6388 3.66318 33.1701C4.19453 33.7015 4.9152 34 5.66665 34H28.3333C29.0848 34 29.8054 33.7015 30.3368 33.1701C30.8681 32.6388 31.1666 31.9181 31.1666 31.1667V2.83333C31.1666 2.08189 30.8681 1.36122 30.3368 0.829864C29.8054 0.298511 29.0848 0 28.3333 0ZM19.8333 4.25C20.1135 4.25 20.3874 4.33309 20.6204 4.48875C20.8533 4.64442 21.0349 4.86567 21.1421 5.12453C21.2494 5.38339 21.2774 5.66824 21.2228 5.94304C21.1681 6.21785 21.0332 6.47028 20.835 6.6684C20.6369 6.86653 20.3845 7.00145 20.1097 7.05611C19.8349 7.11077 19.55 7.08272 19.2912 6.9755C19.0323 6.86827 18.8111 6.68669 18.6554 6.45372C18.4997 6.22075 18.4166 5.94686 18.4166 5.66667C18.4166 5.29094 18.5659 4.93061 18.8316 4.66493C19.0973 4.39926 19.4576 4.25 19.8333 4.25ZM6.37498 3.54167C6.37498 3.3538 6.44961 3.17364 6.58245 3.0408C6.71528 2.90796 6.89545 2.83333 7.08331 2.83333H15.5833C15.7712 2.83333 15.9513 2.90796 16.0842 3.0408C16.217 3.17364 16.2916 3.3538 16.2916 3.54167C16.2916 4.66884 15.8439 5.74984 15.0469 6.54687C14.2498 7.3439 13.1688 7.79167 12.0416 7.79167H7.08331C6.89545 7.79167 6.71528 7.71704 6.58245 7.5842C6.44961 7.45136 6.37498 7.27119 6.37498 7.08333V3.54167ZM17 29.75C14.8986 29.75 12.8443 29.1269 11.097 27.9594C9.34977 26.7919 7.98794 25.1325 7.18376 23.191C6.37958 21.2495 6.16917 19.1132 6.57914 17.0522C6.9891 14.9911 8.00104 13.0979 9.48697 11.612C10.9729 10.1261 12.8661 9.11412 14.9271 8.70416C16.9882 8.29419 19.1245 8.5046 21.066 9.30878C23.0075 10.113 24.6669 11.4748 25.8343 13.2221C27.0018 14.9693 27.625 17.0236 27.625 19.125C27.6212 21.9418 26.5006 24.6421 24.5089 26.6339C22.5171 28.6256 19.8168 29.7463 17 29.75ZM25.8541 9.20833C25.2237 9.20833 24.6074 9.02139 24.0833 8.67114C23.5591 8.3209 23.1505 7.82308 22.9093 7.24064C22.668 6.6582 22.6049 6.0173 22.7279 5.39898C22.8509 4.78067 23.1545 4.21271 23.6002 3.76693C24.046 3.32115 24.614 3.01757 25.2323 2.89458C25.8506 2.77159 26.4915 2.83471 27.074 3.07597C27.6564 3.31722 28.1542 3.72577 28.5045 4.24995C28.8547 4.77413 29.0416 5.39041 29.0416 6.02083C29.0416 6.86621 28.7058 7.67696 28.1081 8.27474C27.5103 8.87251 26.6995 9.20833 25.8541 9.20833Z" fill="#274D60" fill-opacity="0.3"/>
</svg>
