<svg width="34" height="34" viewBox="0 0 34 34" fill="none" xmlns="http://www.w3.org/2000/svg">
<path d="M24.4955 6.18228C24.0741 2.70432 21.1064 0 17.5173 0H16.4828C12.8935 0 9.92591 2.70432 9.50452 6.18228H24.4955ZM9.60457 19.8919C10.2785 23.0715 13.106 25.4649 16.4826 25.4649H17.5172C20.8938 25.4649 23.7213 23.0716 24.3953 19.8919H9.60457Z" fill="#274D60" fill-opacity="0.3"/>
<path d="M27.3385 11.5882C26.7041 11.5882 26.1897 12.1026 26.1897 12.737V13.8699H24.5487V8.02008H9.4513V13.8699H7.81037V12.737C7.81037 12.1026 7.29602 11.5882 6.66158 11.5882C6.02726 11.5882 5.51291 12.1026 5.51291 12.737V18.5862C5.51291 24.6249 10.1224 29.5575 15.8513 29.7319V31.7026H13.0382C12.4038 31.7026 11.8896 32.217 11.8896 32.8513C11.8896 33.4857 12.4038 34 13.0382 34H20.9618C21.5963 34 22.1105 33.4857 22.1105 32.8513C22.1105 32.217 21.5963 31.7026 20.9618 31.7026H18.1488V29.7319C23.8779 29.5575 28.4873 24.6249 28.4873 18.5862V12.737C28.4872 12.1026 27.9728 11.5882 27.3385 11.5882ZM26.1896 18.5861C26.1896 23.4678 22.4418 27.4396 17.835 27.4396H16.1646C11.5579 27.4396 7.81014 23.4679 7.81014 18.5861V16.1673H9.4513V18.0539H24.5487V16.1673H26.1896V18.5861Z" fill="#274D60" fill-opacity="0.3"/>
</svg>
