<svg width="34" height="34" viewBox="0 0 34 34" fill="none" xmlns="http://www.w3.org/2000/svg">
<path fill-rule="evenodd" clip-rule="evenodd" d="M28.5977 15.7144C28.6994 15.4592 28.7515 15.1869 28.7513 14.9122V3.49696C28.7513 2.29647 27.7694 1.31445 26.5689 1.31445H7.4312C6.23084 1.31445 5.24876 2.29647 5.24876 3.49696V14.9122C5.24876 15.195 5.30334 15.4658 5.40242 15.7144C5.99337 14.8416 6.98628 14.3258 8.27057 14.3258C10.1326 14.3258 11.3824 15.4102 11.6819 17.0947H14.9437V19.2376H13.23C13.1076 19.2376 12.9902 19.2863 12.9036 19.3728C12.817 19.4594 12.7684 19.5768 12.7684 19.6992C12.7684 19.8216 12.817 19.9391 12.9036 20.0256C12.9902 20.1122 13.1076 20.1608 13.23 20.1608H20.7702C20.8912 20.1588 21.0066 20.1092 21.0915 20.0229C21.1764 19.9365 21.224 19.8203 21.224 19.6992C21.224 19.5781 21.1764 19.4619 21.0915 19.3756C21.0066 19.2892 20.8912 19.2397 20.7702 19.2376H19.0565V17.0947H22.3182C22.6178 15.4102 23.8675 14.3258 25.7296 14.3258C27.0138 14.3258 28.0067 14.8417 28.5977 15.7144ZM22.4536 22.0485C21.1746 22.3773 20.0449 23.0842 20.0449 24.35V25.0636L31.4141 25.0635V24.35C31.4141 23.085 30.2873 22.3666 29.0054 22.0485C26.8529 21.5148 24.6706 21.4786 22.4536 22.0485ZM4.99455 22.0485C3.7155 22.3773 2.5858 23.0842 2.5858 24.35V25.0636L13.9551 25.0635V24.35C13.9551 23.085 12.8284 22.3666 11.5463 22.0485C9.39383 21.5148 7.21159 21.4786 4.99455 22.0485ZM25.7295 15.2489C27.1424 15.2489 28.2877 16.0541 28.2877 17.9108C28.2877 19.7676 27.1424 21.2729 25.7295 21.2729C24.3166 21.2729 23.1713 19.7676 23.1713 17.9108C23.1713 16.0541 24.3168 15.2489 25.7295 15.2489ZM8.27051 15.2489C9.68323 15.2489 10.8286 16.0541 10.8286 17.9108C10.8286 19.7676 9.68323 21.2729 8.27051 21.2729C6.85758 21.2729 5.71234 19.7676 5.71234 17.9108C5.71241 16.0541 6.85771 15.2489 8.27051 15.2489ZM2.5785 25.9867H13.9627C15.1693 25.9867 16.1562 26.9738 16.1562 28.1804V31.7626C16.1562 32.2711 15.7417 32.6856 15.2332 32.6856H1.30781C0.799473 32.6856 0.384766 32.2711 0.384766 31.7626V28.1804C0.384766 26.9737 1.37176 25.9867 2.5785 25.9867ZM20.0375 25.9867H31.4217C32.6283 25.9867 33.6152 26.9738 33.6152 28.1804V31.7626C33.6152 32.2711 33.2006 32.6856 32.6922 32.6856H18.7668C18.2584 32.6856 17.8439 32.2711 17.8439 31.7626V28.1804C17.8438 26.9737 18.8308 25.9867 20.0375 25.9867ZM15.8669 17.0947H18.1334V19.2376H15.8669V17.0947ZM14.592 5.7391L19.9046 8.80614C19.9747 8.84651 20.033 8.90469 20.0734 8.9748C20.1139 9.04491 20.1351 9.12446 20.135 9.2054C20.1348 9.28634 20.1133 9.36581 20.0726 9.43577C20.0319 9.50573 19.9734 9.5637 19.9031 9.60381C18.1196 10.6334 16.3387 11.6627 14.5553 12.6924C14.2457 12.8717 13.8638 12.6434 13.8642 12.2939L13.863 6.11529C13.8631 6.0306 13.8864 5.94755 13.9305 5.87523C13.9746 5.80291 14.0377 5.74411 14.113 5.70527C14.1882 5.66642 14.2727 5.64904 14.3572 5.655C14.4417 5.66097 14.5229 5.69007 14.592 5.7391ZM14.7862 6.91237L18.7565 9.20458C17.433 9.96838 16.1094 10.7318 14.7862 11.4958V6.91237Z" fill="#274D60" fill-opacity="0.3"/>
</svg>
