<svg width="33" height="32" viewBox="0 0 33 32" fill="none" xmlns="http://www.w3.org/2000/svg">
<path d="M1.4025 5.97656C1.4025 6.57688 1.89125 7.06031 2.48625 7.06031H14.0569C14.8644 7.06031 15.5178 6.40687 15.5178 5.59937C15.5179 5.35484 15.4565 5.11421 15.3393 4.89958C15.2221 4.68494 15.0529 4.50318 14.8472 4.37097C14.6415 4.23877 14.4059 4.16035 14.162 4.14293C13.9181 4.1255 13.6737 4.16963 13.4513 4.27125C13.3822 4.30312 13.3025 4.30844 13.2281 4.27656C13.1933 4.26275 13.1617 4.24196 13.1352 4.21546C13.1087 4.18897 13.0879 4.15733 13.0741 4.1225C12.978 3.88454 12.8127 3.68088 12.5996 3.53787C12.3865 3.39486 12.1354 3.31907 11.8787 3.32031C11.475 3.32031 11.1031 3.50625 10.8534 3.83031C10.7844 3.92062 10.6622 3.96312 10.5506 3.93125C10.4391 3.89937 10.3594 3.79844 10.3488 3.68688C10.2584 2.5925 9.32344 1.73187 8.22375 1.73187C7.12406 1.73187 6.205 2.56062 6.09875 3.655C6.09319 3.70711 6.07321 3.75663 6.04104 3.798C6.00887 3.83936 5.9658 3.87093 5.91666 3.88915C5.86753 3.90737 5.81429 3.91151 5.76292 3.90112C5.71156 3.89072 5.66412 3.8662 5.62594 3.83031C5.38688 3.60719 5.07344 3.47969 4.74406 3.47969C4.03219 3.47969 3.45312 4.05875 3.45312 4.77062C3.45312 4.87156 3.4 4.98312 3.30969 5.03094C3.21937 5.07875 3.11312 5.1 3.02812 5.04688C2.85281 4.94063 2.66687 4.89281 2.47563 4.89281C1.87531 4.89281 1.39187 5.38156 1.39187 5.97656H1.4025ZM0 24.8838C0 26.1003 2.96438 27.3541 7.36844 28.0075C7.44812 28.0181 7.51719 28.0659 7.55969 28.1297C7.60219 28.1987 7.61812 28.2784 7.59688 28.3581C7.57562 28.4378 7.565 28.4856 7.565 28.5069C7.565 29.8988 12.5056 31.45 19.6031 31.45C26.7006 31.45 31.6413 29.8988 31.6413 28.5069C31.6413 27.8375 30.4459 27.1097 28.4431 26.5572C28.3918 26.5431 28.3456 26.5147 28.3099 26.4753C28.2742 26.4358 28.2505 26.387 28.2415 26.3346C28.2326 26.2821 28.2388 26.2282 28.2595 26.1792C28.2801 26.1302 28.3144 26.0881 28.3581 26.0578C28.9425 25.6594 29.24 25.2662 29.24 24.8891C29.24 24.2091 28.3528 23.5131 26.7537 22.9128C26.7219 22.9128 26.6953 22.9128 26.6688 22.8969C25.6647 22.5197 24.3844 22.1903 22.865 21.9194C22.8597 21.9194 22.8544 21.9141 22.8438 21.9141C20.5753 21.5209 17.7863 21.2712 14.62 21.2712C5.87563 21.2712 0 23.1412 0 24.8891V24.8838ZM20.0972 6.79469C20.23 6.82125 20.5009 6.66187 20.7134 6.52906C21.0322 6.3325 21.3988 6.12 21.7706 6.15719C21.9406 6.17844 22.0947 6.25812 22.2381 6.36437C22.2647 6.38562 22.2859 6.40688 22.3125 6.42813C22.4294 6.52375 22.5356 6.63 22.6419 6.73625C22.8438 6.93813 23.0669 7.17188 23.2369 7.17719C23.4016 7.1825 23.6353 6.99125 23.8478 6.81594C24.1453 6.57687 24.4534 6.32719 24.8147 6.32719C25.1759 6.32719 25.4841 6.57687 25.7816 6.81594C25.9941 6.99125 26.2331 7.18781 26.3925 7.17719C26.5625 7.16656 26.7856 6.93813 26.9875 6.73625C27.2478 6.47062 27.5187 6.19438 27.8587 6.15719C28.2306 6.11469 28.5759 6.32188 28.9106 6.52375C29.1284 6.65656 29.3994 6.81594 29.5322 6.78938C29.7341 6.74688 29.92 6.45469 30.09 6.19969C30.1059 6.17313 30.1272 6.14656 30.1431 6.12C28.1562 4.27125 26.2809 2.11969 24.8147 0C23.2953 2.19406 21.4306 4.36156 19.5022 6.15188L19.5341 6.19969C19.6987 6.45469 19.89 6.74688 20.0919 6.78938L20.0972 6.79469Z" fill="#274D60" fill-opacity="0.3"/>
<path d="M19.0453 11.5441C19.1197 11.56 19.2206 11.5281 19.3322 11.4856C19.38 11.4644 19.4278 11.4431 19.481 11.4166C19.5181 11.3953 19.5553 11.3794 19.5978 11.3581C19.6775 11.3103 19.7572 11.2678 19.8422 11.2147C19.8847 11.1881 19.9325 11.1616 19.975 11.135C20.3097 10.9331 20.6603 10.7578 21.011 10.7684C21.0375 10.7684 21.0641 10.7631 21.096 10.7684C21.3935 10.8056 21.6485 10.9969 21.8875 11.2253C21.9672 11.2997 22.0469 11.3794 22.1266 11.4591C22.3922 11.7247 22.6631 12.0063 22.8969 12.0169C23.1041 12.0169 23.4016 11.7938 23.6885 11.56C24.0444 11.2731 24.4163 10.9756 24.8306 10.9756C25.245 10.9756 25.6169 11.2731 25.9728 11.56C26.2544 11.7884 26.5572 12.0222 26.7644 12.0169C26.9928 12.0063 27.2691 11.7247 27.5347 11.4591C27.8481 11.1403 28.1722 10.8163 28.5653 10.7684C28.8947 10.7259 29.2081 10.8588 29.5163 11.0341C29.6172 11.0925 29.7181 11.1563 29.8191 11.2147C29.9041 11.2625 29.9785 11.3103 30.0581 11.3581C30.1006 11.3847 30.1431 11.4059 30.1856 11.4272C30.2335 11.4484 30.276 11.4697 30.3185 11.4856C30.43 11.5334 30.5363 11.5653 30.6106 11.5494C30.8816 11.4909 31.11 11.1403 31.3331 10.8003C31.3491 10.7791 31.365 10.7525 31.3756 10.7313C30.345 9.74844 29.2453 8.44688 28.2678 7.28875L27.8269 6.76813C27.6994 6.8425 27.5453 6.99656 27.4125 7.14C27.1256 7.42688 26.8335 7.72969 26.4456 7.75094C26.0685 7.78281 25.755 7.51188 25.4469 7.2675C25.2344 7.0975 24.9953 6.90094 24.8306 6.90094C24.666 6.90094 24.4269 7.0975 24.2144 7.2675C23.986 7.45344 23.7416 7.65 23.4813 7.72438C23.3963 7.75094 23.306 7.76156 23.2156 7.75094C22.8278 7.72969 22.5197 7.41625 22.2488 7.14C22.1106 7.00188 21.9619 6.84781 21.8344 6.77344L21.3297 7.36313C20.3681 8.49469 19.2897 9.76969 18.2803 10.7313C18.291 10.7525 18.3069 10.7684 18.3175 10.7897C18.5406 11.135 18.7744 11.4963 19.0506 11.5494L19.0453 11.5441Z" fill="#274D60" fill-opacity="0.3"/>
<path d="M23.12 16.9947C23.1519 16.9894 23.1891 16.9841 23.2263 16.9735C23.2422 16.9735 23.2634 16.9628 23.2794 16.9575C23.4334 16.9044 23.6034 16.8141 23.7788 16.7238C24.1081 16.5485 24.4534 16.3625 24.8253 16.3625C25.1972 16.3625 25.5372 16.5432 25.8666 16.7185C26.0472 16.8141 26.2172 16.9044 26.3766 16.9575C26.3872 16.9575 26.3978 16.9682 26.4138 16.9682C26.4509 16.9788 26.4828 16.9841 26.52 16.9947C26.5678 17.0053 26.6156 17.0107 26.6581 17.0107C26.9025 17 27.1681 16.8141 27.4497 16.6228C27.7472 16.4157 28.0553 16.2085 28.4059 16.1607C28.7885 16.1182 29.1603 16.2563 29.5163 16.3891C29.8138 16.5007 30.1006 16.6069 30.3078 16.5644C30.6 16.5007 30.8497 16.2403 31.0994 15.98C31.3278 15.741 31.5456 15.5178 31.8166 15.4063C31.9919 15.3372 32.1831 15.2682 32.3744 15.2044C32.5709 15.1353 32.7675 15.0663 32.9481 14.9919C32.5869 14.6307 32.1831 14.1844 31.7581 13.7222C31.2322 13.1432 30.685 12.5375 30.1697 12.0382C29.9572 11.9585 29.7394 11.8257 29.5269 11.6982C29.2028 11.5016 28.8734 11.2997 28.6291 11.3263C28.4803 11.3422 28.2997 11.491 28.1138 11.6716C28.05 11.73 27.9916 11.7938 27.9278 11.8575C27.5878 12.2028 27.2372 12.5588 26.7909 12.58C26.3606 12.6066 25.9834 12.2985 25.6169 12.001C25.3353 11.7725 25.0431 11.5388 24.8253 11.5388C24.6075 11.5388 24.3153 11.7725 24.0338 12.001C23.6672 12.2985 23.29 12.6119 22.8597 12.58C22.4134 12.5535 22.0628 12.2028 21.7228 11.8575C21.4784 11.6078 21.2235 11.3528 21.0269 11.3316C20.7878 11.305 20.4531 11.5069 20.1291 11.7035C19.9166 11.831 19.6988 11.9638 19.4863 12.0435C18.9656 12.5428 18.4238 13.1432 17.8978 13.7275C17.4728 14.195 17.0691 14.6413 16.7078 14.9972C16.8884 15.0716 17.085 15.1407 17.2816 15.2097C17.4728 15.2735 17.6588 15.3425 17.8394 15.4116C18.1103 15.5178 18.3281 15.7463 18.5566 15.9853C18.8009 16.2403 19.0559 16.506 19.3481 16.5697C19.55 16.6122 19.8369 16.506 20.1344 16.3944C20.4425 16.2775 20.7666 16.1607 21.0959 16.1607C21.1438 16.1607 21.1916 16.1607 21.2447 16.1713C21.5953 16.2138 21.9035 16.4263 22.2009 16.6282C22.4825 16.8194 22.7481 17.0053 22.9978 17.016C23.0403 17.016 23.0881 17.016 23.1306 17.0053L23.12 16.9947Z" fill="#274D60" fill-opacity="0.3"/>
<path d="M26.3872 20.2778C26.3447 19.2312 26.3022 18.1528 26.2597 17.51C26.0366 17.4409 25.8188 17.3294 25.6063 17.2125C25.3247 17.0637 25.0538 16.9203 24.8253 16.9203C24.5969 16.9203 24.326 17.0637 24.0444 17.2125C23.8319 17.324 23.6141 17.4409 23.3856 17.51C23.3485 18.0572 23.3166 18.9231 23.2794 19.8262C23.2581 20.3522 23.2369 20.894 23.2103 21.404C24.4694 21.6378 25.5638 21.914 26.4722 22.2222C26.4456 21.6378 26.4191 20.9525 26.3925 20.2725L26.3872 20.2778Z" fill="#274D60" fill-opacity="0.3"/>
</svg>
