<svg width="34" height="34" viewBox="0 0 34 34" fill="none" xmlns="http://www.w3.org/2000/svg">
<path d="M6.00663 17.4533C8.71896 17.4533 10.9177 15.2545 10.9177 12.5422C10.9177 9.82988 8.71896 7.6311 6.00663 7.6311C3.2943 7.6311 1.09552 9.82988 1.09552 12.5422C1.09552 15.2545 3.2943 17.4533 6.00663 17.4533Z" fill="#274D60" fill-opacity="0.3"/>
<path d="M33.1689 13.1844L33.0933 12.6933L33.8111 12.6178L33.66 11.5222L32.9422 11.5978L32.8667 11.1067L24.3289 12.24L24.1022 10.5022C25.3867 10.0111 26.86 8.80221 27.3889 6.95109L25.1222 5.96887C22.8555 8.08443 20.1733 6.79998 19.8711 6.64887L18.1711 9.85998C18.2844 9.93554 19.9089 10.7667 22.0622 10.8044L22.2889 12.5422L12.9578 13.7889L12.8822 13.1467L11.8622 13.2978L12.2022 15.9422V15.98L14.4689 15.6778L14.62 16.8867L12.7311 19.2289L12.6933 19.1911C11.4467 18.1711 9.85999 17.7178 8.27333 17.9067L3.09777 18.5489C1.28444 18.7755 -0.0377836 20.4378 0.188883 22.2889L0.566661 29.6555H12.4667L12.2778 28.1822L13.7133 26.18L15.8667 27.88C17.0755 28.8622 18.8511 28.6355 19.7955 27.3889L25.9911 19.2289C26.7467 18.1711 26.4822 16.7355 25.4244 16.0178C25.2355 15.9044 25.0467 15.8289 24.8578 15.7533L24.6689 14.3178L33.1689 13.1844ZM22.78 16.0555C22.6289 16.1689 22.4778 16.32 22.3267 16.4711L16.9244 22.6667L16.4333 22.2889L18.8133 18.9644C19.5689 17.9067 19.3044 16.4711 18.2467 15.7533C18.2089 15.7155 18.1711 15.7155 18.1333 15.6778L18.0578 15.1867L22.5533 14.5822L22.78 16.0555Z" fill="#274D60" fill-opacity="0.3"/>
<path d="M18.6203 5.37427L19.522 5.85065L17.2285 10.1921L16.3268 9.71607L18.6203 5.37427Z" fill="#274D60" fill-opacity="0.3"/>
</svg>
