<svg width="34" height="34" viewBox="0 0 34 34" fill="none" xmlns="http://www.w3.org/2000/svg">
<path d="M22.3125 8.5H11.6875C11.1007 8.5 10.625 8.9757 10.625 9.5625V24.4375C10.625 25.0243 11.1007 25.5 11.6875 25.5H22.3125C22.8993 25.5 23.375 25.0243 23.375 24.4375V9.5625C23.375 8.9757 22.8993 8.5 22.3125 8.5Z" fill="#274D60" fill-opacity="0.3"/>
<path d="M31.4861 7.67872C31.3642 7.57976 31.222 7.50878 31.0696 7.47078C30.9172 7.43277 30.7584 7.42868 30.6043 7.45878L25.2918 8.52128C25.051 8.56941 24.8343 8.69943 24.6786 8.88926C24.5228 9.07909 24.4376 9.31699 24.4375 9.56253V24.4375C24.4376 24.6831 24.5228 24.921 24.6786 25.1108C24.8343 25.3006 25.051 25.4307 25.2918 25.4788L30.6043 26.5413C30.6728 26.555 30.7426 26.5621 30.8125 26.5625C31.0943 26.5625 31.3645 26.4506 31.5638 26.2513C31.7631 26.0521 31.875 25.7818 31.875 25.5V8.50003C31.8748 8.34292 31.8398 8.1878 31.7726 8.0458C31.7054 7.9038 31.6075 7.77844 31.4861 7.67872ZM8.70825 8.52128L3.39575 7.45878C3.24166 7.42798 3.08266 7.43174 2.93021 7.4698C2.77775 7.50785 2.63563 7.57924 2.51409 7.67883C2.39254 7.77842 2.2946 7.90373 2.22732 8.04574C2.16004 8.18774 2.12509 8.3429 2.125 8.50003V25.5C2.125 25.7818 2.23694 26.0521 2.4362 26.2513C2.63546 26.4506 2.90571 26.5625 3.1875 26.5625C3.25744 26.5621 3.32717 26.555 3.39575 26.5413L8.70825 25.4788C8.94902 25.4307 9.1657 25.3006 9.32143 25.1108C9.47717 24.921 9.56235 24.6831 9.5625 24.4375V9.56253C9.56235 9.31699 9.47717 9.07909 9.32143 8.88926C9.1657 8.69943 8.94902 8.56941 8.70825 8.52128Z" fill="#274D60" fill-opacity="0.3"/>
</svg>
