<svg width="34" height="34" viewBox="0 0 34 34" fill="none" xmlns="http://www.w3.org/2000/svg">
<g clip-path="url(#clip0_2817_56)">
<path d="M11.0267 12.0612H0V18.3394H15.2377L11.0267 12.0612ZM12.1632 22.2311C15.9388 22.2311 19.0106 25.3028 19.0106 29.0784C19.0106 29.3476 18.9946 29.6131 18.9643 29.8742H23.5586V26.0624H20.4819V24.0703H23.5586V23.1206C23.5586 21.5803 22.3099 20.3316 20.7696 20.3316H0V29.8743H5.36217C5.3314 29.6101 5.31595 29.3444 5.31589 29.0785C5.31589 25.3028 8.38757 22.2311 12.1632 22.2311Z" fill="#274D60" fill-opacity="0.3"/>
<path d="M28.9749 14.9062H26.9827V32.0078H16.1153C16.724 31.1888 17.0848 30.175 17.0848 29.0785C17.0848 26.3647 14.877 24.1569 12.1632 24.1569C9.44948 24.1569 7.24167 26.3647 7.24167 29.0785C7.24167 30.175 7.60245 31.1888 8.21113 32.0078H0V34H34V32.0078H28.9749V14.9062ZM28.1031 4.16217H27.2054V6.01152C27.5046 6.00989 27.8038 6.00889 28.1031 6.00853C28.6239 6.00853 29.0638 5.58579 29.0638 5.08542C29.0638 4.58491 28.6239 4.16217 28.1031 4.16217Z" fill="#274D60" fill-opacity="0.3"/>
<path d="M21.0197 0V12.9804H34V0H21.0197ZM28.1031 8.00063C27.8926 8.00063 27.5447 8.00202 27.2054 8.00368V10.6914H25.2132V2.16996H28.1031C29.7314 2.16996 31.056 3.47776 31.056 5.08532C31.056 6.69289 29.7314 8.00063 28.1031 8.00063Z" fill="#274D60" fill-opacity="0.3"/>
</g>
<defs>
<clipPath id="clip0_2817_56">
<rect width="34" height="34" fill="white"/>
</clipPath>
</defs>
</svg>
