<svg width="34" height="34" viewBox="0 0 34 34" fill="none" xmlns="http://www.w3.org/2000/svg">
<path d="M14.415 3.78787C14.4427 3.82164 14.4769 3.84956 14.5155 3.87001C14.5541 3.89047 14.5964 3.90305 14.6399 3.90703C14.6835 3.91102 14.7273 3.90632 14.769 3.89322C14.8107 3.88011 14.8494 3.85886 14.8828 3.83069C14.9162 3.80252 14.9437 3.768 14.9637 3.72913C14.9836 3.69026 14.9957 3.64781 14.9991 3.60425C15.0025 3.56068 14.9973 3.51687 14.9837 3.47535C14.97 3.43383 14.9483 3.39543 14.9197 3.36238L14.5038 2.86855C14.4473 2.80158 14.3666 2.75978 14.2793 2.75235C14.192 2.74492 14.1053 2.77247 14.0383 2.82894C13.9714 2.88541 13.9296 2.96617 13.9221 3.05345C13.9147 3.14074 13.9423 3.2274 13.9987 3.29438L14.415 3.78787ZM15.8047 5.43737C15.8324 5.47113 15.8666 5.49905 15.9052 5.51951C15.9438 5.53996 15.9861 5.55255 16.0297 5.55653C16.0732 5.56051 16.117 5.55582 16.1587 5.54271C16.2004 5.5296 16.2391 5.50835 16.2725 5.48019C16.3059 5.45202 16.3334 5.4175 16.3534 5.37863C16.3733 5.33975 16.3854 5.29731 16.3888 5.25374C16.3922 5.21018 16.387 5.16636 16.3734 5.12484C16.3597 5.08332 16.338 5.04492 16.3094 5.01187L15.8935 4.51805C15.837 4.45107 15.7563 4.40927 15.669 4.40185C15.5817 4.39442 15.495 4.42197 15.4281 4.47843C15.3611 4.5349 15.3193 4.61566 15.3119 4.70295C15.3044 4.79024 15.332 4.8769 15.3884 4.94387L15.8047 5.43737ZM15.9447 3.91826L16.4385 3.50234C16.5015 3.44483 16.5397 3.36518 16.5453 3.28008C16.5509 3.19498 16.5233 3.11103 16.4683 3.04582C16.4133 2.98061 16.3353 2.93921 16.2504 2.93028C16.1656 2.92136 16.0806 2.94561 16.0133 2.99795L15.5195 3.41387C15.4554 3.47107 15.4161 3.55102 15.41 3.63673C15.4039 3.72244 15.4314 3.80715 15.4868 3.87287C15.5421 3.93859 15.6209 3.98013 15.7064 3.98867C15.7919 3.9972 15.8774 3.97206 15.9447 3.91859V3.91826ZM14.2948 5.30797L14.789 4.89205C14.8529 4.83475 14.8919 4.75483 14.8979 4.66922C14.9038 4.58362 14.8762 4.49906 14.8209 4.43348C14.7655 4.36789 14.6869 4.32642 14.6015 4.31787C14.5161 4.30931 14.4307 4.33435 14.3635 4.38766L13.8697 4.80358C13.8055 4.86078 13.7663 4.94073 13.7601 5.02644C13.754 5.11215 13.7816 5.19686 13.8369 5.26258C13.8923 5.3283 13.9711 5.36984 14.0566 5.37837C14.1421 5.38691 14.2276 5.36144 14.2948 5.30797ZM2.55757 21.7098L2.97349 22.2037C3.02991 22.2706 3.11063 22.3124 3.19789 22.3199C3.28514 22.3274 3.37179 22.2999 3.43876 22.2434C3.50573 22.187 3.54755 22.1063 3.55501 22.019C3.56247 21.9318 3.53496 21.8451 3.47854 21.7782L3.06261 21.2843C3.00615 21.2174 2.92539 21.1756 2.8381 21.1681C2.75081 21.1607 2.66415 21.1883 2.59718 21.2447C2.5302 21.3012 2.4884 21.382 2.48098 21.4692C2.47355 21.5565 2.5011 21.6429 2.55757 21.7098ZM3.94727 23.3597L4.3632 23.8535C4.41962 23.9205 4.50034 23.9623 4.58759 23.9697C4.67485 23.9772 4.76149 23.9497 4.82847 23.8933C4.89544 23.8368 4.93726 23.7561 4.94472 23.6689C4.95218 23.5816 4.92467 23.495 4.86825 23.428L4.45232 22.9342C4.39585 22.8672 4.31509 22.8254 4.22781 22.818C4.14052 22.8105 4.05386 22.8381 3.98689 22.8946C3.91991 22.951 3.87811 23.0318 3.87069 23.1191C3.86326 23.2064 3.89081 23.2927 3.94727 23.3597ZM4.50349 22.3344L4.99731 21.9185C5.06429 21.862 5.1061 21.7813 5.11356 21.6941C5.12102 21.6068 5.09351 21.5202 5.03709 21.4532C4.98067 21.3862 4.89995 21.3444 4.81269 21.3369C4.72544 21.3295 4.63879 21.357 4.57182 21.4134L4.07799 21.8297C4.04483 21.8576 4.0175 21.8918 3.99756 21.9304C3.97763 21.9689 3.96547 22.011 3.96179 22.0542C3.95811 22.0974 3.96298 22.1409 3.97613 22.1823C3.98927 22.2236 4.01042 22.2619 4.03838 22.2951C4.06634 22.3283 4.10056 22.3556 4.13908 22.3755C4.1776 22.3955 4.21968 22.4076 4.2629 22.4113C4.30612 22.415 4.34964 22.4101 4.39097 22.397C4.43231 22.3838 4.47066 22.3627 4.50382 22.3347L4.50349 22.3344ZM3.34749 23.3082C3.41446 23.2517 3.45628 23.171 3.46374 23.0838C3.4712 22.9965 3.44369 22.9099 3.38726 22.8429C3.33084 22.7759 3.25012 22.7341 3.16287 22.7266C3.07561 22.7192 2.98897 22.7467 2.92199 22.8031L2.42817 23.2194C2.39501 23.2473 2.36768 23.2815 2.34774 23.3201C2.3278 23.3586 2.31564 23.4007 2.31197 23.4439C2.30829 23.4871 2.31316 23.5306 2.3263 23.572C2.33944 23.6133 2.3606 23.6516 2.38856 23.6848C2.41652 23.718 2.45073 23.7453 2.48926 23.7652C2.52778 23.7852 2.56985 23.7973 2.61307 23.801C2.65629 23.8047 2.69981 23.7998 2.74115 23.7867C2.78249 23.7735 2.82083 23.7524 2.85399 23.7244L3.34749 23.3082ZM3.49306 6.59007C4.38729 6.59007 5.11483 5.86418 5.11483 4.9716C5.1143 4.54167 4.94326 4.12951 4.63922 3.82553C4.33519 3.52156 3.92299 3.3506 3.49306 3.35016C3.06357 3.35104 2.65197 3.52224 2.34855 3.82622C2.04513 4.13019 1.87468 4.54211 1.87459 4.9716C1.87459 5.86418 2.60081 6.59007 3.49306 6.59007ZM3.49306 4.01036C3.74795 4.01062 3.99233 4.11197 4.17259 4.29217C4.35285 4.47237 4.45428 4.71671 4.45463 4.9716C4.45463 5.49976 4.0232 5.92987 3.49306 5.92987C3.23902 5.92952 2.99548 5.82845 2.81585 5.64881C2.63621 5.46918 2.53514 5.22564 2.53479 4.9716C2.5347 4.71715 2.63554 4.47305 2.81518 4.29285C2.99483 4.11265 3.23861 4.01106 3.49306 4.01036ZM29.8282 16.013C29.3987 16.0139 28.9871 16.1851 28.6837 16.4891C28.3803 16.793 28.2098 17.205 28.2097 17.6345C28.2097 18.5274 28.936 19.2532 29.8282 19.2532C30.7224 19.2532 31.45 18.527 31.45 17.6345C31.4495 17.2045 31.2784 16.7924 30.9744 16.4884C30.6703 16.1844 30.2581 16.0135 29.8282 16.013ZM29.8282 18.5931C29.5741 18.5927 29.3305 18.4916 29.1509 18.3119C28.9712 18.1322 28.8702 17.8886 28.8699 17.6345C28.8698 17.38 28.9707 17.1359 29.1503 16.9557C29.33 16.7755 29.5738 16.6739 29.8282 16.6732C30.0831 16.6735 30.3275 16.7748 30.5077 16.955C30.688 17.1352 30.7894 17.3796 30.7898 17.6345C30.7898 18.1629 30.3587 18.5931 29.8282 18.5931ZM32.6433 30.5888H32.3185C32.2309 30.5888 32.147 30.6236 32.085 30.6855C32.0231 30.7474 31.9884 30.8313 31.9884 30.9189C31.9884 31.0064 32.0231 31.0904 32.085 31.1523C32.147 31.2142 32.2309 31.249 32.3185 31.249H32.6436C32.7312 31.249 32.8151 31.2142 32.877 31.1523C32.9389 31.0904 32.9737 31.0064 32.9737 30.9189C32.9737 30.8313 32.9389 30.7474 32.877 30.6855C32.8151 30.6236 32.7308 30.5888 32.6433 30.5888ZM31.1199 30.5888H30.8736V29.712C30.8736 29.5332 30.8384 29.3561 30.77 29.1908C30.7015 29.0256 30.6012 28.8755 30.4747 28.749C30.3482 28.6225 30.1981 28.5222 30.0329 28.4537C29.8676 28.3853 29.6905 28.3501 29.5116 28.3501H4.82566C4.46444 28.3501 4.11802 28.4936 3.8626 28.749C3.60718 29.0044 3.46368 29.3508 3.46368 29.712V30.5888H3.05898C2.97144 30.5888 2.88747 30.6236 2.82557 30.6855C2.76366 30.7474 2.72889 30.8313 2.72889 30.9189C2.72889 31.0064 2.76366 31.0904 2.82557 31.1523C2.88747 31.2142 2.97144 31.249 3.05898 31.249H31.1199C31.2074 31.249 31.2914 31.2142 31.3533 31.1523C31.4152 31.0904 31.45 31.0064 31.45 30.9189C31.45 30.8313 31.4152 30.7474 31.3533 30.6855C31.2914 30.6236 31.2074 30.5888 31.1199 30.5888ZM1.9119 30.5888H1.35634C1.2688 30.5888 1.18483 30.6236 1.12293 30.6855C1.06102 30.7474 1.02625 30.8313 1.02625 30.9189C1.02625 31.0064 1.06102 31.0904 1.12293 31.1523C1.18483 31.2142 1.2688 31.249 1.35634 31.249H1.9119C1.99944 31.249 2.0834 31.2142 2.14531 31.1523C2.20721 31.0904 2.24199 31.0064 2.24199 30.9189C2.24199 30.8313 2.20721 30.7474 2.14531 30.6855C2.0834 30.6236 1.99944 30.5888 1.9119 30.5888ZM23.5963 9.75768C23.869 9.75802 24.139 9.70458 24.391 9.60042C24.6429 9.49625 24.8719 9.3434 25.0647 9.15063C25.2575 8.95785 25.4104 8.72893 25.5146 8.47698C25.6188 8.22504 25.6723 7.95501 25.672 7.68236C25.6718 7.41003 25.618 7.14041 25.5136 6.88889C25.4092 6.63738 25.2562 6.40892 25.0634 6.21657C24.8707 6.02423 24.6419 5.87177 24.3901 5.76791C24.1384 5.66406 23.8686 5.61085 23.5963 5.61133C23.0471 5.61142 22.5204 5.82965 22.1321 6.21803C21.7438 6.60642 21.5256 7.13314 21.5256 7.68236C21.5251 7.95465 21.5783 8.22437 21.6822 8.4761C21.786 8.72782 21.9384 8.9566 22.1307 9.14938C22.323 9.34215 22.5515 9.49513 22.8029 9.59956C23.0544 9.70399 23.324 9.75783 23.5963 9.75801V9.75768Z" fill="#274D60" fill-opacity="0.3"/>
<path d="M18.4438 11.8129C18.6357 12.2073 18.9347 12.5399 19.3065 12.7725C19.6784 13.0052 20.1082 13.1286 20.5469 13.1287L21.9683 13.0164C22.4337 16.0117 21.1265 18.8268 20.1339 20.4555C19.544 21.423 19.9339 22.7289 20.4115 23.7565L22.2152 27.6361C22.2837 27.7838 22.3807 27.9164 22.5008 28.0263C22.6209 28.1363 22.7615 28.2213 22.9146 28.2766C23.0678 28.3318 23.2303 28.3562 23.3929 28.3482C23.5555 28.3403 23.7149 28.3002 23.8619 28.2302C24.0089 28.1603 24.1406 28.0619 24.2494 27.9408C24.3581 27.8197 24.4418 27.6782 24.4955 27.5246C24.5493 27.3709 24.5721 27.2081 24.5625 27.0456C24.553 26.8831 24.5114 26.7241 24.44 26.5778L22.839 23.2881C22.6109 22.8191 22.4945 22.3037 22.499 21.7823C22.5035 21.2608 22.6287 20.7475 22.8648 20.2825L23.659 18.7179C23.7095 18.6188 23.8538 18.6396 23.8789 18.7482C24.682 22.238 26.9755 23.9912 28.4755 24.7887C29.167 25.1564 30.0203 24.7926 30.2405 24.041C30.422 23.4204 30.0926 22.7685 29.4885 22.5374C28.1067 22.0093 27.2396 20.918 26.7619 20.1152C26.4505 19.5904 26.2877 18.9907 26.2912 18.3805L26.3084 14.0358C26.31 13.6132 26.426 13.1991 26.6442 12.8372C26.8623 12.4753 27.1744 12.1793 27.5472 11.9806L29.0145 10.8338C29.6839 10.2968 30.2534 9.63392 30.2534 8.76972L30.4857 5.1139C30.4857 4.79698 30.3599 4.49304 30.1358 4.26894C29.9117 4.04484 29.6077 3.91895 29.2908 3.91895C28.9739 3.91895 28.6699 4.04484 28.4458 4.26894C28.2217 4.49304 28.0958 4.79698 28.0958 5.1139V7.7791C28.0959 8.15525 28.0052 8.52587 27.8315 8.8595C27.6578 9.19314 27.4061 9.47996 27.098 9.69564L27.0392 9.73658C25.8297 10.583 24.3892 11.0371 22.913 11.0372H22.0326C21.5781 11.0371 21.1334 10.9047 20.753 10.656C20.3725 10.4073 20.0727 10.0532 19.8903 9.63689L18.9594 7.51238C18.8959 7.37084 18.805 7.24331 18.6919 7.13716C18.5787 7.03101 18.4457 6.94836 18.3004 6.89399C18.1551 6.83962 18.0005 6.81461 17.8454 6.82042C17.6904 6.82622 17.5381 6.86272 17.3973 6.9278C17.2565 6.99288 17.13 7.08525 17.0251 7.19956C16.9202 7.31387 16.8391 7.44785 16.7863 7.59374C16.7336 7.73963 16.7103 7.89453 16.7179 8.04947C16.7254 8.20442 16.7636 8.35633 16.8303 8.4964L18.4438 11.8129Z" fill="#274D60" fill-opacity="0.3"/>
<path d="M14.0512 27.2825V20.0184H15.095C15.1646 20.0183 15.2329 19.9997 15.293 19.9645C15.353 19.9292 15.4026 19.8787 15.4367 19.818C15.4708 19.7573 15.4881 19.6886 15.4868 19.619C15.4856 19.5494 15.4659 19.4814 15.4297 19.4219L14.0169 16.929C13.9759 16.8566 13.9545 16.7747 13.955 16.6915C13.9555 16.6083 13.9778 16.5267 14.0197 16.4547C14.0616 16.3828 14.1216 16.3232 14.1937 16.2817C14.2659 16.2402 14.3476 16.2183 14.4309 16.2183H18.4646C18.6912 16.2183 18.9085 16.1283 19.0687 15.9681C19.2289 15.8079 19.3189 15.5906 19.3189 15.364C19.3189 15.1375 19.2289 14.9202 19.0687 14.7599C18.9085 14.5997 18.6912 14.5097 18.4646 14.5097H16.0496C15.7697 14.5098 15.4933 14.447 15.2408 14.3262C14.9883 14.2053 14.7661 14.0293 14.5906 13.8112L13.4429 12.3852C13.2673 12.1672 13.0452 11.9912 12.7927 11.8703C12.5402 11.7494 12.2638 11.6867 11.9838 11.6867H9.63223C9.1952 11.6867 8.77191 11.8394 8.43563 12.1185L7.17895 13.1623C7.14631 13.1894 7.10846 13.2095 7.06773 13.2215C7.02701 13.2334 6.98427 13.2368 6.94216 13.2315C6.90005 13.2263 6.85947 13.2124 6.82293 13.1909C6.78638 13.1693 6.75465 13.1405 6.72969 13.1062L5.51889 11.4458C5.4303 11.2899 5.31042 11.154 5.1668 11.0467C5.02317 10.9394 4.8589 10.8629 4.68431 10.8221C4.50972 10.7813 4.32858 10.7771 4.15226 10.8096C3.97595 10.8422 3.80828 10.9109 3.65978 11.0114C3.06627 11.4131 3.1511 12.0987 3.55085 12.6935L5.57038 15.4716C5.66763 15.6291 5.79744 15.7639 5.95109 15.867C6.10474 15.9701 6.27867 16.0391 6.46121 16.0694C6.64375 16.0998 6.83066 16.0907 7.0094 16.0428C7.18814 15.9949 7.35456 15.9094 7.49749 15.7918C7.75167 15.5829 8.01772 15.3881 8.31976 15.2571C8.67726 15.1016 9.05027 14.9408 9.1427 15.1141C9.3593 15.5203 9.44337 15.9841 9.38311 16.4404C9.32284 16.8968 9.12127 17.3228 8.80666 17.6589L6.95778 19.6335C6.72308 19.8844 6.90068 20.2937 7.24398 20.2937H8.57724C8.57724 20.2937 6.89671 24.4569 6.03714 26.582C5.97621 26.7329 5.94859 26.8951 5.95614 27.0576C5.9637 27.2201 6.00626 27.379 6.08092 27.5236C6.15559 27.6681 6.26058 27.7948 6.38873 27.895C6.51688 27.9952 6.66516 28.0665 6.82343 28.1041C7.10267 28.1708 7.39683 28.1287 7.64614 27.9864C7.89544 27.844 8.08118 27.612 8.16561 27.3376L10.2947 20.4135C10.3406 20.2642 10.4332 20.1335 10.5589 20.0407C10.6846 19.9479 10.8367 19.8979 10.9929 19.8979H11.1867C11.5897 19.8979 11.9168 20.2247 11.9168 20.6281V27.2828C11.9168 27.5659 12.0293 27.8373 12.2294 28.0375C12.4295 28.2376 12.701 28.35 12.984 28.35C13.2671 28.35 13.5385 28.2376 13.7387 28.0375C13.9388 27.8373 14.0512 27.5656 14.0512 27.2825ZM10.7975 10.5027C11.9198 10.5027 12.8299 9.59756 12.8299 8.47589C12.8299 7.35422 11.9195 6.44348 10.7978 6.44348C9.6758 6.44348 8.76539 7.35356 8.76539 8.47556C8.76539 9.59756 9.67547 10.5027 10.7975 10.5027Z" fill="#274D60" fill-opacity="0.3"/>
</svg>
