<svg width="18" height="18" viewBox="0 0 18 18" fill="none" xmlns="http://www.w3.org/2000/svg">
<g clip-path="url(#clip0_2644_781)">
<path d="M16.1708 14.8409C15.8907 15.0276 15.5421 15.26 14.8878 15.26C14.2335 15.26 13.8849 15.0276 13.6048 14.8409C13.3785 14.6901 13.2291 14.5904 12.8789 14.5904C12.5287 14.5904 12.3793 14.6901 12.153 14.8409C11.8729 15.0276 11.5243 15.26 10.87 15.26C10.2157 15.26 9.86713 15.0276 9.58703 14.8409C9.3608 14.69 9.21135 14.5904 8.86121 14.5904C8.5111 14.5904 8.36161 14.6901 8.13542 14.8409C7.85532 15.0276 7.50672 15.26 6.85248 15.26C6.19824 15.26 5.84965 15.0276 5.56955 14.8409C5.34329 14.69 5.19387 14.5904 4.84369 14.5904C4.49356 14.5904 4.3441 14.6901 4.11784 14.8409C3.83778 15.0276 3.48918 15.26 2.8349 15.26C2.18066 15.26 1.83207 15.0276 1.55197 14.8409C1.32574 14.6901 1.17629 14.5904 0.826181 14.5904H0.323975V17.2688H17.399V14.5904H16.8968C16.5466 14.5904 16.3971 14.6901 16.1708 14.8409ZM16.1708 12.4973C15.8907 12.684 15.5421 12.9164 14.8878 12.9164C14.2335 12.9164 13.8849 12.684 13.6048 12.4973C13.3785 12.3464 13.2291 12.2468 12.8789 12.2468C12.5287 12.2468 12.3793 12.3464 12.153 12.4972C11.8729 12.684 11.5243 12.9164 10.87 12.9164C10.2157 12.9164 9.86713 12.684 9.58703 12.4972C9.3608 12.3464 9.21135 12.2468 8.86121 12.2468C8.5111 12.2468 8.36161 12.3464 8.13542 12.4972C7.85532 12.684 7.50672 12.9164 6.85248 12.9164C6.19824 12.9164 5.84965 12.684 5.56955 12.4972C5.34329 12.3464 5.19387 12.2468 4.84369 12.2468C4.49356 12.2468 4.3441 12.3464 4.11784 12.4972C3.83778 12.684 3.48918 12.9164 2.8349 12.9164C2.18066 12.9164 1.83207 12.684 1.55197 12.4972C1.32574 12.3464 1.17629 12.2468 0.826181 12.2468H0.323975V13.586H0.826181C1.48042 13.586 1.82902 13.8184 2.10912 14.0052C2.33534 14.156 2.48477 14.2556 2.8349 14.2556C3.18504 14.2556 3.3345 14.156 3.56073 14.0052C3.84086 13.8184 4.18945 13.586 4.84369 13.586C5.49797 13.586 5.84657 13.8184 6.12666 14.0052C6.35289 14.156 6.50235 14.2556 6.85248 14.2556C7.20259 14.2556 7.35205 14.156 7.57827 14.0052C7.85837 13.8184 8.20697 13.586 8.86121 13.586C9.51545 13.586 9.86405 13.8184 10.1441 14.0052C10.3704 14.156 10.5199 14.2556 10.87 14.2556C11.2202 14.2556 11.3696 14.1559 11.5959 14.0052C11.876 13.8184 12.2246 13.586 12.8789 13.586C13.5331 13.586 13.8818 13.8184 14.1619 14.0051C14.3882 14.156 14.5376 14.2556 14.8878 14.2556C15.238 14.2556 15.3875 14.1559 15.6137 14.0051C15.8939 13.8184 16.2425 13.586 16.8968 13.586H17.399V12.2468H16.8968C16.5466 12.2468 16.3971 12.3465 16.1708 12.4973ZM15.6413 0.193848C14.6721 0.193848 13.8835 0.982344 13.8835 1.95157V4.21149H9.86589V1.95157C9.86589 1.53618 10.2038 1.19826 10.6192 1.19826C11.0346 1.19826 11.3725 1.53618 11.3725 1.95157V2.70488H12.3769V1.95157C12.3769 0.982344 11.5884 0.193848 10.6192 0.193848C9.64997 0.193848 8.86147 0.982344 8.86147 1.95157V8.73135C9.31862 8.73141 9.6263 8.84498 9.86589 8.97709V7.72694H13.8835V8.97703C14.2891 9.20068 14.3999 9.40096 14.8878 9.40096H14.8879V1.95157C14.8879 1.53618 15.2259 1.19826 15.6413 1.19826C16.0566 1.19826 16.3946 1.53618 16.3946 1.95157V2.70488H17.399V1.95157C17.399 0.982344 16.6104 0.193848 15.6413 0.193848ZM13.8835 6.72252H9.86589V5.21591H13.8835V6.72252ZM16.1708 9.98623C15.8907 10.1729 15.5421 10.4054 14.8878 10.4054C14.2335 10.4054 13.8849 10.173 13.6048 9.98623C13.3785 9.8354 13.2291 9.73576 12.8789 9.73576C12.5287 9.73576 12.3793 9.8354 12.153 9.98619C11.8729 10.1729 11.5243 10.4054 10.87 10.4054C10.2157 10.4054 9.86713 10.173 9.58703 9.98619C9.3608 9.83536 9.21135 9.73576 8.86121 9.73576C8.5111 9.73576 8.36161 9.8354 8.13542 9.98619C7.85532 10.1729 7.50672 10.4054 6.85248 10.4054C6.19824 10.4054 5.84965 10.173 5.56955 9.98619C5.34329 9.83536 5.19387 9.73576 4.84369 9.73576C4.49356 9.73576 4.3441 9.8354 4.11784 9.98619C3.83778 10.173 3.48918 10.4054 2.8349 10.4054C2.18066 10.4054 1.83207 10.173 1.55197 9.98619C1.32574 9.8354 1.17629 9.73576 0.826181 9.73576H0.323975V11.2424H0.826181C1.48042 11.2424 1.82902 11.4748 2.10912 11.6616C2.33534 11.8124 2.48477 11.912 2.8349 11.912C3.18504 11.912 3.3345 11.8123 3.56073 11.6616C3.84086 11.4748 4.18945 11.2424 4.84369 11.2424C5.49797 11.2424 5.84657 11.4748 6.12666 11.6616C6.35289 11.8124 6.50235 11.912 6.85248 11.912C7.20259 11.912 7.35205 11.8123 7.57827 11.6616C7.85837 11.4748 8.20697 11.2424 8.86121 11.2424C9.51545 11.2424 9.86405 11.4748 10.1441 11.6616C10.3704 11.8124 10.5199 11.912 10.87 11.912C11.2202 11.912 11.3696 11.8123 11.5959 11.6616C11.876 11.4748 12.2246 11.2424 12.8789 11.2424C13.5331 11.2424 13.8818 11.4748 14.1619 11.6615C14.3882 11.8123 14.5376 11.912 14.8878 11.912C15.238 11.912 15.3875 11.8123 15.6137 11.6615C15.8939 11.4748 16.2425 11.2424 16.8968 11.2424H17.399V9.73576H16.8968C16.5466 9.73576 16.3971 9.83543 16.1708 9.98623Z" fill="#274D60" fill-opacity="0.2"/>
</g>
<defs>
<clipPath id="clip0_2644_781">
<rect width="17.075" height="17.075" fill="white" transform="translate(0.322998 0.193848)"/>
</clipPath>
</defs>
</svg>
