<svg width="34" height="34" viewBox="0 0 34 34" fill="none" xmlns="http://www.w3.org/2000/svg">
<path d="M23.8851 25.1152V30.902H23.8852C24.4173 31.2421 24.8064 31.7864 24.9409 32.424C25.0998 32.4778 25.2664 32.5054 25.4343 32.5056C26.2898 32.5056 26.9834 31.812 26.9834 30.9565V25.1152H23.8851Z" fill="#274D60" fill-opacity="0.3"/>
<path d="M27.3355 5.35102C28.8132 5.35102 30.011 4.15315 30.011 2.67551C30.011 1.19787 28.8132 0 27.3355 0C25.8579 0 24.66 1.19787 24.66 2.67551C24.66 4.15315 25.8579 5.35102 27.3355 5.35102Z" fill="#274D60" fill-opacity="0.3"/>
<path d="M33.8661 9.24322C33.8577 7.56719 32.4655 6.20361 30.7894 6.20361H24.6242C23.4376 6.20361 22.3496 6.89974 21.8524 7.97712L20.6266 10.6334L19.6848 10.4542C19.9307 10.3351 20.1007 10.0839 20.1007 9.79233C20.1007 9.38599 19.7713 9.05649 19.3649 9.05649H19.3607C19.2814 7.44607 18.0767 6.13202 16.5166 5.8834C16.5509 5.80764 16.5686 5.72547 16.5686 5.64234C16.5686 5.48621 16.5066 5.33648 16.3962 5.22607C16.2858 5.11567 16.1361 5.05365 15.9799 5.05365C15.8238 5.05365 15.6741 5.11567 15.5637 5.22607C15.4533 5.33648 15.3912 5.48621 15.3912 5.64234C15.3912 5.72827 15.4101 5.80975 15.4432 5.8834C13.8832 6.13195 12.6785 7.446 12.5992 9.05649H12.5951C12.1887 9.05649 11.8592 9.38599 11.8592 9.79233C11.8592 10.1987 12.1887 10.5282 12.5951 10.5282H14.6728C14.6351 10.615 14.607 10.7057 14.5891 10.7987C14.4558 11.4991 14.9156 12.1749 15.616 12.3081L21.1348 13.3582C21.7125 13.4685 22.2982 13.1726 22.5482 12.631L23.8845 9.73522L23.8851 19.669H26.9833V18.5747H27.6521V19.669H28.307C29.1849 19.669 29.8992 20.3833 29.8992 21.2612V23.5232C29.8992 24.4012 29.1849 25.1154 28.307 25.1154H27.6521V30.9567C27.6521 31.8123 28.3456 32.5059 29.2012 32.5059C30.0568 32.5059 30.7503 31.8123 30.7503 30.9567V16.3933L27.6464 16.7678C26.234 16.9398 24.9504 15.934 24.7786 14.5224C24.6066 13.1105 25.612 11.8266 27.0239 11.6546L30.7222 11.2045V9.22635C30.7222 9.15463 30.7507 9.08584 30.8014 9.03512C30.8521 8.9844 30.9209 8.9559 30.9927 8.95588C31.142 8.95588 31.2785 9.07701 31.2785 9.22635C31.2785 9.23612 31.2629 9.24614 31.2625 9.25637L31.2785 12.4308L27.1791 12.9298C26.4714 13.016 25.9676 13.6595 26.0538 14.3673C26.14 15.0757 26.7846 15.579 27.4913 15.4926L32.7312 14.8547C33.3814 14.7757 33.8693 14.2219 33.8661 13.5669C33.8633 13.0276 33.8686 9.75169 33.8661 9.24322Z" fill="#274D60" fill-opacity="0.3"/>
<path d="M7.43828 10.9846C8.96059 10.9846 10.1947 9.7505 10.1947 8.22819C10.1947 6.70588 8.96059 5.4718 7.43828 5.4718C5.91596 5.4718 4.68188 6.70588 4.68188 8.22819C4.68188 9.7505 5.91596 10.9846 7.43828 10.9846Z" fill="#274D60" fill-opacity="0.3"/>
<path d="M28.307 20.9933H17.0869C16.5811 21.793 15.6729 22.3065 14.6601 22.2601L12.2176 22.1481V23.523C12.2176 23.594 12.2458 23.6621 12.296 23.7123C12.3462 23.7625 12.4143 23.7907 12.4853 23.7907H19.3294V31.8512H18.1908C17.6016 31.8512 17.1241 32.3289 17.1241 32.918C17.1241 33.5071 17.6017 33.9847 18.1908 33.9847H22.6014C23.1906 33.9847 23.6682 33.5071 23.6682 32.918C23.6682 32.3289 23.1907 31.8512 22.6015 31.8512H21.4629V23.7908H28.307C28.378 23.7908 28.4461 23.7626 28.4963 23.7124C28.5465 23.6622 28.5747 23.5941 28.5747 23.5231V21.2611C28.5747 21.1901 28.5465 21.122 28.4963 21.0718C28.4461 21.0216 28.378 20.9934 28.307 20.9933Z" fill="#274D60" fill-opacity="0.3"/>
<path d="M13.4151 25.1153H12.4853C11.6073 25.1153 10.8931 24.401 10.8931 23.523V22.0874L9.06743 22.0037C8.291 21.9681 7.65682 21.4263 7.46637 20.7133L6.17855 15.8698L8.65737 19.9983C8.77055 20.1868 8.92857 20.3444 9.11738 20.457C9.30618 20.5696 9.51991 20.6338 9.73952 20.6439C15.081 20.8888 14.7377 20.8738 14.7858 20.8738C15.494 20.8738 16.084 20.3163 16.1168 19.6015C16.1505 18.8658 15.5815 18.2421 14.8458 18.2083L10.5758 18.0125L8.46492 14.4968L10.5849 16.4688L10.5699 14.2217C10.563 13.1933 9.72372 12.376 8.69535 12.3828H5.52704C4.44223 12.3901 3.59183 13.3318 3.68427 14.4138L4.46846 23.5985C4.48728 23.8189 4.55187 24.0329 4.65809 24.2269C4.76432 24.4209 4.90984 24.5906 5.08537 24.7251H3.43478L2.12877 10.9393C2.07319 10.3528 1.55276 9.92245 0.966195 9.97797C0.379628 10.0336 -0.0507506 10.554 0.00483146 11.1406C0.00483146 11.1406 1.37273 25.7534 1.37273 25.7969V32.9324C1.37273 33.5216 1.85039 33.9992 2.43948 33.9992C3.02857 33.9992 3.50623 33.5216 3.50623 32.9324V26.8587H8.43311V32.9323C8.43311 33.5215 8.91077 33.9991 9.49986 33.9991C10.089 33.9991 10.5666 33.5215 10.5666 32.9323V26.6555L12.8049 32.9366C13.1015 33.7687 14.0164 34.2034 14.8493 33.9067C15.6851 33.6088 16.1143 32.6897 15.8194 31.8623L13.4151 25.1153Z" fill="#274D60" fill-opacity="0.3"/>
</svg>
