<svg width="34" height="34" viewBox="0 0 34 34" fill="none" xmlns="http://www.w3.org/2000/svg">
<g clip-path="url(#clip0_2818_76)">
<path d="M10.7728 21.2179C10.6288 21.2301 10.4843 21.2362 10.3397 21.2363C9.94454 21.2363 9.56016 21.1789 9.18376 21.0918L0.474409 29.8015C0.0469214 30.2283 0.0469214 30.9217 0.474409 31.3486L2.72847 33.6032C3.15596 34.0302 3.84856 34.0302 4.27487 33.6032L14.7424 23.1377L12.8025 21.0447L10.7728 21.2179ZM33.6926 7.2647C33.2839 6.85617 32.6224 6.85617 32.2137 7.2647L26.5696 12.9086C26.0356 13.4421 25.1705 13.4421 24.6365 12.9086C24.1048 12.3755 24.1048 11.5112 24.6365 10.9783L30.2526 5.36329C30.6769 4.93858 30.6769 4.25007 30.2526 3.82439C29.8263 3.40023 29.1381 3.40023 28.7138 3.82439L23.1 9.43879C22.5659 9.97284 21.7018 9.97284 21.1678 9.43879C20.6349 8.90593 20.6349 8.04095 21.1678 7.5085L26.8107 1.86515C27.2205 1.45599 27.2205 0.793238 26.8107 0.383522C26.4019 -0.0257085 25.7392 -0.0257085 25.3294 0.383522L18.9804 6.73288C17.4539 8.26032 16.9717 10.4044 17.4659 12.3553L21.722 16.6117C23.6728 17.1041 25.8179 16.6217 27.3426 15.0955L33.6925 8.74647C34.1025 8.33731 34.1025 7.67386 33.6926 7.2647Z" fill="#274D60" fill-opacity="0.3"/>
<path d="M2.85267 0.957369C2.72274 0.82755 2.56365 0.730685 2.38866 0.674857C2.21368 0.619029 2.02789 0.605858 1.84678 0.636441C1.66555 0.666981 1.49426 0.740477 1.34725 0.850781C1.20025 0.961084 1.08179 1.10499 1.0018 1.27045C-0.857961 5.11444 -0.0807349 9.71407 2.9382 12.7331L8.33914 18.1334C8.60176 18.3962 8.91364 18.6048 9.25693 18.747C9.60021 18.8892 9.96817 18.9623 10.3397 18.9622C10.4197 18.9622 10.4998 18.9589 10.5797 18.9523L13.7154 18.6846L27.3891 33.4356C27.4945 33.5492 27.6217 33.6404 27.7631 33.7037C27.9045 33.7671 28.0572 33.8013 28.2121 33.8042H28.2321C28.5384 33.8042 28.8316 33.6832 29.0492 33.4672L31.3911 31.1249C31.4981 31.018 31.583 30.8911 31.6408 30.7514C31.6987 30.6116 31.7285 30.4619 31.7284 30.3106C31.7284 30.0053 31.6074 29.7121 31.392 29.4962L2.85267 0.957369Z" fill="#274D60" fill-opacity="0.3"/>
</g>
<defs>
<clipPath id="clip0_2818_76">
<rect width="34" height="34" fill="white"/>
</clipPath>
</defs>
</svg>
