<svg width="27" height="34" viewBox="0 0 27 34" fill="none" xmlns="http://www.w3.org/2000/svg">
<path d="M26.3378 26.5758C24.9921 22.415 21.5247 20.5387 19.2674 19.2605C15.2017 16.949 17.1052 15.5348 18.343 14.8139C17.0664 14.3532 15.961 13.5135 15.1746 12.4073C13.4343 12.4886 11.925 12.7335 10.6468 13.1139C11.5712 14.9908 12.0881 17.0983 12.0881 18.6076C12.0881 20.6199 11.1903 22.4421 9.74898 23.6794C10.8099 24.5363 11.2992 25.1754 11.177 26.5758C11.0139 28.466 9.99388 29.2273 7.65479 30.9267C6.90472 31.4677 6.17024 32.03 5.45223 32.6129C4.88113 33.0751 5.20785 34 5.94204 34H25.1143C25.3061 33.9998 25.4939 33.9447 25.6554 33.8411C25.8168 33.7375 25.9452 33.5899 26.0254 33.4156C26.8685 31.4574 27.1947 29.2411 26.3378 26.5758ZM12.3054 30.5325C12.2427 30.6045 12.1654 30.6623 12.0786 30.7022C11.9919 30.742 11.8977 30.7629 11.8023 30.7636C11.6392 30.7636 11.4761 30.6956 11.3401 30.5873C11.0681 30.3285 11.041 29.8934 11.2992 29.6214C12.2103 28.6291 12.6592 27.5549 12.7814 26.1545C12.788 26.0656 12.8125 25.979 12.8533 25.8997C12.8941 25.8204 12.9504 25.7502 13.0189 25.6931C13.0874 25.636 13.1666 25.5933 13.2519 25.5674C13.3373 25.5415 13.4269 25.5331 13.5155 25.5425C13.8964 25.5696 14.1684 25.8958 14.1414 26.2767C13.9915 27.9629 13.4066 29.3223 12.3054 30.5325ZM23.537 27.4731C23.469 27.5007 23.401 27.5007 23.3192 27.5007C23.1775 27.5012 23.0392 27.4568 22.9244 27.3737C22.8095 27.2907 22.724 27.1733 22.6801 27.0385C21.7696 24.2234 19.4034 22.891 17.323 21.7218L17.1732 21.6399C16.6972 21.3679 15.7319 20.8239 14.8623 19.9947C14.5764 19.7365 14.5764 19.3014 14.8208 19.0294C15.0928 18.7574 15.5146 18.7436 15.7866 19.0023C16.5479 19.7227 17.3772 20.1987 17.8394 20.4568L17.9892 20.5387C20.1779 21.7621 22.8979 23.299 23.9721 26.6162C24.0943 26.97 23.8909 27.3509 23.537 27.4731ZM10.7286 18.6076C10.7286 21.3408 8.6886 23.571 6.05095 23.9105V27.5007C6.05095 27.8811 5.73751 28.1807 5.37095 28.1807C4.99004 28.1807 4.69095 27.8811 4.69095 27.5007V17.0303C4.69095 16.6499 4.39185 16.3503 4.01095 16.3503C3.63057 16.3503 3.33095 16.6499 3.33095 17.0303V19.7636L2.40126 18.8126C2.27473 18.6834 2.10227 18.6095 1.92146 18.6069C1.74065 18.6043 1.56615 18.6733 1.43598 18.7988C1.37145 18.8615 1.32015 18.9366 1.28512 19.0195C1.25009 19.1024 1.23205 19.1915 1.23205 19.2815C1.23205 19.3714 1.25009 19.4605 1.28512 19.5434C1.32015 19.6263 1.37145 19.7014 1.43598 19.7641L3.33148 21.7079V23.5434C2.34631 23.1483 1.50226 22.4668 0.908387 21.587C0.314511 20.7072 -0.00190804 19.6696 8.6564e-06 18.6081C8.6564e-06 15.6437 2.40657 10.0821 5.37095 10.0821C8.33532 10.0821 10.7281 15.6437 10.7281 18.6076H10.7286ZM20.6375 0C23.6019 0 26.0084 5.56113 26.0084 8.5255C26.0105 9.58699 25.6942 10.6247 25.1004 11.5046C24.5066 12.3845 23.6626 13.0661 22.6775 13.4613V11.6259L24.5724 9.68203C24.637 9.6193 24.6883 9.54427 24.7233 9.46137C24.7583 9.37847 24.7764 9.28939 24.7764 9.19939C24.7764 9.10939 24.7583 9.02031 24.7233 8.93741C24.6883 8.85451 24.637 8.77948 24.5724 8.71675C24.4423 8.59117 24.2679 8.52209 24.0871 8.52458C23.9063 8.52707 23.7338 8.60092 23.6072 8.73003L22.6775 9.68097V6.94875C22.6775 6.56784 22.3784 6.26875 21.9975 6.26875C21.6166 6.26875 21.3175 6.56784 21.3175 6.94875V17.4186C21.3175 17.7995 21.0184 18.0986 20.6375 18.0986C20.2709 18.0986 19.9575 17.7995 19.9575 17.4186V13.8284C17.3198 13.4884 15.2804 11.2588 15.2804 8.5255C15.2809 5.56113 17.6736 0 20.6375 0Z" fill="#274D60" fill-opacity="0.3"/>
</svg>
