<svg width="34" height="34" viewBox="0 0 34 34" fill="none" xmlns="http://www.w3.org/2000/svg">
<path d="M30.5123 18.2272L29.4498 17.332V11.212H30.5123V18.2272ZM33.4262 9.40844L31.697 5.36828C31.6556 5.27304 31.5873 5.19193 31.5005 5.13486C31.4137 5.07779 31.3122 5.04721 31.2083 5.04688H28.7539C28.6503 5.04691 28.549 5.0774 28.4626 5.13454C28.3761 5.19169 28.3084 5.27297 28.2678 5.36828L26.5386 9.40844C26.504 9.48932 26.4901 9.5775 26.4979 9.6651C26.5058 9.7527 26.5353 9.83698 26.5837 9.9104C26.6321 9.98383 26.698 10.0441 26.7754 10.0858C26.8528 10.1276 26.9394 10.1494 27.0273 10.1495H32.9375C33.0255 10.1494 33.112 10.1276 33.1894 10.0858C33.2669 10.0441 33.3327 9.98383 33.3811 9.9104C33.4296 9.83698 33.459 9.7527 33.4669 9.6651C33.4748 9.5775 33.4608 9.48932 33.4262 9.40844ZM8.57969 15.5656V14.9972C8.5806 14.6199 8.73089 14.2583 8.9977 13.9915C9.26451 13.7246 9.62612 13.5743 10.0034 13.5734H13.3742C13.7517 13.5739 14.1135 13.7241 14.3804 13.991C14.6473 14.2579 14.7975 14.6197 14.798 14.9972V15.5656H17.077V14.9972C17.0775 14.6197 17.2277 14.2579 17.4946 13.991C17.7615 13.7241 18.1233 13.5739 18.5008 13.5734H21.8716C22.2489 13.5743 22.6105 13.7246 22.8773 13.9915C23.1441 14.2583 23.2944 14.6199 23.2953 14.9972V15.5656H26.0312V12.7872C26.0302 12.0105 25.7212 11.2659 25.172 10.7166C24.6227 10.1674 23.8781 9.8584 23.1014 9.85734H8.77359C7.99687 9.8584 7.25227 10.1674 6.70305 10.7166C6.15382 11.2659 5.8448 12.0105 5.84375 12.7872V15.5656H8.57969ZM29.3542 20.0281H31.0064L30.5123 19.6137L29.4498 18.7213L26.9583 16.6281H4.91672L0.868594 20.0281H29.3542ZM2.92188 27.1708H1.85938V28.4219C1.8598 28.5626 1.9159 28.6975 2.01544 28.7971C2.11498 28.8966 2.24986 28.9527 2.39062 28.9531H4.97781C5.11858 28.9527 5.25346 28.8966 5.353 28.7971C5.45254 28.6975 5.50864 28.5626 5.50906 28.4219V27.1708H2.92188ZM27.4284 27.1708H26.3659V28.4219C26.3664 28.5626 26.4225 28.6975 26.522 28.7971C26.6215 28.8966 26.7564 28.9527 26.8972 28.9531H29.4844C29.6251 28.9527 29.76 28.8966 29.8596 28.7971C29.9591 28.6975 30.0152 28.5626 30.0156 28.4219V27.1708H27.4284ZM1.59375 21.0906H0.53125V25.577C0.53167 25.7178 0.587776 25.8527 0.687314 25.9522C0.786852 26.0518 0.921733 26.1079 1.0625 26.1083H30.8125C30.9533 26.1079 31.0881 26.0518 31.1877 25.9522C31.2872 25.8527 31.3433 25.7178 31.3438 25.577V21.0906H1.59375Z" fill="#274D60" fill-opacity="0.3"/>
</svg>
