<svg width="34" height="34" viewBox="0 0 34 34" fill="none" xmlns="http://www.w3.org/2000/svg">
<path d="M12.7822 5.14704L13.8796 4.61411C13.5478 3.91386 13.4637 3.12163 13.6413 2.36735C13.6515 2.32325 13.6654 2.28095 13.6773 2.23761L12.2583 1.82032C12.2583 1.82032 11.7158 2.72989 11.8097 3.51735C11.9034 4.30437 12.7822 5.14704 12.7822 5.14704ZM13.7503 32.5001C13.7503 33.3286 14.4218 34 15.2502 34C16.0784 34 16.7502 33.3286 16.7502 32.5001V32.1984C16.2366 32.1786 15.0019 32.1213 13.7503 31.9932V32.5001ZM17.2503 32.5001C17.2503 33.3286 17.9216 34 18.7502 34C19.5782 34 20.2501 33.3286 20.2501 32.5001V31.9932C18.9987 32.1213 17.7641 32.1786 17.2503 32.1984V32.5001ZM17.0001 1.35864C15.5637 1.35864 14.3404 2.05776 13.8534 3.04142C13.801 4.51616 14.7946 5.86941 16.2861 6.21694C17.98 6.61128 19.6727 5.55772 20.0673 3.86399C20.1295 3.59288 20.1554 3.31471 20.1444 3.03677C19.6559 2.05551 18.4342 1.35864 17.0001 1.35864Z" fill="#274D60" fill-opacity="0.3"/>
<path d="M17.0001 0.708741C18.2728 0.708741 19.3806 1.25682 19.9556 2.06604C19.6016 1.10398 18.7874 0.332407 17.7145 0.0826673C16.1492 -0.281818 14.5868 0.591447 14.047 2.06259C14.6227 1.25532 15.729 0.708741 17.0001 0.708741ZM19.9454 30.2214C18.9704 30.2846 17.9943 30.3298 17.0176 30.357L17.0013 30.3573L16.9818 30.357C16.9755 30.357 15.6609 30.3255 14.0542 30.2214C12.9799 30.1503 11.7879 30.0516 10.7434 29.9017C10.7369 30.2703 10.7336 30.6389 10.7335 31.0075C10.8715 31.0492 11.0237 31.0883 11.1851 31.1255C13.2459 31.5995 16.9999 31.7074 16.9999 31.7074C16.9999 31.7074 20.7538 31.5995 22.8147 31.1255C22.9665 31.0912 23.1172 31.0518 23.2664 31.0075C23.2664 30.6307 23.2629 30.2628 23.2566 29.9016C22.2119 30.0516 21.0196 30.1503 19.9454 30.2214ZM13.6591 11.5674C13.8958 12.6462 14.0758 13.7926 14.0034 14.5734C13.9566 15.0767 13.8564 15.4344 13.7358 15.738C13.8855 15.7638 14.047 15.7908 14.2186 15.8178C15.0632 15.951 16.1315 16.0834 17.0002 16.0827C17.8685 16.0836 18.9368 15.951 19.7811 15.8178C19.953 15.7906 20.1148 15.7638 20.2647 15.7378C20.1442 15.4344 20.0439 15.0767 19.9974 14.5734C19.9248 13.7927 20.1046 12.6466 20.3413 11.5681C20.0364 10.415 19.6064 8.55192 19.7382 7.64506C19.4885 7.52802 19.233 7.42388 18.9726 7.33307C18.7675 7.62781 17.963 8.04584 17.0001 8.04584C16.037 8.04584 15.2327 7.62781 15.0274 7.33307C14.7671 7.42398 14.5116 7.52806 14.2619 7.64491C14.3939 8.55162 13.9641 10.4141 13.6591 11.5674ZM8.48508 13.1357C8.73077 13.4711 9.00346 13.7711 9.19425 14.1009C9.1989 14.1092 9.20415 14.1173 9.20895 14.1255C9.2289 14.1609 9.2493 14.1866 9.2697 14.2056C9.62023 14.5317 10.0741 12.5995 11.1709 12.5236C12.3321 12.4437 12.9328 11.9632 13.053 11.5627C13.1731 11.1623 14.3344 7.83855 13.6936 7.11768C13.5849 6.99543 13.453 6.89554 13.3092 6.81469C12.605 6.41946 11.5834 6.5192 11.2508 7.11768C10.8503 7.83855 10.57 9.1201 9.92922 9.32019C9.28874 9.52043 7.76721 11.2023 7.9673 12.0834C8.0615 12.4972 8.26189 12.8311 8.48508 13.1357Z" fill="#274D60" fill-opacity="0.3"/>
<path d="M22.6043 12.8611C22.4643 12.8516 22.3242 12.8446 22.184 12.8399L20.6917 15.5207C20.6648 15.5697 20.6421 15.6209 20.6241 15.6737C20.5548 15.8712 20.5513 16.0858 20.6139 16.2854C20.0449 16.3889 19.4732 16.4763 18.8993 16.5478C19.503 17.3063 20.9134 19.3907 21.3538 22.7687C21.3593 22.8111 21.3557 22.8541 21.3433 22.8949C21.3308 22.9357 21.3098 22.9735 21.2816 23.0055C21.2534 23.0376 21.2187 23.0632 21.1798 23.0808C21.1409 23.0984 21.0987 23.1075 21.0561 23.1074C20.9832 23.1074 20.9129 23.081 20.8581 23.0329C20.8034 22.9849 20.768 22.9186 20.7585 22.8464C20.38 19.9369 19.2516 18.0387 18.6241 17.1768C18.6035 17.439 18.593 17.7019 18.5926 17.9649C18.5918 18.5293 18.6478 19.1611 18.8158 19.6628H18.8161C18.8287 19.7002 18.8338 19.7398 18.8311 19.7792C18.8284 19.8186 18.818 19.8571 18.8004 19.8925C18.7828 19.9278 18.7584 19.9594 18.7286 19.9853C18.6988 20.0112 18.6641 20.0309 18.6266 20.0434C18.5892 20.0559 18.5496 20.0609 18.5102 20.058C18.4708 20.0552 18.4323 20.0446 18.3971 20.0268C18.3618 20.0091 18.3303 19.9845 18.3046 19.9546C18.2788 19.9247 18.2592 19.8899 18.2468 19.8524C18.0467 19.2497 17.9932 18.5671 17.9924 17.9647C17.9926 17.4036 18.0409 16.9136 18.0757 16.6331C17.7078 16.6635 17.3425 16.6824 17.0004 16.6827C15.7827 16.6817 14.2757 16.4462 13.3863 16.2854C13.4488 16.0857 13.4452 15.8711 13.3761 15.6736C13.3579 15.6209 13.3353 15.5699 13.3086 15.521L11.8163 12.8399C11.6761 12.8444 11.5361 12.8515 11.3962 12.8611C10.8419 12.8995 10.4521 13.412 10.1565 13.8678L11.6047 16.4696C11.6891 16.6216 11.8127 16.7482 11.9627 16.8363C12.1126 16.9244 12.2833 16.9707 12.4572 16.9706C12.6053 16.9706 12.7547 16.9352 12.8951 16.8642C12.2469 18.4338 11.057 22.1088 10.7888 28.392C11.2894 28.4676 11.8512 28.5333 12.4244 28.5882C12.524 27.2704 13.0587 20.9697 14.3315 18.5581C13.5174 21.261 13.2124 27.1486 13.1463 28.6517C14.3083 28.7458 15.441 28.8007 16.1777 28.8297C16.6228 28.8472 16.9206 28.8553 16.9981 28.8573C17.0685 28.8553 17.3688 28.8478 17.8226 28.8297C18.3434 28.8091 19.0617 28.7758 19.8488 28.725C20.9536 28.6548 22.2068 28.5437 23.2118 28.3922C22.9437 22.1092 21.7538 18.4342 21.1057 16.8645C21.2458 16.9355 21.3952 16.9709 21.5431 16.9709C21.717 16.971 21.8878 16.9246 22.0378 16.8365C22.1877 16.7484 22.3114 16.6218 22.396 16.4698L23.8441 13.8677C23.5484 13.4118 23.1585 12.8995 22.6043 12.8611Z" fill="#274D60" fill-opacity="0.3"/>
<path d="M20.947 11.5627C21.0672 11.9632 21.668 12.4436 22.8293 12.5236C23.9263 12.5995 24.3799 14.5322 24.7306 14.2055C24.7512 14.1864 24.7713 14.1609 24.7912 14.1255C24.7957 14.1173 24.8011 14.1095 24.8058 14.1012C24.9964 13.7714 25.2692 13.4714 25.5151 13.1359C25.7381 12.8312 25.9387 12.4972 26.0329 12.0832C26.2329 11.2021 24.7113 9.52027 24.0706 9.32003C23.4299 9.11994 23.1495 7.83839 22.749 7.11752C22.4165 6.51919 21.395 6.41945 20.6907 6.81453C20.5468 6.89538 20.415 6.99512 20.3062 7.11752C19.6656 7.83854 20.8269 11.1623 20.947 11.5627Z" fill="#274D60" fill-opacity="0.3"/>
</svg>
