<svg width="34" height="34" viewBox="0 0 34 34" fill="none" xmlns="http://www.w3.org/2000/svg">
<g clip-path="url(#clip0_2806_14)">
<path d="M17.0001 24.1732C17.6284 24.1732 18.1378 23.6639 18.1378 23.0355C18.1378 22.4071 17.6284 21.8978 17.0001 21.8978C16.3717 21.8978 15.8623 22.4071 15.8623 23.0355C15.8623 23.6639 16.3717 24.1732 17.0001 24.1732Z" fill="#274D60" fill-opacity="0.3"/>
<path d="M17.0001 12.1021C17.6284 12.1021 18.1378 11.5927 18.1378 10.9643C18.1378 10.336 17.6284 9.8266 17.0001 9.8266C16.3717 9.8266 15.8623 10.336 15.8623 10.9643C15.8623 11.5927 16.3717 12.1021 17.0001 12.1021Z" fill="#274D60" fill-opacity="0.3"/>
<path d="M33.0835 0.917402C32.4926 0.325789 31.7066 0 30.8701 0H18.9509C18.1148 0 17.3287 0.325656 16.7374 0.917004L0.917137 16.7373C0.325656 17.3287 0 18.1148 0 18.9507C0 19.7867 0.325789 20.5728 0.917137 21.1637L12.836 33.0827C13.4271 33.6742 14.2132 34 15.0492 34C15.8852 34 16.6713 33.6743 17.2627 33.0829L33.083 17.2626C33.6743 16.6713 34 15.8852 34 15.0491V3.12993C34 2.29341 33.6742 1.50729 33.0835 0.917402ZM17.0001 7.83441C18.7259 7.83441 20.13 9.2385 20.13 10.9643C20.13 12.6902 18.7259 14.0943 17.0001 14.0943C15.2742 14.0943 13.8701 12.6902 13.8701 10.9643C13.8701 9.2385 15.2742 7.83441 17.0001 7.83441ZM17.0001 26.1655C15.2742 26.1655 13.8701 24.7614 13.8701 23.0355C13.8701 21.3097 15.2742 19.9056 17.0001 19.9056C18.7259 19.9056 20.13 21.3097 20.13 23.0355C20.13 24.7614 18.7259 26.1655 17.0001 26.1655ZM23.4016 17.996H10.5986C10.0485 17.996 9.60248 17.55 9.60248 16.9999C9.60248 16.4498 10.0485 16.0038 10.5986 16.0038H23.4016C23.9517 16.0038 24.3977 16.4498 24.3977 16.9999C24.3977 17.55 23.9517 17.996 23.4016 17.996ZM27.6693 7.3268C27.1194 7.3268 26.6732 6.88055 26.6732 6.33071C26.6732 5.78086 27.1194 5.33461 27.6693 5.33461C28.2191 5.33461 28.6654 5.78086 28.6654 6.33071C28.6654 6.88055 28.2191 7.3268 27.6693 7.3268Z" fill="#274D60" fill-opacity="0.3"/>
</g>
<defs>
<clipPath id="clip0_2806_14">
<rect width="34" height="34" fill="white"/>
</clipPath>
</defs>
</svg>
