<svg width="34" height="34" viewBox="0 0 34 34" fill="none" xmlns="http://www.w3.org/2000/svg">
<g clip-path="url(#clip0_2801_2)">
<path d="M7.6734 7.40271C7.90781 7.78188 8.31349 7.99046 8.72879 7.99046C8.95118 7.99046 9.17643 7.93057 9.37943 7.80506C9.96168 7.44501 10.1418 6.68121 9.78179 6.09896C9.51152 5.66194 9.64253 5.04855 9.89043 4.09038C10.1568 3.06082 10.4883 1.77946 9.79374 0.607659C9.44478 0.0188385 8.68476 -0.175598 8.09554 0.173365C7.50672 0.522394 7.31229 1.28267 7.66132 1.87156C7.83019 2.15658 7.65753 2.82396 7.49059 3.46949C7.19495 4.61213 6.82699 6.03408 7.6734 7.40271ZM11.6416 7.40271C11.876 7.78188 12.2817 7.99053 12.697 7.99053C12.9194 7.99053 13.1445 7.9307 13.3477 7.80513C13.9299 7.44521 14.1101 6.68134 13.7501 6.09916C13.4798 5.66201 13.6107 5.04875 13.8586 4.09051C14.1251 3.06096 14.4565 1.77966 13.762 0.607858C13.413 0.0189713 12.6525 -0.175399 12.0638 0.173564C11.4749 0.522593 11.2805 1.28287 11.6295 1.87169C11.7985 2.15671 11.6257 2.82415 11.4587 3.46962C11.1633 4.61213 10.7954 6.03408 11.6416 7.40271ZM1.33583 21.1935L2.45908 28.5667C2.46539 28.6079 2.46851 28.6495 2.46851 28.6912C2.46851 30.1034 3.50165 31.2784 4.85175 31.5015L3.99027 21.1935H1.33583ZM6.51336 31.5402H9.8885V30.9737C9.53864 30.3744 9.25418 29.7392 9.04003 29.0791C8.75595 28.2018 8.91014 27.2327 9.45241 26.4872C9.57952 26.313 9.72578 26.1536 9.88844 26.0121V21.1935H5.64862L6.51336 31.5402ZM11.7914 25.296H15.4382L15.7811 21.1935H11.5411V25.3082C11.6243 25.3005 11.7078 25.2964 11.7914 25.296ZM17.0966 25.296H19.4687L20.0938 21.1935H17.4394L17.0966 25.296ZM21.0697 14.7876L21.3395 13.0167C21.3735 12.7938 21.3589 12.5662 21.2968 12.3494C21.2346 12.1327 21.1263 11.9319 20.9793 11.7609C20.8324 11.5898 20.6502 11.4525 20.4453 11.3584C20.2404 11.2643 20.0175 11.2156 19.792 11.2157H18.2733L17.9787 14.7401H20.6577C20.7975 14.7401 20.9356 14.7566 21.0697 14.7876ZM0.754973 14.7401H3.45098L3.15641 11.2157H1.63764C1.41214 11.2156 1.18928 11.2642 0.984345 11.3583C0.779414 11.4524 0.597259 11.5898 0.450369 11.7609C0.303358 11.9318 0.195055 12.1326 0.132886 12.3494C0.0707162 12.5661 0.0561495 12.7937 0.090184 13.0167L0.359393 14.7838C0.489274 14.7549 0.621917 14.7402 0.754973 14.7401ZM9.88844 14.7401V11.2157H4.8147L5.10927 14.7401H9.88844ZM11.5411 14.7401H16.3204L16.615 11.2157H11.5411V14.7401Z" fill="#274D60" fill-opacity="0.3"/>
<path d="M33.6995 10.334C33.3039 9.77537 32.5303 9.64342 31.9717 10.0391C31.7145 10.2213 25.808 14.5334 23.6539 26.8661H11.9029C11.7074 26.8661 11.5147 26.9123 11.3405 27.001C11.1662 27.0898 11.0155 27.2184 10.9005 27.3766C10.7855 27.5347 10.7095 27.7178 10.6788 27.9108C10.6481 28.1039 10.6635 28.3015 10.7237 28.4875C11.7917 31.7847 14.8385 34 18.3053 34C21.7617 34 24.8006 31.7979 25.8771 28.5173C25.9047 28.4391 25.9246 28.3572 25.936 28.2727C26.2333 26.3157 26.6308 24.5728 27.0825 23.0302C28.0792 19.6266 29.3399 17.1993 30.37 15.6059C30.56 15.3119 30.7574 15.0227 30.9622 14.7388C32.3157 12.8636 33.3973 12.0672 33.4046 12.0619C33.9632 11.6661 34.0952 10.8925 33.6995 10.334Z" fill="#274D60" fill-opacity="0.3"/>
<path d="M20.001 20.2256C20.2159 20.2256 20.4234 20.1472 20.5847 20.0052C20.746 19.8632 20.8499 19.6673 20.877 19.4541L21.2307 16.6755C21.2979 16.1479 20.8867 15.681 20.3548 15.681H1.07476C0.542846 15.681 0.131595 16.1478 0.198798 16.6755L0.552475 19.4541C0.579622 19.6672 0.683556 19.8632 0.844807 20.0052C1.00606 20.1472 1.21356 20.2256 1.42844 20.2256H20.001Z" fill="#274D60" fill-opacity="0.3"/>
</g>
<defs>
<clipPath id="clip0_2801_2">
<rect width="34" height="34" fill="white"/>
</clipPath>
</defs>
</svg>
