<svg width="25" height="25" viewBox="0 0 25 25" fill="none" xmlns="http://www.w3.org/2000/svg">
<path d="M23.8434 10.7987L13.0924 1.72756C13.0318 1.67646 12.955 1.64844 12.8757 1.64844C12.7964 1.64844 12.7197 1.67646 12.659 1.72756L1.90811 10.7987C1.87249 10.8286 1.8435 10.8657 1.82297 10.9075C1.80244 10.9492 1.79083 10.9948 1.78887 11.0413C1.78691 11.0879 1.79465 11.1343 1.81159 11.1776C1.82853 11.221 1.85431 11.2603 1.88728 11.2932L3.23115 12.6371C3.29069 12.6966 3.37041 12.7316 3.45453 12.7351C3.53865 12.7387 3.62104 12.7105 3.68538 12.6562L12.8757 4.90177L22.0661 12.6562C22.1305 12.7105 22.2129 12.7386 22.297 12.735C22.3811 12.7314 22.4608 12.6963 22.5203 12.6367L23.8642 11.2929C23.8971 11.26 23.9228 11.2206 23.9396 11.1773C23.9565 11.134 23.9642 11.0876 23.9623 11.0412C23.9603 10.9947 23.9487 10.9492 23.9283 10.9074C23.9078 10.8657 23.8789 10.8287 23.8434 10.7987Z" fill="#274D60" fill-opacity="0.2"/>
<path d="M13.0956 5.76128C13.0345 5.70864 12.9566 5.67969 12.8759 5.67969C12.7953 5.67969 12.7173 5.70864 12.6562 5.76128L5.26493 12.1446C5.22842 12.1762 5.19915 12.2153 5.17909 12.2591C5.15903 12.303 5.14866 12.3507 5.14868 12.399V23.4859C5.14868 23.575 5.18408 23.6604 5.24708 23.7234C5.31009 23.7864 5.39554 23.8218 5.48465 23.8218H20.2672C20.3563 23.8218 20.4417 23.7864 20.5047 23.7234C20.5677 23.6604 20.6031 23.575 20.6031 23.4859V12.399C20.6032 12.3507 20.5928 12.303 20.5727 12.2591C20.5527 12.2153 20.5234 12.1762 20.4869 12.1446L13.0956 5.76128ZM17.9154 21.1341V23.1499H17.2435V20.7981C17.2435 20.6133 17.3947 20.4622 17.5794 20.4622H19.9312V21.1341H17.9154ZM5.82061 21.1341V20.4622H8.17238C8.35716 20.4622 8.50835 20.6133 8.50835 20.7981V23.1499H7.83641V21.1341H5.82061ZM15.9231 15.8964C15.2579 15.2312 14.8917 14.3476 14.8917 13.4069C14.8917 12.4662 15.2579 11.5826 15.9231 10.9174C16.1852 10.6553 16.6119 10.6519 16.8739 10.9174C17.136 11.1794 17.136 11.6027 16.8739 11.8648C16.4607 12.278 16.2356 12.8256 16.2356 13.4069C16.2356 13.9881 16.4607 14.5357 16.8739 14.949C18.248 16.3197 18.248 18.5572 16.8739 19.928C16.8117 19.9907 16.7376 20.0405 16.656 20.0745C16.5744 20.1085 16.4869 20.126 16.3985 20.126C16.3101 20.126 16.2226 20.1085 16.141 20.0745C16.0594 20.0405 15.9854 19.9907 15.9231 19.928C15.6611 19.6659 15.6611 19.2426 15.9231 18.9806C16.3364 18.5673 16.5615 18.0197 16.5615 17.4385C16.5615 16.8572 16.3364 16.3096 15.9231 15.8964ZM12.4022 14.5525C11.0281 13.1818 11.0281 10.9442 12.4022 9.57349C12.6643 9.30808 13.0876 9.30808 13.3496 9.57349C13.615 9.83555 13.615 10.2589 13.3496 10.5209C12.9397 10.9342 12.7113 11.4818 12.7113 12.063C12.7113 12.6442 12.9397 13.1919 13.3496 13.6051C14.7237 14.9758 14.7237 17.2134 13.3496 18.5841C13.2186 18.7151 13.0473 18.7823 12.8759 18.7823C12.7046 18.7823 12.5332 18.7151 12.4022 18.5841C12.1368 18.3221 12.1368 17.8987 12.4022 17.6367C12.8121 17.2234 13.0405 16.6758 13.0405 16.0946C13.0405 15.5134 12.8121 14.9658 12.4022 14.5525ZM9.2038 15.8964C8.53858 15.2312 8.17238 14.3476 8.17238 13.4069C8.17238 12.4662 8.53858 11.5826 9.2038 10.9174C9.46585 10.6553 9.89253 10.6519 10.1546 10.9174C10.4166 11.1794 10.4166 11.6027 10.1546 11.8648C9.74134 12.278 9.51625 12.8256 9.51625 13.4069C9.51625 13.9881 9.74134 14.5357 10.1546 14.949C11.5287 16.3197 11.5287 18.5572 10.1546 19.928C10.0923 19.9907 10.0183 20.0405 9.93669 20.0745C9.85509 20.1085 9.76758 20.126 9.67919 20.126C9.5908 20.126 9.50328 20.1085 9.42169 20.0745C9.3401 20.0405 9.26604 19.9907 9.2038 19.928C8.94174 19.6659 8.94174 19.2426 9.2038 18.9806C9.61704 18.5673 9.84213 18.0197 9.84213 17.4385C9.84213 16.8572 9.61704 16.3096 9.2038 15.8964Z" fill="#274D60" fill-opacity="0.2"/>
</svg>
