<svg width="34" height="34" viewBox="0 0 34 34" fill="none" xmlns="http://www.w3.org/2000/svg">
<path d="M20.7134 8.25032C22.0309 10.0948 24.8306 9.42703 25.7125 7.47469C26.4934 5.88625 25.9675 4.01625 24.5331 3.30969C21.751 1.96403 18.8987 5.75132 20.7134 8.25032ZM16.134 23.8531L17.069 22.0203C17.069 22.0203 15.0259 19.0453 14.62 18.4716L13.1962 20.5859C13.1352 20.6859 13.0523 20.7707 12.9539 20.8342C12.8555 20.8977 12.744 20.9381 12.6278 20.9525L7.94217 21.5794C7.79064 21.5997 7.64614 21.6559 7.52066 21.7432C7.39518 21.8306 7.29233 21.9466 7.22065 22.0816C7.14897 22.2166 7.11053 22.3668 7.10851 22.5197C7.10649 22.6726 7.14096 22.8237 7.20904 22.9606L8.44155 25.4522C8.5173 25.6016 8.6306 25.7288 8.77032 25.8212C8.91005 25.9136 9.07141 25.9682 9.23856 25.9794C9.40572 25.9907 9.57293 25.9583 9.72378 25.8854C9.87463 25.8125 10.004 25.7017 10.099 25.5638L10.6622 24.7297L14.4128 24.8678C14.7662 24.8784 15.1154 24.7887 15.42 24.6091C15.7246 24.4296 15.9722 24.1675 16.134 23.8531Z" fill="#274D60" fill-opacity="0.3"/>
<path d="M10.9825 29.2214H10.2707C10.018 29.2208 9.77066 29.1487 9.55726 29.0134C9.34386 28.8781 9.1731 28.6852 9.06471 28.457L4.42159 18.6421C4.36089 18.5155 4.25254 18.4181 4.12022 18.3711C3.98789 18.3241 3.84236 18.3315 3.71542 18.3915C3.58849 18.4515 3.49048 18.5594 3.44282 18.6914C3.39516 18.8235 3.40173 18.9691 3.46109 19.0963L8.10315 28.9112C8.29813 29.3211 8.60506 29.6675 8.98849 29.9104C9.37192 30.1533 9.81623 30.2828 10.2701 30.2839H10.982C11.1229 30.2839 11.258 30.228 11.3576 30.1283C11.4573 30.0287 11.5132 29.8936 11.5132 29.7527C11.5132 29.6118 11.4573 29.4767 11.3576 29.377C11.258 29.2774 11.1234 29.2214 10.9825 29.2214ZM31.3331 28.645C30.761 28.2588 30.4555 28.9903 30.1697 29.3463C30.0462 29.5168 29.8841 29.6557 29.6967 29.7518C29.5093 29.8478 29.3018 29.8981 29.0912 29.8988H16.3147C16.1738 29.8988 16.0387 29.9548 15.939 30.0544C15.8394 30.154 15.7834 30.2891 15.7834 30.43C15.7834 30.5709 15.8394 30.7061 15.939 30.8057C16.0387 30.9053 16.1738 30.9613 16.3147 30.9613H29.0912C29.4706 30.9602 29.8444 30.8696 30.1822 30.697C30.52 30.5244 30.8124 30.2746 31.0356 29.9678L31.4553 29.3835C31.4959 29.327 31.525 29.2631 31.5408 29.1954C31.5567 29.1277 31.559 29.0575 31.5476 28.9889C31.5363 28.9203 31.5115 28.8546 31.4747 28.7955C31.4379 28.7365 31.3898 28.6854 31.3331 28.645Z" fill="#274D60" fill-opacity="0.3"/>
<path d="M11.0234 12.5481C10.9471 12.8566 10.9641 13.1808 11.0722 13.4797C11.1803 13.7785 11.3746 14.0386 11.6306 14.2269C11.8866 14.4152 12.1928 14.5233 12.5103 14.5375C12.8277 14.5516 13.1423 14.4713 13.4141 14.3065L16.6812 12.2772L17.2231 12.4312C14.3719 17.5727 14.3342 16.0969 17.6162 20.9525C17.6561 21.0619 19.473 23.5189 19.3587 23.5981L19.5606 27.0884V27.1522L19.3906 28.374C19.376 28.4898 19.386 28.6073 19.4201 28.7189C19.4542 28.8305 19.5115 28.9336 19.5883 29.0214C19.6651 29.1092 19.7596 29.1798 19.8656 29.2285C19.9716 29.2771 20.0868 29.3028 20.2034 29.3037H23.3059C23.455 29.3026 23.601 29.2611 23.7285 29.1836C23.8559 29.1062 23.96 28.9957 24.0297 28.8639C24.0994 28.7321 24.1322 28.5839 24.1245 28.435C24.1167 28.2861 24.0689 28.142 23.9859 28.0181L23.2581 26.945C23.2191 26.8872 23.2004 26.818 23.205 26.7484L23.5503 22.8278C23.5812 22.4601 23.4815 22.0933 23.2687 21.7919L20.7453 18.2325C20.7393 18.2241 20.7357 18.2142 20.7348 18.204C20.7339 18.1937 20.7357 18.1834 20.74 18.174L21.9566 15.385L23.4706 16.6334C23.7357 16.853 24.0521 17.0017 24.3903 17.0658C24.7284 17.13 25.0773 17.1073 25.4044 17L27.4497 16.3412C27.1724 17.5897 24.8588 27.3317 24.5544 28.6556C24.5227 28.793 24.5468 28.9373 24.6216 29.0569C24.6963 29.1764 24.8154 29.2614 24.9528 29.2931C25.0902 29.3248 25.2345 29.3006 25.3541 29.2259C25.4736 29.1512 25.5586 29.032 25.5903 28.8947L28.6344 15.9481C28.9616 15.8139 29.2286 15.565 29.3854 15.248C29.5422 14.931 29.578 14.5678 29.4861 14.2263C29.3942 13.8848 29.1809 13.5885 28.8862 13.393C28.5915 13.1975 28.2357 13.1162 27.8853 13.1644L25.9144 13.4406C25.7528 13.4638 25.5881 13.4463 25.435 13.3897C25.2819 13.3331 25.1454 13.2392 25.0378 13.1165L23.0509 10.8959C22.2488 10.003 21.1756 9.3982 19.9962 9.17467L17.7809 8.75498C17.1856 8.64267 16.5732 8.657 15.9837 8.79705C15.3943 8.93709 14.8409 9.1997 14.3597 9.56779L11.6184 11.6662L3.30437 5.20092C3.19266 5.11462 3.05149 5.07572 2.91134 5.09261C2.77119 5.10951 2.64331 5.18085 2.55531 5.29123C2.46962 5.40264 2.43158 5.54346 2.4495 5.68286C2.46742 5.82226 2.53985 5.94887 2.65093 6.03498C2.64934 6.03923 11.0234 12.5481 11.0234 12.5481Z" fill="#274D60" fill-opacity="0.3"/>
</svg>
