<svg width="18" height="18" viewBox="0 0 18 18" fill="none" xmlns="http://www.w3.org/2000/svg">
<path d="M15.1487 3.39912C15.1487 4.30623 14.455 4.9999 13.5479 4.9999C12.6408 4.9999 11.9471 4.30623 11.9471 3.39912C11.9471 2.49201 12.6408 1.79834 13.5479 1.79834C14.455 1.79834 15.1487 2.49201 15.1487 3.39912ZM13.9748 15.6718H1.80883C1.11516 15.6718 1.11516 14.6046 1.80883 14.6046H6.34437L7.03805 12.0967C5.97086 10.9762 5.38391 10.656 5.11711 9.80225H7.8918L9.11906 11.0295C9.27914 11.1896 9.3325 11.403 9.22578 11.5631L8.21195 14.6046H14.0281C15.042 14.6046 15.4688 13.484 14.8819 12.8437C14.4016 12.3101 15.202 11.6165 15.6823 12.1501C16.9095 13.484 15.8957 15.6718 13.9748 15.6718ZM1.80883 8.73506H2.34242V9.26865C2.34242 9.96232 3.40961 9.96232 3.40961 9.26865V8.73506H14.6151C15.2554 8.73506 15.3621 7.88131 14.7752 7.66787C12.2673 6.92084 12.374 5.32006 11.3602 4.41295C10.7198 3.826 9.75937 3.77264 9.11906 4.35959C5.75742 7.34772 5.75742 7.241 5.43727 7.66787H3.40961V7.13428C3.40961 6.44061 2.34242 6.44061 2.34242 7.13428V7.66787H1.80883C1.11516 7.66787 1.11516 8.73506 1.80883 8.73506ZM11.1467 5.96037C11.5202 6.60068 11.8404 7.13428 12.4273 7.66787H9.22578L11.1467 5.96037Z" fill="#274D60" fill-opacity="0.2"/>
</svg>
