<svg width="34" height="34" viewBox="0 0 34 34" fill="none" xmlns="http://www.w3.org/2000/svg">
<path d="M4.79402 25.024H15.606C16.388 25.024 17 25.636 17 26.418V26.554C17 27.336 16.388 27.948 15.606 27.948H4.79402C4.01202 27.948 3.40002 27.336 3.40002 26.554V26.418C3.40002 25.636 4.01202 25.024 4.79402 25.024Z" fill="#274D60" fill-opacity="0.3"/>
<path d="M13.6 10.132C14.7267 10.132 15.64 9.21866 15.64 8.092C15.64 6.96534 14.7267 6.052 13.6 6.052C12.4733 6.052 11.56 6.96534 11.56 8.092C11.56 9.21866 12.4733 10.132 13.6 10.132Z" fill="#274D60" fill-opacity="0.3"/>
<path d="M30.464 25.024L30.056 24.446C29.784 24.072 29.138 24.276 29.138 24.276C29.138 24.276 28.084 25.024 27.676 25.364C27.37 25.568 26.996 25.704 26.622 25.738L24.684 23.12C24.684 23.12 27.234 21.556 27.574 21.182C27.744 21.012 27.846 20.808 27.88 20.57V17.306C27.88 17.034 27.744 16.796 27.506 16.694L20.74 13.328C20.74 13.328 19.04 9.89403 18.972 9.79203C18.802 9.45203 18.394 9.31603 18.054 9.48603H18.02C17.714 9.69003 17.612 10.064 17.714 10.404L19.244 13.396L18.7 14.178H16.184C16.184 14.178 14.212 12.206 13.872 11.832C13.226 11.22 12.376 10.948 11.492 11.05C10.336 11.22 9.52001 12.546 9.52001 12.546C9.52001 12.546 8.56801 14.586 8.26201 15.096C7.95601 15.742 7.88801 16.49 8.12601 17.17C8.29601 17.612 8.53401 17.986 8.84001 18.292H7.48001C6.97001 18.292 6.49401 18.598 6.29001 19.074L4.89601 21.76C4.31801 23.63 6.15401 23.766 6.15401 23.766H22.508L24.072 25.806H21.76C21.386 25.806 21.08 26.112 21.08 26.486V27.2C21.08 27.812 21.794 27.88 21.794 27.88H26.656C27.472 27.88 28.254 27.608 28.9 27.132C28.9 27.132 29.852 26.418 30.362 26.044C30.634 25.738 30.668 25.296 30.464 25.024ZM15.64 18.258H14.62L11.764 16.83C12.24 16.184 12.58 15.436 12.852 14.688C13.566 15.47 14.348 16.15 15.198 16.762C15.708 16.898 16.252 16.966 16.762 16.898C16.49 17.17 15.946 17.884 15.64 18.258Z" fill="#274D60" fill-opacity="0.3"/>
</svg>
