<svg width="34" height="34" viewBox="0 0 34 34" fill="none" xmlns="http://www.w3.org/2000/svg">
<path d="M7.72863 18.181H2.65625C2.51535 18.181 2.38023 18.2369 2.2806 18.3366C2.18097 18.4362 2.125 18.5713 2.125 18.7122V28.3034C2.125 28.4443 2.18097 28.5794 2.2806 28.6791C2.38023 28.7787 2.51535 28.8347 2.65625 28.8347H7.72809C7.86899 28.8347 8.00412 28.7787 8.10374 28.6791C8.20337 28.5794 8.25934 28.4443 8.25934 28.3034V18.7122C8.25934 18.5714 8.20345 18.4364 8.10393 18.3368C8.00442 18.2371 7.86943 18.1811 7.72863 18.181ZM5.66738 21.2027H4.71856C4.57767 21.2027 4.44254 21.1468 4.34291 21.0471C4.24328 20.9475 4.18731 20.8124 4.18731 20.6715C4.18731 20.5306 4.24328 20.3955 4.34291 20.2958C4.44254 20.1962 4.57767 20.1402 4.71856 20.1402H5.66738C5.80827 20.1402 5.9434 20.1962 6.04303 20.2958C6.14265 20.3955 6.19863 20.5306 6.19863 20.6715C6.19863 20.8124 6.14265 20.9475 6.04303 21.0471C5.9434 21.1468 5.80827 21.2027 5.66738 21.2027ZM19.5367 17.4218C20.9078 17.4219 22.2482 17.0154 23.3883 16.2537C24.5284 15.4921 25.417 14.4094 25.9417 13.1427C26.4665 11.8759 26.6038 10.482 26.3364 9.13724C26.0689 7.79246 25.4086 6.5572 24.4391 5.58767C23.4696 4.61814 22.2343 3.9579 20.8895 3.69043C19.5448 3.42296 18.1509 3.56029 16.8841 4.08504C15.6174 4.6098 14.5347 5.49841 13.773 6.6385C13.0114 7.77859 12.6049 9.11895 12.605 10.4901C12.6071 12.3278 13.3381 14.0897 14.6376 15.3892C15.9371 16.6887 17.699 17.4197 19.5367 17.4218ZM31.527 21.4907C31.2255 20.9442 30.7459 20.5174 30.1682 20.2813C29.5904 20.0452 28.9492 20.0139 28.3512 20.1928L21.428 22.2264C21.1985 22.6517 20.9408 23.0612 20.6566 23.452C20.1675 23.9686 19.5724 24.3732 18.9121 24.6379C18.2518 24.9027 17.5421 25.0213 16.8316 24.9858C16.3303 24.9835 15.8305 24.9321 15.3393 24.8322C15.2693 24.8204 15.2024 24.7946 15.1425 24.7564C15.0826 24.7182 15.0309 24.6685 14.9906 24.61C14.9503 24.5515 14.9221 24.4855 14.9078 24.416C14.8934 24.3464 14.8931 24.2747 14.9069 24.2051C14.9207 24.1354 14.9484 24.0692 14.9882 24.0104C15.028 23.9516 15.0793 23.9014 15.1389 23.8628C15.1984 23.8241 15.2652 23.7978 15.3351 23.7854C15.405 23.7729 15.4767 23.7747 15.546 23.7904C18.4732 24.3695 19.7667 22.8597 19.8204 22.7954C20.0607 22.4588 20.2804 22.1079 20.4781 21.7446C20.2766 21.2592 19.9696 20.8247 19.5794 20.4727C19.1891 20.1207 18.7254 19.8599 18.2219 19.7094L13.2048 18.2006C13.0987 18.1692 12.9856 18.171 12.8807 18.2059L9.32131 19.4145V27.9241C11.8607 28.6705 16.2865 29.8366 18.5412 30.4252C18.658 30.4553 18.7815 30.445 18.8918 30.396L30.2451 25.3406C30.5938 25.1853 30.9062 24.959 31.1626 24.6763C31.419 24.3935 31.6137 24.0605 31.7343 23.6984C31.8549 23.3362 31.8987 22.953 31.863 22.573C31.8274 22.193 31.7129 21.824 31.527 21.4907Z" fill="#274D60" fill-opacity="0.3"/>
</svg>
