<svg width="25" height="25" viewBox="0 0 25 25" fill="none" xmlns="http://www.w3.org/2000/svg">
<path d="M20.2893 15.7544H17.9459C18.2113 16.0184 18.4215 16.3326 18.5643 16.6787C18.707 17.0248 18.7795 17.3958 18.7774 17.7702C18.7767 18.3046 18.5642 18.817 18.1863 19.1948C17.8084 19.5727 17.296 19.7853 16.7616 19.786H12.2261C12.0924 19.786 11.9642 19.7329 11.8697 19.6384C11.7752 19.5439 11.7221 19.4157 11.7221 19.282C11.7221 19.1484 11.7752 19.0202 11.8697 18.9257C11.9642 18.8312 12.0924 18.7781 12.2261 18.7781H16.7616C17.0289 18.7779 17.2851 18.6716 17.4741 18.4827C17.6631 18.2937 17.7693 18.0374 17.7695 17.7702C17.7695 16.47 16.6956 15.7544 14.7458 15.7544H9.20237C8.53429 15.7551 7.89377 16.0207 7.42137 16.4931C6.94897 16.9655 6.68328 17.6061 6.68262 18.2741V20.2899C6.68328 20.958 6.94897 21.5985 7.42137 22.0709C7.89377 22.5433 8.53429 22.809 9.20237 22.8097H20.2893C20.9573 22.809 21.5979 22.5433 22.0703 22.0709C22.5427 21.5985 22.8083 20.958 22.809 20.2899V18.2741C22.8083 17.6061 22.5427 16.9655 22.0703 16.4931C21.5979 16.0207 20.9573 15.7551 20.2893 15.7544Z" fill="#274D60" fill-opacity="0.2"/>
<path d="M5.67458 18.2743C5.67571 17.3391 6.04774 16.4424 6.70905 15.7811C7.37037 15.1198 8.26698 14.7478 9.20222 14.7466H10.7141V9.2032C10.7141 9.13701 10.7011 9.07147 10.6758 9.01031C10.6505 8.94915 10.6133 8.89358 10.5665 8.84678C10.5197 8.79998 10.4642 8.76286 10.403 8.73754C10.3419 8.71223 10.2763 8.69922 10.2101 8.69925H7.18643V7.61979C7.61801 7.50863 8.00054 7.25747 8.27411 6.90565C8.54769 6.55383 8.69686 6.12122 8.69827 5.67555C8.69827 4.77399 7.64401 2.65186 6.68248 2.65186C5.72094 2.65186 4.66668 4.77399 4.66668 5.67555C4.66809 6.12122 4.81726 6.55383 5.09084 6.90565C5.36442 7.25747 5.74694 7.50863 6.17853 7.61979V8.69925H3.15483C3.08864 8.69922 3.02309 8.71223 2.96194 8.73754C2.90078 8.76286 2.84521 8.79998 2.79841 8.84678C2.75161 8.89358 2.71449 8.94915 2.68917 9.01031C2.66386 9.07147 2.65085 9.13701 2.65088 9.2032V22.3059C2.65085 22.3721 2.66386 22.4376 2.68917 22.4988C2.71449 22.5599 2.75161 22.6155 2.79841 22.6623C2.84521 22.7091 2.90078 22.7462 2.96194 22.7715C3.02309 22.7969 3.08864 22.8099 3.15483 22.8098H6.74119C6.40389 22.4825 6.13569 22.0909 5.95248 21.6581C5.76927 21.2253 5.67477 20.7601 5.67458 20.2901V18.2743ZM15.2496 13.7357H16.2575C16.3912 13.7357 16.5194 13.6826 16.6139 13.5881C16.7084 13.4936 16.7615 13.3654 16.7615 13.2318C16.7615 12.5635 16.496 11.9226 16.0235 11.45C15.5509 10.9775 14.91 10.712 14.2417 10.712H13.2338C13.1002 10.712 12.972 10.7651 12.8775 10.8596C12.783 10.9541 12.7299 11.0823 12.7299 11.216C12.7299 11.8843 12.9953 12.5252 13.4679 12.9977C13.9404 13.4703 14.5813 13.7357 15.2496 13.7357ZM17.2654 11.4438C17.6951 10.7207 18.3672 10.1734 19.1623 9.89916C18.9936 9.3914 18.7103 8.92928 18.3343 8.54857L17.6217 7.83599C17.5254 7.74499 17.3979 7.6943 17.2654 7.6943C17.1329 7.6943 17.0054 7.74499 16.9091 7.83599L16.197 8.54857C15.821 8.92926 15.5376 9.39138 15.3688 9.89916C16.1639 10.1735 16.8359 10.7209 17.2654 11.444V11.4438ZM17.7694 13.2318C17.7694 13.3654 17.8225 13.4936 17.917 13.5881C18.0115 13.6826 18.1397 13.7357 18.2733 13.7357H19.2812C19.9495 13.7357 20.5904 13.4703 21.0629 12.9977C21.5355 12.5252 21.801 11.8843 21.801 11.216C21.801 11.0823 21.7479 10.9541 21.6534 10.8596C21.5589 10.7651 21.4307 10.712 21.297 10.712H20.2891C19.6208 10.712 18.9799 10.9775 18.5074 11.45C18.0348 11.9226 17.7694 12.5635 17.7694 13.2318Z" fill="#274D60" fill-opacity="0.2"/>
</svg>
