<svg width="34" height="34" viewBox="0 0 34 34" fill="none" xmlns="http://www.w3.org/2000/svg">
<g clip-path="url(#clip0_2806_20)">
<path d="M32.8817 0.53125H1.11829C0.81229 0.53125 0.564728 0.779344 0.564728 1.08481V32.8483C0.564728 33.1543 0.812822 33.4018 1.11829 33.4018H25.2625C25.3385 33.4411 25.4209 33.4682 25.5122 33.4682C25.6036 33.4682 25.6859 33.4406 25.7619 33.4018H32.8812C33.1872 33.4018 33.4348 33.1543 33.4348 32.8483V1.08481C33.4348 0.778813 33.1872 0.53125 32.8817 0.53125ZM32.3282 9.99228H17.5541V1.63891H32.3282V9.99228ZM16.4464 1.63891V9.99228H1.67238V1.63891H16.4464ZM1.67238 20.6662H5.05379C5.05113 20.689 5.04104 20.7092 5.04104 20.7326L5.05485 21.8407C5.05653 21.9865 5.11557 22.1257 5.21919 22.2283C5.32281 22.3308 5.46265 22.3883 5.60842 22.3885H5.61479C5.68753 22.3877 5.75941 22.3726 5.82631 22.3441C5.89322 22.3155 5.95384 22.274 6.00471 22.222C6.05557 22.17 6.09569 22.1085 6.12277 22.041C6.14985 21.9735 6.16335 21.9013 6.16251 21.8285L6.1487 20.7172C6.1487 20.6991 6.13967 20.6837 6.13754 20.6656H13.3004V26.6369H12.7468C12.6 26.6369 12.4592 26.6952 12.3554 26.799C12.2516 26.9028 12.1933 27.0436 12.1933 27.1904C12.1933 27.3373 12.2516 27.4781 12.3554 27.5819C12.4592 27.6857 12.6 27.744 12.7468 27.744H13.3004V32.2942H1.67238V20.6662ZM26.0663 32.2947V31.8075C26.0663 31.6607 26.008 31.5199 25.9042 31.4161C25.8004 31.3123 25.6596 31.254 25.5128 31.254C25.3659 31.254 25.2251 31.3123 25.1213 31.4161C25.0175 31.5199 24.9592 31.6607 24.9592 31.8075V32.2947H14.408V20.1126C14.408 19.8066 14.1599 19.559 13.8545 19.559H1.67238V11.0999H32.3276V16.9192H31.7741C31.6273 16.9192 31.4865 16.9776 31.3826 17.0814C31.2788 17.1852 31.2205 17.326 31.2205 17.4728C31.2205 17.6196 31.2788 17.7604 31.3826 17.8642C31.4865 17.9681 31.6273 18.0264 31.7741 18.0264H32.3276V24.2351C32.2306 24.1507 32.1067 24.1034 31.9781 24.1018H31.9701L30.8619 24.1156C30.7892 24.116 30.7172 24.1307 30.6502 24.1589C30.5832 24.1872 30.5224 24.2283 30.4712 24.28C30.368 24.3845 30.3104 24.5257 30.3113 24.6726C30.3121 24.8195 30.3713 24.96 30.4757 25.0633C30.5802 25.1665 30.7214 25.2241 30.8683 25.2232H30.8747L31.985 25.2094C32.1113 25.2057 32.2323 25.158 32.3271 25.0745V32.2952H26.0653L26.0663 32.2947Z" fill="#274D60" fill-opacity="0.3"/>
<path d="M5.63074 25.2508H5.63233C5.70503 25.2507 5.77698 25.2362 5.84409 25.2083C5.9112 25.1803 5.97215 25.1394 6.02345 25.0879C6.07475 25.0364 6.11541 24.9753 6.1431 24.9081C6.17079 24.8409 6.18497 24.7689 6.18483 24.6962C6.18377 24.2361 6.18058 23.7469 6.17686 23.2618C6.17574 23.1157 6.11693 22.976 6.01323 22.8731C5.90954 22.7702 5.76938 22.7125 5.6233 22.7125H5.61905C5.54632 22.7129 5.47438 22.7277 5.40737 22.756C5.34035 22.7843 5.27959 22.8255 5.22855 22.8773C5.17751 22.9292 5.13721 22.9906 5.10996 23.058C5.08271 23.1254 5.06904 23.1976 5.06974 23.2703C5.07346 23.7532 5.07665 24.2404 5.07771 24.6983C5.07877 25.0038 5.32633 25.2508 5.63127 25.2508H5.63074ZM6.59602 26.6374H6.17474C6.1774 26.4971 6.17952 26.3314 6.18111 26.1316C6.18239 25.9848 6.12539 25.8435 6.02262 25.7386C5.91985 25.6337 5.77968 25.5739 5.63286 25.5722C5.31996 25.5563 5.07665 25.8145 5.07346 26.1205C5.07258 26.3612 5.06727 26.6019 5.05752 26.8425C4.99187 26.9238 4.95057 27.0221 4.9384 27.1259C4.92623 27.2297 4.94368 27.3349 4.98873 27.4292C5.03379 27.5236 5.10461 27.6032 5.19302 27.659C5.28143 27.7148 5.38382 27.7444 5.48836 27.7445H6.59602C6.74283 27.7445 6.88364 27.6862 6.98745 27.5824C7.09126 27.4786 7.14958 27.3378 7.14958 27.191C7.14958 27.0441 7.09126 26.9033 6.98745 26.7995C6.88364 26.6957 6.74283 26.6374 6.59602 26.6374ZM10.6962 26.6374H8.64611C8.4993 26.6374 8.3585 26.6957 8.25469 26.7995C8.15087 26.9033 8.09255 27.0441 8.09255 27.191C8.09255 27.3378 8.15087 27.4786 8.25469 27.5824C8.3585 27.6862 8.4993 27.7445 8.64611 27.7445H10.6962C10.843 27.7445 10.9838 27.6862 11.0876 27.5824C11.1914 27.4786 11.2498 27.3378 11.2498 27.191C11.2498 27.0441 11.1914 26.9033 11.0876 26.7995C10.9838 26.6957 10.843 26.6374 10.6962 26.6374ZM29.4334 24.1294C28.9505 24.1331 28.4628 24.1363 28.0054 24.1373C27.8586 24.1375 27.7178 24.1959 27.6141 24.2998C27.5104 24.4037 27.4522 24.5446 27.4524 24.6914C27.4525 24.8382 27.511 24.979 27.6149 25.0827C27.7188 25.1864 27.8596 25.2446 28.0065 25.2445H28.0081C28.4676 25.2434 28.9569 25.2402 29.4419 25.2365C29.7479 25.2344 29.9939 24.9847 29.9912 24.6787C29.9886 24.3727 29.7389 24.1336 29.4334 24.1294ZM26.5827 24.1341C26.342 24.1332 26.1013 24.1279 25.8607 24.1182C25.7795 24.0521 25.6813 24.0105 25.5773 23.9981C25.4734 23.9856 25.3681 24.003 25.2736 24.048C25.1791 24.0931 25.0994 24.1641 25.0436 24.2526C24.9879 24.3412 24.9584 24.4438 24.9587 24.5485V25.6562C24.9587 25.803 25.017 25.9438 25.1208 26.0476C25.2246 26.1514 25.3654 26.2097 25.5122 26.2097C25.6591 26.2097 25.7999 26.1514 25.9037 26.0476C26.0075 25.9438 26.0658 25.803 26.0658 25.6562V25.2344C26.2055 25.2375 26.3718 25.2391 26.571 25.2413H26.5769C26.7237 25.242 26.8649 25.1843 26.9693 25.0809C27.0736 24.9776 27.1326 24.837 27.1333 24.6901C27.1341 24.5432 27.0764 24.4021 26.973 24.2977C26.8696 24.1933 26.7291 24.1343 26.5822 24.1336L26.5827 24.1341ZM25.5122 27.1532C25.2062 27.1532 24.9587 27.4008 24.9587 27.7068V29.7574C24.9587 29.9042 25.017 30.045 25.1208 30.1488C25.2246 30.2527 25.3654 30.311 25.5122 30.311C25.6591 30.311 25.7999 30.2527 25.9037 30.1488C26.0075 30.045 26.0658 29.9042 26.0658 29.7574V27.7068C26.0658 27.4008 25.8177 27.1532 25.5122 27.1532ZM26.7649 18.0264H29.2698C29.4166 18.0264 29.5574 17.968 29.6612 17.8642C29.765 17.7604 29.8233 17.6196 29.8233 17.4728C29.8233 17.326 29.765 17.1852 29.6612 17.0814C29.5574 16.9776 29.4166 16.9192 29.2698 16.9192H26.7649C26.6181 16.9192 26.4773 16.9776 26.3735 17.0814C26.2697 17.1852 26.2114 17.326 26.2114 17.4728C26.2114 17.6196 26.2697 17.7604 26.3735 17.8642C26.4773 17.968 26.6181 18.0264 26.7649 18.0264ZM24.2601 16.9187H21.7552C21.6084 16.9187 21.4676 16.977 21.3638 17.0808C21.26 17.1846 21.2017 17.3254 21.2017 17.4723C21.2017 17.6191 21.26 17.7599 21.3638 17.8637C21.4676 17.9675 21.6084 18.0258 21.7552 18.0258H24.2601C24.4069 18.0258 24.5477 17.9675 24.6515 17.8637C24.7553 17.7599 24.8136 17.6191 24.8136 17.4723C24.8136 17.3254 24.7553 17.1846 24.6515 17.0808C24.5477 16.977 24.4069 16.9187 24.2601 16.9187ZM19.2504 16.9187H18.1427C17.9959 16.9187 17.8551 16.977 17.7513 17.0808C17.6475 17.1846 17.5892 17.3254 17.5892 17.4723C17.5892 17.6191 17.6475 17.7599 17.7513 17.8637C17.8551 17.9675 17.9959 18.0258 18.1427 18.0258H19.2504C19.3972 18.0258 19.538 17.9675 19.6418 17.8637C19.7456 17.7599 19.804 17.6191 19.804 17.4723C19.804 17.3254 19.7456 17.1846 19.6418 17.0808C19.538 16.977 19.3972 16.9187 19.2504 16.9187Z" fill="#274D60" fill-opacity="0.3"/>
</g>
<defs>
<clipPath id="clip0_2806_20">
<rect width="34" height="34" fill="white"/>
</clipPath>
</defs>
</svg>
