<svg width="34" height="34" viewBox="0 0 34 34" fill="none" xmlns="http://www.w3.org/2000/svg">
<path d="M21.3387 16.7324C21.3387 14.6829 19.9096 12.962 17.9961 12.5104V20.9542C19.9096 20.5029 21.3387 18.782 21.3387 16.7325V16.7324ZM28.6652 14.065V19.3995C28.6652 20.3213 29.4151 21.0708 30.3367 21.0708H34V12.3937H30.3367C29.4151 12.3937 28.6652 13.1436 28.6652 14.065ZM12.6613 16.7324C12.6613 18.782 14.0903 20.5028 16.0039 20.9542V12.5104C14.0903 12.962 12.6613 14.6829 12.6613 16.7324Z" fill="#274D60" fill-opacity="0.3"/>
<path d="M30.3368 4H17.9961V10.4803C21.0153 10.9594 23.3309 13.5804 23.3309 16.7323C23.3309 19.8842 21.0153 22.5053 17.9961 22.9844V29.4645H30.3368C32.3567 29.4645 34 27.8212 34 25.8012V23.063H30.3368C28.3166 23.063 26.673 21.4197 26.673 19.3995V14.0649C26.673 12.045 28.3166 10.4014 30.3368 10.4014H34V7.6635C34 5.64329 32.3567 4 30.3368 4ZM0 7.6635V10.4014H3.66323C5.68345 10.4014 7.327 12.045 7.327 14.0649V19.3995C7.327 21.4197 5.68345 23.063 3.66323 23.063H0V25.8012C0 27.8212 1.64329 29.4645 3.66323 29.4645H16.0039V22.9844C12.9847 22.505 10.6691 19.884 10.6691 16.7323C10.6691 13.5804 12.9847 10.9594 16.0039 10.4803V4H3.66323C1.64329 4 0 5.64329 0 7.6635Z" fill="#274D60" fill-opacity="0.3"/>
<path d="M5.33481 19.3995V14.065C5.33481 13.1436 4.58489 12.3937 3.66323 12.3937H0V21.0708H3.66323C4.58489 21.0708 5.33481 20.3212 5.33481 19.3995Z" fill="#274D60" fill-opacity="0.3"/>
</svg>
