<svg width="34" height="34" viewBox="0 0 34 34" fill="none" xmlns="http://www.w3.org/2000/svg">
<g clip-path="url(#clip0_2823_91)">
<path d="M24.3359 11.0554L22.7109 8.24092L25.3392 3.68857L29.8991 11.5866C30.8658 13.2609 30.8658 15.1775 29.8991 16.8519C28.9324 18.5262 27.2726 19.4845 25.3392 19.4845C25.0192 19.4845 24.7067 19.4581 24.4036 19.4067C25.8853 16.75 25.8628 13.7001 24.3358 11.0554H24.3359ZM8.66076 19.4845C8.98078 19.4845 9.29328 19.4581 9.59643 19.4067C8.11471 16.75 8.13722 13.7001 9.66416 11.0554L11.2891 8.24092L8.66083 3.68857L4.10091 11.5866C3.13424 13.2609 3.13424 15.1775 4.10091 16.8519C5.06759 18.5262 6.72741 19.4845 8.66076 19.4845ZM10.5843 11.5867L17 0.474243L23.4158 11.5867C24.7758 13.9424 24.7758 16.6391 23.4158 18.9949C22.0556 21.3506 19.7201 22.699 16.9999 22.699C14.2797 22.699 11.9444 21.3506 10.5843 18.9949C9.22415 16.6391 9.22415 13.9424 10.5843 11.5867ZM17.0888 20.6395C17.1109 20.7782 17.1871 20.9025 17.3007 20.985C17.4144 21.0675 17.5561 21.1014 17.6948 21.0794C18.5939 20.935 19.4077 20.607 20.1167 20.1063C20.8197 19.6098 21.4187 18.9441 21.8945 18.1206L21.8955 18.1211C22.1829 17.6231 22.3983 17.1116 22.5414 16.5916C22.6856 16.0678 22.7544 15.5384 22.7478 15.0087C22.7447 14.8693 22.6867 14.7368 22.5865 14.64C22.4862 14.5431 22.3518 14.4897 22.2124 14.4913C22.073 14.493 21.9399 14.5495 21.842 14.6488C21.7441 14.748 21.6892 14.8818 21.6894 15.0212C21.6947 15.4525 21.6384 15.8847 21.5204 16.3136C21.4029 16.7405 21.2222 17.1673 20.9782 17.5899L20.9791 17.5904L20.9782 17.5919C20.5826 18.2771 20.0868 18.8291 19.5066 19.2389C18.9276 19.6477 18.2631 19.9157 17.5288 20.0336C17.3901 20.0556 17.2658 20.1318 17.1833 20.2455C17.1008 20.3591 17.0668 20.5009 17.0888 20.6396V20.6395ZM0.730065 26.6157C1.5796 26.6157 2.4118 26.3068 3.13696 25.7224C4.11911 24.9313 5.49159 24.9313 6.47367 25.7224C7.95805 26.9179 9.80275 26.9179 11.2869 25.7224C12.2689 24.9315 13.6409 24.9313 14.6239 25.7224C15.3661 26.3205 16.1983 26.6194 17.0302 26.6194C17.8621 26.6194 18.6952 26.3205 19.4368 25.7224C20.4189 24.9315 21.7908 24.9313 22.7738 25.7224C24.2579 26.9183 26.1026 26.9183 27.587 25.7224C28.5691 24.9313 29.9416 24.9315 30.9237 25.7224C31.6276 26.2895 32.4346 26.5981 33.258 26.6151C33.549 26.6221 33.7946 26.3883 33.8007 26.0949C33.8035 25.954 33.7502 25.8177 33.6525 25.716C33.5549 25.6143 33.4208 25.5556 33.2799 25.5528C32.6937 25.5406 32.1093 25.3132 31.5899 24.8951C30.2152 23.788 28.2955 23.788 26.9208 24.8951C25.8311 25.7726 24.5297 25.7726 23.44 24.8951C22.0651 23.788 20.1453 23.788 18.7701 24.8951C17.6813 25.7729 16.3802 25.7729 15.2898 24.8951C13.9152 23.7877 11.9954 23.788 10.6207 24.8951C9.53102 25.7726 8.22965 25.7726 7.13993 24.8951C5.76532 23.788 3.84545 23.788 2.47024 24.8951C1.93633 25.3256 1.33463 25.5534 0.730131 25.5534C0.436749 25.5534 0.19928 25.7911 0.19928 26.0845C0.19928 26.378 0.436682 26.6157 0.730065 26.6157ZM33.2799 29.0059C32.6937 28.9937 32.1093 28.7663 31.5899 28.3482C30.2152 27.2411 28.2955 27.2408 26.9208 28.3482C25.8311 29.2257 24.5297 29.2257 23.44 28.3482C22.0651 27.2411 20.1453 27.2408 18.7701 28.3482C17.6813 29.2257 16.3802 29.2257 15.2898 28.3482C13.9152 27.2408 11.9954 27.2408 10.6207 28.3482C9.53102 29.2257 8.22965 29.2257 7.13993 28.3482C5.76532 27.2408 3.84545 27.2408 2.47024 28.3482C1.93633 28.7787 1.33463 29.0065 0.730131 29.0065C0.436749 29.0065 0.19928 29.2443 0.19928 29.5374C0.19928 29.8305 0.436749 30.0689 0.730131 30.0689C1.57967 30.0689 2.41187 29.76 3.13703 29.1756C4.11917 28.3845 5.49166 28.3845 6.47374 29.1756C7.95812 30.3712 9.80282 30.3712 11.2869 29.1756C12.269 28.3845 13.6418 28.3845 14.624 29.1756C15.3662 29.7737 16.1984 30.0726 17.0303 30.0726C17.8621 30.0726 18.6953 29.7737 19.4369 29.1756C20.419 28.3848 21.7909 28.3845 22.7739 29.1756C24.258 30.3712 26.1027 30.3712 27.5871 29.1756C28.5692 28.3845 29.9417 28.3845 30.9238 29.1756C31.6277 29.7427 32.4347 30.0513 33.258 30.0681C33.549 30.0756 33.7947 29.8412 33.8008 29.5478C33.8035 29.4069 33.7502 29.2707 33.6525 29.1691C33.5549 29.0675 33.4209 29.0088 33.28 29.006L33.2799 29.0059ZM33.2799 32.4591C32.6937 32.4469 32.1093 32.2195 31.5899 31.8011C30.2152 30.694 28.2955 30.694 26.9208 31.8011C25.8305 32.6789 24.5297 32.6789 23.44 31.8011C22.0651 30.694 20.1453 30.694 18.7701 31.8011C17.6813 32.6789 16.3802 32.6789 15.2898 31.8011C13.9152 30.694 11.9954 30.694 10.6207 31.8011C9.53102 32.6789 8.22965 32.6789 7.13993 31.8011C5.76532 30.694 3.84545 30.694 2.47024 31.8011C1.93633 32.2316 1.33463 32.4593 0.730131 32.4593C0.436749 32.4593 0.19928 32.6971 0.19928 32.9905C0.19928 33.2839 0.436749 33.522 0.730131 33.522C1.57967 33.522 2.41187 33.2131 3.13703 32.6287C4.11917 31.8376 5.49166 31.8376 6.47374 32.6287C7.95812 33.8243 9.80282 33.8243 11.2869 32.6287C12.269 31.8376 13.641 31.8376 14.624 32.6287C15.3662 33.2265 16.1984 33.5257 17.0303 33.5257C17.8621 33.5257 18.6953 33.2265 19.4369 32.6287C20.419 31.8376 21.7909 31.8373 22.7739 32.6287C24.258 33.8243 26.1027 33.8243 27.5871 32.6287C28.5692 31.8376 29.9417 31.8376 30.9238 32.6287C31.6277 33.1955 32.4347 33.5044 33.258 33.5211C33.549 33.5288 33.7947 33.2943 33.8008 33.0009C33.8035 32.86 33.7502 32.7238 33.6525 32.6222C33.5549 32.5206 33.4209 32.4619 33.28 32.4591H33.2799Z" fill="#274D60" fill-opacity="0.3"/>
</g>
<defs>
<clipPath id="clip0_2823_91">
<rect width="34" height="34" fill="white"/>
</clipPath>
</defs>
</svg>
