<svg width="34" height="34" viewBox="0 0 34 34" fill="none" xmlns="http://www.w3.org/2000/svg">
<path fill-rule="evenodd" clip-rule="evenodd" d="M11.9 3.40002C12.3509 3.40002 12.7833 3.57913 13.1021 3.89794C13.4209 4.21675 13.6 4.64916 13.6 5.10002V6.80002H18.7C19.1509 6.80002 19.5833 6.97913 19.9021 7.29794C20.2209 7.61676 20.4 8.04916 20.4 8.50002C20.4 8.95089 20.2209 9.38329 19.9021 9.70211C19.5833 10.0209 19.1509 10.2 18.7 10.2H16.2826C15.6765 13.0284 14.6906 15.7619 13.3518 18.326C13.8448 18.9278 14.365 19.5092 14.9056 20.0702C15.2187 20.3948 15.3901 20.8306 15.3819 21.2815C15.3738 21.7325 15.1869 22.1617 14.8622 22.4749C14.5376 22.788 14.1019 22.9593 13.6509 22.9512C13.2 22.9431 12.7707 22.7561 12.4576 22.4315C12.1371 22.0977 11.8231 21.7576 11.5158 21.4115C10.0133 23.6439 8.23906 25.6809 6.23389 27.4754C5.89726 27.7712 5.45744 27.9222 5.0101 27.8954C4.56277 27.8686 4.14411 27.6662 3.84518 27.3324C3.54626 26.9985 3.39127 26.5601 3.41391 26.1125C3.43655 25.6649 3.635 25.2444 3.96609 24.9424C6.0337 23.092 7.82557 20.9549 9.28709 18.5963C8.33752 17.2496 7.49242 15.8322 6.75919 14.3565C6.6516 14.1559 6.58541 13.9357 6.56453 13.709C6.54365 13.4823 6.56852 13.2537 6.63766 13.0368C6.7068 12.8199 6.8188 12.6191 6.96702 12.4463C7.11524 12.2735 7.29666 12.1322 7.50051 12.0309C7.70436 11.9295 7.92649 11.8701 8.15372 11.8563C8.38096 11.8424 8.60866 11.8743 8.82333 11.9501C9.03801 12.0259 9.23527 12.144 9.40341 12.2975C9.57156 12.451 9.70717 12.6366 9.80219 12.8435C10.2 13.6425 10.6335 14.4211 11.101 15.1759C11.8099 13.5881 12.3794 11.9238 12.7959 10.2H5.09999C4.64913 10.2 4.21672 10.0209 3.89791 9.70211C3.5791 9.38329 3.39999 8.95089 3.39999 8.50002C3.39999 8.04916 3.5791 7.61676 3.89791 7.29794C4.21672 6.97913 4.64913 6.80002 5.09999 6.80002H10.2V5.10002C10.2 4.64916 10.3791 4.21675 10.6979 3.89794C11.0167 3.57913 11.4491 3.40002 11.9 3.40002ZM22.1 13.6C22.4156 13.6002 22.725 13.6882 22.9934 13.8543C23.2618 14.0203 23.4787 14.2578 23.6198 14.5401L28.7045 24.7095C28.7163 24.7302 28.7277 24.7512 28.7385 24.7724L30.4215 28.1384C30.6233 28.542 30.6565 29.0091 30.5138 29.4371C30.3711 29.8651 30.0643 30.2189 29.6607 30.4207C29.2572 30.6224 28.7901 30.6556 28.3621 30.513C27.9341 30.3703 27.5803 30.0635 27.3785 29.6599L26.1511 27.2H18.0523L16.8215 29.6599C16.726 29.8666 16.59 30.052 16.4215 30.2051C16.253 30.3582 16.0555 30.4759 15.8406 30.5513C15.6258 30.6266 15.398 30.658 15.1708 30.6436C14.9436 30.6292 14.7216 30.5694 14.5179 30.4675C14.3143 30.3657 14.1332 30.224 13.9854 30.0509C13.8375 29.8778 13.726 29.6767 13.6573 29.4596C13.5887 29.2425 13.5643 29.0139 13.5857 28.7872C13.6071 28.5606 13.6738 28.3405 13.7819 28.1401L15.4649 24.7741L15.4972 24.7095L20.5802 14.5401C20.7213 14.2578 20.9382 14.0203 21.2066 13.8543C21.475 13.6882 21.7844 13.6002 22.1 13.6ZM19.7506 23.8H24.4494L22.1 19.1012L19.7506 23.8Z" fill="#274D60" fill-opacity="0.3"/>
</svg>
