<svg width="34" height="34" viewBox="0 0 34 34" fill="none" xmlns="http://www.w3.org/2000/svg">
<g clip-path="url(#clip0_2818_86)">
<path d="M32.9375 18.0625H34V17.4927C34 16.0882 33.0484 14.8697 31.6864 14.529L27.0453 13.3689L22.6777 9.8746C21.9944 9.32917 21.1462 9.03162 20.2718 9.03058H1.59375C1.00672 9.03058 0.531252 9.50605 0.531252 10.0931C0.531252 10.6801 1.00672 11.1556 1.59375 11.1556H1.61832L0.456213 14.0615C0.154189 14.8142 -0.00067851 15.6179 2.23451e-06 16.4289V18.0618H1.59375C2.18078 18.0618 2.65625 18.5373 2.65625 19.1243C2.65625 19.7114 2.18078 20.1868 1.59375 20.1868H2.23451e-06V22.3118C2.23451e-06 22.8989 0.475471 23.3743 1.0625 23.3743H5.98188C6.65457 24.3366 7.7702 24.9681 9.03125 24.9681C10.2923 24.9681 11.4073 24.3366 12.0806 23.3743H24.045C24.7177 24.3366 25.8334 24.9681 27.0944 24.9681C28.3555 24.9681 29.4704 24.3366 30.1438 23.3743H32.9382C33.5252 23.3743 34.0007 22.8989 34.0007 22.3118V20.1868H32.9382C32.3511 20.1868 31.8757 19.7114 31.8757 19.1243C31.8757 18.5373 32.3511 18.0618 32.9382 18.0618L32.9375 18.0625ZM9.03125 22.8437C8.1527 22.8437 7.4375 22.1285 7.4375 21.25C7.4375 20.3714 8.1527 19.6562 9.03125 19.6562C9.90981 19.6562 10.625 20.3714 10.625 21.25C10.625 22.1285 9.90981 22.8437 9.03125 22.8437ZM11.1563 13.2812H7.73567L8.26692 11.1562H11.1563V13.2812ZM16.4688 13.2812H13.2813V11.1562H16.4688V13.2812ZM18.5938 13.2812V11.1562H20.2718C20.6623 11.1562 21.0455 11.2904 21.3503 11.5348L23.5337 13.2812H18.5938ZM27.0938 22.8437C26.2152 22.8437 25.5 22.1285 25.5 21.25C25.5 20.3714 26.2152 19.6562 27.0938 19.6562C27.9723 19.6562 28.6875 20.3714 28.6875 21.25C28.6875 22.1285 27.9723 22.8437 27.0938 22.8437Z" fill="#274D60" fill-opacity="0.3"/>
</g>
<defs>
<clipPath id="clip0_2818_86">
<rect width="34" height="34" fill="white"/>
</clipPath>
</defs>
</svg>
