<svg width="34" height="34" viewBox="0 0 34 34" fill="none" xmlns="http://www.w3.org/2000/svg">
<path d="M19.125 0.53125C17.5312 0.53125 14.3438 2.65625 14.3438 3.71875C14.3438 4.78125 17 8.5 15.9375 9.03125C14.875 9.5625 13.8125 8.5 13.2812 6.90625C12.75 5.3125 11.6875 4.78125 10.625 5.84375C9.5625 6.90625 8.5 7.96875 8.5 9.5625C8.5 11.1562 13.2812 12.2188 12.75 13.2812C12.2188 14.3438 7.96875 12.75 6.375 11.6875C6.375 11.6875 5.3125 13.2812 5.3125 15.4062C5.3125 17.5312 12.75 18.0625 12.75 19.6562C12.75 21.25 5.84375 18.5938 4.78125 18.0625C4.78125 18.0625 6.10938 22.0469 7.4375 22.8438C9.31812 23.97 12.75 23.375 12.75 24.4375C12.75 25.5 7.96875 24.9688 6.375 23.9062C6.375 23.9062 6.375 27.625 9.5625 28.1562C12.75 28.6875 15.4062 28.1562 15.4062 28.1562C15.4062 28.1562 16.4688 30.2812 20.1875 30.2812C23.9062 30.2812 25.5 28.6875 25.5 28.6875C25.5 28.6875 19.6562 27.0938 19.6562 25.5C19.6562 23.9062 23.375 26.5625 24.9688 26.5625C26.5625 26.5625 28.9531 25.7656 28.9531 23.6406C28.9531 21.5156 28.1562 20.1875 28.1562 20.1875C28.1562 20.1875 27.625 21.25 26.0312 21.25C24.4375 21.25 21.7812 21.25 21.7812 20.7188C21.7812 20.1875 23.375 19.6562 24.9688 19.6562C26.5625 19.6562 29.2188 18.0625 29.2188 16.4688C29.2188 14.875 27.0938 12.75 27.0938 12.75C27.0938 12.75 20.7188 16.4688 20.7188 15.4062C20.7188 14.3438 26.0312 12.2188 26.0312 10.625C26.0312 9.03125 24.9688 7.4375 24.4375 7.4375C23.9062 7.4375 20.1875 10.625 19.6562 10.0938C19.125 9.5625 22.8438 6.90625 22.8438 5.84375C22.8438 4.78125 20.7188 0.53125 19.125 0.53125Z" fill="#274D60" fill-opacity="0.3"/>
<path d="M15.9375 33.4688C15.6931 33.4688 15.4753 33.2988 15.4222 33.0544C15.4009 32.9534 14.8803 30.5203 14.8803 22.8438C14.8803 15.1672 16.4316 10.1416 16.5006 9.93439C16.5909 9.65282 16.8831 9.50407 17.1647 9.58907C17.4462 9.67939 17.6003 9.97689 17.51 10.2531C17.4941 10.3009 15.9428 15.3213 15.9428 22.8438C15.9428 30.3663 16.4581 32.7994 16.4634 32.8259C16.4786 32.894 16.4802 32.9643 16.4681 33.033C16.456 33.1016 16.4305 33.1672 16.3929 33.2259C16.3554 33.2847 16.3067 33.3354 16.2495 33.3753C16.1923 33.4151 16.1278 33.4433 16.0597 33.4581C16.0225 33.4688 15.98 33.4688 15.9428 33.4688H15.9375Z" fill="#274D60" fill-opacity="0.3"/>
</svg>
