<svg width="23" height="34" viewBox="0 0 23 34" fill="none" xmlns="http://www.w3.org/2000/svg">
<path d="M21.624 12.8582C21.2531 12.1658 20.7215 11.6342 20.0847 11.2138C18.8113 10.4164 17.8531 9.14291 17.5873 7.60364L17.3215 6.27455C17.2658 6.00873 17.0556 5.848 16.7898 5.848H14.5025C14.2367 5.848 14.0265 6.05818 13.9709 6.324L13.7607 7.59745C13.6556 8.18473 13.4393 8.71018 13.1735 9.19236C12.6975 10.0455 12.0607 10.7316 11.2076 11.2138C9.98364 11.9556 9.18618 13.2847 9.08109 14.7189V14.7745L8.81527 16.4189C8.81527 16.5796 8.81527 16.7404 8.92036 16.8455C9.02545 17.0062 9.13055 17.1669 9.18618 17.3771C9.77346 19.3985 10.1444 21.4695 10.1444 22.6378C10.1444 23.8062 9.77346 24.8695 9.18618 25.772C9.13055 25.8771 9.08109 25.9822 9.08109 26.0935V31.5149C9.08109 32.3124 9.71782 32.9491 10.5153 32.9491H20.8204C21.6178 32.9491 22.2545 32.3124 22.2545 31.5149V15.0342C22.2051 14.2924 21.9949 13.5444 21.624 12.8582ZM18.4898 29.1102H20.5607C20.8822 29.1102 21.0924 29.376 21.0924 29.6418C21.0924 29.9076 20.8265 30.1735 20.5607 30.1735H18.4898C17.2658 30.1735 16.3138 29.2153 16.3138 27.9975V18.1127C16.3138 16.8887 17.272 15.9367 18.4898 15.9367H20.5607C20.8822 15.9367 21.0924 16.2025 21.0924 16.4684C21.0924 16.7898 20.8265 17 20.5607 17H18.4898C17.9025 17 17.3771 17.476 17.3771 18.1127V27.9913C17.4265 28.5785 17.9025 29.1102 18.4898 29.1102ZM8.12909 17.6924C8.07346 17.4265 7.86327 17.2658 7.59746 17.2658H1.43418C1.16836 17.2658 0.958182 17.4265 0.902545 17.6924C0.370909 19.5531 0 21.5684 0 22.6873C0 25.1847 2.02145 27.2 4.51273 27.2C5.94691 27.2 7.276 26.5076 8.12291 25.3949C8.12291 25.3949 8.12291 25.3393 8.17855 25.3393C8.71018 24.5975 9.08109 23.6949 9.08109 22.6811C9.03164 21.5684 8.66073 19.5531 8.12909 17.6924ZM18.0633 0H13.1735C12.9633 0 12.7469 0.210182 12.7469 0.426545V4.35818C12.7469 4.56836 12.9571 4.78473 13.1735 4.78473H18.0633C18.3291 4.78473 18.5393 4.624 18.5393 4.35818V0.426545C18.5393 0.210182 18.3291 0 18.0633 0ZM7.64691 33.4684C7.64691 33.7898 7.38109 34 7.11527 34H1.91018C1.58873 34 1.37855 33.7342 1.37855 33.4684C1.37855 33.2025 1.64436 32.9367 1.91018 32.9367H3.98109V27.676C4.14182 27.676 4.352 27.7316 4.51273 27.7316C4.67345 27.7316 4.88364 27.7316 5.04436 27.676V32.9367H7.11527C7.43673 32.8873 7.64691 33.1531 7.64691 33.4684Z" fill="#274D60" fill-opacity="0.3"/>
</svg>
