<svg width="34" height="34" viewBox="0 0 34 34" fill="none" xmlns="http://www.w3.org/2000/svg">
<g clip-path="url(#clip0_2822_27)">
<path d="M33.4156 1.8594C33.4156 2.17815 33.2031 2.39065 32.8844 2.39065C32.7781 2.39065 31.2906 2.44378 29.0594 3.82503C28.5281 4.14378 27.9969 4.51565 27.4125 4.99378C26.6687 5.57815 25.925 6.3219 25.1281 7.22503C24.8094 7.5969 24.1719 7.33128 24.1719 6.85315C24.1719 6.7469 24.225 6.64065 24.3312 6.5344C29.0062 1.32815 32.725 1.38128 32.9375 1.38128C33.2031 1.27503 33.4156 1.54065 33.4156 1.8594Z" fill="#274D60" fill-opacity="0.3"/>
<path d="M29.0594 3.77191C28.5281 4.09066 27.9969 4.46254 27.4125 4.94066C27.4656 4.72816 27.5188 4.56879 27.5719 4.40941L27.8906 3.40004L28.9531 3.71879C28.9531 3.77191 29.0063 3.77191 29.0594 3.77191ZM14.3969 3.13441C15.3531 2.17816 16.6281 1.64691 18.0094 1.64691C19.3906 1.64691 20.6656 2.17816 21.6219 3.13441C22.5781 4.09066 23.1094 5.36566 23.1094 6.74691C23.1094 8.12816 22.5781 9.40316 21.6219 10.3594C20.6656 11.3157 19.3906 11.8469 18.0094 11.8469C16.6281 11.8469 15.3531 11.3157 14.3969 10.3594C12.75 8.71254 12.4844 6.26879 13.5469 4.30316L14.2906 4.62191C14.5562 4.72816 14.875 4.62191 14.9813 4.30316C15.0875 4.03754 14.9813 3.71879 14.6625 3.61254L14.1313 3.40004L14.3969 3.13441ZM9.03125 30.9188L8.7125 31.2375C6.74687 33.2032 3.50625 33.2032 1.4875 31.2375C0.53125 30.2813 0 29.0063 0 27.625C0 26.2438 0.53125 24.9688 1.4875 24.0125L1.75312 23.7469C1.96562 23.5344 2.44375 23.1094 2.81563 22.7375C2.975 22.5782 3.29375 22.525 3.50625 22.6844C4.56875 23.4813 5.79062 23.9594 7.11875 23.9594C7.54375 23.9594 7.96875 23.9063 8.39375 23.8C8.76563 23.6938 9.1375 24.0125 9.08438 24.4375C8.7125 26.0844 9.08438 27.8375 10.0938 29.2719C10.2531 29.4844 10.2531 29.8032 10.0406 30.0157C9.72187 30.2813 9.24375 30.7063 9.03125 30.9188ZM18.9656 28.9532L18.8063 29.2719C17.85 30.2282 16.575 30.9188 15.1938 30.9188C13.8125 30.9188 12.5375 30.2282 11.5812 29.2719C9.61562 27.3063 9.61562 23.9594 11.5812 21.9938L11.7406 21.8344C11.8469 21.7813 11.9 21.6219 11.9 21.5688V21.3032C11.9 21.25 11.9 21.1969 11.8469 21.1438C11.8469 21.1438 11.8469 21.0907 11.7938 21.0907C11.7938 21.0907 11.7938 21.0375 11.7406 21.0375C11.7406 21.0375 11.6875 21.0375 11.6875 20.9844L11.6344 20.9313C11.6344 20.9313 11.5812 20.9313 11.5812 20.8782L11.5281 20.825C11.475 20.825 11.4219 20.7719 11.3687 20.7719H11.1031C10.9969 20.825 10.9437 20.825 10.8375 20.9313C10.7844 20.9844 10.7844 21.0907 10.7313 21.1438C9.775 22.1 8.5 22.7375 7.11875 22.7375C5.7375 22.7375 4.4625 22.1 3.50625 21.1438C1.59375 19.2844 1.59375 15.9907 3.55937 13.9719L4.83438 12.6438V12.5907C6.00313 13.5469 7.38438 14.025 8.81875 14.025C9.24375 14.025 9.66875 13.9719 10.0938 13.8657C10.4656 13.7594 10.7844 14.1313 10.7313 14.5032C10.3063 16.4688 10.8906 18.5938 12.4312 20.1344C13.6531 21.3563 15.2469 21.9407 16.7875 21.9407C17.2125 21.9407 17.6375 21.8875 18.0625 21.7813C18.4344 21.675 18.7531 22.0469 18.7 22.4188C18.3281 24.1188 18.7 25.8719 19.7094 27.3063C19.8687 27.5188 19.8688 27.8375 19.6562 27.9969C19.4437 28.475 19.125 28.7938 18.9656 28.9532ZM29.4313 21.675C30.4938 23.9063 29.8031 26.6688 27.6781 28.1032C25.7125 29.4313 22.95 29.1657 21.25 27.4657C19.3375 25.6063 19.2313 22.6313 20.9313 20.5594C21.0906 20.3469 21.0906 20.0813 20.9313 19.8688V19.8157L20.8781 19.7625C20.825 19.7625 20.825 19.7094 20.7719 19.7094C20.7187 19.7094 20.7188 19.7094 20.6656 19.6563H20.3469C20.2937 19.6563 20.2937 19.7094 20.2406 19.7094C20.2406 19.7094 20.1875 19.7094 20.1875 19.7625C18.1688 21.4625 15.1938 21.3032 13.3344 19.4438C11.475 17.5844 11.3156 14.6094 13.0156 12.5907C13.175 12.3782 13.175 12.1125 13.0156 11.9V11.8469C13.0156 11.7938 13.0156 11.8469 12.9625 11.8469C12.75 11.6875 12.4844 11.6344 12.2719 11.8469C10.2 13.5469 7.225 13.3875 5.36563 11.475C3.66563 9.77504 3.45312 7.01254 4.78125 5.04691C6.21563 2.92191 8.97813 2.23129 11.2094 3.29379L12.1125 3.66566C12.3781 3.77191 12.5375 4.09066 12.4312 4.35629C11.5281 6.58754 11.9531 9.29691 13.7594 11.1032C14.9281 12.2719 16.4687 12.9094 18.1156 12.9094C18.5406 12.9094 19.0187 12.8563 19.4437 12.75C19.8156 12.6438 20.1344 13.0157 20.0812 13.3875C19.975 13.8125 19.9219 14.2375 19.9219 14.7157C19.9219 16.3625 20.5594 17.9032 21.7281 19.0719C22.95 20.2938 24.4906 20.8782 26.0844 20.8782C26.8812 20.8782 27.6781 20.7188 28.4219 20.4C28.6875 20.2938 29.0062 20.4532 29.1125 20.6657L29.4313 21.675ZM29.5906 18.3282L29.2719 18.6469L28.9 17.85C28.7938 17.5844 28.475 17.4782 28.2094 17.5844C27.9437 17.6907 27.8375 18.0094 27.9437 18.275L28.3688 19.2313C26.2969 20.2938 23.6406 19.8688 22.0469 17.9032C20.5594 16.0969 20.5594 13.4407 21.9938 11.5813C23.0563 10.2 24.7031 9.50941 26.35 9.61566C26.6156 9.61566 26.8281 9.82816 26.8812 10.0938C26.9875 10.9969 27.2 11.9 27.5719 12.8032C28.2625 14.2907 29.325 15.4063 30.4406 16.3094C30.6531 16.4688 30.7062 16.7344 30.6 17C30.2812 17.4782 29.9625 17.9563 29.5906 18.3282ZM33.7344 16.2032C33.7875 16.6282 33.3094 16.9469 32.9375 16.7344C31.45 15.9375 29.4844 14.5563 28.5281 12.4313C27.3594 9.88129 27.9969 6.85316 28.475 5.31254C28.5812 4.99379 28.9 4.83441 29.1656 4.94066C30.6 5.47191 33.2562 6.85316 33.7875 9.50941C34.1594 11.475 34.0531 12.5907 33.8937 13.6532C33.7344 14.3969 33.6281 15.1938 33.7344 16.2032Z" fill="#274D60" fill-opacity="0.3"/>
</g>
<defs>
<clipPath id="clip0_2822_27">
<rect width="34" height="34" fill="white"/>
</clipPath>
</defs>
</svg>
