<svg width="34" height="34" viewBox="0 0 34 34" fill="none" xmlns="http://www.w3.org/2000/svg">
<g clip-path="url(#clip0_2822_32)">
<path d="M21.6517 18.0761C21.3162 18.2056 19.155 18.957 17.3622 17.1641C16.9453 16.7491 15.7864 16.1477 14.6942 17.0013L14.591 17.4141C14.0251 19.6775 15.7359 21.8698 18.0699 21.8698C20.1362 21.8698 21.7755 20.1264 21.6517 18.0761ZM18.7784 15.7625C19.6848 16.6646 20.798 16.3233 21.2162 16.0808L20.4938 13.191H15.6467L15.2858 14.6347C16.9505 14.3653 18.19 15.1598 18.7784 15.7625Z" fill="#274D60" fill-opacity="0.3"/>
<path d="M33.01 2.12793H27.6036V0.989977C27.5545 -0.330491 25.6596 -0.329494 25.611 0.989977V2.12793H10.5295V0.989977C10.4805 -0.330491 8.58553 -0.329494 8.53698 0.989977V2.12793H1.99256V0.989977C1.94354 -0.330491 0.048552 -0.329494 0 0.989977V33.0037C0.0490169 34.3242 1.94401 34.3232 1.99256 33.0037V4.12048H8.53698V7.39273C8.53698 9.19991 7.07198 10.665 5.26473 10.665C4.71452 10.665 4.26846 11.111 4.26846 11.6613V28.7353C4.26846 29.2855 4.71452 29.7316 5.26473 29.7316C7.07192 29.7316 8.53698 31.1965 8.53698 33.0038C8.53698 33.554 8.98305 34.0001 9.53326 34.0001H26.6073C27.1575 34.0001 27.6036 33.554 27.6036 33.0038C27.6036 31.1966 29.0686 29.7316 30.8758 29.7316C31.426 29.7316 31.8721 29.2855 31.8721 28.7353V11.6612C31.8721 11.111 31.426 10.6649 30.8758 10.6649C29.0686 10.6649 27.6036 9.19991 27.6036 7.39266V4.12048H33.01C34.3305 4.07147 34.3295 2.17648 33.01 2.12793ZM21.2717 27.2054C22.5921 27.2544 22.5911 29.1494 21.2717 29.1979H14.8689C13.5485 29.1489 13.5495 27.2539 14.8689 27.2054H17.074V23.7745C13.9705 23.22 11.8602 20.1221 12.6579 16.9308L13.9023 11.9532C13.9562 11.7376 14.0806 11.5463 14.2557 11.4095C14.4309 11.2728 14.6467 11.1985 14.8689 11.1985H21.2716C21.4938 11.1985 21.7096 11.2728 21.8847 11.4095C22.0599 11.5463 22.1842 11.7376 22.2381 11.9532L23.4826 16.9308C24.2804 20.1221 22.17 23.2199 19.0665 23.7745V27.2054H21.2717ZM25.611 6.39645H10.5295V4.12048H25.611V6.39645Z" fill="#274D60" fill-opacity="0.3"/>
</g>
<defs>
<clipPath id="clip0_2822_32">
<rect width="34" height="34" fill="white"/>
</clipPath>
</defs>
</svg>
