<svg width="30" height="25" viewBox="0 0 30 25" fill="none" xmlns="http://www.w3.org/2000/svg">
<path d="M24.6511 24.6277C24.5102 24.6277 24.375 24.5717 24.2754 24.4721C24.1758 24.3724 24.1198 24.2373 24.1198 24.0964V7.28766C24.1198 7.14676 24.1758 7.01164 24.2754 6.91201C24.375 6.81238 24.5102 6.75641 24.6511 6.75641C24.792 6.75641 24.9271 6.81238 25.0267 6.91201C25.1263 7.01164 25.1823 7.14676 25.1823 7.28766V24.0964C25.1823 24.2373 25.1263 24.3724 25.0267 24.4721C24.9271 24.5717 24.792 24.6277 24.6511 24.6277Z" fill="#274D60" fill-opacity="0.3"/>
<path d="M29.2188 7.81891H20.0839C19.943 7.81891 19.8079 7.76294 19.7083 7.66331C19.6086 7.56368 19.5527 7.42855 19.5527 7.28766C19.5527 7.14676 19.6086 7.01164 19.7083 6.91201C19.8079 6.81238 19.943 6.75641 20.0839 6.75641H29.2188C29.3596 6.75641 29.4948 6.81238 29.5944 6.91201C29.694 7.01164 29.75 7.14676 29.75 7.28766C29.75 7.42855 29.694 7.56368 29.5944 7.66331C29.4948 7.76294 29.3596 7.81891 29.2188 7.81891ZM25.8639 24.6277H23.4388C23.2979 24.6277 23.1627 24.5717 23.0631 24.4721C22.9635 24.3724 22.9075 24.2373 22.9075 24.0964C22.9075 23.9555 22.9635 23.8204 23.0631 23.7208C23.1627 23.6211 23.2979 23.5652 23.4388 23.5652H25.8639C26.0048 23.5652 26.1399 23.6211 26.2396 23.7208C26.3392 23.8204 26.3952 23.9555 26.3952 24.0964C26.3952 24.2373 26.3392 24.3724 26.2396 24.4721C26.1399 24.5717 26.0048 24.6277 25.8639 24.6277Z" fill="#274D60" fill-opacity="0.3"/>
<path d="M23.0398 7.81896C22.8989 7.81896 22.7638 7.76299 22.6641 7.66336C22.5645 7.56373 22.5085 7.42861 22.5085 7.28771V4.78552C22.5085 4.64463 22.5645 4.5095 22.6641 4.40987C22.7638 4.31024 22.8989 4.25427 23.0398 4.25427C23.1807 4.25427 23.3158 4.31024 23.4154 4.40987C23.5151 4.5095 23.571 4.64463 23.571 4.78552V7.28771C23.571 7.42861 23.5151 7.56373 23.4154 7.66336C23.3158 7.76299 23.1807 7.81896 23.0398 7.81896Z" fill="#274D60" fill-opacity="0.3"/>
<path d="M25.6031 1.95341C25.5598 1.86318 25.4919 1.78703 25.4072 1.73373C25.3225 1.68043 25.2245 1.65216 25.1244 1.65219H20.9562C20.8562 1.65225 20.7582 1.68057 20.6735 1.73388C20.5888 1.7872 20.5209 1.86334 20.4776 1.95355C20.4343 2.04375 20.4174 2.14435 20.4287 2.24377C20.4401 2.34318 20.4793 2.43736 20.5418 2.51547L22.6259 5.11647C22.6757 5.1786 22.7387 5.22876 22.8104 5.26323C22.8822 5.2977 22.9607 5.31559 23.0403 5.31559C23.1199 5.31559 23.1985 5.2977 23.2702 5.26323C23.3419 5.22876 23.405 5.1786 23.4547 5.11647L25.5388 2.51547C25.6014 2.43735 25.6406 2.34315 25.652 2.24371C25.6633 2.14426 25.6464 2.04363 25.6031 1.95341ZM19.04 9.23844H18.5088L17.6588 3.64969C17.2816 1.53531 15.6612 0 13.8019 0H6.545C4.68562 0 3.06531 1.53531 2.68813 3.66031L1.83813 9.23844H1.30688C0.584375 9.23844 0 9.82813 0 10.5453V12.4153C0 13.1378 0.584375 13.7222 1.30688 13.7222C1.445 13.7222 1.55125 13.8284 1.55125 13.9666V19.5766C1.55125 20.2991 2.14094 20.8887 2.86344 20.8887H17.4887C18.2112 20.8887 18.7956 20.2991 18.7956 19.5766V13.9666C18.7956 13.8284 18.9019 13.7222 19.04 13.7222C19.7625 13.7222 20.3469 13.1378 20.3469 12.4153V10.5453C20.3469 9.82813 19.7625 9.23844 19.04 9.23844ZM16.3572 10.3009C15.8472 10.3009 15.4328 10.7153 15.4328 11.2253V17.8075C15.4328 18.105 15.1937 18.3388 14.9016 18.3388C14.6041 18.3388 14.3703 18.105 14.3703 17.8075V12.9944C11.5812 11.9691 8.76562 11.9691 5.97656 12.9944V17.8075C5.97656 18.105 5.74281 18.3388 5.44531 18.3388C5.15312 18.3388 4.91406 18.105 4.91406 17.8075V11.2253C4.91406 10.7153 4.49969 10.3009 3.98969 10.3009C3.6975 10.3009 3.45844 10.0619 3.45844 9.76969C3.45844 9.4775 3.6975 9.23844 3.98969 9.23844C4.51664 9.23844 5.02201 9.44777 5.39462 9.82038C5.76723 10.193 5.97656 10.6984 5.97656 11.2253V11.8681C8.76562 10.9278 11.5812 10.9278 14.3703 11.8681V11.2253C14.3703 10.6984 14.5796 10.193 14.9523 9.82038C15.3249 9.44777 15.8302 9.23844 16.3572 9.23844C16.6494 9.23844 16.8884 9.4775 16.8884 9.76969C16.8884 10.0619 16.6494 10.3009 16.3572 10.3009ZM3.52856 24.6277C3.38767 24.6277 3.25254 24.5717 3.15291 24.4721C3.05328 24.3725 2.99731 24.2373 2.99731 24.0964V22.2716C2.99731 22.1307 3.05328 21.9956 3.15291 21.8959C3.25254 21.7963 3.38767 21.7403 3.52856 21.7403C3.66946 21.7403 3.80458 21.7963 3.90421 21.8959C4.00384 21.9956 4.05981 22.1307 4.05981 22.2716V24.0964C4.05981 24.2373 4.00384 24.3725 3.90421 24.4721C3.80458 24.5717 3.66946 24.6277 3.52856 24.6277ZM16.821 24.6277C16.6801 24.6277 16.5449 24.5717 16.4453 24.4721C16.3457 24.3725 16.2897 24.2373 16.2897 24.0964V22.2716C16.2897 22.1307 16.3457 21.9956 16.4453 21.8959C16.5449 21.7963 16.6801 21.7403 16.821 21.7403C16.9619 21.7403 17.097 21.7963 17.1966 21.8959C17.2962 21.9956 17.3522 22.1307 17.3522 22.2716V24.0964C17.3522 24.2373 17.2962 24.3725 17.1966 24.4721C17.097 24.5717 16.9619 24.6277 16.821 24.6277Z" fill="#274D60" fill-opacity="0.3"/>
<path d="M29.2188 24.6277H0.531784C0.390888 24.6277 0.255762 24.5717 0.156134 24.4721C0.056505 24.3725 0.000534058 24.2373 0.000534058 24.0964C0.000534058 23.9555 0.056505 23.8204 0.156134 23.7208C0.255762 23.6212 0.390888 23.5652 0.531784 23.5652H29.2188C29.3596 23.5652 29.4948 23.6212 29.5944 23.7208C29.694 23.8204 29.75 23.9555 29.75 24.0964C29.75 24.2373 29.694 24.3725 29.5944 24.4721C29.4948 24.5717 29.3596 24.6277 29.2188 24.6277Z" fill="#274D60" fill-opacity="0.3"/>
</svg>
