<svg width="31" height="30" viewBox="0 0 31 30" fill="none" xmlns="http://www.w3.org/2000/svg">
<path d="M29.7394 6.5875H24.3313L20.8835 4.28188C20.6934 4.15559 20.4726 4.08306 20.2447 4.07199C20.0167 4.06091 19.79 4.11169 19.5885 4.21895C19.3871 4.32622 19.2184 4.48596 19.1003 4.68128C18.9822 4.8766 18.9192 5.10021 18.9178 5.32844V5.76938L10.5135 4.90875C9.1694 4.71219 7.94221 5.70563 7.8519 7.06563L7.50659 12.3781C7.4269 13.6638 8.4469 14.7528 9.73252 14.7528H12.5641C12.9466 14.7528 13.2972 14.9812 13.4513 15.3372L13.8444 16.2297L7.88909 16.915C7.65002 16.9416 7.47471 17.0903 7.3844 17.2709C7.67659 17.4834 7.93159 17.7066 8.1494 17.9084C8.71252 18.4237 9.0844 18.7637 9.90784 18.7637C10.7313 18.7637 11.1031 18.4237 11.6663 17.9084C12.2188 17.4037 12.9413 16.7503 14.1472 16.5537C14.211 16.5431 14.2747 16.5325 14.3385 16.5272C14.5031 16.5059 14.6785 16.4953 14.8591 16.4953C15.0663 16.4953 15.2575 16.5059 15.4435 16.5325H15.4488C15.6241 16.5537 15.7941 16.5909 15.9535 16.6281C16.0225 16.6441 16.0863 16.6706 16.15 16.6919C16.235 16.7184 16.32 16.745 16.3997 16.7769C16.49 16.8141 16.575 16.8566 16.66 16.8991C17.255 17.1913 17.6907 17.5791 18.0519 17.9138C18.615 18.4291 18.9869 18.7691 19.8103 18.7691C20.2035 18.7691 20.4903 18.6894 20.7453 18.5566L21.8131 16.3306C22.0363 15.8684 21.6591 15.3372 21.1491 15.3956L16.6494 15.9109L15.3053 12.2294C15.2115 11.9785 15.0521 11.7575 14.8437 11.5893C14.6353 11.4211 14.3856 11.3119 14.1206 11.2731L13.09 11.1297C12.6438 11.0659 12.3091 10.6781 12.3144 10.2213L12.3356 8.66469C12.341 8.21313 12.7394 7.87313 13.1803 7.93688L18.9072 8.42031V8.90906C18.9072 9.37656 19.1622 9.80156 19.5766 10.0194C19.7625 10.1203 19.9697 10.1681 20.1716 10.1681C20.416 10.1681 20.6603 10.0938 20.8728 9.95563L24.3206 7.65H29.7288C30.021 7.65 30.26 7.41094 30.26 7.11875C30.26 6.82656 30.021 6.5875 29.7288 6.5875H29.7394ZM20.2938 9.06844C20.2088 9.12688 20.1291 9.10031 20.0919 9.07906C20.0547 9.05781 19.9857 9.01 19.9857 8.90375V8.30875C20.3628 8.1175 20.6391 7.75094 20.6975 7.30469C20.7666 6.74156 20.4691 6.21563 19.9857 5.97125V5.32844C19.9857 5.22219 20.0494 5.17438 20.0919 5.15313C20.1132 5.1425 20.145 5.12656 20.1875 5.12656C20.2275 5.12822 20.2661 5.14111 20.2991 5.16375L23.221 7.11875L20.2991 9.07375L20.2938 9.06844Z" fill="#274D60" fill-opacity="0.3"/>
<path d="M11.289 4.9725C12.6622 4.9725 13.7753 3.85937 13.7753 2.48625C13.7753 1.11313 12.6622 0 11.289 0C9.91593 0 8.8028 1.11313 8.8028 2.48625C8.8028 3.85937 9.91593 4.9725 11.289 4.9725Z" fill="#274D60" fill-opacity="0.3"/>
<path d="M19.8262 19.8316C17.3506 19.8316 17.3506 17.5578 14.8697 17.5578C12.3887 17.5578 12.3941 19.8316 9.91312 19.8316C7.43219 19.8316 7.4375 17.5578 4.95656 17.5578C2.47562 17.5578 2.48094 19.8316 0 19.8316V24.8784C0.823437 24.8784 1.19531 24.5384 1.75844 24.0231C2.41187 23.4281 3.30438 22.6047 4.95656 22.6047C6.60875 22.6047 7.50125 23.4228 8.15469 24.0231C8.71781 24.5384 9.08969 24.8784 9.91312 24.8784C10.7366 24.8784 11.1084 24.5384 11.6716 24.0231C12.325 23.4281 13.2175 22.6047 14.8697 22.6047C16.5219 22.6047 17.4144 23.4228 18.0678 24.0231C18.6309 24.5384 19.0028 24.8784 19.8262 24.8784C20.6497 24.8784 21.0216 24.5384 21.5847 24.0231C22.2381 23.4281 23.1306 22.61 24.7828 22.61C26.435 22.61 27.3275 23.4281 27.9809 24.0231C28.5441 24.5384 28.9159 24.8784 29.7394 24.8784V19.8316C27.2638 19.8316 27.2584 17.5578 24.7828 17.5578C22.3072 17.5578 22.3019 19.8316 19.8262 19.8316Z" fill="#274D60" fill-opacity="0.3"/>
<path d="M19.8262 25.9409C17.3506 25.9409 17.3506 23.6672 14.8697 23.6672C12.3887 23.6672 12.3941 25.9409 9.91312 25.9409C7.43219 25.9409 7.4375 23.6672 4.95656 23.6672C2.47562 23.6672 2.48094 25.9409 0 25.9409V29.75H29.7394V25.9409C27.2638 25.9409 27.2584 23.6672 24.7828 23.6672C22.3072 23.6672 22.3019 25.9409 19.8262 25.9409Z" fill="#274D60" fill-opacity="0.3"/>
</svg>
