<svg xmlns="http://www.w3.org/2000/svg" version="1.1" xmlns:xlink="http://www.w3.org/1999/xlink" width="1000" height="1000"><g clip-path="url(#SvgjsClipPath1385)"><rect width="1000" height="1000" fill="#00577a"></rect><g transform="matrix(4.061974119422039,0,0,4.061974119422039,222.79057622004296,150)"><svg xmlns="http://www.w3.org/2000/svg" version="1.1" xmlns:xlink="http://www.w3.org/1999/xlink" width="136.49" height="172.33"><svg xmlns="http://www.w3.org/2000/svg" version="1.1" viewBox="0 0 136.49 172.33">
  <defs>
    <style>
      .cls-1 {
        fill: #fff;
      }
    </style>
  <clipPath id="SvgjsClipPath1385"><rect width="1000" height="1000" x="0" y="0" rx="100" ry="100"></rect></clipPath></defs>
  <!-- Generator: Adobe Illustrator 28.6.0, SVG Export Plug-In . SVG Version: 1.2.0 Build 709)  -->
  <g>
    <g id="_Слой_1" data-name="Слой_1">
      <g>
        <polygon class="cls-1" points="13.5 158.07 13.5 0 0 0 0 172.33 136.49 172.33 136.49 158.07 13.5 158.07"></polygon>
        <path class="cls-1" d="M29.58,0v143.6h106.91V0H29.58ZM86.12,14.05c.51-.13,1.03-.23,1.55-.32,1.25-.2,2.5-.37,3.75-.58.16-.03.33-.2.42-.36.32-.57.62-1.15.91-1.73.42-.83.82-1.67,1.23-2.51.04-.09.09-.18.14-.27.25-.43.53-.46.77-.04.39.66.74,1.34,1.09,2.03.42.83.83,1.66,1.23,2.5.1.2.23.29.43.32,1.04.17,2.08.33,3.12.51.64.11,1.28.22,1.92.33.11.02.23.06.33.1.2.08.25.21.12.38-.18.24-.37.48-.58.69-1.07,1.09-2.15,2.17-3.23,3.25-.14.14-.17.27-.13.45.27,1.63.53,3.26.8,4.89.01.08.01.15.02.23,0,0,0,0,0,0,0,.03,0,.06,0,.09.01.29-.17.45-.44.33-.52-.23-1.05-.47-1.56-.73-1.08-.55-2.16-1.12-3.24-1.69-.16-.08-.27-.08-.43,0-1.43.73-2.86,1.46-4.29,2.19-.17.09-.35.16-.53.23-.28.11-.47-.03-.44-.33.06-.54.12-1.08.21-1.61.2-1.22.41-2.45.63-3.67.03-.15-.02-.24-.12-.35-1.1-1.11-2.2-2.22-3.29-3.33-.19-.2-.37-.42-.54-.64-.15-.2-.11-.34.14-.4ZM63.34,14.05c.51-.13,1.03-.23,1.55-.32,1.25-.2,2.5-.37,3.75-.58.16-.03.33-.2.42-.36.32-.57.62-1.15.91-1.73.42-.83.82-1.67,1.23-2.51.04-.09.09-.18.14-.27.25-.43.53-.46.78-.04.39.66.74,1.34,1.09,2.03.42.83.83,1.66,1.23,2.5.1.2.23.29.43.32,1.04.17,2.08.33,3.12.51.64.11,1.28.22,1.92.33.11.02.23.06.33.1.2.08.25.21.12.38-.18.24-.37.48-.58.69-1.07,1.09-2.15,2.17-3.23,3.25-.14.14-.17.27-.13.45.27,1.63.53,3.26.8,4.89.01.08.01.15.02.23,0,0,0,0,0,0,0,.03,0,.06,0,.09.01.29-.17.45-.44.33-.52-.23-1.05-.47-1.56-.73-1.08-.55-2.16-1.12-3.24-1.69-.16-.08-.27-.08-.43,0-1.43.73-2.86,1.46-4.29,2.19-.17.09-.35.16-.53.23-.28.11-.47-.03-.44-.33.06-.54.12-1.08.21-1.61.2-1.22.41-2.45.63-3.67.03-.15-.02-.24-.12-.35-1.1-1.11-2.2-2.22-3.29-3.33-.19-.2-.37-.42-.54-.64-.15-.2-.11-.34.14-.4ZM40.43,14.45c-.15-.2-.11-.34.14-.4.51-.13,1.03-.23,1.55-.32,1.25-.2,2.5-.37,3.75-.58.16-.03.33-.2.42-.36.32-.57.62-1.15.91-1.73.42-.83.82-1.67,1.23-2.51.04-.09.09-.18.14-.27.25-.43.53-.46.78-.04.39.66.74,1.34,1.09,2.03.42.83.83,1.66,1.23,2.5.1.2.23.29.43.32,1.04.17,2.08.33,3.12.51.64.11,1.28.22,1.92.33.11.02.23.06.33.1.2.08.25.21.12.38-.18.24-.37.48-.58.69-1.07,1.09-2.15,2.17-3.23,3.25-.14.14-.17.27-.13.45.27,1.63.53,3.26.8,4.89.01.08.01.15.02.23,0,0,0,0,0,0,0,.03,0,.06,0,.09.01.29-.17.45-.44.33-.52-.23-1.05-.47-1.56-.73-1.08-.55-2.16-1.12-3.24-1.69-.16-.08-.27-.08-.43,0-1.43.73-2.86,1.46-4.29,2.19-.17.09-.35.16-.53.23-.28.11-.47-.03-.44-.33.06-.54.12-1.08.21-1.61.2-1.22.41-2.45.63-3.67.03-.15-.02-.24-.12-.35-1.1-1.11-2.2-2.22-3.29-3.33-.19-.2-.37-.42-.54-.64ZM123.29,131.46h-15.78v-47.25h-48.96v47.25h-15.78V37.92h15.78v36.88h48.96v-36.88h15.78v93.54ZM125.92,14.44c-.18.24-.37.48-.58.69-1.07,1.09-2.15,2.17-3.23,3.25-.14.14-.17.27-.13.45.27,1.63.53,3.26.8,4.89.01.08.01.15.02.23,0,0,0,0,0,0,0,.03,0,.06,0,.09.01.29-.17.45-.44.33-.52-.23-1.05-.47-1.56-.73-1.08-.55-2.16-1.12-3.24-1.69-.16-.08-.27-.08-.43,0-1.43.73-2.86,1.46-4.29,2.19-.17.09-.35.16-.53.23-.28.11-.47-.03-.44-.33.06-.54.12-1.08.21-1.61.2-1.22.41-2.45.63-3.67.03-.15-.02-.24-.12-.35-1.1-1.11-2.2-2.22-3.29-3.33-.19-.2-.37-.42-.54-.64-.15-.2-.11-.34.14-.4.51-.13,1.03-.23,1.55-.32,1.25-.2,2.5-.37,3.75-.58.16-.03.33-.2.42-.36.32-.57.62-1.15.91-1.73.42-.83.82-1.67,1.23-2.51.04-.09.09-.18.14-.27.25-.43.53-.46.77-.04.39.66.74,1.34,1.09,2.03.42.83.83,1.66,1.23,2.5.1.2.23.29.43.32,1.04.17,2.08.33,3.12.51.64.11,1.28.22,1.92.33.11.02.23.06.33.1.2.08.25.21.12.38Z"></path>
      </g>
    </g>
  </g>
</svg></svg></g></g></svg>